<svg width="155" height="64" viewBox="0 0 155 64" fill="none" xmlns="http://www.w3.org/2000/svg"><path d="M36.74 10.765h10.646V.12H36.739v10.646z" fill="#631E76"/><path d="M37.102 58.84h10.654V48.184H37.102V58.84z" fill="#E42110"/><path d="M37.102 46.817h10.654V36.17H37.102v10.647zm-.149-12.015H47.6V24.156H36.953v10.646z" fill="#000"/><path d="M36.953 22.787H47.6V12.134H36.953v10.653z" fill="#FBB149"/><path d="M24.71 10.765h10.647V.12H24.71v10.646z" fill="#000"/><path d="M25.067 58.84H35.72V48.184H25.067V58.84z" fill="#FDEE3A"/><path d="M25.067 46.817H35.72V36.17H25.067v10.647z" fill="#E42110"/><path d="M24.917 34.802H35.57V24.156H24.917v10.646z" fill="#000"/><path d="M24.917 22.787H35.57V12.134H24.917v10.653z" fill="#E9438C"/><path d="M13.045 46.817H23.69V36.17H13.045v10.647z" fill="#000"/><path d="M12.895 34.802H23.54V24.156H12.895v10.646z" fill="#0097E2"/><path d="M12.895 22.787H23.54V12.134H12.895v10.653z" fill="#FDEE3A"/><path d="M1.008 58.84h10.647V48.184H1.008V58.84z" fill="#000"/><path d="M.858 34.802h10.647V24.156H.858v10.646z" fill="#8CBB33"/><path d="M71.687 12.369V1.622h-.043l-.228.456-.235.435a4.837 4.837 0 0 1-.257.463l-6.079 9.393H63.47V.233h1.211v10.589h.043l.228-.449.235-.441a4.69 4.69 0 0 1 .285-.464L71.41.233h1.468v12.114l-1.19.022zm12.071 0V6.668h-5.936v5.7h-1.325V.234h1.325v5.401h5.972V.233h1.326v12.114l-1.362.022zm8.759-11.01v11.01h-1.311V1.359h-3.642V.233h8.594v1.126h-3.641zm15.129 3.67v.356c.006.121.006.242 0 .363L99.109 7.01a4.86 4.86 0 0 0 1.311 3.363 4.265 4.265 0 0 0 3.107 1.112 7.71 7.71 0 0 0 1.81-.207 5.755 5.755 0 0 0 1.475-.556l.449 1.034a5.749 5.749 0 0 1-1.618.598 9.566 9.566 0 0 1-2.138.236 5.425 5.425 0 0 1-4.133-1.597c-1.012-1.069-1.518-2.636-1.518-4.703a8.55 8.55 0 0 1 .364-2.558c.196-.718.53-1.391.983-1.981a4.67 4.67 0 0 1 1.604-1.283 4.859 4.859 0 0 1 2.138-.463 4.553 4.553 0 0 1 3.399 1.304 5.084 5.084 0 0 1 1.304 3.72zm-1.283-.093a4.145 4.145 0 0 0-.948-2.929 3.268 3.268 0 0 0-2.451-.94 3.562 3.562 0 0 0-1.625.363c-.48.23-.897.573-1.218.998a4.98 4.98 0 0 0-.791 1.567 7.353 7.353 0 0 0-.3 2.017l7.333-1.076zm13.668 1.19a8.654 8.654 0 0 1-.37 2.573 5.734 5.734 0 0 1-1.098 1.995 5.051 5.051 0 0 1-1.753 1.325c-.75.335-1.565.5-2.387.485a7.516 7.516 0 0 1-1.361-.114 5.39 5.39 0 0 1-1.005-.25v5.046h-1.325V.796a6.663 6.663 0 0 1 1.574-.578 8.436 8.436 0 0 1 2.074-.213 6.16 6.16 0 0 1 2.395.441 4.767 4.767 0 0 1 1.767 1.248 5.516 5.516 0 0 1 1.105 1.938 7.65 7.65 0 0 1 .384 2.494zm-1.332 0a7.065 7.065 0 0 0-.257-2.045 4.683 4.683 0 0 0-.834-1.59 3.767 3.767 0 0 0-1.354-1.026 4.463 4.463 0 0 0-1.831-.356 6.587 6.587 0 0 0-1.361.136 3.317 3.317 0 0 0-.984.313v9.507a8.344 8.344 0 0 0 2.295.356 4.125 4.125 0 0 0 1.874-.406 3.97 3.97 0 0 0 1.361-1.112 5.154 5.154 0 0 0 .834-1.682 7.52 7.52 0 0 0 .257-2.095zm11.687 6.243V6.668h-5.965v5.7h-1.332V.234h1.332v5.401h5.965V.233h1.332v12.114l-1.332.022zm14.231-7.34v.356c.006.121.006.242 0 .363L136.08 7.01a4.858 4.858 0 0 0 1.311 3.363 4.313 4.313 0 0 0 3.143 1.112 7.71 7.71 0 0 0 1.81-.207 5.755 5.755 0 0 0 1.475-.556l.449 1.034a5.7 5.7 0 0 1-1.618.598 9.55 9.55 0 0 1-2.138.236 5.405 5.405 0 0 1-4.133-1.597c-1.012-1.069-1.525-2.636-1.525-4.703a8.557 8.557 0 0 1 .363-2.558 6.016 6.016 0 0 1 1.027-1.981 4.621 4.621 0 0 1 1.61-1.283 4.811 4.811 0 0 1 2.138-.463 4.555 4.555 0 0 1 3.399 1.304 5.088 5.088 0 0 1 1.226 3.72zm-1.283-.093a4.105 4.105 0 0 0-.948-2.929 3.268 3.268 0 0 0-2.451-.94 3.565 3.565 0 0 0-1.611.363 3.468 3.468 0 0 0-1.218.998 4.835 4.835 0 0 0-.784 1.567 7.07 7.07 0 0 0-.306 2.017l7.318-1.076zm8.017-3.577v11.01h-1.304V1.359h-3.648V.233H155v1.126h-3.649zM72.898 36.406l-2.444-4.333h-.057l-2.445 4.354h-4.874l4.718-7.205-4.326-6.705h4.789l2.138 4.019h.057l2.138-4.02h4.767l-4.276 6.706 4.697 7.184h-4.882z" fill="#000200"/><path d="M90.115 29.45a9.208 9.208 0 0 1-.442 2.85 6.756 6.756 0 0 1-1.261 2.31 5.845 5.845 0 0 1-2.038 1.553 7.19 7.19 0 0 1-5.544 0 5.78 5.78 0 0 1-2.046-1.517 6.65 6.65 0 0 1-1.268-2.31 9.207 9.207 0 0 1-.435-2.85 9.085 9.085 0 0 1 .435-2.85 6.649 6.649 0 0 1 1.268-2.295 5.78 5.78 0 0 1 2.045-1.518 7.191 7.191 0 0 1 5.545 0c.785.35 1.483.868 2.045 1.518a6.748 6.748 0 0 1 1.261 2.294c.292.91.44 1.86.435 2.815zm-4.276-.05c0-2.593-.755-3.89-2.266-3.89-1.51 0-2.273 1.296-2.273 3.89a5.978 5.978 0 0 0 .57 2.922 1.945 1.945 0 0 0 3.4 0 5.9 5.9 0 0 0 .59-2.922h-.02zm15.792 6.364a5.31 5.31 0 0 1-1.582.713 8.543 8.543 0 0 1-2.23.25 6.613 6.613 0 0 1-2.437-.45 5.843 5.843 0 0 1-2.024-1.354 6.513 6.513 0 0 1-1.425-2.273 9.037 9.037 0 0 1-.514-3.193 8.992 8.992 0 0 1 .514-3.185 6.485 6.485 0 0 1 1.425-2.252 5.744 5.744 0 0 1 2.024-1.354 6.615 6.615 0 0 1 2.437-.449 8.234 8.234 0 0 1 2.23.257 6.144 6.144 0 0 1 1.582.712l-1.311 3.015a2.38 2.38 0 0 0-.812-.385 3.913 3.913 0 0 0-1.02-.157 2.23 2.23 0 0 0-1.916.976 4.604 4.604 0 0 0-.713 2.758 4.53 4.53 0 0 0 .748 2.772 2.267 2.267 0 0 0 1.882.998 3.91 3.91 0 0 0 1.019-.128c.294-.075.57-.208.812-.392l1.311 3.121zm8.737-9.948v10.59h-4.276v-10.59h-3.171v-3.3h10.568v3.3h-3.121zm14.302 10.59V28.78a5.828 5.828 0 0 1 0-.62v-.592h-.049l-.236.542c-.085.156-.171.335-.27.541a4.392 4.392 0 0 1-.321.592l-4.226 7.126h-3.976V22.517h3.712v8.608h.057l.257-.563.271-.556c.093-.2.2-.393.32-.577l4.098-6.912h4.112v13.889h-3.749zm13.84 0V30.79h-3.563v5.616h-4.276v-13.89h4.276v5.516h3.563v-5.515h4.226v13.889h-4.226zm11.288-10.611v10.61h-4.276V22.518h8.402v3.278h-4.126zM72.784 62.331h-1.012l-.085-3.27H63.47V46.987h1.318v10.975h5.908V46.988h1.318v10.953l.856.335-.086 4.055zm11.723-10.575v.719l-8.46 1.255a4.832 4.832 0 0 0 1.298 3.349 4.275 4.275 0 0 0 3.085 1.105c.61 0 1.218-.072 1.81-.214.5-.112.98-.297 1.426-.549l.449 1.033a5.7 5.7 0 0 1-1.61.592 9.445 9.445 0 0 1-2.139.235 5.41 5.41 0 0 1-4.119-1.553c-1.007-1.065-1.51-2.625-1.51-4.683a8.38 8.38 0 0 1 .363-2.536 5.824 5.824 0 0 1 1.02-1.974c.43-.539.975-.975 1.595-1.276.668-.315 1.4-.47 2.138-.456a4.497 4.497 0 0 1 3.378 1.297 4.988 4.988 0 0 1 1.276 3.656zm-1.283-.086a4.098 4.098 0 0 0-.94-2.915 3.243 3.243 0 0 0-2.438-.94 3.565 3.565 0 0 0-1.603.349c-.474.24-.887.586-1.205 1.012a4.837 4.837 0 0 0-.79 1.553 7.337 7.337 0 0 0-.3 2.01l7.276-1.069zm11.096 7.39v-5.7h-5.937v5.7h-1.297V46.988h1.319v5.373h5.936v-5.373h1.297V59.06h-1.319zm8.729-10.953V59.06h-1.297V48.107h-3.634v-1.119h8.551v1.12h-3.62zm14.773 4.746c.01.867-.115 1.73-.37 2.558a5.707 5.707 0 0 1-1.084 2.003 5.159 5.159 0 0 1-1.746 1.318 5.58 5.58 0 0 1-2.373.485 8.17 8.17 0 0 1-1.361-.114 6.21 6.21 0 0 1-.997-.242v4.988h-1.319V47.594a6.425 6.425 0 0 1 1.568-.57 8.321 8.321 0 0 1 2.06-.257 6.122 6.122 0 0 1 2.387.435 4.929 4.929 0 0 1 1.76 1.261 5.66 5.66 0 0 1 1.098 1.931c.257.794.384 1.625.377 2.46zm-1.325 0a6.823 6.823 0 0 0-.278-2.038 4.536 4.536 0 0 0-.827-1.575 3.62 3.62 0 0 0-1.34-1.019 4.372 4.372 0 0 0-1.831-.356 7.13 7.13 0 0 0-1.354.128c-.338.06-.667.165-.976.313v9.457a8.328 8.328 0 0 0 2.287.356 4.08 4.08 0 0 0 1.86-.406c.53-.259.994-.637 1.354-1.104a4.947 4.947 0 0 0 .827-1.668 7.296 7.296 0 0 0 .278-2.088z" fill="#000200"/></svg>