<svg data-v-75d12a2c="" viewBox="0 0 876 196" fill="none" xmlns="http://www.w3.org/2000/svg" class="header__logo"><path data-v-75d12a2c="" d="M209.934 20.105h-29.59a2.46 2.46 0 00-2.75 2.202l-19.8 130.293-30.911-117.847c-2.31-8.7-9.35-14.759-19.91-14.759s-17.93 6.058-20.13 14.759L55.273 152.38 35.913 22.858s-.402-2.713-2.712-2.713H2.41c-2.97 0-2.358 3.594-2.358 3.594l28.16 153.863c2.09 11.454 10.34 18.172 24.31 18.172 13.31 0 22.22-5.507 25.19-16.52l28.821-104.08 27.5 104.08c2.97 11.234 11.66 16.741 25.411 16.741 13.75 0 22-6.609 24.53-18.173l28.49-154.633c0-.11.66-3.084-2.53-3.084zm64.399 45.973c-37.62 0-61.38 23.42-61.38 64.738 0 40.986 22.66 64.958 60.72 64.958 37.621 0 61.821-23.972 61.821-65.179s-23.32-64.517-61.161-64.517zm-1.887 105.904c-19.25 0-29.81-14.3-29.81-41.14 0-26.07 9.68-40.81 29.15-40.81 19.25 0 30.03 14.41 30.03 40.81 0 26.62-10.12 41.14-29.37 41.14zM418.864 70.8c-22.99 0-35.64 0-51.59 4.404-10.56 2.973-16.06 8.699-16.06 19.93v98.108a2.514 2.514 0 002.64 2.532c2.64 0 22.66-.11 25.41-.11a2.553 2.553 0 002.75-2.532v-90.841c11-3.083 22-4.184 36.63-4.404a2.719 2.719 0 002.64-2.643V73.332a2.281 2.281 0 00-1.442-2.38 2.283 2.283 0 00-.978-.152zm130.264 121.333l-36.851-80s32.121-35.752 33.221-36.966c1.1-1.214 1.32-4.303-1.76-4.303h-31.351a2.863 2.863 0 00-2.42.993l-42.79 51.531V22.532c0-2.427-2.64-2.538-2.64-2.538h-26.18s-2.31 0-2.31 2.76v170.483a2.46 2.46 0 00.752 1.859 2.45 2.45 0 001.888.678h26.18c2.31 0 2.42-2.648 2.42-2.648v-16.441c-.22-13.683 3.3-19.752 10.23-27.366l10.12-11.145 26.29 55.945a2.602 2.602 0 002.2 1.545h30.801c3.63.221 2.2-3.531 2.2-3.531z" fill="#bfbfbf"></path><path data-v-75d12a2c="" d="M609.414 20.054h-25.411a3.007 3.007 0 00-2.97 2.64v170.323a2.605 2.605 0 00.685 1.909 2.61 2.61 0 001.845.842c6.82 0 24.092.006 26.182.006a2.261 2.261 0 002.419-2.427V22.915a2.582 2.582 0 00-.702-2.077 2.58 2.58 0 00-2.048-.784zm135.294 108.149c0-42.263-22.327-62.125-57.761-62.125-32.442 0-59.611 20.08-59.611 65.435 0 43.036 24.532 64.229 62.695 64.229 11.549 0 39.721-3.65 48.186-4.749 1.434-.216 2.313-1.098 2.313-2.985v-19.863c0-1.532-1.003-2.97-2.652-2.754-8.897 1.222-36.066 3.759-44.871 3.759-19.367 0-33.337-8.616-34.987-28.262h73.921c9.36-.217 12.767-3.635 12.767-12.685zm-86.904-10.717c1.203-18.958 11.442-27.672 28.156-27.672 19.799 0 28.28 10.8 28.28 27.672h-56.436zM759.917 61.187V8.707c0-3.622 1.619-5.55 5.242-6.629A45.82 45.82 0 01778.576.075c12.726 0 20.121 7.867 20.121 21.359 0 13.649-6.473 21.59-18.966 21.59a31.267 31.267 0 01-9.248-1.7v19.863h-10.566zm28.296-39.602c0-7.942-3.008-12.877-10.253-12.877a34.223 34.223 0 00-7.477 1.004V33c4.313 1.155 6.165 1.387 7.86 1.387 7.095 0 9.87-4.627 9.87-12.801zM830.189 8.94a50.21 50.21 0 00-13.498 1.47v32.383h-10.485V8.865c0-3.78 1.852-5.707 5.399-6.705C817.155.615 821.933.15 830.189.15v8.79zM855.026 43.25c-12.795 0-20.587-7.86-20.587-21.584C834.439 7.786 842.614 0 855.258 0c12.726 0 20.586 7.785 20.586 21.666 0 13.8-8.174 21.585-20.818 21.585zm0-35.308c-6.555 0-9.788 4.935-9.788 13.724 0 9.022 3.547 13.725 10.02 13.725 6.479 0 9.87-4.784 9.87-13.725 0-8.87-3.623-13.724-10.102-13.724z" fill="#0ca9ef"></path></svg>