<svg width="660" height="559" viewBox="0 0 660 559" fill="none" xmlns="http://www.w3.org/2000/svg">
<path d="M354.861 559C504.522 559 625.847 551.254 625.847 541.7C625.847 532.145 504.522 524.399 354.861 524.399C205.199 524.399 83.8745 532.145 83.8745 541.7C83.8745 551.254 205.199 559 354.861 559Z" fill="#263238"/>
<path d="M192.067 411.367C190.943 406.335 189.45 399.114 188.085 390.389C187.684 387.873 187.298 385.208 186.945 382.454C188.165 382.245 197.862 380.488 201.635 377.987C205.071 375.739 208.764 372.032 208.908 367.863C208.991 366.887 208.849 365.907 208.493 364.986C208.136 364.065 207.573 363.224 206.839 362.521C206.106 361.817 205.22 361.266 204.24 360.903C203.26 360.541 202.208 360.376 201.154 360.419C194.86 360.821 189.048 369.873 187.684 374.95C187.604 375.277 187.042 379.208 186.801 381.233C186.592 379.565 186.383 377.913 186.191 376.186C185.902 373.684 185.677 371.049 185.452 368.488C185.452 367.148 185.308 365.808 185.243 364.454C185.179 363.099 185.243 361.774 185.243 360.404C185.243 358.409 185.404 356.339 185.516 354.285C188.278 354.166 196.353 353.674 199.966 351.977C203.578 350.28 207.993 347.049 208.812 343.044C209.036 342.098 209.045 341.119 208.837 340.17C208.629 339.221 208.209 338.322 207.604 337.533C206.999 336.743 206.223 336.08 205.325 335.585C204.427 335.091 203.427 334.776 202.39 334.662C196.112 334.186 188.872 342.315 186.721 347.138C186.64 347.287 186.303 348.359 185.902 349.625C186.094 347.615 186.271 345.605 186.544 343.58C187.282 337.848 188.246 332.012 189.177 326.161C189.37 324.94 189.546 323.734 189.739 322.513C192.051 322.409 200.816 321.962 204.621 320.19C208.426 318.419 212.649 315.248 213.468 311.257C213.695 310.311 213.705 309.332 213.499 308.381C213.292 307.431 212.872 306.532 212.267 305.742C211.661 304.952 210.884 304.288 209.984 303.795C209.085 303.301 208.084 302.988 207.046 302.875C200.752 302.399 193.528 310.528 191.36 315.352C191.36 315.515 190.879 316.841 190.429 318.21C190.895 315.039 191.296 311.853 191.601 308.697C192.166 303.254 192.332 297.783 192.099 292.319C192.918 292.319 203.193 291.947 207.431 289.982C211.204 288.24 215.458 285.054 216.277 281.049C216.504 280.104 216.515 279.125 216.308 278.175C216.101 277.226 215.681 276.328 215.076 275.539C214.47 274.75 213.692 274.088 212.793 273.596C211.894 273.103 210.893 272.792 209.855 272.682C203.562 272.19 196.337 280.334 194.17 285.143C194.009 285.486 192.564 290.101 192.131 291.754C192.123 291.689 192.123 291.624 192.131 291.56C191.759 286.213 190.878 280.907 189.498 275.704C188.286 271.052 186.785 266.468 185.003 261.977C183.397 257.808 181.647 254.071 180.074 250.781C179.207 248.994 178.372 247.386 177.585 245.897H177.714C177.826 245.897 177.521 238.825 177.457 238.453C176.59 233.302 171.661 223.803 165.432 222.88C164.394 222.752 163.338 222.829 162.333 223.105C161.329 223.381 160.398 223.851 159.603 224.483C158.808 225.115 158.165 225.896 157.717 226.774C157.269 227.652 157.026 228.608 157.003 229.58C156.746 233.704 160.07 237.739 163.265 240.27C166.46 242.801 175.097 245.272 177.216 245.838C178.003 247.416 178.822 249.098 179.705 250.974C181.198 254.294 182.916 258.046 184.344 262.245C184.746 263.361 185.131 264.582 185.532 265.744C184.425 263.897 182.867 261.381 182.675 261.158C179.351 256.945 170.248 250.617 164.276 252.463C163.291 252.793 162.392 253.312 161.637 253.985C160.883 254.659 160.29 255.473 159.898 256.373C159.505 257.274 159.322 258.241 159.36 259.212C159.398 260.182 159.656 261.135 160.118 262.007C161.932 265.773 166.893 267.962 171.003 268.811C175.113 269.659 184.264 268.156 186.223 267.798C187.058 270.404 187.828 273.099 188.503 275.957C189.716 281.094 190.436 286.32 190.654 291.575C190.654 291.888 190.654 292.2 190.654 292.513C190.269 291.501 187.764 286.156 187.555 285.798C184.746 281.332 176.446 274.051 170.281 275.272C169.261 275.501 168.304 275.926 167.474 276.521C166.643 277.115 165.957 277.866 165.461 278.723C164.964 279.58 164.667 280.524 164.59 281.494C164.513 282.465 164.658 283.439 165.015 284.354C166.379 288.27 171.067 290.935 175.033 292.215C179.608 293.704 190.253 292.751 190.638 292.721C190.725 297.994 190.441 303.265 189.787 308.503C189.321 312.389 188.679 316.305 187.989 320.22C187.459 318.925 185.147 313.952 184.922 313.61C182.129 309.143 173.829 301.878 167.664 303.099C166.646 303.328 165.691 303.753 164.862 304.346C164.033 304.94 163.348 305.688 162.851 306.544C162.355 307.399 162.058 308.341 161.98 309.31C161.901 310.278 162.044 311.251 162.398 312.166C163.762 316.096 168.434 318.746 172.416 320.042C176.879 321.53 187.074 320.622 187.941 320.548C187.62 322.319 187.315 324.106 186.993 325.893C185.918 331.699 184.826 337.535 183.943 343.312C183.622 345.322 183.397 347.302 183.172 349.267C182.322 347.347 180.7 343.893 180.523 343.61C177.714 339.143 169.414 331.863 163.249 333.099C162.231 333.328 161.276 333.753 160.447 334.346C159.618 334.94 158.933 335.689 158.436 336.544C157.94 337.399 157.643 338.341 157.564 339.31C157.486 340.278 157.629 341.251 157.983 342.166C159.347 346.096 164.019 348.746 168.001 350.042C171.982 351.337 180.572 350.771 182.996 350.592C182.627 353.898 182.354 357.188 182.241 360.434C182.241 361.833 182.097 363.277 182.241 364.617C182.386 365.957 182.241 367.327 182.338 368.652C182.53 371.406 182.675 373.967 182.916 376.528C183.028 377.823 183.156 379.044 183.285 380.295C182.739 378.24 181.808 374.98 181.679 374.697C179.64 369.828 172.625 361.535 166.315 361.878C165.272 361.964 164.26 362.253 163.345 362.725C162.43 363.197 161.631 363.841 161.002 364.618C160.372 365.394 159.926 366.284 159.69 367.23C159.455 368.176 159.437 369.158 159.636 370.111C160.343 374.176 164.453 377.466 168.242 379.297C172.352 381.307 182.225 381.903 183.429 381.977C183.75 385.044 184.104 388.037 184.473 390.821C185.661 399.665 186.993 406.975 188.005 412.096C189.016 417.218 189.739 420.121 189.739 420.121C189.787 420.402 189.898 420.67 190.064 420.909C190.23 421.148 190.448 421.353 190.703 421.51C190.959 421.666 191.247 421.773 191.549 421.821C191.851 421.869 192.161 421.859 192.458 421.791C192.756 421.723 193.035 421.598 193.278 421.425C193.521 421.251 193.722 421.033 193.869 420.784C194.017 420.534 194.107 420.26 194.133 419.976C194.16 419.693 194.124 419.408 194.025 419.139C194.025 419.139 193.191 416.414 192.067 411.367Z" fill="#A6CAFF"/>
<path d="M186.672 266.711C186.672 266.711 197.268 263.734 200.945 260.652C204.156 258.061 207.367 253.937 206.901 249.813C206.851 248.844 206.581 247.895 206.109 247.029C205.637 246.163 204.973 245.398 204.161 244.786C203.349 244.173 202.407 243.727 201.397 243.474C200.386 243.222 199.33 243.17 198.296 243.322C192.099 244.394 187.427 254.012 186.72 259.193C186.656 259.639 186.56 266.741 186.672 266.711Z" fill="#A6CAFF"/>
<path d="M192.259 421.789C192.521 421.956 192.741 422.174 192.903 422.427C193.066 422.681 193.168 422.963 193.202 423.257C193.237 423.55 193.203 423.846 193.103 424.126C193.003 424.406 192.839 424.662 192.622 424.878C192.406 425.094 192.142 425.264 191.848 425.377C191.554 425.49 191.238 425.543 190.92 425.532C190.602 425.522 190.291 425.448 190.007 425.316C189.723 425.183 189.472 424.996 189.273 424.766V424.766C189.273 424.766 186.929 422.682 183.06 418.945C179.191 415.208 173.7 409.774 167.455 403.014C165.48 400.87 163.425 398.548 161.322 396.166C160.278 396.717 151.689 401.273 147.066 401.689C142.875 402.062 137.433 401.466 134.414 398.429C133.681 397.737 133.112 396.91 132.745 396.001C132.378 395.092 132.221 394.122 132.285 393.153C132.348 392.184 132.631 391.239 133.114 390.378C133.597 389.517 134.27 388.76 135.089 388.156C140.146 384.642 150.935 387.977 155.526 391C155.799 391.178 158.513 393.411 160.182 394.841C159.331 393.858 158.577 392.92 157.629 391.863C155.912 389.853 154.258 387.799 152.476 385.58L149.987 382.275C149.121 381.188 148.382 379.937 147.547 378.761C145.701 375.992 143.983 373.104 142.329 370.156C140.419 371.54 133.58 376.394 129.486 377.362C125.392 378.33 119.853 378.493 116.449 375.873C115.609 375.292 114.911 374.554 114.399 373.706C113.886 372.859 113.573 371.921 113.477 370.953C113.382 369.985 113.507 369.01 113.845 368.09C114.183 367.171 114.725 366.327 115.438 365.615C119.869 361.446 131.075 363.218 136.1 365.615C136.421 365.764 139.825 367.818 141.671 368.98C140.692 367.193 139.696 365.421 138.765 363.59C136.068 358.32 133.515 352.9 130.947 347.496C130.16 345.843 129.341 344.205 128.555 342.553C127.88 343.059 119.885 348.999 115.309 350.071C111.232 351.039 105.677 351.203 102.273 348.583C101.433 348.002 100.734 347.264 100.222 346.416C99.7102 345.568 99.3963 344.63 99.3009 343.663C99.2055 342.695 99.3308 341.72 99.6686 340.8C100.006 339.88 100.549 339.037 101.262 338.324C105.677 334.156 116.883 335.927 121.924 338.324C122.309 338.503 127.206 341.466 128.346 342.27C126.58 338.652 124.798 335.064 122.871 331.58C120.299 326.876 117.403 322.331 114.202 317.972C113.881 318.21 105.58 324.448 100.876 325.55C96.7985 326.503 91.2436 326.682 87.84 324.061C86.999 323.481 86.2997 322.742 85.7876 321.894C85.2755 321.046 84.9623 320.107 84.8683 319.139C84.7744 318.171 84.9018 317.195 85.2424 316.275C85.5829 315.356 86.1289 314.514 86.8446 313.803C91.2596 309.635 102.466 311.406 107.491 313.803C107.892 313.982 113.158 317.168 114.073 317.808C113.881 317.555 113.72 317.287 113.527 317.034C110.165 312.766 106.405 308.78 102.289 305.123C100.042 303.069 97.7778 301.223 95.5301 299.466C94.1013 300.776 87.5028 306.687 83.441 308.116C79.3792 309.545 74.0812 310.215 70.3083 307.997C69.4053 307.506 68.6239 306.845 68.0149 306.055C67.406 305.266 66.9832 304.367 66.7742 303.416C66.5652 302.465 66.5746 301.484 66.8018 300.536C67.0289 299.589 67.4688 298.697 68.0928 297.917C71.9941 293.317 83.3447 293.927 88.6266 295.744C88.9156 295.848 91.7091 297.143 93.732 298.111C92.7045 297.337 91.661 296.518 90.6656 295.803C86.9088 293.064 83.2965 290.771 80.0856 288.776C78.2393 287.659 76.5536 286.677 74.9642 285.798C72.8449 286.409 64.2878 288.776 60.0173 288.285C55.7468 287.793 50.6574 286.141 48.4098 282.567C47.8558 281.744 47.4943 280.822 47.3485 279.861C47.2027 278.9 47.2759 277.922 47.5634 276.989C47.8509 276.056 48.3462 275.189 49.0174 274.444C49.6887 273.7 50.5208 273.094 51.4602 272.667C57.2077 270.255 66.969 275.644 70.7257 279.515C71.0468 279.858 75.5421 285.62 75.4137 285.649H75.2852C76.8907 286.483 78.4962 287.406 80.2622 288.448C83.4731 290.384 87.2138 292.602 91.0509 295.267C95.2037 298.105 99.1809 301.157 102.963 304.409C107.202 308.06 111.091 312.045 114.587 316.319C114.615 316.379 114.653 316.434 114.699 316.483C114.089 314.875 112.548 310.29 112.468 309.932C111.408 304.811 112.612 294.314 118.135 291.5C119.067 291.058 120.089 290.802 121.135 290.749C122.18 290.697 123.226 290.849 124.204 291.196C125.183 291.543 126.071 292.076 126.812 292.763C127.553 293.449 128.131 294.271 128.506 295.178C130.24 298.989 128.506 303.828 126.483 307.208C124.107 311.019 115.743 316.573 115.085 317.004C118.508 321.436 121.613 326.071 124.38 330.88C125.986 333.679 127.591 336.538 129.068 339.426C128.587 338.012 128.169 336.746 128.137 336.568C127.078 331.446 128.266 320.95 133.804 318.136C134.737 317.693 135.76 317.438 136.807 317.387C137.853 317.335 138.9 317.489 139.878 317.837C140.856 318.185 141.745 318.721 142.485 319.408C143.225 320.096 143.802 320.92 144.176 321.828C145.91 325.625 144.176 330.463 142.153 333.843C140.13 337.223 132.986 342.136 131.107 343.401C131.669 344.518 132.247 345.62 132.809 346.736C135.522 352.081 138.187 357.441 140.981 362.622C141.96 364.439 143.004 366.195 144.031 367.967C143.614 366.717 143.277 365.659 143.228 365.481C142.169 360.359 143.373 349.878 148.896 347.064C149.828 346.621 150.85 346.365 151.896 346.313C152.941 346.26 153.987 346.412 154.965 346.759C155.943 347.106 156.832 347.64 157.573 348.326C158.314 349.012 158.891 349.835 159.267 350.741C161.001 354.538 159.347 359.391 157.244 362.771C155.141 366.151 148.767 370.573 146.536 372.091C147.66 373.863 148.767 375.65 149.939 377.332C150.774 378.463 151.545 379.61 152.38 380.697L154.948 383.957C156.666 385.967 158.416 388.066 160.15 389.987C161.338 391.342 162.494 392.607 163.666 393.888C162.655 392.086 160.776 388.513 160.664 388.201C158.769 383.272 158.24 372.746 163.249 369.188C164.097 368.619 165.066 368.222 166.09 368.023C167.115 367.824 168.174 367.827 169.197 368.032C170.221 368.237 171.187 368.64 172.031 369.213C172.876 369.787 173.582 370.519 174.102 371.362C176.429 374.875 175.579 379.908 174.102 383.54C172.496 387.545 165.384 393.962 164.469 394.766C166.411 396.88 168.306 398.905 170.152 400.811C176.478 407.377 182.016 412.632 185.95 416.265C189.883 419.898 192.259 421.789 192.259 421.789ZM95.4017 298.319C95.4017 298.319 102.45 290.384 103.702 285.962C104.762 282.195 104.986 277.029 102.241 273.873C101.621 273.088 100.83 272.434 99.9186 271.952C99.0076 271.471 97.9974 271.172 96.9538 271.077C95.9102 270.981 94.8566 271.091 93.8617 271.398C92.8668 271.705 91.9528 272.204 91.1793 272.86C86.6519 276.925 88.4822 287.332 90.9706 292.022C91.1151 292.424 95.3214 298.394 95.4017 298.319Z" fill="#A6CAFF"/>
<path opacity="0.1" d="M192.259 421.789C192.521 421.956 192.741 422.174 192.903 422.427C193.066 422.681 193.168 422.963 193.202 423.257C193.237 423.55 193.203 423.846 193.103 424.126C193.003 424.406 192.839 424.662 192.622 424.878C192.406 425.094 192.142 425.264 191.848 425.377C191.554 425.49 191.238 425.543 190.92 425.532C190.602 425.522 190.291 425.448 190.007 425.316C189.723 425.183 189.472 424.996 189.273 424.766C189.273 424.766 186.929 422.682 183.06 418.945C179.191 415.208 173.7 409.774 167.455 403.014C165.48 400.87 163.425 398.548 161.322 396.166C160.278 396.717 151.689 401.273 147.066 401.689C142.875 402.062 137.433 401.466 134.414 398.429C133.681 397.737 133.112 396.91 132.745 396.001C132.378 395.092 132.221 394.122 132.285 393.153C132.348 392.184 132.631 391.239 133.114 390.378C133.597 389.517 134.27 388.76 135.089 388.156C140.146 384.642 150.935 387.977 155.526 391C155.799 391.178 158.513 393.411 160.182 394.841C159.331 393.858 158.577 392.92 157.629 391.863C155.912 389.853 154.258 387.799 152.476 385.58L149.987 382.275C149.121 381.188 148.382 379.937 147.547 378.761C145.701 375.992 143.983 373.104 142.329 370.156C140.419 371.54 133.58 376.394 129.486 377.362C125.392 378.33 119.853 378.493 116.449 375.873C115.609 375.292 114.911 374.554 114.399 373.706C113.886 372.859 113.573 371.921 113.477 370.953C113.382 369.985 113.507 369.01 113.845 368.09C114.183 367.171 114.725 366.327 115.438 365.615C119.869 361.446 131.075 363.218 136.1 365.615C136.421 365.764 139.825 367.818 141.671 368.98C140.692 367.193 139.696 365.421 138.765 363.59C136.068 358.32 133.515 352.9 130.947 347.496C130.16 345.843 129.341 344.205 128.555 342.553C127.88 343.059 119.885 348.999 115.309 350.071C111.232 351.039 105.677 351.203 102.273 348.583C101.433 348.002 100.734 347.264 100.222 346.416C99.7102 345.568 99.3963 344.63 99.3009 343.663C99.2055 342.695 99.3308 341.72 99.6686 340.8C100.006 339.88 100.549 339.037 101.262 338.324C105.677 334.156 116.883 335.927 121.924 338.324C122.309 338.503 127.206 341.466 128.346 342.27C126.58 338.652 124.798 335.064 122.871 331.58C120.299 326.876 117.403 322.331 114.202 317.972C113.881 318.21 105.58 324.448 100.876 325.55C96.7985 326.503 91.2436 326.682 87.84 324.061C86.999 323.481 86.2997 322.742 85.7876 321.894C85.2755 321.046 84.9623 320.107 84.8683 319.139C84.7744 318.171 84.9018 317.195 85.2424 316.275C85.5829 315.356 86.1289 314.514 86.8446 313.803C91.2596 309.635 102.466 311.406 107.491 313.803C107.892 313.982 113.158 317.168 114.073 317.808C113.881 317.555 113.72 317.287 113.527 317.034C110.165 312.766 106.405 308.78 102.289 305.123C100.042 303.069 97.7778 301.223 95.5301 299.466C94.1013 300.776 87.5028 306.687 83.441 308.116C79.3792 309.545 74.0812 310.215 70.3083 307.997C69.4053 307.506 68.6239 306.845 68.0149 306.055C67.406 305.266 66.9832 304.367 66.7742 303.416C66.5652 302.465 66.5746 301.484 66.8018 300.536C67.0289 299.589 67.4688 298.697 68.0928 297.917C71.9941 293.317 83.3447 293.927 88.6266 295.744C88.9156 295.848 91.7091 297.143 93.732 298.111C92.7045 297.337 91.661 296.518 90.6656 295.803C86.9088 293.064 83.2965 290.771 80.0856 288.776C78.2393 287.659 76.5536 286.677 74.9642 285.798C72.8449 286.409 64.2878 288.776 60.0173 288.285C55.7468 287.793 50.6574 286.141 48.4098 282.567C47.8558 281.744 47.4943 280.822 47.3485 279.861C47.2027 278.9 47.2759 277.922 47.5634 276.989C47.8509 276.056 48.3462 275.189 49.0174 274.444C49.6887 273.7 50.5208 273.094 51.4602 272.667C57.2077 270.255 66.969 275.644 70.7257 279.515C71.0468 279.858 75.5421 285.62 75.4137 285.649H75.2852C76.8907 286.483 78.4962 287.406 80.2622 288.448C83.4731 290.384 87.2138 292.602 91.0509 295.267C95.2037 298.105 99.1809 301.157 102.963 304.409C107.202 308.06 111.091 312.045 114.587 316.319C114.615 316.379 114.653 316.434 114.699 316.483C114.089 314.875 112.548 310.29 112.468 309.932C111.408 304.811 112.612 294.314 118.135 291.5C119.067 291.058 120.089 290.802 121.135 290.749C122.18 290.697 123.226 290.849 124.204 291.196C125.183 291.543 126.071 292.076 126.812 292.763C127.553 293.449 128.131 294.271 128.506 295.178C130.24 298.989 128.506 303.828 126.483 307.208C124.107 311.019 115.743 316.573 115.085 317.004C118.508 321.436 121.613 326.071 124.38 330.88C125.986 333.679 127.591 336.538 129.068 339.426C128.587 338.012 128.169 336.746 128.137 336.568C127.078 331.446 128.266 320.95 133.804 318.136C134.737 317.693 135.76 317.438 136.807 317.387C137.853 317.335 138.9 317.489 139.878 317.837C140.856 318.185 141.745 318.721 142.485 319.408C143.225 320.096 143.802 320.92 144.176 321.828C145.91 325.625 144.176 330.463 142.153 333.843C140.13 337.223 132.986 342.136 131.107 343.401C131.669 344.518 132.247 345.62 132.809 346.736C135.522 352.081 138.187 357.441 140.981 362.622C141.96 364.439 143.004 366.195 144.031 367.967C143.614 366.717 143.277 365.659 143.228 365.481C142.169 360.359 143.373 349.878 148.896 347.064C149.828 346.621 150.85 346.365 151.896 346.313C152.941 346.26 153.987 346.412 154.965 346.759C155.943 347.106 156.832 347.64 157.573 348.326C158.314 349.012 158.891 349.835 159.267 350.741C161.001 354.538 159.347 359.391 157.244 362.771C155.141 366.151 148.767 370.573 146.536 372.091C147.66 373.863 148.767 375.65 149.939 377.332C150.774 378.463 151.545 379.61 152.38 380.697L154.948 383.957C156.666 385.967 158.416 388.066 160.15 389.987C161.338 391.342 162.494 392.607 163.666 393.888C162.655 392.086 160.776 388.513 160.664 388.201C158.769 383.272 158.24 372.746 163.249 369.188C164.097 368.619 165.066 368.222 166.09 368.023C167.115 367.824 168.174 367.827 169.197 368.032C170.221 368.237 171.187 368.64 172.031 369.213C172.876 369.787 173.582 370.519 174.102 371.362C176.429 374.875 175.579 379.908 174.102 383.54C172.496 387.545 165.384 393.962 164.469 394.766C166.411 396.88 168.306 398.905 170.152 400.811C176.478 407.377 182.016 412.632 185.95 416.265C189.883 419.898 192.259 421.789 192.259 421.789ZM95.4017 298.319C95.4017 298.319 102.45 290.384 103.702 285.962C104.762 282.195 104.986 277.029 102.241 273.873C101.621 273.088 100.83 272.434 99.9186 271.952C99.0076 271.471 97.9974 271.172 96.9538 271.077C95.9102 270.981 94.8566 271.091 93.8617 271.398C92.8668 271.705 91.9528 272.204 91.1793 272.86C86.6519 276.925 88.4822 287.332 90.9706 292.022C91.1151 292.424 95.3214 298.394 95.4017 298.319Z" fill="black"/>
<path d="M151.111 519.978C149.747 514.99 147.9 507.844 146.134 499.134C145.621 496.647 145.107 493.982 144.625 491.258C145.813 490.99 155.43 488.846 159.074 486.211C162.398 483.814 165.914 479.913 165.866 475.789C165.889 474.824 165.694 473.864 165.293 472.973C164.892 472.082 164.294 471.279 163.537 470.615C162.781 469.952 161.883 469.443 160.901 469.121C159.92 468.799 158.876 468.672 157.838 468.747C151.561 469.402 146.183 478.692 144.994 483.814C144.994 484.141 144.545 488.102 144.417 490.126C144.111 488.474 143.822 486.836 143.55 485.109C143.148 482.638 142.795 480.002 142.442 477.456L142.056 473.437C141.88 472.067 141.912 470.742 141.832 469.387C141.832 467.392 141.832 465.322 141.832 463.268C144.577 463.03 152.62 462.211 156.185 460.365C159.749 458.518 163.971 455.109 164.581 451.029C164.764 450.073 164.727 449.091 164.473 448.148C164.219 447.205 163.753 446.323 163.106 445.559C162.459 444.794 161.645 444.165 160.718 443.712C159.791 443.259 158.771 442.993 157.726 442.93C151.432 442.692 144.593 451.119 142.651 456.032C142.651 456.181 142.297 457.253 141.976 458.533C141.976 456.523 142.153 454.528 142.313 452.489C142.795 446.712 143.469 440.861 144.128 434.98C144.256 433.744 144.368 432.523 144.513 431.302C146.825 431.109 155.542 430.29 159.267 428.325C162.992 426.359 167.054 423.069 167.68 418.975C167.86 418.018 167.821 417.037 167.566 416.096C167.311 415.154 166.845 414.272 166.198 413.509C165.552 412.745 164.739 412.116 163.813 411.662C162.887 411.208 161.869 410.94 160.824 410.876C154.531 410.652 147.676 419.079 145.749 423.977C145.749 424.156 145.332 425.466 144.962 426.881C145.267 423.68 145.524 420.493 145.685 417.322C145.986 411.863 145.889 406.392 145.396 400.945C146.215 400.945 156.457 400.111 160.616 397.967C164.276 396.076 168.402 392.712 169.012 388.617C169.195 387.661 169.158 386.679 168.904 385.736C168.65 384.793 168.184 383.911 167.537 383.147C166.89 382.382 166.076 381.753 165.149 381.3C164.222 380.847 163.203 380.581 162.157 380.518C155.863 380.295 149.024 388.722 147.082 393.62C146.953 393.962 145.733 398.622 145.364 400.305C145.364 400.305 145.364 400.171 145.364 400.111C144.749 394.783 143.62 389.516 141.992 384.374C140.555 379.78 138.834 375.267 136.839 370.856C135.041 366.746 133.114 363.084 131.38 359.853C130.433 358.111 129.534 356.548 128.667 355.074H128.795C128.908 355.074 128.282 348.032 128.185 347.63C127.077 342.508 121.763 333.218 115.342 332.548C114.304 332.473 113.26 332.6 112.278 332.922C111.297 333.244 110.399 333.753 109.642 334.417C108.886 335.08 108.288 335.883 107.887 336.774C107.486 337.666 107.291 338.625 107.314 339.59C107.314 343.714 110.766 347.615 114.089 350.012C117.413 352.409 126.13 354.478 128.282 355.014C129.149 356.503 130.048 358.2 131.011 360.032C132.616 363.292 134.479 366.97 136.18 371.109C136.646 372.21 137.08 373.401 137.529 374.563C136.341 372.761 134.655 370.305 134.463 370.096C130.947 366.032 121.619 360.091 115.663 362.176C114.696 362.548 113.824 363.104 113.105 363.809C112.385 364.514 111.833 365.351 111.485 366.267C111.137 367.182 111 368.155 111.083 369.123C111.167 370.09 111.469 371.031 111.97 371.883C113.961 375.575 119.018 377.526 123.208 378.24C127.399 378.955 136.421 377.034 138.364 376.588C139.327 379.163 140.242 381.828 141.029 384.657C142.525 389.764 143.519 394.987 143.999 400.26C143.999 400.558 143.999 400.885 143.999 401.183C143.582 400.201 140.788 394.945 140.596 394.603C137.577 390.136 128.94 383.332 122.839 384.806C121.833 385.076 120.899 385.539 120.099 386.166C119.298 386.794 118.65 387.57 118.195 388.445C117.741 389.321 117.491 390.275 117.461 391.246C117.431 392.218 117.623 393.184 118.023 394.081C119.628 397.952 124.445 400.424 128.394 401.526C133.034 402.821 143.614 401.436 144.015 401.392C144.338 406.654 144.301 411.93 143.903 417.188C143.614 421.089 143.164 425.02 142.667 428.965C142.089 427.699 139.456 422.816 139.295 422.488C136.277 418.022 127.639 411.218 121.539 412.692C120.532 412.962 119.598 413.425 118.798 414.052C117.998 414.679 117.35 415.456 116.895 416.331C116.44 417.207 116.19 418.161 116.16 419.132C116.131 420.103 116.322 421.069 116.722 421.967C118.328 425.838 123.144 428.295 127.094 429.412C131.621 430.662 141.767 429.412 142.634 429.278C142.394 431.064 142.185 432.866 141.944 434.652C141.157 440.503 140.339 446.384 139.713 452.191C139.504 454.201 139.375 456.196 139.231 458.146C138.284 456.27 136.502 452.876 136.309 452.608C133.291 448.141 124.669 441.337 118.649 442.811C117.644 443.083 116.712 443.548 115.913 444.175C115.114 444.803 114.467 445.579 114.012 446.454C113.558 447.328 113.307 448.282 113.276 449.252C113.245 450.223 113.435 451.188 113.832 452.087C115.438 455.958 120.254 458.414 124.204 459.531C128.153 460.647 136.807 459.754 139.215 459.456C139.006 462.776 138.878 466.082 138.926 469.327C138.926 470.742 138.926 472.171 139.07 473.511L139.359 477.546C139.68 480.285 139.953 482.831 140.307 485.392C140.483 486.672 140.676 487.878 140.868 489.129C140.21 487.104 139.135 483.888 139.006 483.605C136.726 478.826 129.373 470.831 123.048 471.427C122.01 471.554 121.014 471.882 120.122 472.39C119.23 472.897 118.463 473.573 117.872 474.374C117.28 475.174 116.876 476.08 116.686 477.035C116.496 477.989 116.525 478.97 116.77 479.913C117.669 483.963 122.004 487.074 125.809 488.742C129.999 490.588 139.889 490.781 141.109 490.796C141.575 493.863 142.056 496.826 142.57 499.61C144.176 508.38 145.781 515.645 147.098 520.707C148.414 525.769 149.217 528.657 149.217 528.657C149.414 529.144 149.802 529.542 150.303 529.774C150.804 530.005 151.382 530.052 151.919 529.905C152.456 529.758 152.913 529.428 153.198 528.981C153.483 528.534 153.575 528.004 153.455 527.496C153.455 527.496 152.476 524.98 151.111 519.978Z" fill="#A6CAFF"/>
<path d="M138.83 375.679C138.83 375.679 149.281 372.255 152.797 369.054C155.799 366.315 158.818 362.071 158.256 357.977C158.157 357.01 157.841 356.072 157.326 355.225C156.811 354.379 156.11 353.642 155.268 353.064C154.426 352.485 153.462 352.077 152.439 351.867C151.415 351.657 150.356 351.649 149.329 351.843C143.196 353.168 138.99 362.965 138.524 368.22C138.476 368.652 138.717 375.724 138.83 375.679Z" fill="#A6CAFF"/>
<path d="M145.091 522.077C140.997 518.623 135.217 513.59 128.571 507.278C126.66 505.461 124.653 503.511 122.63 501.486C123.465 500.652 130.192 493.938 131.685 489.873C133.034 486.181 133.644 481.134 131.139 477.709C130.581 476.889 129.843 476.186 128.973 475.647C128.103 475.109 127.12 474.746 126.088 474.583C125.057 474.42 124 474.461 122.987 474.702C121.973 474.943 121.026 475.379 120.206 475.982C115.39 479.734 116.401 490.245 118.52 495.069C118.649 495.382 120.704 498.881 121.731 500.638C120.495 499.417 119.275 498.196 118.023 496.886C116.209 495.04 114.362 493.015 112.548 491.079L109.819 487.923C108.872 486.866 108.117 485.749 107.234 484.662C105.982 483.04 104.778 481.298 103.574 479.556C105.725 477.963 111.954 473.154 113.832 469.804C115.711 466.454 117.204 461.436 115.277 457.714C114.86 456.824 114.245 456.024 113.473 455.369C112.7 454.713 111.787 454.216 110.793 453.91C109.8 453.603 108.747 453.495 107.705 453.591C106.663 453.687 105.655 453.987 104.745 454.469C99.3511 457.446 98.6608 468.017 99.9291 473.094C99.9291 473.273 100.379 474.315 100.86 475.551C99.7365 473.824 98.6126 472.111 97.537 470.325C94.5026 465.263 91.5807 460.037 88.6266 454.796C88.0166 453.709 87.3904 452.623 86.7643 451.536C88.5785 450.196 95.3696 445.044 97.3443 441.531C99.319 438.017 100.7 433.163 98.7892 429.441C98.3722 428.55 97.7573 427.751 96.9847 427.096C96.212 426.44 95.299 425.943 94.3052 425.637C93.3114 425.33 92.2591 425.222 91.217 425.318C90.1749 425.414 89.1664 425.713 88.2574 426.196C82.863 429.173 82.1727 439.744 83.441 444.821C83.441 445.015 83.9708 446.31 84.5167 447.65C82.9112 444.821 81.1773 442.037 79.4273 439.297C76.4267 434.608 73.0961 430.107 69.4574 425.823C70.1157 425.347 78.2072 419.466 80.3906 415.565C82.3332 412.111 83.7621 407.198 81.8355 403.476C81.4201 402.584 80.8063 401.783 80.0343 401.126C79.2624 400.469 78.3496 399.97 77.3556 399.662C76.3617 399.355 75.3089 399.245 74.266 399.34C73.2232 399.435 72.2138 399.734 71.3037 400.215C65.9093 403.193 65.219 413.779 66.4873 418.856C66.5836 419.213 68.3496 423.724 69.0239 425.317L68.9115 425.153C65.2156 421.035 61.1382 417.224 56.7261 413.764C52.8499 410.669 48.7869 407.781 44.5567 405.114C40.6072 402.612 36.8183 400.543 33.4629 398.741C31.6327 397.774 29.9309 396.925 28.3575 396.151H28.4699C28.5823 396.151 23.8462 390.538 23.493 390.196C19.5275 386.488 9.52545 381.501 3.90632 384.151C2.98556 384.613 2.18005 385.249 1.5423 386.019C0.904555 386.788 0.44889 387.674 0.205011 388.618C-0.0388674 389.562 -0.0654834 390.543 0.126895 391.497C0.319274 392.452 0.726327 393.357 1.32152 394.156C3.72972 397.64 8.97959 399.099 13.1859 399.397C17.3922 399.694 25.9172 396.985 27.9883 396.3C29.5937 397.134 31.3598 398.042 33.2542 399.099C36.5615 400.96 40.2861 403.104 44.1553 405.679C45.1989 406.364 46.2745 407.168 47.3662 407.868C45.3112 406.975 42.4375 405.799 42.1485 405.709C36.7862 404.116 25.4195 403.952 21.743 408.687C21.1599 409.493 20.7655 410.403 20.5856 411.36C20.4056 412.316 20.4439 413.296 20.6981 414.238C20.9523 415.179 21.4167 416.061 22.0613 416.826C22.7059 417.59 23.5163 418.221 24.4402 418.677C28.3094 420.717 33.6877 419.779 37.5568 418.245C41.426 416.712 47.8639 410.474 49.2286 409.119C51.5565 410.771 53.9005 412.528 56.2444 414.479C60.5243 417.976 64.4574 421.823 67.9964 425.972C68.2051 426.211 68.3817 426.479 68.5905 426.732C67.6432 426.121 62.1686 423.158 61.8154 422.995C56.6779 420.866 45.3915 419.541 41.1852 423.903C40.5086 424.643 40.0073 425.507 39.714 426.439C39.4207 427.37 39.3419 428.349 39.4827 429.31C39.6235 430.272 39.9807 431.196 40.5313 432.021C41.0818 432.846 41.8133 433.555 42.6783 434.101C46.2745 436.528 51.7491 436.141 55.7628 435.01C60.4026 433.714 68.4139 427.149 68.7189 426.91C72.1298 431.13 75.2403 435.551 78.0306 440.146C80.1177 443.541 82.0764 447.054 84.0029 450.568C82.7667 449.809 77.7255 447.054 77.3402 446.89C72.2027 444.761 60.9163 443.451 56.694 447.799C56.0157 448.539 55.5135 449.404 55.22 450.336C54.9265 451.269 54.8485 452.248 54.9909 453.211C55.1333 454.173 55.493 455.097 56.0465 455.922C56.6 456.746 57.3349 457.454 58.2031 457.997C61.7993 460.439 67.2579 460.037 71.2876 458.92C75.815 457.64 83.5213 451.387 84.1313 450.866C85.0144 452.474 85.8974 454.082 86.7643 455.69C89.5899 460.99 92.3834 466.29 95.3375 471.456C96.3489 473.243 97.4246 474.985 98.5484 476.712C96.6379 475.625 93.138 473.734 92.8169 473.585C87.6794 471.456 76.393 470.146 72.1867 474.494C71.5101 475.234 71.0088 476.098 70.7155 477.03C70.4222 477.961 70.3434 478.94 70.4842 479.901C70.625 480.863 70.9822 481.786 71.5328 482.612C72.0833 483.437 72.8148 484.146 73.6798 484.692C77.276 487.134 82.7346 486.732 86.7643 485.615C90.794 484.499 97.4085 479.347 99.2548 477.873C101.053 480.747 102.899 483.575 104.874 486.255C105.757 487.402 106.576 488.623 107.475 489.68L110.124 492.881C112.018 495.01 113.768 497.005 115.582 498.94L118.264 501.784C116.514 500.414 113.704 498.3 113.447 498.136C108.631 495.308 97.7778 492.419 92.8972 496.126C92.1051 496.763 91.4665 497.547 91.0229 498.428C90.5792 499.309 90.3406 500.266 90.3224 501.238C90.3042 502.21 90.507 503.174 90.9174 504.069C91.3278 504.963 91.9367 505.767 92.7045 506.429C95.9154 509.332 101.342 509.719 105.548 509.169C110.14 508.558 118.504 503.66 119.532 503.049C121.731 505.357 123.915 507.516 125.954 509.645C132.504 516.151 138.235 521.347 142.297 524.92C146.359 528.494 148.719 530.489 148.719 530.489C149.173 530.797 149.736 530.934 150.294 530.871C150.853 530.809 151.365 530.552 151.726 530.152C152.088 529.752 152.272 529.24 152.241 528.719C152.21 528.198 151.967 527.708 151.561 527.347C151.561 527.347 149.201 525.546 145.091 522.077Z" fill="#A6CAFF"/>
<path d="M49.0199 408.017C49.0199 408.017 55.6825 399.814 56.7261 395.332C57.6091 391.521 57.593 386.399 54.6872 383.302C54.0282 382.548 53.2058 381.929 52.2731 381.488C51.3403 381.047 50.318 380.792 49.2723 380.74C48.2266 380.688 47.1808 380.84 46.2026 381.187C45.2244 381.533 44.3355 382.066 43.5934 382.751C39.2587 386.995 41.5866 397.327 44.2838 401.898C44.5567 402.3 48.9396 408.091 49.0199 408.017Z" fill="#A6CAFF"/>
<g opacity="0.1">
<path opacity="0.1" d="M151.111 519.978C149.747 514.99 147.9 507.844 146.134 499.134C145.621 496.647 145.107 493.982 144.625 491.258C145.813 490.99 155.43 488.846 159.074 486.211C162.398 483.814 165.914 479.913 165.866 475.789C165.889 474.824 165.694 473.864 165.293 472.973C164.892 472.082 164.294 471.279 163.537 470.615C162.781 469.952 161.883 469.443 160.901 469.121C159.92 468.799 158.876 468.672 157.838 468.747C151.561 469.402 146.183 478.692 144.994 483.814C144.994 484.141 144.545 488.102 144.417 490.126C144.111 488.474 143.822 486.836 143.55 485.109C143.148 482.637 142.795 480.002 142.442 477.456L142.056 473.436C141.88 472.067 141.912 470.742 141.832 469.387C141.832 467.392 141.832 465.322 141.832 463.268C144.577 463.029 152.62 462.211 156.185 460.364C159.749 458.518 163.971 455.109 164.581 451.029C164.764 450.073 164.727 449.091 164.473 448.148C164.219 447.205 163.753 446.323 163.106 445.559C162.459 444.794 161.645 444.165 160.718 443.712C159.791 443.259 158.771 442.993 157.726 442.93C151.432 442.692 144.593 451.119 142.651 456.032C142.651 456.181 142.297 457.253 141.976 458.533C141.976 456.523 142.153 454.528 142.313 452.489C142.795 446.712 143.469 440.861 144.128 434.98C144.256 433.744 144.368 432.523 144.513 431.302C146.825 431.109 155.542 430.29 159.267 428.325C162.992 426.359 167.054 423.069 167.68 418.975C167.86 418.018 167.821 417.037 167.566 416.096C167.311 415.154 166.845 414.272 166.198 413.509C165.552 412.745 164.739 412.116 163.813 411.662C162.887 411.208 161.869 410.94 160.824 410.875C154.531 410.652 147.676 419.079 145.749 423.977C145.749 424.156 145.332 425.466 144.962 426.881C145.267 423.68 145.524 420.493 145.685 417.322C145.986 411.863 145.889 406.392 145.396 400.945C146.215 400.945 156.457 400.111 160.616 397.967C164.276 396.076 168.402 392.712 169.012 388.617C169.195 387.661 169.158 386.679 168.904 385.736C168.65 384.793 168.184 383.911 167.537 383.147C166.89 382.382 166.076 381.753 165.149 381.3C164.222 380.847 163.203 380.581 162.157 380.518C155.863 380.295 149.024 388.722 147.082 393.62C146.953 393.962 145.733 398.622 145.364 400.305C145.364 400.305 145.364 400.171 145.364 400.111C144.749 394.783 143.62 389.516 141.992 384.374C140.555 379.78 138.834 375.267 136.839 370.856C135.041 366.746 133.114 363.084 131.38 359.853C130.433 358.111 129.534 356.548 128.667 355.074H128.795C128.908 355.074 128.282 348.032 128.185 347.63C127.077 342.508 121.763 333.218 115.342 332.548C114.304 332.473 113.26 332.6 112.278 332.922C111.297 333.244 110.399 333.753 109.642 334.417C108.886 335.08 108.288 335.883 107.887 336.774C107.486 337.666 107.291 338.625 107.314 339.59C107.314 343.714 110.766 347.615 114.089 350.012C117.413 352.409 126.13 354.478 128.282 355.014C129.149 356.503 130.048 358.2 131.011 360.032C132.616 363.292 134.479 366.97 136.18 371.109C136.646 372.21 137.08 373.401 137.529 374.563C136.341 372.761 134.655 370.305 134.463 370.096C130.947 366.032 121.619 360.091 115.663 362.176C114.696 362.548 113.824 363.104 113.105 363.809C112.385 364.514 111.833 365.351 111.485 366.267C111.137 367.182 111 368.155 111.083 369.123C111.167 370.09 111.469 371.031 111.97 371.883C113.961 375.575 119.018 377.526 123.208 378.24C127.399 378.955 136.421 377.034 138.364 376.588C139.327 379.163 140.242 381.828 141.029 384.657C142.525 389.764 143.519 394.987 143.999 400.26C143.999 400.558 143.999 400.885 143.999 401.183C143.582 400.201 140.788 394.945 140.596 394.603C137.577 390.136 128.94 383.332 122.839 384.806C121.833 385.076 120.899 385.539 120.099 386.166C119.298 386.793 118.65 387.57 118.195 388.445C117.741 389.321 117.491 390.275 117.461 391.246C117.431 392.218 117.623 393.184 118.023 394.081C119.628 397.952 124.445 400.424 128.394 401.526C133.034 402.821 143.614 401.436 144.015 401.392C144.338 406.654 144.301 411.93 143.903 417.188C143.614 421.089 143.164 425.019 142.667 428.965C142.089 427.699 139.456 422.816 139.295 422.488C136.277 418.022 127.639 411.218 121.539 412.692C120.532 412.962 119.598 413.425 118.798 414.052C117.998 414.679 117.35 415.456 116.895 416.331C116.44 417.207 116.19 418.161 116.16 419.132C116.131 420.103 116.322 421.069 116.722 421.967C118.328 425.838 123.144 428.295 127.094 429.412C131.621 430.662 141.767 429.412 142.634 429.278C142.394 431.064 142.185 432.866 141.944 434.652C141.157 440.503 140.339 446.384 139.713 452.191C139.504 454.201 139.375 456.196 139.231 458.146C138.284 456.27 136.502 452.876 136.309 452.608C133.291 448.141 124.669 441.337 118.649 442.811C117.644 443.083 116.712 443.548 115.913 444.175C115.114 444.803 114.467 445.579 114.012 446.454C113.558 447.328 113.307 448.282 113.276 449.252C113.245 450.223 113.435 451.188 113.832 452.087C115.438 455.958 120.254 458.414 124.204 459.531C128.153 460.647 136.807 459.754 139.215 459.456C139.006 462.776 138.878 466.082 138.926 469.327C138.926 470.742 138.926 472.171 139.07 473.511L139.359 477.546C139.68 480.285 139.953 482.831 140.307 485.392C140.483 486.672 140.676 487.878 140.868 489.129C140.21 487.104 139.135 483.888 139.006 483.605C136.726 478.826 129.373 470.831 123.048 471.427C122.01 471.554 121.014 471.882 120.122 472.39C119.23 472.897 118.463 473.573 117.872 474.374C117.28 475.174 116.876 476.08 116.686 477.035C116.496 477.989 116.525 478.97 116.77 479.913C117.669 483.963 122.004 487.074 125.809 488.742C129.999 490.588 139.889 490.781 141.109 490.796C141.575 493.863 142.056 496.826 142.57 499.61C144.176 508.379 145.781 515.645 147.098 520.707C148.414 525.769 149.217 528.657 149.217 528.657C149.414 529.144 149.802 529.542 150.303 529.774C150.804 530.005 151.382 530.052 151.919 529.905C152.456 529.758 152.913 529.428 153.198 528.981C153.483 528.534 153.575 528.003 153.455 527.496C153.455 527.496 152.476 524.98 151.111 519.978Z" fill="black"/>
<path opacity="0.1" d="M138.83 375.679C138.83 375.679 149.281 372.255 152.797 369.054C155.799 366.315 158.818 362.071 158.256 357.977C158.157 357.01 157.841 356.072 157.326 355.225C156.811 354.379 156.11 353.642 155.268 353.064C154.426 352.485 153.462 352.077 152.439 351.867C151.415 351.657 150.356 351.649 149.329 351.843C143.196 353.168 138.99 362.965 138.524 368.22C138.476 368.652 138.717 375.724 138.83 375.679Z" fill="black"/>
<path opacity="0.1" d="M145.091 522.077C140.997 518.623 135.217 513.59 128.571 507.278C126.66 505.461 124.653 503.511 122.63 501.486C123.465 500.652 130.192 493.938 131.685 489.873C133.034 486.181 133.644 481.134 131.139 477.709C130.581 476.889 129.843 476.186 128.973 475.647C128.103 475.109 127.12 474.746 126.088 474.583C125.057 474.42 124 474.461 122.987 474.702C121.973 474.943 121.026 475.379 120.206 475.982C115.39 479.734 116.401 490.245 118.52 495.069C118.649 495.382 120.704 498.881 121.731 500.638C120.495 499.417 119.275 498.196 118.023 496.886C116.209 495.04 114.362 493.015 112.548 491.079L109.819 487.923C108.872 486.866 108.117 485.749 107.234 484.662C105.982 483.04 104.778 481.298 103.574 479.556C105.725 477.963 111.954 473.154 113.832 469.804C115.711 466.454 117.204 461.436 115.277 457.714C114.86 456.824 114.245 456.024 113.473 455.369C112.7 454.713 111.787 454.216 110.793 453.91C109.8 453.603 108.747 453.495 107.705 453.591C106.663 453.687 105.655 453.987 104.745 454.469C99.3511 457.446 98.6608 468.017 99.9291 473.094C99.9291 473.273 100.379 474.315 100.86 475.551C99.7365 473.824 98.6126 472.111 97.537 470.325C94.5026 465.263 91.5807 460.037 88.6266 454.796C88.0166 453.709 87.3904 452.623 86.7643 451.536C88.5785 450.196 95.3696 445.044 97.3443 441.531C99.319 438.017 100.7 433.163 98.7892 429.441C98.3722 428.55 97.7573 427.751 96.9847 427.096C96.212 426.44 95.299 425.943 94.3052 425.637C93.3114 425.33 92.2591 425.222 91.217 425.318C90.1749 425.414 89.1664 425.713 88.2574 426.196C82.863 429.173 82.1727 439.744 83.441 444.821C83.441 445.015 83.9708 446.31 84.5167 447.65C82.9112 444.821 81.1773 442.037 79.4273 439.297C76.4267 434.608 73.0961 430.107 69.4574 425.823C70.1157 425.347 78.2072 419.466 80.3906 415.565C82.3332 412.111 83.7621 407.198 81.8355 403.476C81.4201 402.584 80.8063 401.783 80.0343 401.126C79.2624 400.469 78.3496 399.97 77.3556 399.662C76.3617 399.355 75.3089 399.245 74.266 399.34C73.2232 399.435 72.2138 399.734 71.3037 400.215C65.9093 403.193 65.219 413.779 66.4873 418.856C66.5836 419.213 68.3496 423.724 69.0239 425.317L68.9115 425.153C65.2156 421.035 61.1382 417.224 56.7261 413.764C52.8499 410.669 48.7869 407.781 44.5567 405.114C40.6072 402.612 36.8183 400.543 33.4629 398.741C31.6327 397.774 29.9309 396.925 28.3575 396.151H28.4699C28.5823 396.151 23.8462 390.538 23.493 390.196C19.5275 386.488 9.52545 381.501 3.90632 384.151C2.98556 384.613 2.18005 385.249 1.5423 386.019C0.904555 386.788 0.44889 387.674 0.205011 388.618C-0.0388674 389.562 -0.0654834 390.543 0.126895 391.497C0.319274 392.452 0.726327 393.357 1.32152 394.156C3.72972 397.64 8.97959 399.099 13.1859 399.397C17.3922 399.694 25.9172 396.985 27.9883 396.3C29.5937 397.134 31.3598 398.042 33.2542 399.099C36.5615 400.96 40.2861 403.104 44.1553 405.679C45.1989 406.364 46.2745 407.168 47.3662 407.868C45.3112 406.975 42.4375 405.799 42.1485 405.709C36.7862 404.116 25.4195 403.952 21.743 408.687C21.1599 409.493 20.7655 410.403 20.5856 411.36C20.4056 412.316 20.4439 413.296 20.6981 414.238C20.9523 415.179 21.4167 416.061 22.0613 416.826C22.7059 417.59 23.5163 418.221 24.4402 418.677C28.3094 420.717 33.6877 419.779 37.5568 418.245C41.426 416.712 47.8639 410.474 49.2286 409.119C51.5565 410.771 53.9005 412.528 56.2444 414.479C60.5243 417.976 64.4574 421.823 67.9964 425.972C68.2051 426.211 68.3817 426.479 68.5905 426.732C67.6432 426.121 62.1686 423.158 61.8154 422.995C56.6779 420.866 45.3915 419.541 41.1852 423.903C40.5086 424.643 40.0073 425.507 39.714 426.439C39.4207 427.37 39.3419 428.349 39.4827 429.31C39.6235 430.272 39.9807 431.196 40.5313 432.021C41.0818 432.846 41.8133 433.555 42.6783 434.101C46.2745 436.528 51.7491 436.141 55.7628 435.01C60.4026 433.714 68.4139 427.149 68.7189 426.91C72.1298 431.13 75.2403 435.551 78.0306 440.146C80.1177 443.541 82.0764 447.054 84.0029 450.568C82.7667 449.809 77.7255 447.054 77.3402 446.89C72.2027 444.761 60.9163 443.451 56.694 447.799C56.0157 448.539 55.5135 449.404 55.22 450.336C54.9265 451.269 54.8485 452.248 54.9909 453.211C55.1333 454.173 55.493 455.097 56.0465 455.922C56.6 456.746 57.3349 457.454 58.2031 457.997C61.7993 460.439 67.2579 460.037 71.2876 458.92C75.815 457.64 83.5213 451.387 84.1313 450.866C85.0144 452.474 85.8974 454.082 86.7643 455.69C89.5899 460.99 92.3834 466.29 95.3375 471.456C96.3489 473.243 97.4246 474.985 98.5484 476.712C96.6379 475.625 93.138 473.734 92.8169 473.585C87.6794 471.456 76.393 470.146 72.1867 474.494C71.5101 475.234 71.0088 476.098 70.7155 477.03C70.4222 477.961 70.3434 478.94 70.4842 479.901C70.625 480.863 70.9822 481.786 71.5328 482.612C72.0833 483.437 72.8148 484.146 73.6798 484.692C77.276 487.134 82.7346 486.732 86.7643 485.615C90.794 484.499 97.4085 479.347 99.2548 477.873C101.053 480.747 102.899 483.575 104.874 486.255C105.757 487.402 106.576 488.623 107.475 489.68L110.124 492.881C112.018 495.01 113.768 497.005 115.582 498.94L118.264 501.784C116.514 500.414 113.704 498.3 113.447 498.136C108.631 495.308 97.7778 492.419 92.8972 496.126C92.1051 496.763 91.4665 497.547 91.0229 498.428C90.5792 499.309 90.3406 500.266 90.3224 501.238C90.3042 502.21 90.507 503.174 90.9174 504.069C91.3278 504.963 91.9367 505.767 92.7045 506.429C95.9154 509.332 101.342 509.719 105.548 509.169C110.14 508.558 118.504 503.66 119.532 503.049C121.731 505.357 123.915 507.516 125.954 509.645C132.504 516.151 138.235 521.347 142.297 524.92C146.359 528.494 148.719 530.489 148.719 530.489C149.173 530.797 149.736 530.934 150.294 530.871C150.853 530.809 151.365 530.552 151.726 530.152C152.088 529.752 152.272 529.24 152.241 528.719C152.21 528.198 151.967 527.708 151.561 527.347C151.561 527.347 149.201 525.546 145.091 522.077Z" fill="black"/>
<path opacity="0.1" d="M49.0199 408.017C49.0199 408.017 55.6825 399.813 56.7261 395.332C57.6091 391.521 57.593 386.399 54.6872 383.302C54.0282 382.547 53.2058 381.929 52.2731 381.488C51.3403 381.047 50.318 380.792 49.2723 380.74C48.2266 380.688 47.1808 380.84 46.2026 381.186C45.2244 381.533 44.3355 382.066 43.5934 382.751C39.2587 386.995 41.5866 397.327 44.2838 401.898C44.5567 402.3 48.9396 408.091 49.0199 408.017Z" fill="black"/>
</g>
<g opacity="0.1">
<path opacity="0.1" d="M192.067 411.367C190.943 406.335 189.45 399.114 188.085 390.389C187.684 387.873 187.298 385.208 186.945 382.454C188.165 382.245 197.862 380.488 201.635 377.987C205.071 375.739 208.764 372.032 208.908 367.863C208.991 366.887 208.849 365.907 208.493 364.986C208.136 364.065 207.573 363.224 206.839 362.521C206.106 361.817 205.22 361.266 204.24 360.903C203.26 360.541 202.208 360.376 201.154 360.419C194.86 360.821 189.048 369.873 187.684 374.95C187.604 375.277 187.042 379.208 186.801 381.233C186.592 379.565 186.383 377.913 186.191 376.186C185.902 373.684 185.677 371.049 185.452 368.488C185.452 367.148 185.308 365.808 185.243 364.454C185.179 363.099 185.243 361.774 185.243 360.404C185.243 358.409 185.404 356.339 185.516 354.285C188.278 354.166 196.353 353.674 199.966 351.977C203.578 350.28 207.993 347.049 208.812 343.044C209.036 342.098 209.045 341.119 208.837 340.17C208.629 339.221 208.209 338.322 207.604 337.533C206.999 336.743 206.223 336.08 205.325 335.585C204.427 335.091 203.427 334.776 202.39 334.662C196.112 334.186 188.872 342.315 186.721 347.138C186.64 347.287 186.303 348.359 185.902 349.625C186.094 347.615 186.271 345.605 186.544 343.58C187.282 337.848 188.246 332.012 189.177 326.161C189.37 324.94 189.546 323.734 189.739 322.513C192.051 322.409 200.816 321.962 204.621 320.19C208.426 318.419 212.649 315.248 213.468 311.257C213.695 310.311 213.705 309.332 213.499 308.381C213.292 307.431 212.872 306.532 212.267 305.742C211.661 304.952 210.884 304.288 209.984 303.795C209.085 303.301 208.084 302.988 207.046 302.875C200.752 302.399 193.528 310.528 191.36 315.352C191.36 315.515 190.879 316.841 190.429 318.21C190.895 315.039 191.296 311.853 191.601 308.697C192.166 303.254 192.332 297.783 192.099 292.319C192.918 292.319 203.193 291.947 207.431 289.982C211.204 288.24 215.458 285.054 216.277 281.049C216.504 280.104 216.515 279.125 216.308 278.175C216.101 277.226 215.681 276.328 215.076 275.539C214.47 274.75 213.692 274.088 212.793 273.596C211.894 273.103 210.893 272.792 209.855 272.682C203.562 272.19 196.337 280.334 194.17 285.143C194.009 285.486 192.564 290.101 192.131 291.754C192.123 291.689 192.123 291.624 192.131 291.56C191.759 286.213 190.878 280.907 189.498 275.704C188.286 271.052 186.785 266.468 185.003 261.977C183.397 257.808 181.647 254.071 180.074 250.781C179.207 248.994 178.372 247.386 177.585 245.897H177.714C177.826 245.897 177.521 238.825 177.457 238.453C176.59 233.302 171.661 223.803 165.432 222.88C164.394 222.752 163.338 222.829 162.333 223.105C161.329 223.381 160.398 223.851 159.603 224.483C158.808 225.115 158.165 225.896 157.717 226.774C157.269 227.652 157.026 228.608 157.003 229.58C156.746 233.704 160.07 237.739 163.265 240.27C166.46 242.801 175.097 245.272 177.216 245.838C178.003 247.416 178.822 249.098 179.705 250.974C181.198 254.294 182.916 258.046 184.344 262.245C184.746 263.361 185.131 264.582 185.532 265.744C184.425 263.897 182.867 261.381 182.675 261.158C179.351 256.945 170.248 250.617 164.276 252.463C163.291 252.793 162.392 253.312 161.637 253.985C160.883 254.659 160.29 255.473 159.898 256.373C159.505 257.274 159.322 258.241 159.36 259.212C159.398 260.182 159.656 261.135 160.118 262.007C161.932 265.773 166.893 267.962 171.003 268.811C175.113 269.659 184.264 268.156 186.223 267.798C187.058 270.404 187.828 273.099 188.503 275.957C189.716 281.094 190.436 286.32 190.654 291.575C190.654 291.888 190.654 292.2 190.654 292.513C190.269 291.501 187.764 286.156 187.555 285.798C184.746 281.332 176.446 274.051 170.281 275.272C169.261 275.501 168.304 275.926 167.474 276.521C166.643 277.115 165.957 277.866 165.461 278.723C164.964 279.58 164.667 280.524 164.59 281.494C164.513 282.465 164.658 283.439 165.015 284.354C166.379 288.27 171.067 290.935 175.033 292.215C179.608 293.704 190.253 292.751 190.638 292.721C190.725 297.994 190.441 303.265 189.787 308.503C189.321 312.389 188.679 316.305 187.989 320.22C187.459 318.925 185.147 313.952 184.922 313.61C182.129 309.143 173.829 301.878 167.664 303.099C166.646 303.328 165.691 303.753 164.862 304.346C164.033 304.94 163.348 305.688 162.851 306.544C162.355 307.399 162.058 308.341 161.98 309.31C161.901 310.278 162.044 311.251 162.398 312.166C163.762 316.096 168.434 318.746 172.416 320.042C176.879 321.53 187.074 320.622 187.941 320.548C187.62 322.319 187.315 324.106 186.993 325.893C185.918 331.699 184.826 337.535 183.943 343.312C183.622 345.322 183.397 347.302 183.172 349.267C182.322 347.347 180.7 343.893 180.523 343.61C177.714 339.143 169.414 331.863 163.249 333.099C162.231 333.328 161.276 333.753 160.447 334.346C159.618 334.94 158.933 335.689 158.436 336.544C157.94 337.399 157.643 338.341 157.564 339.31C157.486 340.278 157.629 341.251 157.983 342.166C159.347 346.096 164.019 348.746 168.001 350.042C171.982 351.337 180.572 350.771 182.996 350.592C182.627 353.898 182.354 357.188 182.241 360.434C182.241 361.833 182.097 363.277 182.241 364.617C182.386 365.957 182.241 367.327 182.338 368.652C182.53 371.406 182.675 373.967 182.916 376.528C183.028 377.823 183.156 379.044 183.285 380.295C182.739 378.24 181.808 374.98 181.679 374.697C179.64 369.828 172.625 361.535 166.315 361.878C165.272 361.964 164.26 362.253 163.345 362.725C162.43 363.197 161.631 363.841 161.002 364.618C160.372 365.394 159.926 366.284 159.69 367.23C159.455 368.176 159.437 369.158 159.636 370.111C160.343 374.176 164.453 377.466 168.242 379.297C172.352 381.307 182.225 381.903 183.429 381.977C183.75 385.044 184.104 388.037 184.473 390.821C185.661 399.665 186.993 406.975 188.005 412.096C189.016 417.218 189.739 420.121 189.739 420.121C189.787 420.402 189.898 420.67 190.064 420.909C190.23 421.148 190.448 421.353 190.703 421.51C190.959 421.666 191.247 421.773 191.549 421.821C191.851 421.869 192.161 421.859 192.458 421.791C192.756 421.723 193.035 421.598 193.278 421.425C193.521 421.251 193.722 421.033 193.869 420.784C194.017 420.534 194.107 420.26 194.133 419.976C194.16 419.693 194.124 419.408 194.025 419.139C194.025 419.139 193.191 416.414 192.067 411.367Z" fill="black"/>
<path opacity="0.1" d="M186.672 266.711C186.672 266.711 197.268 263.734 200.945 260.652C204.156 258.061 207.367 253.937 206.901 249.813C206.851 248.844 206.581 247.895 206.109 247.029C205.637 246.163 204.973 245.398 204.161 244.786C203.349 244.173 202.407 243.727 201.397 243.474C200.386 243.222 199.33 243.17 198.296 243.322C192.099 244.394 187.427 254.012 186.72 259.193C186.656 259.639 186.56 266.741 186.672 266.711Z" fill="black"/>
</g>
<path d="M531.606 448.513C531.815 495.159 571.839 532.826 571.839 532.826C571.839 532.826 611.526 494.846 611.302 448.201C611.077 401.555 571.149 363.888 571.149 363.888C571.149 363.888 531.382 401.868 531.606 448.513Z" fill="#A6CAFF"/>
<path d="M571.839 532.826L571.069 363.888" stroke="white" stroke-width="0.910297" stroke-miterlimit="10"/>
<path d="M571.341 423.933L548.945 405.962" stroke="white" stroke-width="0.910297" stroke-miterlimit="10"/>
<path d="M571.823 451.848L599.277 414.627" stroke="white" stroke-width="0.910297" stroke-miterlimit="10"/>
<path d="M571.55 467.943L538.478 440.816" stroke="white" stroke-width="0.910297" stroke-miterlimit="10"/>
<path d="M572 489.62L604.462 462.553" stroke="white" stroke-width="0.910297" stroke-miterlimit="10"/>
<path d="M572.08 508.335L546.505 489.724" stroke="white" stroke-width="0.910297" stroke-miterlimit="10"/>
<path d="M504.329 520.514C523.772 540.732 556.7 542.846 556.7 542.846C556.7 542.846 558.161 512.221 538.718 492.062C519.276 471.903 486.284 469.848 486.284 469.848C486.284 469.848 484.887 500.414 504.329 520.514Z" fill="#A6CAFF"/>
<path d="M556.764 542.787L486.348 469.789" stroke="white" stroke-width="0.910297" stroke-miterlimit="10"/>
<path d="M511.377 495.724L494.199 495.918" stroke="white" stroke-width="0.910297" stroke-miterlimit="10"/>
<path d="M523.161 507.665L519.629 481.729" stroke="white" stroke-width="0.910297" stroke-miterlimit="10"/>
<path d="M529.712 514.752L504.121 514.782" stroke="white" stroke-width="0.910297" stroke-miterlimit="10"/>
<path d="M538.911 523.983L541.769 500.667" stroke="white" stroke-width="0.910297" stroke-miterlimit="10"/>
<path d="M546.714 532.082L527.898 533.124" stroke="white" stroke-width="0.910297" stroke-miterlimit="10"/>
<path d="M605.73 491.02C585.502 510.509 585.759 541.164 585.759 541.164C585.759 541.164 618.799 540.226 639.028 520.737C659.257 501.248 659 470.593 659 470.593C659 470.593 625.959 471.531 605.73 491.02Z" fill="#A6CAFF"/>
<path d="M585.759 541.164L659 470.593" stroke="white" stroke-width="0.910297" stroke-miterlimit="10"/>
<path d="M632.975 495.68L631.482 479.809" stroke="white" stroke-width="0.910297" stroke-miterlimit="10"/>
<path d="M621.015 507.471L648.645 502.275" stroke="white" stroke-width="0.910297" stroke-miterlimit="10"/>
<path d="M613.886 514.067L611.944 490.394" stroke="white" stroke-width="0.910297" stroke-miterlimit="10"/>
<path d="M604.639 523.253L629.925 524.146" stroke="white" stroke-width="0.910297" stroke-miterlimit="10"/>
<path d="M596.515 531.069L593.979 513.739" stroke="white" stroke-width="0.910297" stroke-miterlimit="10"/>
<g opacity="0.1">
<path opacity="0.1" d="M531.606 448.513C531.815 495.159 571.839 532.826 571.839 532.826C571.839 532.826 611.526 494.846 611.301 448.201C611.077 401.555 571.149 363.888 571.149 363.888C571.149 363.888 531.381 401.868 531.606 448.513Z" fill="black"/>
<path opacity="0.1" d="M504.329 520.514C523.772 540.732 556.7 542.846 556.7 542.846C556.7 542.846 558.161 512.221 538.718 492.062C519.276 471.903 486.284 469.848 486.284 469.848C486.284 469.848 484.887 500.414 504.329 520.514Z" fill="black"/>
<path opacity="0.1" d="M605.731 491.02C585.502 510.509 585.759 541.164 585.759 541.164C585.759 541.164 618.799 540.226 639.028 520.737C659.257 501.248 659 470.593 659 470.593C659 470.593 625.959 471.531 605.731 491.02Z" fill="black"/>
</g>
<path d="M543.005 67.5793H146.969V540.3H543.005V67.5793Z" fill="white" stroke="#263238" stroke-width="0.987488" stroke-linecap="round" stroke-linejoin="round"/>
<g style="mix-blend-mode:multiply">
<path d="M210.144 67.5793H146.969V540.3H210.144V67.5793Z" fill="#D4E5FF"/>
</g>
<path d="M455.01 137.421H333.556V150.671H455.01V137.421Z" fill="#D4E5FF" stroke="#263238" stroke-width="0.987488" stroke-linecap="round" stroke-linejoin="round"/>
<path d="M529.728 250.319H196.803V263.57H529.728V250.319Z" fill="#D4E5FF"/>
<path d="M529.728 432.434H196.803V445.685H529.728V432.434Z" fill="#D4E5FF"/>
<path d="M410.105 160.245H333.556V173.495H410.105V160.245Z" fill="#D4E5FF" stroke="#263238" stroke-width="0.987488" stroke-linecap="round" stroke-linejoin="round"/>
<path d="M410.105 182.592H333.556V195.843H410.105V182.592Z" fill="#D4E5FF" stroke="#263238" stroke-width="0.987488" stroke-linecap="round" stroke-linejoin="round"/>
<path d="M323.024 278.161H315.142V285.471H323.024V278.161Z" fill="#D4E5FF" stroke="#263238" stroke-width="0.987488" stroke-linecap="round" stroke-linejoin="round"/>
<path d="M323.024 372.181H315.142V379.491H323.024V372.181Z" fill="#D4E5FF" stroke="#263238" stroke-width="0.987488" stroke-linecap="round" stroke-linejoin="round"/>
<path d="M434.267 278.161H426.384V285.471H434.267V278.161Z" fill="#D4E5FF" stroke="#263238" stroke-width="0.987488" stroke-linecap="round" stroke-linejoin="round"/>
<path d="M434.267 372.181H426.384V379.491H434.267V372.181Z" fill="#D4E5FF" stroke="#263238" stroke-width="0.987488" stroke-linecap="round" stroke-linejoin="round"/>
<path d="M543.005 67.5793H146.969V91.6241H543.005V67.5793Z" fill="#263238" stroke="#263238" stroke-width="0.987488" stroke-linecap="round" stroke-linejoin="round"/>
<path d="M405.513 283.238H335.804C335.208 283.238 334.636 283.018 334.215 282.627C333.793 282.236 333.556 281.706 333.556 281.153V281.153C333.556 280.6 333.793 280.07 334.215 279.679C334.636 279.288 335.208 279.069 335.804 279.069H405.513C406.109 279.069 406.681 279.288 407.102 279.679C407.524 280.07 407.761 280.6 407.761 281.153V281.153C407.761 281.706 407.524 282.236 407.102 282.627C406.681 283.018 406.109 283.238 405.513 283.238Z" fill="#263238"/>
<path d="M405.513 293.674H335.804C335.206 293.67 334.635 293.447 334.214 293.054C333.792 292.661 333.556 292.129 333.556 291.575V291.575C333.556 291.022 333.793 290.492 334.215 290.101C334.636 289.71 335.208 289.491 335.804 289.491H405.513C406.109 289.491 406.681 289.71 407.102 290.101C407.524 290.492 407.761 291.022 407.761 291.575V291.575C407.761 292.129 407.524 292.661 407.103 293.054C406.682 293.447 406.111 293.67 405.513 293.674V293.674Z" fill="#263238"/>
<path d="M405.513 304.096H335.804C335.208 304.096 334.636 303.877 334.215 303.486C333.793 303.095 333.556 302.565 333.556 302.012V302.012C333.556 301.459 333.793 300.929 334.215 300.538C334.636 300.147 335.208 299.927 335.804 299.927H405.513C406.109 299.927 406.681 300.147 407.102 300.538C407.524 300.929 407.761 301.459 407.761 302.012C407.761 302.565 407.524 303.095 407.102 303.486C406.681 303.877 406.109 304.096 405.513 304.096Z" fill="#263238"/>
<path d="M405.513 314.518H335.804C335.208 314.518 334.636 314.298 334.215 313.907C333.793 313.517 333.556 312.986 333.556 312.434V312.434C333.556 311.881 333.793 311.351 334.215 310.96C334.636 310.569 335.208 310.349 335.804 310.349H405.513C406.109 310.349 406.681 310.569 407.102 310.96C407.524 311.351 407.761 311.881 407.761 312.434V312.434C407.761 312.986 407.524 313.517 407.102 313.907C406.681 314.298 406.109 314.518 405.513 314.518Z" fill="#263238"/>
<path d="M405.513 324.94H335.804C335.208 324.94 334.636 324.72 334.215 324.329C333.793 323.938 333.556 323.408 333.556 322.855V322.855C333.556 322.303 333.793 321.773 334.215 321.382C334.636 320.991 335.208 320.771 335.804 320.771H405.513C406.109 320.771 406.681 320.991 407.102 321.382C407.524 321.773 407.761 322.303 407.761 322.855V322.855C407.761 323.408 407.524 323.938 407.102 324.329C406.681 324.72 406.109 324.94 405.513 324.94Z" fill="#263238"/>
<path d="M510.96 283.238H441.251C440.655 283.238 440.083 283.018 439.661 282.627C439.24 282.236 439.003 281.706 439.003 281.153V281.153C439.003 280.6 439.24 280.07 439.661 279.679C440.083 279.288 440.655 279.069 441.251 279.069H510.96C511.556 279.069 512.128 279.288 512.549 279.679C512.971 280.07 513.208 280.6 513.208 281.153V281.153C513.208 281.706 512.971 282.236 512.549 282.627C512.128 283.018 511.556 283.238 510.96 283.238Z" fill="#263238"/>
<path d="M510.96 293.674H441.251C440.653 293.67 440.081 293.447 439.66 293.054C439.239 292.661 439.003 292.129 439.003 291.575V291.575C439.003 291.022 439.24 290.492 439.661 290.101C440.083 289.71 440.655 289.491 441.251 289.491H510.96C511.556 289.491 512.128 289.71 512.549 290.101C512.971 290.492 513.208 291.022 513.208 291.575V291.575C513.208 292.129 512.971 292.661 512.55 293.054C512.129 293.447 511.558 293.67 510.96 293.674V293.674Z" fill="#263238"/>
<path d="M510.96 304.096H441.251C440.655 304.096 440.083 303.877 439.661 303.486C439.24 303.095 439.003 302.565 439.003 302.012C439.003 301.459 439.24 300.929 439.661 300.538C440.083 300.147 440.655 299.927 441.251 299.927H510.96C511.556 299.927 512.128 300.147 512.549 300.538C512.971 300.929 513.208 301.459 513.208 302.012C513.208 302.565 512.971 303.095 512.549 303.486C512.128 303.877 511.556 304.096 510.96 304.096Z" fill="#263238"/>
<path d="M510.96 314.518H441.251C440.655 314.518 440.083 314.298 439.661 313.907C439.24 313.517 439.003 312.986 439.003 312.434C439.003 311.881 439.24 311.351 439.661 310.96C440.083 310.569 440.655 310.349 441.251 310.349H510.96C511.556 310.349 512.128 310.569 512.549 310.96C512.971 311.351 513.208 311.881 513.208 312.434V312.434C513.208 312.986 512.971 313.517 512.549 313.907C512.128 314.298 511.556 314.518 510.96 314.518Z" fill="#263238"/>
<path d="M510.96 324.94H441.251C440.655 324.94 440.083 324.72 439.661 324.329C439.24 323.938 439.003 323.408 439.003 322.855C439.003 322.303 439.24 321.773 439.661 321.382C440.083 320.991 440.655 320.771 441.251 320.771H510.96C511.556 320.771 512.128 320.991 512.549 321.382C512.971 321.773 513.208 322.303 513.208 322.855V322.855C513.208 323.408 512.971 323.938 512.549 324.329C512.128 324.72 511.556 324.94 510.96 324.94Z" fill="#263238"/>
<path d="M405.513 375.694H335.804C335.206 375.69 334.635 375.467 334.214 375.074C333.792 374.681 333.556 374.149 333.556 373.595V373.595C333.556 373.042 333.793 372.512 334.215 372.121C334.636 371.73 335.208 371.511 335.804 371.511H405.513C406.109 371.511 406.681 371.73 407.102 372.121C407.524 372.512 407.761 373.042 407.761 373.595V373.595C407.761 374.149 407.524 374.681 407.103 375.074C406.682 375.467 406.111 375.69 405.513 375.694Z" fill="#263238"/>
<path d="M405.513 386.116H335.804C335.208 386.116 334.636 385.897 334.215 385.506C333.793 385.115 333.556 384.585 333.556 384.032V384.032C333.556 383.479 333.793 382.949 334.215 382.558C334.636 382.167 335.208 381.947 335.804 381.947H405.513C406.109 381.947 406.681 382.167 407.102 382.558C407.524 382.949 407.761 383.479 407.761 384.032V384.032C407.761 384.585 407.524 385.115 407.102 385.506C406.681 385.897 406.109 386.116 405.513 386.116Z" fill="#263238"/>
<path d="M405.513 396.538H335.804C335.208 396.538 334.636 396.318 334.215 395.928C333.793 395.537 333.556 395.006 333.556 394.454V394.454C333.556 393.901 333.793 393.371 334.215 392.98C334.636 392.589 335.208 392.369 335.804 392.369H405.513C406.109 392.369 406.681 392.589 407.102 392.98C407.524 393.371 407.761 393.901 407.761 394.454V394.454C407.761 395.006 407.524 395.537 407.102 395.928C406.681 396.318 406.109 396.538 405.513 396.538Z" fill="#263238"/>
<path d="M405.513 406.96H335.804C335.208 406.96 334.636 406.74 334.215 406.349C333.793 405.959 333.556 405.428 333.556 404.876V404.876C333.556 404.323 333.793 403.793 334.215 403.402C334.636 403.011 335.208 402.791 335.804 402.791H405.513C406.109 402.791 406.681 403.011 407.102 403.402C407.524 403.793 407.761 404.323 407.761 404.876V404.876C407.761 405.428 407.524 405.959 407.102 406.349C406.681 406.74 406.109 406.96 405.513 406.96Z" fill="#263238"/>
<path d="M405.513 417.397H335.804C335.208 417.397 334.636 417.177 334.215 416.786C333.793 416.395 333.556 415.865 333.556 415.312V415.312C333.556 414.759 333.793 414.229 334.215 413.838C334.636 413.447 335.208 413.228 335.804 413.228H405.513C406.109 413.228 406.681 413.447 407.102 413.838C407.524 414.229 407.761 414.759 407.761 415.312V415.312C407.761 415.865 407.524 416.395 407.102 416.786C406.681 417.177 406.109 417.397 405.513 417.397Z" fill="#263238"/>
<path d="M510.96 375.694H441.251C440.653 375.69 440.081 375.467 439.66 375.074C439.239 374.681 439.003 374.149 439.003 373.595V373.595C439.003 373.042 439.24 372.512 439.661 372.121C440.083 371.73 440.655 371.511 441.251 371.511H510.96C511.556 371.511 512.128 371.73 512.549 372.121C512.971 372.512 513.208 373.042 513.208 373.595V373.595C513.208 374.149 512.971 374.681 512.55 375.074C512.129 375.467 511.558 375.69 510.96 375.694V375.694Z" fill="#263238"/>
<path d="M510.96 386.116H441.251C440.655 386.116 440.083 385.897 439.661 385.506C439.24 385.115 439.003 384.585 439.003 384.032C439.003 383.479 439.24 382.949 439.661 382.558C440.083 382.167 440.655 381.947 441.251 381.947H510.96C511.556 381.947 512.128 382.167 512.549 382.558C512.971 382.949 513.208 383.479 513.208 384.032V384.032C513.208 384.585 512.971 385.115 512.549 385.506C512.128 385.897 511.556 386.116 510.96 386.116Z" fill="#263238"/>
<path d="M510.96 396.538H441.251C440.655 396.538 440.083 396.318 439.661 395.928C439.24 395.537 439.003 395.006 439.003 394.454C439.003 393.901 439.24 393.371 439.661 392.98C440.083 392.589 440.655 392.369 441.251 392.369H510.96C511.556 392.369 512.128 392.589 512.549 392.98C512.971 393.371 513.208 393.901 513.208 394.454V394.454C513.208 395.006 512.971 395.537 512.549 395.928C512.128 396.318 511.556 396.538 510.96 396.538Z" fill="#263238"/>
<path d="M510.96 406.96H441.251C440.655 406.96 440.083 406.74 439.661 406.349C439.24 405.959 439.003 405.428 439.003 404.876C439.003 404.323 439.24 403.793 439.661 403.402C440.083 403.011 440.655 402.791 441.251 402.791H510.96C511.556 402.791 512.128 403.011 512.549 403.402C512.971 403.793 513.208 404.323 513.208 404.876V404.876C513.208 405.428 512.971 405.959 512.549 406.349C512.128 406.74 511.556 406.96 510.96 406.96Z" fill="#263238"/>
<path d="M510.96 417.397H441.251C440.655 417.397 440.083 417.177 439.661 416.786C439.24 416.395 439.003 415.865 439.003 415.312V415.312C439.003 414.759 439.24 414.229 439.661 413.838C440.083 413.447 440.655 413.228 441.251 413.228H510.96C511.556 413.228 512.128 413.447 512.549 413.838C512.971 414.229 513.208 414.759 513.208 415.312V415.312C513.208 415.865 512.971 416.395 512.549 416.786C512.128 417.177 511.556 417.397 510.96 417.397Z" fill="#263238"/>
<path d="M510.96 464.98H441.251C440.655 464.98 440.083 464.76 439.661 464.369C439.24 463.978 439.003 463.448 439.003 462.895V462.895C439.003 462.343 439.24 461.813 439.661 461.422C440.083 461.031 440.655 460.811 441.251 460.811H510.96C511.556 460.811 512.128 461.031 512.549 461.422C512.971 461.813 513.208 462.343 513.208 462.895V462.895C513.208 463.448 512.971 463.978 512.549 464.369C512.128 464.76 511.556 464.98 510.96 464.98V464.98Z" fill="#263238"/>
<path d="M510.96 475.402H441.251C440.655 475.402 440.083 475.182 439.661 474.791C439.24 474.4 439.003 473.87 439.003 473.317V473.317C439.003 472.765 439.24 472.234 439.661 471.844C440.083 471.453 440.655 471.233 441.251 471.233H510.96C511.556 471.233 512.128 471.453 512.549 471.844C512.971 472.234 513.208 472.765 513.208 473.317V473.317C513.208 473.87 512.971 474.4 512.549 474.791C512.128 475.182 511.556 475.402 510.96 475.402V475.402Z" fill="#263238"/>
<path d="M510.96 485.839H441.251C440.655 485.839 440.083 485.619 439.661 485.228C439.24 484.837 439.003 484.307 439.003 483.754V483.754C439.003 483.201 439.24 482.671 439.661 482.28C440.083 481.889 440.655 481.67 441.251 481.67H510.96C511.556 481.67 512.128 481.889 512.549 482.28C512.971 482.671 513.208 483.201 513.208 483.754V483.754C513.208 484.307 512.971 484.837 512.549 485.228C512.128 485.619 511.556 485.839 510.96 485.839V485.839Z" fill="#263238"/>
<path d="M510.96 492.092H441.251C440.009 492.092 439.003 493.025 439.003 494.176C439.003 495.327 440.009 496.26 441.251 496.26H510.96C512.201 496.26 513.208 495.327 513.208 494.176C513.208 493.025 512.201 492.092 510.96 492.092Z" fill="#263238"/>
<path d="M510.96 506.682H441.251C440.655 506.682 440.083 506.463 439.661 506.072C439.24 505.681 439.003 505.151 439.003 504.598V504.598C439.003 504.045 439.24 503.515 439.661 503.124C440.083 502.733 440.655 502.513 441.251 502.513H510.96C511.556 502.513 512.128 502.733 512.549 503.124C512.971 503.515 513.208 504.045 513.208 504.598V504.598C513.208 505.151 512.971 505.681 512.549 506.072C512.128 506.463 511.556 506.682 510.96 506.682V506.682Z" fill="#263238"/>
<path d="M504.217 343.714C502.092 343.715 500.036 344.414 498.414 345.686C496.791 346.959 495.708 348.724 495.355 350.667H484.598C484.205 348.763 483.108 347.045 481.496 345.809C479.885 344.574 477.859 343.898 475.768 343.898C473.677 343.898 471.652 344.574 470.04 345.809C468.428 347.045 467.332 348.763 466.938 350.667H456.182C455.788 348.763 454.691 347.045 453.08 345.809C451.468 344.574 449.442 343.898 447.352 343.898C445.261 343.898 443.235 344.574 441.623 345.809C440.012 347.045 438.915 348.763 438.521 350.667H427.62C427.245 348.749 426.155 347.014 424.541 345.765C422.928 344.516 420.892 343.832 418.79 343.832C416.688 343.832 414.653 344.516 413.039 345.765C411.426 347.014 410.336 348.749 409.96 350.667H399.188C398.812 348.749 397.722 347.014 396.109 345.765C394.495 344.516 392.46 343.832 390.358 343.832C388.256 343.832 386.22 344.516 384.607 345.765C382.993 347.014 381.903 348.749 381.527 350.667H370.755C370.379 348.749 369.289 347.014 367.676 345.765C366.062 344.516 364.027 343.832 361.925 343.832C359.823 343.832 357.787 344.516 356.174 345.765C354.56 347.014 353.47 348.749 353.095 350.667H342.322C341.946 348.606 340.748 346.751 338.967 345.47C337.186 344.189 334.951 343.576 332.704 343.751C330.458 343.926 328.365 344.877 326.839 346.416C325.314 347.955 324.467 349.969 324.467 352.059C324.467 354.149 325.314 356.163 326.839 357.702C328.365 359.241 330.458 360.192 332.704 360.367C334.951 360.542 337.186 359.929 338.967 358.648C340.748 357.367 341.946 355.512 342.322 353.451H353.095C353.47 355.369 354.56 357.104 356.174 358.353C357.787 359.602 359.823 360.286 361.925 360.286C364.027 360.286 366.062 359.602 367.676 358.353C369.289 357.104 370.379 355.369 370.755 353.451H381.527C381.903 355.369 382.993 357.104 384.607 358.353C386.22 359.602 388.256 360.286 390.358 360.286C392.46 360.286 394.495 359.602 396.109 358.353C397.722 357.104 398.812 355.369 399.188 353.451H409.96C410.336 355.369 411.426 357.104 413.039 358.353C414.653 359.602 416.688 360.286 418.79 360.286C420.892 360.286 422.928 359.602 424.541 358.353C426.155 357.104 427.245 355.369 427.62 353.451H438.393C438.786 355.356 439.883 357.073 441.495 358.309C443.107 359.544 445.132 360.22 447.223 360.22C449.314 360.22 451.34 359.544 452.951 358.309C454.563 357.073 455.66 355.356 456.053 353.451H466.81C467.203 355.356 468.3 357.073 469.912 358.309C471.523 359.544 473.549 360.22 475.64 360.22C477.731 360.22 479.756 359.544 481.368 358.309C482.98 357.073 484.076 355.356 484.47 353.451H495.226C495.514 355.018 496.279 356.475 497.43 357.653C498.581 358.83 500.071 359.677 501.724 360.095C503.378 360.513 505.126 360.485 506.762 360.012C508.398 359.54 509.855 358.644 510.96 357.429C512.065 356.215 512.773 354.733 513.001 353.158C513.228 351.582 512.965 349.98 512.243 348.539C511.521 347.097 510.37 345.877 508.925 345.023C507.48 344.168 505.802 343.714 504.089 343.714H504.217Z" fill="#263238"/>
<path d="M294.511 461.585C291.513 461.582 288.581 462.404 286.087 463.947C283.593 465.489 281.648 467.683 280.498 470.251C279.348 472.819 279.046 475.645 279.629 478.373C280.212 481.1 281.654 483.606 283.773 485.573C285.892 487.54 288.592 488.88 291.533 489.423C294.473 489.967 297.521 489.689 300.291 488.626C303.062 487.563 305.43 485.761 307.096 483.45C308.762 481.138 309.651 478.42 309.651 475.64C309.653 473.795 309.263 471.968 308.503 470.263C307.743 468.558 306.628 467.008 305.222 465.703C303.816 464.397 302.147 463.362 300.309 462.655C298.471 461.949 296.501 461.585 294.511 461.585V461.585ZM294.511 482.638C293.014 482.64 291.55 482.231 290.304 481.462C289.058 480.693 288.087 479.597 287.512 478.316C286.938 477.034 286.787 475.622 287.078 474.261C287.369 472.899 288.09 471.648 289.148 470.667C290.207 469.685 291.556 469.017 293.024 468.747C294.492 468.477 296.014 468.617 297.396 469.149C298.779 469.682 299.96 470.583 300.789 471.738C301.619 472.894 302.06 474.252 302.057 475.64C302.053 477.495 301.256 479.272 299.842 480.584C298.428 481.895 296.511 482.634 294.511 482.638V482.638Z" fill="#D4E5FF" stroke="#263238" stroke-width="0.987488" stroke-linecap="round" stroke-linejoin="round"/>
<path d="M299.023 481.223L306.247 484.484C308.05 482.428 309.189 479.941 309.532 477.311C309.875 474.68 309.408 472.013 308.186 469.618C306.964 467.223 305.035 465.198 302.624 463.777C300.213 462.355 297.417 461.595 294.56 461.585V468.628C296.136 468.643 297.668 469.116 298.94 469.981C300.212 470.845 301.16 472.057 301.651 473.447C302.142 474.837 302.15 476.335 301.676 477.729C301.202 479.124 300.268 480.346 299.007 481.223H299.023Z" fill="#263238" stroke="#263238" stroke-width="0.987488" stroke-linecap="round" stroke-linejoin="round"/>
<path d="M301.8 507.114H287.351C286.877 507.116 286.408 507.031 285.97 506.864C285.532 506.698 285.133 506.452 284.798 506.143C284.462 505.833 284.196 505.464 284.014 505.059C283.832 504.653 283.739 504.218 283.739 503.779V503.779C283.739 502.891 284.119 502.039 284.797 501.41C285.474 500.782 286.393 500.429 287.351 500.429H301.8C302.758 500.429 303.677 500.782 304.354 501.41C305.032 502.039 305.412 502.891 305.412 503.779C305.412 504.218 305.319 504.653 305.137 505.059C304.955 505.464 304.689 505.833 304.353 506.143C304.018 506.452 303.619 506.698 303.181 506.864C302.743 507.031 302.274 507.116 301.8 507.114Z" fill="#D4E5FF" stroke="#263238" stroke-width="0.987488" stroke-linecap="round" stroke-linejoin="round"/>
<path d="M339.673 461.585C336.676 461.585 333.745 462.41 331.253 463.954C328.761 465.498 326.818 467.693 325.671 470.261C324.524 472.83 324.224 475.656 324.809 478.382C325.393 481.108 326.837 483.613 328.956 485.578C331.076 487.544 333.776 488.882 336.716 489.425C339.656 489.967 342.703 489.689 345.473 488.625C348.242 487.561 350.609 485.76 352.274 483.448C353.94 481.137 354.829 478.42 354.829 475.64C354.831 473.794 354.44 471.965 353.679 470.259C352.918 468.553 351.802 467.003 350.394 465.697C348.987 464.392 347.315 463.357 345.475 462.651C343.636 461.946 341.664 461.583 339.673 461.585ZM339.673 482.638C338.177 482.638 336.714 482.226 335.47 481.455C334.226 480.683 333.257 479.587 332.685 478.305C332.114 477.023 331.965 475.612 332.258 474.252C332.551 472.891 333.273 471.641 334.332 470.661C335.391 469.681 336.74 469.014 338.208 468.746C339.676 468.477 341.196 468.618 342.578 469.151C343.959 469.684 345.139 470.585 345.968 471.74C346.797 472.895 347.238 474.252 347.235 475.64C347.235 476.56 347.039 477.471 346.659 478.321C346.279 479.171 345.721 479.943 345.019 480.593C344.317 481.243 343.483 481.758 342.566 482.109C341.648 482.46 340.665 482.639 339.673 482.638V482.638Z" fill="#D4E5FF" stroke="#263238" stroke-width="0.987488" stroke-linecap="round" stroke-linejoin="round"/>
<path d="M354.748 474.166C354.35 470.728 352.602 467.545 349.837 465.225C347.071 462.905 343.482 461.609 339.753 461.585V468.628C341.745 468.647 343.648 469.395 345.048 470.708C346.449 472.021 347.235 473.793 347.235 475.64C347.218 475.909 347.186 476.178 347.138 476.444L354.748 474.166Z" fill="#263238" stroke="#263238" stroke-width="0.987488" stroke-linecap="round" stroke-linejoin="round"/>
<path d="M346.898 507.114H332.448C331.975 507.116 331.505 507.031 331.067 506.864C330.629 506.698 330.231 506.452 329.895 506.143C329.559 505.833 329.293 505.464 329.111 505.059C328.93 504.653 328.836 504.218 328.836 503.779V503.779C328.836 502.891 329.217 502.039 329.894 501.41C330.572 500.782 331.49 500.429 332.448 500.429H346.898C347.856 500.429 348.774 500.782 349.452 501.41C350.129 502.039 350.51 502.891 350.51 503.779C350.51 504.218 350.416 504.653 350.235 505.059C350.053 505.464 349.787 505.833 349.451 506.143C349.115 506.452 348.717 506.698 348.279 506.864C347.841 507.031 347.371 507.116 346.898 507.114Z" fill="#D4E5FF" stroke="#263238" stroke-width="0.987488" stroke-linecap="round" stroke-linejoin="round"/>
<path d="M385.108 461.585C382.11 461.585 379.18 462.41 376.688 463.954C374.195 465.498 372.253 467.693 371.106 470.261C369.959 472.83 369.658 475.656 370.243 478.382C370.828 481.108 372.271 483.613 374.391 485.578C376.511 487.544 379.211 488.882 382.151 489.425C385.091 489.967 388.138 489.689 390.907 488.625C393.677 487.561 396.044 485.76 397.709 483.448C399.374 481.137 400.263 478.42 400.263 475.64C400.265 473.794 399.875 471.965 399.114 470.259C398.353 468.553 397.237 467.003 395.829 465.697C394.421 464.392 392.75 463.357 390.91 462.651C389.07 461.946 387.098 461.583 385.108 461.585V461.585ZM385.108 482.638C383.611 482.638 382.149 482.226 380.905 481.455C379.661 480.683 378.692 479.587 378.12 478.305C377.548 477.023 377.399 475.612 377.692 474.252C377.985 472.891 378.707 471.641 379.766 470.661C380.826 469.681 382.174 469.014 383.642 468.746C385.11 468.477 386.631 468.618 388.013 469.151C389.394 469.684 390.574 470.585 391.403 471.74C392.232 472.895 392.673 474.252 392.669 475.64C392.669 476.56 392.474 477.471 392.093 478.321C391.713 479.171 391.156 479.943 390.454 480.593C389.751 481.243 388.918 481.758 388 482.109C387.083 482.46 386.1 482.639 385.108 482.638V482.638Z" fill="#D4E5FF" stroke="#263238" stroke-width="0.987488" stroke-linecap="round" stroke-linejoin="round"/>
<path d="M385.188 461.585V468.628C386.46 468.629 387.712 468.929 388.826 469.499C389.941 470.068 390.882 470.889 391.563 471.886C392.245 472.883 392.643 474.023 392.723 475.201C392.803 476.379 392.561 477.556 392.019 478.624C391.478 479.692 390.654 480.616 389.626 481.31C388.597 482.004 387.395 482.447 386.133 482.596C384.871 482.745 383.588 482.597 382.404 482.164C381.22 481.732 380.173 481.029 379.36 480.121L373.356 484.469C374.964 486.308 377.048 487.74 379.413 488.631C381.778 489.523 384.348 489.845 386.884 489.568C389.419 489.292 391.838 488.425 393.916 487.048C395.993 485.672 397.661 483.83 398.765 481.695C399.869 479.56 400.373 477.201 400.23 474.837C400.086 472.473 399.301 470.181 397.946 468.174C396.591 466.168 394.711 464.511 392.48 463.359C390.25 462.207 387.741 461.597 385.188 461.585V461.585Z" fill="#263238" stroke="#263238" stroke-width="0.987488" stroke-linecap="round" stroke-linejoin="round"/>
<path d="M392.332 507.114H377.883C377.409 507.116 376.94 507.031 376.502 506.864C376.064 506.698 375.665 506.452 375.33 506.143C374.994 505.833 374.728 505.464 374.546 505.059C374.364 504.653 374.271 504.218 374.271 503.779V503.779C374.269 503.339 374.361 502.902 374.541 502.495C374.722 502.087 374.988 501.717 375.324 501.406C375.66 501.094 376.059 500.848 376.498 500.68C376.937 500.512 377.408 500.427 377.883 500.429H392.332C393.29 500.429 394.209 500.782 394.887 501.41C395.564 502.039 395.945 502.891 395.945 503.779C395.945 504.218 395.851 504.653 395.669 505.059C395.488 505.464 395.221 505.833 394.886 506.143C394.55 506.452 394.152 506.698 393.713 506.864C393.275 507.031 392.806 507.116 392.332 507.114Z" fill="#D4E5FF" stroke="#263238" stroke-width="0.987488" stroke-linecap="round" stroke-linejoin="round"/>
<path d="M229.506 244.959C266.959 244.959 297.321 216.803 297.321 182.071C297.321 147.339 266.959 119.182 229.506 119.182C192.053 119.182 161.691 147.339 161.691 182.071C161.691 216.803 192.053 244.959 229.506 244.959Z" fill="white"/>
<path d="M250.056 531.948C250.056 531.948 259.849 545.6 258.501 551.005C257.152 556.409 248.547 554.742 244.469 548.921C240.391 543.099 230.02 534.404 231.898 530.667C233.777 526.93 246.396 528.628 250.056 531.948Z" fill="white" stroke="#263238" stroke-width="1.02307" stroke-linecap="round" stroke-linejoin="round"/>
<path d="M207.977 531.189C207.977 531.189 196.145 547.476 198.039 551.928C199.933 556.38 206.066 555.055 210.754 551.035C215.442 547.015 224.802 535.73 224.802 535.73C224.802 535.73 216.935 526.737 207.977 531.189Z" fill="white" stroke="#263238" stroke-width="1.02307" stroke-linecap="round" stroke-linejoin="round"/>
<path d="M198.039 551.928C201.248 552.338 204.512 551.746 207.319 550.246C212.713 547.715 222.121 536.295 222.121 536.295" stroke="#263238" stroke-width="0.767303" stroke-linecap="round" stroke-linejoin="round"/>
<path d="M235.189 533.392C235.189 533.392 240.311 542.325 246.074 547.387C251.838 552.449 254.664 553.893 258.453 551.005" stroke="#263238" stroke-width="0.767303" stroke-linecap="round" stroke-linejoin="round"/>
<path d="M191.36 327.932C191.36 327.932 181.005 347.526 181.471 355.535C181.936 363.545 183.831 404.072 186.656 417.426C189.482 430.781 192.259 464.042 194.186 477.337C196.112 490.633 208.458 521.779 208.458 521.779C208.458 521.779 206.564 528.911 207.977 531.129C209.39 533.347 224.337 537.01 224.802 535.67C225.268 534.33 227.628 530.325 228.013 526.32C228.398 522.315 221.431 479.571 224.256 470.221C227.082 460.871 227.628 398.012 228.013 391.536C228.398 385.059 227.901 373.669 227.901 373.669C228.74 373.909 229.638 373.911 230.479 373.675C231.32 373.439 232.065 372.976 232.621 372.344C234.499 370.111 240.728 430.632 242.623 444.881C244.517 459.129 240.263 463.134 238.85 472.037C237.437 480.94 234.146 509.868 234.146 513.442C234.146 517.015 229.907 528.568 231.786 530.801C233.664 533.035 237.662 532.662 239.299 533.079C244.212 534.345 248.049 532.365 249.928 531.918C251.806 531.471 253.395 525.025 253.395 525.025C253.395 525.025 268.519 485.392 271.344 468.91C274.17 452.429 278.874 421.848 277.943 403.149C277.012 384.449 271.344 346.573 271.344 346.573L269.932 335.436L191.36 327.932Z" fill="#263238" stroke="#263238" stroke-width="1.02307" stroke-linecap="round" stroke-linejoin="round"/>
<path d="M184.746 350.592C184.746 350.592 183.831 361.58 191.585 368.756" stroke="white" stroke-width="0.506629" stroke-linecap="round" stroke-linejoin="round"/>
<path d="M185.195 366.225C185.195 366.225 189.755 373.416 195.229 374.25" stroke="white" stroke-width="0.506629" stroke-linecap="round" stroke-linejoin="round"/>
<path d="M221.639 486.464C221.639 486.464 215.217 500.667 214.351 508.424C213.484 516.181 221.639 513.159 223.47 518.325C225.3 523.491 212.536 523.074 214.816 524.355C217.096 525.635 223.919 526.514 223.919 526.514" stroke="white" stroke-width="0.511535" stroke-linecap="round" stroke-linejoin="round"/>
<path d="M234.001 521.779C235.366 521.347 250.859 518.801 249.029 511.015C247.198 503.228 238.095 502.826 239.396 493.789C240.696 484.752 254.872 464.92 254.872 459.322C254.872 453.724 244.854 432.866 243.939 419.943" stroke="white" stroke-width="0.511535" stroke-linecap="round" stroke-linejoin="round"/>
<path d="M256.269 349.759C256.269 349.759 245.786 363.694 244.421 365.808C243.056 367.923 256.719 356.518 256.719 356.518" stroke="white" stroke-width="0.506629" stroke-linecap="round" stroke-linejoin="round"/>
<path d="M228.848 344.831C228.848 344.831 229.988 355.014 229.988 357.114V368.712" stroke="white" stroke-width="0.506629" stroke-linecap="round" stroke-linejoin="round"/>
<path d="M229.988 362.399C229.988 362.399 234.917 361.699 236.04 358.186C237.164 354.672 236.811 347.645 236.811 347.645" stroke="white" stroke-width="0.506629" stroke-linecap="round" stroke-linejoin="round"/>
<path d="M325.111 223.997C319.46 208.706 318.513 200.413 318.047 196.051C317.582 191.689 312.396 192.984 312.396 192.984C312.396 192.984 301.158 199.103 301.158 200.428C301.158 201.753 306.344 234.061 307.275 239.734C307.84 243.059 308.157 246.417 308.222 249.783C308.222 249.783 288.443 230.131 283.257 225.322C279.308 221.644 276.177 218.503 272.822 216.627C271.007 215.138 267.861 214.587 263.012 213.098C254.535 210.478 245.593 204.359 235.222 204.791C228.413 205.224 221.729 206.704 215.442 209.168C215.442 209.168 200.383 215.719 190.012 220.081C188.804 220.581 187.657 221.2 186.592 221.927C184.89 221.734 181.342 222.582 177.296 230.994C171.661 242.786 146.231 273.798 141.976 284.711C137.722 295.625 146.68 306.553 156.57 315.277C163.705 321.784 170.463 328.637 176.815 335.808L188.053 322.975C188.371 325.83 188.907 328.661 189.659 331.446C191.071 335.808 195.775 340.617 214.623 341.868C233.472 343.119 275.808 345.53 274.427 336.627C272.484 323.972 273.48 283.342 272.549 272.429C272.273 265.428 272.428 258.42 273.014 251.436C275.182 253.982 279.436 258.701 282.406 260.562C286.645 263.183 304.562 275.451 311.626 278.101C318.69 280.751 328.579 276.359 332.818 267.679C337.056 258.999 330.763 239.287 325.111 223.997ZM171.597 296.488C169.703 289.505 168.771 286.885 168.771 286.885C168.771 286.885 180.844 274.826 186.656 268.394C187.443 285.649 187.941 304.528 187.395 307.297C186.966 311.94 187.079 316.612 187.732 321.233C184.585 317.228 173.202 302.503 171.597 296.488Z" fill="#A6CAFF" stroke="#263238" stroke-width="1.01326" stroke-linecap="round" stroke-linejoin="round"/>
<path opacity="0.1" d="M325.111 223.997C319.46 208.706 318.513 200.413 318.047 196.051C317.582 191.689 312.396 192.984 312.396 192.984C312.396 192.984 301.158 199.103 301.158 200.428C301.158 201.753 306.344 234.061 307.275 239.734C307.84 243.059 308.157 246.417 308.222 249.783C308.222 249.783 288.443 230.131 283.257 225.322C279.308 221.644 276.177 218.503 272.822 216.627C271.007 215.138 267.861 214.587 263.012 213.098C254.535 210.478 245.593 204.359 235.222 204.791C228.413 205.224 221.729 206.704 215.442 209.168C215.442 209.168 200.383 215.719 190.012 220.081C188.804 220.581 187.657 221.2 186.592 221.927C184.89 221.734 181.342 222.582 177.296 230.994C171.661 242.786 146.231 273.798 141.976 284.711C137.722 295.625 146.68 306.553 156.57 315.277C163.705 321.784 170.463 328.637 176.815 335.808L188.053 322.975C188.371 325.83 188.907 328.661 189.659 331.446C191.071 335.808 195.775 340.617 214.623 341.868C233.472 343.119 275.808 345.53 274.427 336.627C272.484 323.972 273.48 283.342 272.549 272.429C272.273 265.428 272.428 258.42 273.014 251.436C275.182 253.982 279.436 258.701 282.406 260.562C286.645 263.183 304.562 275.451 311.626 278.101C318.69 280.751 328.579 276.359 332.818 267.679C337.056 258.999 330.763 239.287 325.111 223.997ZM171.597 296.488C169.703 289.505 168.771 286.885 168.771 286.885C168.771 286.885 180.844 274.826 186.656 268.394C187.443 285.649 187.941 304.528 187.395 307.297C186.966 311.94 187.079 316.612 187.732 321.233C184.585 317.228 173.202 302.503 171.597 296.488Z" fill="black"/>
<path d="M192.484 266.518C195.465 262.368 198.06 257.99 200.239 253.431" stroke="#263238" stroke-width="0.759943" stroke-linecap="round" stroke-linejoin="round"/>
<path d="M204.332 254.696C203.242 256.803 201.689 258.674 199.773 260.19" stroke="#263238" stroke-width="0.759943" stroke-linecap="round" stroke-linejoin="round"/>
<path d="M308.158 249.768C308.221 252.285 308.821 254.764 309.923 257.064C311.026 259.364 312.608 261.438 314.58 263.168" stroke="#263238" stroke-width="1.01326" stroke-linecap="round" stroke-linejoin="round"/>
<path d="M310.02 256.811C309.637 260.784 310.596 264.77 312.765 268.215" stroke="#263238" stroke-width="1.01326" stroke-linecap="round" stroke-linejoin="round"/>
<path d="M168.771 286.885C168.771 286.885 165.304 283.833 156.746 285.158" stroke="#263238" stroke-width="0.759943" stroke-linecap="round" stroke-linejoin="round"/>
<path d="M152.01 283.401C152.01 283.401 154.386 279.873 163.393 282.508" stroke="#263238" stroke-width="0.759943" stroke-linecap="round" stroke-linejoin="round"/>
<path d="M283.032 238.051C281.138 238.483 273.062 251.257 273.062 251.257L292.537 246.419" stroke="#263238" stroke-width="0.759943" stroke-linecap="round" stroke-linejoin="round"/>
<path d="M227.114 229.342C227.114 229.342 230.758 233.987 238.962 231.887C247.166 229.788 249.895 221.749 248.595 216.672C247.295 211.595 219.825 215.823 227.114 229.342Z" fill="white" stroke="#263238" stroke-width="1.01326" stroke-linecap="round" stroke-linejoin="round"/>
<path d="M219.311 200.413C219.311 200.413 213.805 203.808 213.082 206.875C212.36 209.942 214.174 219.783 215.635 223.178C217.096 226.572 221.88 234.389 221.88 234.389C221.88 234.389 238.368 225.56 239.54 224.875C240.712 224.19 252.384 230.309 254.937 229.342C257.489 228.374 248.707 207.59 244.678 203.183C240.648 198.776 225.171 196.319 219.311 200.413Z" fill="white" stroke="#263238" stroke-width="1.01326" stroke-linecap="round" stroke-linejoin="round"/>
<path d="M216.341 189.188C216.341 189.188 216.711 194.622 217.449 202.781C218.188 210.94 221.158 217.386 225.974 221.123C230.79 224.86 237.694 226.9 239.524 224.86C241.354 222.82 243.554 214.334 242.735 209.227C241.916 204.121 240.905 193.267 240.905 193.267L216.341 189.188Z" fill="white" stroke="#263238" stroke-width="1.01326" stroke-linecap="round" stroke-linejoin="round"/>
<g style="mix-blend-mode:multiply" opacity="0.5">
<path d="M242.029 202.87C241.483 198.121 240.985 193.267 240.985 193.267L216.341 189.188C216.341 189.188 216.711 194.622 217.449 202.781C217.729 206.554 218.667 210.259 220.227 213.753L242.029 202.87Z" fill="#A6CAFF"/>
</g>
<path d="M208.314 181.059C208.314 181.059 202.823 175.967 201.716 180.374C200.608 184.781 205.023 191.6 211.252 189.887V185.823L208.314 181.059Z" fill="white" stroke="#263238" stroke-width="1.01326" stroke-linecap="round" stroke-linejoin="round"/>
<path opacity="0.5" d="M208.314 181.059C208.314 181.059 202.823 175.967 201.716 180.374C200.608 184.781 205.023 191.6 211.252 189.887V185.823L208.314 181.059Z" fill="#A6CAFF" stroke="#263238" stroke-width="1.01326" stroke-linecap="round" stroke-linejoin="round"/>
<path d="M203.498 171.858C203.498 171.858 212.665 194.622 220.724 199.044C228.784 203.466 244.903 207.53 249.301 191.6C253.7 175.669 241.981 152.518 237.951 145.714C233.921 138.91 218.894 136.885 209.374 143.674C199.853 150.463 197.686 156.895 203.498 171.858Z" fill="white" stroke="#263238" stroke-width="1.01326" stroke-linecap="round" stroke-linejoin="round"/>
<g style="mix-blend-mode:multiply" opacity="0.5">
<path d="M213.66 152.577C217.551 150.908 221.769 149.996 226.054 149.897L235.189 142.766C229.185 138.478 217.385 137.957 209.422 143.644C199.885 150.448 197.686 156.895 203.546 171.858C203.546 171.858 212.713 194.622 220.772 199.044C223.631 200.602 226.727 201.752 229.956 202.453C226.07 197.808 220.098 190.423 218.204 186.657C215.314 180.91 214.078 169.044 210.353 162.15C206.628 155.257 207.881 155.257 213.66 152.577Z" fill="#A6CAFF"/>
</g>
<path d="M232.862 165.054C232.862 165.054 236.522 171.173 235.061 172.498C234.566 172.894 233.969 173.165 233.328 173.285C232.686 173.405 232.023 173.37 231.401 173.183" stroke="#263238" stroke-width="1.01326" stroke-linecap="round" stroke-linejoin="round"/>
<path d="M216.004 164.041C216.004 164.041 216.743 159.962 222.233 159.962" stroke="#263238" stroke-width="2.02651" stroke-linecap="round" stroke-linejoin="round"/>
<path d="M219.311 168.121C219.311 168.121 223.341 169.818 224.802 166.081" stroke="#263238" stroke-width="1.01326" stroke-linecap="round" stroke-linejoin="round"/>
<path d="M236.891 165.396C236.891 165.396 240.921 167.093 242.398 163.356" stroke="#263238" stroke-width="1.01326" stroke-linecap="round" stroke-linejoin="round"/>
<path d="M233.552 157.594C234.53 156.67 235.852 156.126 237.248 156.073C238.644 156.02 240.009 156.463 241.065 157.312" stroke="#263238" stroke-width="2.02651" stroke-linecap="round" stroke-linejoin="round"/>
<path d="M250.056 178.513C245.785 176.786 235.607 172.974 232.203 174.567C227.804 176.607 216.438 183.753 216.438 189.188C216.438 189.188 209.117 180.016 209.117 176.607C209.117 173.197 212.039 172.14 209.486 167.778C206.933 163.416 203.241 163.014 204.348 157.922C205.36 153.202 215.49 148.2 220.403 147.5C223.472 149.908 227.381 151.199 231.401 151.133C239.428 151.133 246.058 146.354 246.058 140.428C246.058 134.503 239.492 129.738 231.401 129.738C229.6 129.731 227.808 129.977 226.086 130.468C218.412 129.947 216.951 135.217 211.637 138.106C206.323 140.994 202.984 149.51 202.984 149.51H203.209C199.323 154.781 199.339 161.138 203.562 171.843C203.562 171.843 212.729 194.607 220.788 199.029C228.848 203.451 244.967 207.515 249.366 191.585C250.434 187.3 250.668 182.873 250.056 178.513V178.513Z" fill="#263238" stroke="#263238" stroke-width="1.01326" stroke-linecap="round" stroke-linejoin="round"/>
<path d="M241.306 178.17C241.306 178.17 235.816 185.302 229.586 180.552" stroke="white" stroke-width="1.01326" stroke-linecap="round" stroke-linejoin="round"/>
<path d="M188.535 322.26C190.711 323.533 192.625 325.157 194.186 327.054C196.099 329.483 198.146 331.819 200.319 334.052C200.319 334.052 205.488 334.483 205.023 336.672C204.557 338.86 203.61 340.156 201.25 340.156C198.89 340.156 193.72 335.793 193.72 335.793L186.191 346.707C186.191 346.707 179.127 341.913 176.767 335.793L188.535 322.26Z" fill="white" stroke="#263238" stroke-width="1.01326" stroke-linecap="round" stroke-linejoin="round"/>
<path d="M229.506 244.959C266.959 244.959 297.321 216.803 297.321 182.071C297.321 147.339 266.959 119.182 229.506 119.182C192.053 119.182 161.691 147.339 161.691 182.071C161.691 216.803 192.053 244.959 229.506 244.959Z" stroke="#263238" stroke-width="2.02651" stroke-linecap="round" stroke-linejoin="round"/>
<path d="M290.738 169.848C290.738 169.848 286.018 169.401 285.087 172.021C284.156 174.642 282.727 177.262 282.727 179.019C282.727 180.776 283.193 182.071 285.553 182.503C287.913 182.934 289.326 179.882 289.326 179.882L290.738 169.848Z" fill="white" stroke="#263238" stroke-width="1.01326" stroke-linecap="round" stroke-linejoin="round"/>
<path d="M291.67 166.781C291.67 166.781 289.326 178.572 289.326 182.071C289.428 184.761 290.414 187.358 292.151 189.515C293.01 190.418 294.168 191.031 295.443 191.257L297.803 188.637C297.803 188.637 294.977 192.135 298.734 196.498C302.491 200.86 305.332 200.428 308.623 199.118C311.915 197.808 312.862 196.066 311.449 191.257C310.036 186.448 309.105 178.587 308.158 173.793C307.211 168.999 303.919 167.242 302.041 167.242C300.163 167.242 295.009 165.47 291.67 166.781Z" fill="white" stroke="#263238" stroke-width="1.01326" stroke-linecap="round" stroke-linejoin="round"/>
<path d="M289.952 184.528C289.952 184.528 289.117 181.818 292.665 181.431C296.213 181.044 302.073 180.463 302.073 180.463" stroke="#263238" stroke-width="0.506629" stroke-linecap="round" stroke-linejoin="round"/>
<path d="M290.369 177.56C290.369 177.56 298.509 175.609 301.447 175.997" stroke="#263238" stroke-width="0.506629" stroke-linecap="round" stroke-linejoin="round"/>
<path d="M290.995 172.126C294.032 171.625 297.11 171.366 300.195 171.351" stroke="#263238" stroke-width="0.506629" stroke-linecap="round" stroke-linejoin="round"/>
<path d="M293.709 186.657C294.353 187.194 295.126 187.581 295.963 187.786C296.801 187.99 297.679 188.006 298.525 187.833" stroke="#263238" stroke-width="0.506629" stroke-linecap="round" stroke-linejoin="round"/>
</svg>
