<svg width="452" height="423" viewBox="0 0 452 423" fill="none" xmlns="http://www.w3.org/2000/svg">
<path d="M393.373 1H50.3734V209H393.373V1Z" fill="white" stroke="#263238" stroke-linecap="round" stroke-linejoin="round"/>
<path d="M248.043 28.33H62.0434V44.58H248.043V28.33Z" stroke="#263238" stroke-linecap="round" stroke-linejoin="round"/>
<path d="M248.043 53.79H62.0434V147.67H248.043V53.79Z" stroke="#263238" stroke-linecap="round" stroke-linejoin="round"/>
<path d="M384.553 121.66H258.583V196.44H384.553V121.66Z" stroke="#263238" stroke-linecap="round" stroke-linejoin="round"/>
<path d="M258.583 196.44L384.553 121.66" stroke="#263238" stroke-linecap="round" stroke-linejoin="round"/>
<path d="M384.553 196.44L258.583 121.66" stroke="#263238" stroke-linecap="round" stroke-linejoin="round"/>
<path d="M215.443 161.93H245.923" stroke="#263238" stroke-linecap="round" stroke-linejoin="round"/>
<path d="M161.373 161.93H209.113" stroke="#263238" stroke-linecap="round" stroke-linejoin="round"/>
<path d="M87.7434 161.93H152.163" stroke="#263238" stroke-linecap="round" stroke-linejoin="round"/>
<path d="M63.0134 161.93H80.2634" stroke="#263238" stroke-linecap="round" stroke-linejoin="round"/>
<path d="M107.873 170.55H245.923" stroke="#263238" stroke-linecap="round" stroke-linejoin="round"/>
<path d="M63.0134 170.55H100.973" stroke="#263238" stroke-linecap="round" stroke-linejoin="round"/>
<path d="M180.923 179.18H245.923" stroke="#263238" stroke-linecap="round" stroke-linejoin="round"/>
<path d="M116.503 179.18H171.723" stroke="#263238" stroke-linecap="round" stroke-linejoin="round"/>
<path d="M63.0134 179.18H110.173" stroke="#263238" stroke-linecap="round" stroke-linejoin="round"/>
<path d="M170.573 187.81H245.923" stroke="#263238" stroke-linecap="round" stroke-linejoin="round"/>
<path d="M109.023 187.81H163.093" stroke="#263238" stroke-linecap="round" stroke-linejoin="round"/>
<path d="M63.0134 187.81H102.703" stroke="#263238" stroke-linecap="round" stroke-linejoin="round"/>
<path d="M212.563 196.44H245.923" stroke="#263238" stroke-linecap="round" stroke-linejoin="round"/>
<path d="M133.763 196.44H206.233" stroke="#263238" stroke-linecap="round" stroke-linejoin="round"/>
<path d="M100.973 196.44H127.433" stroke="#263238" stroke-linecap="round" stroke-linejoin="round"/>
<path d="M75.0934 196.44H90.6234" stroke="#263238" stroke-linecap="round" stroke-linejoin="round"/>
<path d="M63.0134 196.44H75.0934" stroke="#263238" stroke-linecap="round" stroke-linejoin="round"/>
<path d="M393.373 1H50.3734V16H393.373V1Z" fill="#90CAF9" stroke="#263238" stroke-linecap="round" stroke-linejoin="round"/>
<path d="M385.643 5.5H99.6434V11.55H385.643V5.5Z" fill="white" stroke="#263238" stroke-linecap="round" stroke-linejoin="round"/>
<path d="M93.6834 5.5H55.6534V11.55H93.6834V5.5Z" fill="white" stroke="#263238" stroke-linecap="round" stroke-linejoin="round"/>
<path d="M413.073 36.96H283.073V110.96H413.073V36.96Z" fill="white" stroke="#263238" stroke-linecap="round" stroke-linejoin="round"/>
<path d="M413.073 96.96H283.073V110.96H413.073V96.96Z" fill="white" stroke="#263238" stroke-linecap="round" stroke-linejoin="round"/>
<path d="M365.183 68.26L330.973 48.51V88.01L365.183 68.26Z" fill="#ED2F2F" stroke="#263238" stroke-linecap="round" stroke-linejoin="round"/>
<path d="M287.343 33.08H279.863V40.56H287.343V33.08Z" fill="white" stroke="#263238" stroke-linecap="round" stroke-linejoin="round"/>
<path d="M416.473 33.08H408.993V40.56H416.473V33.08Z" fill="white" stroke="#263238" stroke-linecap="round" stroke-linejoin="round"/>
<path d="M287.343 105.84H279.863V113.32H287.343V105.84Z" fill="white" stroke="#263238" stroke-linecap="round" stroke-linejoin="round"/>
<path d="M416.473 105.84H408.993V113.32H416.473V105.84Z" fill="white" stroke="#263238" stroke-linecap="round" stroke-linejoin="round"/>
<path d="M127.713 97.84V110.84H124.483V81.92H127.713V94.92H134.823V81.92H138.043V110.86H134.823V97.86L127.713 97.84Z" fill="#263238"/>
<path d="M145.523 110.86V84.86H140.193V81.92H154.043V84.86H148.713V110.86H145.523Z" fill="#263238"/>
<path d="M166.893 110.82H163.793L159.003 87.82V110.89H156.193V81.92H160.693L165.453 105L170.043 81.89H174.543V110.83H171.483V87.59L166.893 110.82Z" fill="#263238"/>
<path d="M177.853 110.86V81.92H181.073V107.92H189.373V110.86H177.853Z" fill="#263238"/>
<path d="M395.573 107.5L402.483 138.5C402.548 138.705 402.671 138.886 402.837 139.021C403.004 139.156 403.207 139.239 403.42 139.259C403.634 139.279 403.849 139.236 404.038 139.135C404.227 139.034 404.382 138.879 404.483 138.69L408.963 129.26C409.051 129.07 409.193 128.91 409.371 128.8C409.548 128.69 409.754 128.634 409.963 128.64L420.383 129.21C420.604 129.22 420.823 129.163 421.01 129.046C421.198 128.929 421.345 128.757 421.433 128.554C421.521 128.352 421.545 128.127 421.502 127.91C421.46 127.693 421.352 127.494 421.193 127.34L397.373 106.43C397.201 106.269 396.981 106.167 396.746 106.142C396.511 106.116 396.274 106.168 396.071 106.289C395.868 106.409 395.71 106.593 395.62 106.811C395.53 107.03 395.514 107.271 395.573 107.5Z" fill="#263238"/>
<path d="M424.033 135H414.703V144.33H424.033V135Z" fill="white" stroke="#263238" stroke-width="0.75" stroke-linecap="round" stroke-linejoin="round"/>
<path d="M415.353 134.26H413.953V135.66H415.353V134.26Z" fill="#263238"/>
<path d="M420.093 134.26H418.693V135.66H420.093V134.26Z" fill="#263238"/>
<path d="M424.633 134.26H423.233V135.66H424.633V134.26Z" fill="#263238"/>
<path d="M415.353 138.98H413.953V140.38H415.353V138.98Z" fill="#263238"/>
<path d="M420.093 138.98H418.693V140.38H420.093V138.98Z" fill="#263238"/>
<path d="M424.633 138.98H423.233V140.38H424.633V138.98Z" fill="#263238"/>
<path d="M415.353 143.52H413.953V144.92H415.353V143.52Z" fill="#263238"/>
<path d="M420.093 143.52H418.693V144.92H420.093V143.52Z" fill="#263238"/>
<path d="M424.633 143.52H423.233V144.92H424.633V143.52Z" fill="#263238"/>
<path d="M169.843 278.84L166.883 279.42L158.313 237.05L161.273 236.47L169.843 278.84Z" fill="white" stroke="#263238" stroke-linecap="round" stroke-linejoin="round"/>
<path d="M223.003 278H166.703V280.01H223.003V278Z" fill="white" stroke="#263238" stroke-linecap="round" stroke-linejoin="round"/>
<path d="M325.573 383.55H238.583V387.8H325.573V383.55Z" fill="white" stroke="#263238" stroke-linecap="round" stroke-linejoin="round"/>
<path d="M338.703 252.59C338.703 252.59 330.463 317.91 328.183 338.15C325.903 358.39 334.863 421.93 334.863 421.93H329.633L319.363 349.93H242.623L237.713 420.64H233.793L240.373 338.48V329.55C240.373 329.093 240.463 328.64 240.638 328.218C240.813 327.796 241.069 327.412 241.393 327.089C241.716 326.766 242.099 326.51 242.522 326.335C242.944 326.16 243.396 326.07 243.853 326.07H317.373L328.883 245.41C328.883 245.41 330.183 237.9 336.713 240.19C343.243 242.48 338.703 252.59 338.703 252.59Z" fill="#263238" stroke="#263238" stroke-linecap="round" stroke-linejoin="round"/>
<path d="M336.743 240.19C336.573 240.124 336.4 240.068 336.223 240.02C336.723 241.02 337.023 242.76 336.423 246.02C335.113 253.21 321.323 338.77 321.323 338.77H240.323L233.833 421.59H237.753L246.293 349.87H319.373L329.643 421.87H334.873C334.873 421.87 325.873 358.34 328.193 338.09C330.513 317.84 340.253 254.02 340.253 254.02C340.253 254.02 343.283 242.47 336.743 240.19Z" fill="white" stroke="#263238" stroke-linecap="round" stroke-linejoin="round"/>
<path d="M258.473 258.29L217.603 260.61L199.373 271.15L195.773 277.32L198.593 277.83L205.023 275C205.023 275 212.223 273.72 214.283 272.95C216.343 272.18 221.973 266 221.973 266L259.973 272.17L258.473 258.29Z" fill="white" stroke="#263238" stroke-linecap="round" stroke-linejoin="round"/>
<path d="M199.523 384.6C199.523 384.6 192.323 397.2 191.293 397.2C190.263 397.2 181.923 399.05 175.293 395.71C168.663 392.37 163.723 389.8 161.663 392.88C160.633 394.321 159.771 395.874 159.093 397.51C159.093 397.51 165.263 406.25 170.923 409.33C176.583 412.41 179.003 410.82 184.923 414.16C190.843 417.5 191.353 420.07 196.233 419.05C201.113 418.03 203.953 402.34 205.233 400.54C206.513 398.74 211.373 388.71 211.373 388.71L199.523 384.6Z" fill="white" stroke="#263238" stroke-linecap="round" stroke-linejoin="round"/>
<path d="M192.533 395.9C191.943 396.7 191.533 397.2 191.293 397.2C190.293 397.2 181.923 399.05 175.293 395.71C168.663 392.37 163.723 389.8 161.663 392.88C160.633 394.321 159.771 395.874 159.093 397.51C159.093 397.51 165.263 406.25 170.923 409.33C176.583 412.41 179.003 410.82 184.923 414.16C190.843 417.5 191.353 420.07 196.233 419.05C200.563 418.13 203.233 405.74 204.733 401.66C200.293 400.52 195.533 397.81 192.533 395.9Z" fill="#263238" stroke="#263238" stroke-linecap="round" stroke-linejoin="round"/>
<path d="M196.173 419.05C196.32 419.014 196.464 418.967 196.603 418.91C196.652 418.894 196.699 418.874 196.743 418.85L197.023 418.71L197.183 418.61L197.433 418.44L197.593 418.31L197.833 418.1L197.983 417.95C198.072 417.868 198.155 417.781 198.233 417.69L198.373 417.53C198.453 417.43 198.543 417.33 198.623 417.22L198.743 417.07L199.033 416.65L199.103 416.55C199.303 416.25 199.493 415.92 199.683 415.55C194.683 415.55 191.283 412.4 185.893 410.55C179.213 408.24 178.833 410.1 173.953 406.75C169.073 403.4 168.553 401.36 168.553 401.36L172.883 394.52C167.413 391.82 163.423 390.16 161.613 392.87C160.583 394.311 159.721 395.864 159.043 397.5C159.043 397.5 165.213 406.24 170.873 409.32C176.533 412.4 178.953 410.81 184.873 414.15C190.793 417.49 191.293 420.07 196.173 419.05Z" fill="white" stroke="#263238" stroke-linecap="round" stroke-linejoin="round"/>
<path d="M207.233 320.33L184.373 377.4L211.623 392.83C211.623 392.83 240.623 327.02 240.923 325.73C241.223 324.44 246.323 323.16 246.323 323.16L267.123 326C267.123 326 235.763 312.12 226.513 310.06C217.263 308 211.083 309.54 207.233 320.33Z" fill="#90CAF9" stroke="#263238" stroke-linecap="round" stroke-linejoin="round"/>
<path d="M230.963 364.72L243.823 376.8C243.823 376.8 239.453 387.6 234.313 394.54C229.173 401.48 228.653 405.54 230.963 407.13C233.273 408.72 237.903 408.42 240.963 406.36C244.023 404.3 261.523 387.08 263.583 384C264.245 382.952 264.509 381.7 264.325 380.474C264.141 379.248 263.523 378.129 262.583 377.32C261.813 376.8 244.853 356.49 244.853 356.49L230.963 364.72Z" fill="white" stroke="#263238" stroke-linecap="round" stroke-linejoin="round"/>
<path d="M263.613 384C264.275 382.952 264.539 381.7 264.355 380.474C264.171 379.248 263.553 378.129 262.613 377.32C262.253 377.07 258.263 372.4 254.153 367.54C250.393 372.09 243.603 374.63 242.103 375.16L243.853 376.8C243.853 376.8 239.483 387.6 234.343 394.54C229.203 401.48 228.683 405.54 230.993 407.13C233.303 408.72 237.933 408.42 240.993 406.36C244.053 404.3 261.553 387.08 263.613 384Z" fill="#263238" stroke="#263238" stroke-linecap="round" stroke-linejoin="round"/>
<path d="M262.913 377.6C262.783 379.369 262.132 381.06 261.043 382.46C257.963 386.31 240.733 402.25 240.733 402.25L232.733 396.73C229.053 402.35 228.863 405.73 230.913 407.13C233.233 408.68 237.853 408.42 240.913 406.36C243.973 404.3 261.473 387.08 263.533 384C264.166 383.019 264.449 381.854 264.337 380.692C264.224 379.531 263.723 378.441 262.913 377.6V377.6Z" fill="white" stroke="#263238" stroke-linecap="round" stroke-linejoin="round"/>
<path d="M255.643 376.29C255.669 376.829 255.533 377.363 255.253 377.824C254.972 378.285 254.56 378.651 254.07 378.875C253.579 379.1 253.033 379.172 252.501 379.083C251.969 378.994 251.476 378.748 251.085 378.376C250.694 378.004 250.424 377.523 250.309 376.996C250.194 376.469 250.239 375.92 250.439 375.419C250.639 374.918 250.984 374.488 251.431 374.186C251.877 373.883 252.404 373.721 252.943 373.72C253.642 373.704 254.318 373.965 254.824 374.447C255.331 374.929 255.625 375.592 255.643 376.29Z" fill="white"/>
<path d="M263.873 283.49L262.583 287.86C262.583 287.86 223.773 288.37 206.803 293C189.833 297.63 185.213 300.2 186.493 309.71C187.773 319.22 214.003 374 214.003 374C219.282 372.519 224.437 370.63 229.423 368.35C235.328 365.472 240.927 362.004 246.133 358L226.593 320.72C226.593 320.72 248.963 325.35 273.893 327.66C298.823 329.97 309.373 327.4 313.483 319.95C317.593 312.5 310.653 282.68 310.653 282.68L264.133 281.13L263.873 283.49Z" fill="#90CAF9" stroke="#263238" stroke-linecap="round" stroke-linejoin="round"/>
<path d="M209.373 308.45C208.498 307.592 207.729 306.632 207.083 305.59" stroke="#263238" stroke-linecap="round" stroke-linejoin="round"/>
<path d="M226.593 320.76C221.397 317.797 216.442 314.43 211.773 310.69" stroke="#263238" stroke-linecap="round" stroke-linejoin="round"/>
<path d="M229.473 342.23L231.533 343.23" stroke="#263238" stroke-linecap="round" stroke-linejoin="round"/>
<path d="M193.483 311.92C202.289 323.439 213.313 333.079 225.903 340.27" stroke="#263238" stroke-linecap="round" stroke-linejoin="round"/>
<path d="M301.183 300.53C302.165 301.293 303.097 302.118 303.973 303" stroke="#263238" stroke-linecap="round" stroke-linejoin="round"/>
<path d="M265.153 288.37C265.153 288.37 283.993 289.83 297.293 297.85" stroke="#263238" stroke-linecap="round" stroke-linejoin="round"/>
<path d="M290.863 292.74C290.863 292.74 303.203 293 308.083 298.14" stroke="#263238" stroke-linecap="round" stroke-linejoin="round"/>
<path d="M267.473 206.37C267.473 206.37 258.733 232.37 257.473 240.3C256.213 248.23 256.963 282.97 256.963 282.97C256.963 282.97 277.523 289.14 289.093 287.86C300.663 286.58 315.093 284.26 315.093 284.26C315.093 284.26 312.523 238.26 310.213 222.31C307.903 206.36 302.503 197.11 297.363 193.26C293.946 190.749 290.334 188.512 286.563 186.57L267.473 206.37Z" fill="#263238" stroke="#263238" stroke-linecap="round" stroke-linejoin="round"/>
<path d="M222.223 166.27C222.782 169.528 223.916 172.66 225.573 175.52C228.143 179.63 231.743 181.43 230.713 185.52C229.683 189.61 229.713 192.46 232.713 192.71L235.803 192.97C235.803 192.97 241.973 203.51 246.603 203.51C251.233 203.51 264.373 191.72 264.373 191.72C264.373 191.72 257.433 159.07 257.433 158.04C257.433 157.01 220.673 161.9 220.673 161.9L222.223 166.27Z" fill="white" stroke="#263238" stroke-linecap="round" stroke-linejoin="round"/>
<path d="M237.523 179.48C238.013 180.48 237.843 181.61 237.133 181.95C236.423 182.29 235.463 181.73 234.973 180.7C234.483 179.67 234.653 178.57 235.363 178.24C236.073 177.91 237.033 178.46 237.523 179.48Z" fill="#263238"/>
<path d="M231.223 176.55C231.223 176.55 230.963 172.95 236.363 173.72" stroke="#263238" stroke-linecap="round" stroke-linejoin="round"/>
<path d="M238.733 193.82C238.893 194.39 245.013 194.05 244.073 188.63" stroke="#263238" stroke-linecap="round" stroke-linejoin="round"/>
<path d="M274.373 154.18C273.523 143.77 260.563 147.76 254.493 150.91L254.323 150.59L229.903 157.53C229.704 158.521 229.819 159.549 230.233 160.471C230.647 161.393 231.34 162.162 232.213 162.67C237.325 166.477 243.365 168.843 249.703 169.52C251.523 180.4 254.063 196.66 254.063 202.77C254.063 212.28 250.463 215.88 250.463 215.88C250.463 215.88 266.913 210.74 276.463 201.74C282.012 196.572 286.854 190.695 290.863 184.26C290.863 184.26 275.443 166.78 274.373 154.18Z" fill="#464646" stroke="#263238" stroke-linecap="round" stroke-linejoin="round"/>
<path d="M249.743 169.52L249.013 166.12" stroke="#263238" stroke-linecap="round" stroke-linejoin="round"/>
<path d="M261.943 193.18C262.153 194.35 262.323 195.44 262.443 196.39" stroke="#263238" stroke-linecap="round" stroke-linejoin="round"/>
<path d="M255.583 166.12C255.583 166.12 259.213 179.53 261.263 189.6" stroke="#263238" stroke-linecap="round" stroke-linejoin="round"/>
<path d="M267.723 169.49L272.713 182.68" stroke="#263238" stroke-linecap="round" stroke-linejoin="round"/>
<path d="M265.583 163.83L266.873 167.24" stroke="#263238" stroke-linecap="round" stroke-linejoin="round"/>
<path d="M271.863 164.12L274.143 169.83" stroke="#263238" stroke-linecap="round" stroke-linejoin="round"/>
<path d="M219.703 165.87C219.703 165.87 202.503 175 208.233 175C213.963 175 242.643 163.15 243.783 163.15C244.923 163.15 224.673 165.1 219.703 165.87Z" fill="#757575" stroke="#263238" stroke-linecap="round" stroke-linejoin="round"/>
<path d="M219.703 165.87C219.703 165.87 209.413 169.13 214.003 158.04C218.593 146.95 249.843 130.79 262.843 130.79C275.843 130.79 285.453 150.19 283.543 156.31C281.633 162.43 277.423 163.19 275.543 163.19C273.663 163.19 219.703 165.87 219.703 165.87Z" fill="#7D7267" stroke="#263238" stroke-linecap="round" stroke-linejoin="round"/>
<path d="M224.673 162.43C224.673 162.43 243.403 162.81 259.463 160.52C275.523 158.23 282.013 155.93 282.013 155.93" stroke="#263238" stroke-linecap="round" stroke-linejoin="round"/>
<path d="M279.723 160.9L254.493 161.28" stroke="#263238" stroke-linecap="round" stroke-linejoin="round"/>
<path d="M263.873 261.89L260.533 265C260.533 265 218.883 259.6 216.053 260.37C213.223 261.14 203.203 263.97 203.203 263.97L195.203 264.48L188.783 275.28H190.833L195.463 268.85H198.373L193.483 274.51L191.373 277.57L198.563 277.83L199.613 276.94L203.713 273.46L202.423 277.32H203.963L207.563 271.15L212.453 268.58L217.593 264.98C217.593 264.98 270.033 283.23 271.313 283.98C272.593 284.73 275.433 286.81 277.743 284.75C280.053 282.69 286.223 265.47 286.223 265.47L263.873 261.89Z" fill="white" stroke="#263238" stroke-linecap="round" stroke-linejoin="round"/>
<path d="M194.593 277.22C197.26 275.126 199.617 272.665 201.593 269.91C201.593 269.91 201.943 267.2 204.303 266.77" stroke="#263238" stroke-linecap="round" stroke-linejoin="round"/>
<path d="M203.723 273.46L204.883 268.99L206.163 267.96" stroke="#263238" stroke-linecap="round" stroke-linejoin="round"/>
<path d="M198.373 268.83C199.051 267.745 199.872 266.756 200.813 265.89C201.683 265.37 202.213 265.11 202.213 265.11" stroke="#263238" stroke-linecap="round" stroke-linejoin="round"/>
<path d="M241.873 273.46C255.793 278.34 270.653 283.6 271.373 284C272.663 284.77 275.493 286.83 277.803 284.77C280.113 282.71 286.283 265.49 286.283 265.49L263.923 261.89L260.533 265C260.533 265 252.873 264 243.913 262.93L241.873 273.46Z" fill="#757575" stroke="#263238" stroke-linecap="round" stroke-linejoin="round"/>
<path d="M271.373 222.82L260.273 260.09C260.273 260.09 261.273 265.24 271.583 268.09C277.263 269.751 283.146 270.616 289.063 270.66L297.293 224.39" fill="#263238"/>
<path d="M271.373 222.82L260.273 260.09C260.273 260.09 261.273 265.24 271.583 268.09C277.263 269.751 283.146 270.616 289.063 270.66L297.293 224.39" stroke="#263238" stroke-linecap="round" stroke-linejoin="round"/>
<path d="M270.633 226.18L260.603 257.27" stroke="#707070" stroke-linecap="round" stroke-linejoin="round"/>
<path d="M295.123 236.14L290.193 267.8" stroke="#707070" stroke-linecap="round" stroke-linejoin="round"/>
<path d="M296.203 229.18L295.663 232.66" stroke="#707070" stroke-linecap="round" stroke-linejoin="round"/>
<path d="M178.873 282.5H169.873V416.3H178.873V282.5Z" fill="#263238" stroke="#263238" stroke-linecap="round" stroke-linejoin="round"/>
<path d="M240.223 280.14H106.263V285.67H240.223V280.14Z" fill="#757575" stroke="#263238" stroke-linecap="round" stroke-linejoin="round"/>
<path d="M222.603 421.77H126.163C126.166 420.304 126.749 418.899 127.786 417.863C128.822 416.826 130.228 416.243 131.693 416.24H217.073C218.539 416.243 219.944 416.826 220.981 417.863C222.017 418.899 222.601 420.304 222.603 421.77V421.77Z" fill="#757575" stroke="#263238" stroke-linecap="round" stroke-linejoin="round"/>
<path d="M144.983 281.12H127.383L124.743 248.2H147.623L144.983 281.12Z" fill="#90CAF9" stroke="#263238" stroke-linecap="round" stroke-linejoin="round"/>
<path d="M148.563 244.95H123.143V252.45H148.563V244.95Z" fill="white" stroke="#263238" stroke-linecap="round" stroke-linejoin="round"/>
<path d="M145.713 271.99L146.683 259.94H125.683L126.653 271.99H145.713Z" fill="white" stroke="#263238" stroke-linecap="round" stroke-linejoin="round"/>
<path d="M430.703 421.93H442.703" stroke="#263238" stroke-linecap="round" stroke-linejoin="round"/>
<path d="M410.703 421.93H423.373" stroke="#263238" stroke-linecap="round" stroke-linejoin="round"/>
<path d="M106.043 421.93H403.373" stroke="#263238" stroke-linecap="round" stroke-linejoin="round"/>
<path d="M23.8434 421.93H96.7034" stroke="#263238" stroke-linecap="round" stroke-linejoin="round"/>
</svg>
