<svg width="393" height="380" viewBox="0 0 393 380" fill="none" xmlns="http://www.w3.org/2000/svg">
<path d="M367.06 14.064H133.38C127.857 14.064 123.38 18.5411 123.38 24.064V332.414C123.38 337.937 127.857 342.414 133.38 342.414H367.06C372.583 342.414 377.06 337.937 377.06 332.414V24.064C377.06 18.5411 372.583 14.064 367.06 14.064Z" stroke="#263238" stroke-width="1.0229" stroke-linecap="round" stroke-linejoin="round"/>
<path d="M229.89 104.294V105.314H228.87" stroke="#263238" stroke-width="1.0229" stroke-linecap="round" stroke-linejoin="round"/>
<path d="M226.85 105.314H167.36" stroke="#263238" stroke-width="1.0229" stroke-linecap="round" stroke-linejoin="round" stroke-dasharray="2.02 2.02"/>
<path d="M166.35 105.314H165.32V104.294" stroke="#263238" stroke-width="1.0229" stroke-linecap="round" stroke-linejoin="round"/>
<path d="M165.32 102.324V56.054" stroke="#263238" stroke-width="1.0229" stroke-linecap="round" stroke-linejoin="round" stroke-dasharray="1.97 1.97"/>
<path d="M165.32 55.064V54.044H166.35" stroke="#263238" stroke-width="1.0229" stroke-linecap="round" stroke-linejoin="round"/>
<path d="M168.36 54.044H227.86" stroke="#263238" stroke-width="1.0229" stroke-linecap="round" stroke-linejoin="round" stroke-dasharray="2.02 2.02"/>
<path d="M228.87 54.044H229.89V55.064" stroke="#263238" stroke-width="1.0229" stroke-linecap="round" stroke-linejoin="round"/>
<path d="M229.89 57.034V103.314" stroke="#263238" stroke-width="1.0229" stroke-linecap="round" stroke-linejoin="round" stroke-dasharray="1.97 1.97"/>
<path d="M219.58 62.234H175.63V97.134H219.58V62.234Z" fill="white" stroke="#263238" stroke-width="1.0229" stroke-linecap="round" stroke-linejoin="round"/>
<path d="M173.05 59.644L157.97 48.014" stroke="#263238" stroke-width="1.0229" stroke-linecap="round" stroke-linejoin="round"/>
<path d="M222.6 98.854L235.53 110.054" stroke="#263238" stroke-width="1.0229" stroke-linecap="round" stroke-linejoin="round"/>
<path d="M157.37 51.844L156.93 46.894H162.1" stroke="#263238" stroke-width="1.0229" stroke-linecap="round" stroke-linejoin="round"/>
<path d="M235.88 105.374L236.77 110.774L230.48 111.004" stroke="#263238" stroke-width="1.0229" stroke-linecap="round" stroke-linejoin="round"/>
<path d="M274.01 236.924H252.67V244.624H274.01V236.924Z" fill="#263238"/>
<path d="M282.68 240.764L269 232.874V248.664L282.68 240.764Z" fill="#263238"/>
<path d="M237.28 183.814H188.2C184.373 183.814 181.27 186.917 181.27 190.744V299.724C181.27 303.551 184.373 306.654 188.2 306.654H237.28C241.108 306.654 244.21 303.551 244.21 299.724V190.744C244.21 186.917 241.108 183.814 237.28 183.814Z" fill="#263238" stroke="#263238" stroke-width="0.829236" stroke-linecap="round" stroke-linejoin="round"/>
<path d="M241.42 192.154H184.07V299.354H241.42V192.154Z" fill="white" stroke="#263238" stroke-width="0.829236" stroke-linecap="round" stroke-linejoin="round"/>
<path d="M230.79 323.564L235.17 306.564C235.649 304.732 235.891 302.847 235.89 300.954V280.564C235.969 280.301 236.013 280.029 236.02 279.754C235.961 278.846 235.545 277.997 234.863 277.394C234.182 276.791 233.289 276.482 232.38 276.534C231.398 276.515 230.446 276.873 229.72 277.534C229.588 276.684 229.146 275.912 228.48 275.368C227.814 274.823 226.97 274.544 226.11 274.584C225.516 274.572 224.928 274.702 224.394 274.963C223.86 275.224 223.396 275.608 223.04 276.084C222.895 275.246 222.45 274.489 221.787 273.955C221.125 273.421 220.29 273.147 219.44 273.184C218.844 273.175 218.254 273.307 217.719 273.57C217.184 273.832 216.718 274.217 216.36 274.694C216.36 271.994 216.36 259.044 215.91 257.984C214.59 254.574 207.91 256.134 209.1 259.754V289.704C209.1 287.604 207.54 284.834 206.89 282.794C206.24 280.754 205.89 278.794 204.65 277.094C202.59 274.154 198.96 275.774 199.17 278.834C199.34 281.524 201.29 283.644 202.34 286.084C204.28 290.584 203.12 295.294 204.95 299.814C206.47 302.679 208.16 305.451 210.01 308.114C211.008 309.862 211.797 311.722 212.36 313.654L210.66 323.564" fill="white"/>
<path d="M230.79 323.564L235.17 306.564C235.649 304.732 235.891 302.847 235.89 300.954V280.564C235.969 280.301 236.013 280.029 236.02 279.754C235.961 278.846 235.545 277.997 234.863 277.394C234.182 276.791 233.289 276.482 232.38 276.534C231.398 276.515 230.446 276.873 229.72 277.534C229.588 276.684 229.146 275.912 228.48 275.368C227.814 274.823 226.97 274.544 226.11 274.584C225.516 274.572 224.928 274.702 224.394 274.963C223.86 275.224 223.396 275.608 223.04 276.084C222.895 275.246 222.45 274.489 221.787 273.955C221.125 273.421 220.29 273.147 219.44 273.184C218.844 273.175 218.254 273.307 217.719 273.57C217.184 273.832 216.718 274.217 216.36 274.694C216.36 271.994 216.36 259.044 215.91 257.984C214.59 254.574 207.91 256.134 209.1 259.754V289.704C209.1 287.604 207.54 284.834 206.89 282.794C206.24 280.754 205.89 278.794 204.65 277.094C202.59 274.154 198.96 275.774 199.17 278.834C199.34 281.524 201.29 283.644 202.34 286.084C204.28 290.584 203.12 295.294 204.95 299.814C206.47 302.679 208.16 305.451 210.01 308.114C211.008 309.862 211.797 311.722 212.36 313.654L210.66 323.564" stroke="#263238" stroke-width="1.0229" stroke-linecap="round" stroke-linejoin="round"/>
<path d="M212.79 247.664V253.264" stroke="#263238" stroke-width="1.0229" stroke-linecap="round" stroke-linejoin="round"/>
<path d="M219.09 258.504H223.64" stroke="#263238" stroke-width="1.0229" stroke-linecap="round" stroke-linejoin="round"/>
<path d="M200.2 258.504H204.75" stroke="#263238" stroke-width="1.0229" stroke-linecap="round" stroke-linejoin="round"/>
<path d="M206.5 252.564L208.25 255.354" stroke="#263238" stroke-width="1.0229" stroke-linecap="round" stroke-linejoin="round"/>
<path d="M216.99 255.704L219.44 252.564" stroke="#263238" stroke-width="1.0229" stroke-linecap="round" stroke-linejoin="round"/>
<path d="M239.38 233.674H186.21V240.324H239.38V233.674Z" stroke="#263238" stroke-width="1.0229" stroke-linecap="round" stroke-linejoin="round"/>
<path d="M213.5 197.994H187.96V228.424H213.5V197.994Z" stroke="#263238" stroke-width="1.0229" stroke-linecap="round" stroke-linejoin="round"/>
<path d="M187.96 197.994L213.49 228.424" stroke="#263238" stroke-width="1.0229" stroke-linecap="round" stroke-linejoin="round"/>
<path d="M187.26 287.194V243.814H239.03V286.844" stroke="#263238" stroke-width="1.0229" stroke-linecap="round" stroke-linejoin="round"/>
<path d="M343.13 183.814H294.05C290.223 183.814 287.12 186.917 287.12 190.744V299.724C287.12 303.551 290.223 306.654 294.05 306.654H343.13C346.958 306.654 350.06 303.551 350.06 299.724V190.744C350.06 186.917 346.958 183.814 343.13 183.814Z" fill="#263238" stroke="#263238" stroke-width="0.829236" stroke-linecap="round" stroke-linejoin="round"/>
<path d="M347.27 192.154H289.92V299.354H347.27V192.154Z" fill="white" stroke="#263238" stroke-width="0.829236" stroke-linecap="round" stroke-linejoin="round"/>
<path d="M344.67 197.294H292.9V253.964H344.67V197.294Z" stroke="#263238" stroke-width="1.0229" stroke-linecap="round" stroke-linejoin="round"/>
<path d="M292.9 259.204H344.67" stroke="#263238" stroke-width="1.0229" stroke-linecap="round" stroke-linejoin="round"/>
<path d="M292.9 263.404H344.67" stroke="#263238" stroke-width="1.0229" stroke-linecap="round" stroke-linejoin="round"/>
<path d="M292.9 267.604H344.67" stroke="#263238" stroke-width="1.0229" stroke-linecap="round" stroke-linejoin="round"/>
<path d="M292.9 271.804H344.67" stroke="#263238" stroke-width="1.0229" stroke-linecap="round" stroke-linejoin="round"/>
<path d="M292.9 275.994H344.67" stroke="#263238" stroke-width="1.0229" stroke-linecap="round" stroke-linejoin="round"/>
<path d="M292.9 280.194H344.67" stroke="#263238" stroke-width="1.0229" stroke-linecap="round" stroke-linejoin="round"/>
<path d="M292.9 284.394H344.67" stroke="#263238" stroke-width="1.0229" stroke-linecap="round" stroke-linejoin="round"/>
<path d="M292.9 253.964L344.67 197.294" stroke="#263238" stroke-width="1.0229" stroke-linecap="round" stroke-linejoin="round"/>
<path d="M343.13 42.804H294.05C290.223 42.804 287.12 45.9067 287.12 49.734V158.714C287.12 162.541 290.223 165.644 294.05 165.644H343.13C346.958 165.644 350.06 162.541 350.06 158.714V49.734C350.06 45.9067 346.958 42.804 343.13 42.804Z" fill="#263238" stroke="#263238" stroke-width="0.829236" stroke-linecap="round" stroke-linejoin="round"/>
<path d="M347.27 51.144H289.92V158.344H347.27V51.144Z" fill="white" stroke="#263238" stroke-width="0.829236" stroke-linecap="round" stroke-linejoin="round"/>
<path d="M223.71 180.154V147.484H269.68" stroke="#263238" stroke-width="1.0229" stroke-linecap="round" stroke-linejoin="round"/>
<path d="M268.18 152.584L277.01 147.484L268.18 142.384V152.584Z" fill="#263238"/>
<path d="M317.43 179.294V154.214" stroke="#263238" stroke-width="1.0229" stroke-linecap="round" stroke-linejoin="round"/>
<path d="M322.53 155.714L317.43 146.874L312.33 155.714H322.53Z" fill="#263238"/>
<path d="M293.73 317.834H316.92" stroke="#263238" stroke-width="1.0229" stroke-linecap="round" stroke-linejoin="round"/>
<path d="M293.73 323.054H316.92" stroke="#263238" stroke-width="1.0229" stroke-linecap="round" stroke-linejoin="round"/>
<path d="M293.73 328.264H316.92" stroke="#263238" stroke-width="1.0229" stroke-linecap="round" stroke-linejoin="round"/>
<path d="M237.5 317.834H260.69" stroke="#263238" stroke-width="1.0229" stroke-linecap="round" stroke-linejoin="round"/>
<path d="M237.5 323.054H260.69" stroke="#263238" stroke-width="1.0229" stroke-linecap="round" stroke-linejoin="round"/>
<path d="M237.5 328.264H260.69" stroke="#263238" stroke-width="1.0229" stroke-linecap="round" stroke-linejoin="round"/>
<path d="M231.12 157.834H254.31" stroke="#263238" stroke-width="1.0229" stroke-linecap="round" stroke-linejoin="round"/>
<path d="M231.12 163.044H254.31" stroke="#263238" stroke-width="1.0229" stroke-linecap="round" stroke-linejoin="round"/>
<path d="M231.12 168.264H254.31" stroke="#263238" stroke-width="1.0229" stroke-linecap="round" stroke-linejoin="round"/>
<path d="M248.51 94.644H271.7" stroke="#263238" stroke-width="1.0229" stroke-linecap="round" stroke-linejoin="round"/>
<path d="M248.51 99.864H271.7" stroke="#263238" stroke-width="1.0229" stroke-linecap="round" stroke-linejoin="round"/>
<path d="M248.51 105.074H271.7" stroke="#263238" stroke-width="1.0229" stroke-linecap="round" stroke-linejoin="round"/>
<path d="M165.03 112.614H188.22" stroke="#263238" stroke-width="1.0229" stroke-linecap="round" stroke-linejoin="round"/>
<path d="M165.03 117.834H188.22" stroke="#263238" stroke-width="1.0229" stroke-linecap="round" stroke-linejoin="round"/>
<path d="M165.03 123.044H188.22" stroke="#263238" stroke-width="1.0229" stroke-linecap="round" stroke-linejoin="round"/>
<path d="M51.9003 189.564C51.9003 189.564 51.9003 185.244 45.8403 179.184C39.7803 173.124 35.8403 169.664 35.8403 169.664C35.8403 169.664 32.8403 179.664 38.4303 185.664C42.5694 189.926 47.0584 193.833 51.8503 197.344L51.9003 189.564Z" fill="#06B25F"/>
<path d="M43.1103 216.624C43.1103 216.624 43.1103 212.294 37.0503 206.234C30.9903 200.174 27.0603 196.714 27.0603 196.714C27.0603 196.714 24.0603 206.714 29.6503 212.714C33.7924 216.972 38.2812 220.879 43.0703 224.394L43.1103 216.624Z" fill="#06B25F"/>
<path d="M51.5203 196.964C51.5203 196.964 51.9803 192.664 58.6403 187.284C65.3003 181.904 69.5403 178.864 69.5403 178.864C69.5403 178.864 71.5403 189.084 65.2703 194.514C60.7074 198.315 55.8336 201.727 50.7003 204.714L51.5203 196.964Z" fill="#06B25F"/>
<path d="M40.9003 228.884C40.9003 228.884 41.8003 224.654 49.0003 220.004C56.2003 215.354 60.7203 212.774 60.7203 212.774C60.7203 212.774 61.6003 223.144 54.8303 227.884C49.8907 231.188 44.6824 234.071 39.2603 236.504L40.9003 228.884Z" fill="#06B25F"/>
<path d="M42.8903 263.684C42.8903 263.684 42.8903 259.354 48.9503 253.294C55.0103 247.234 58.9503 243.774 58.9503 243.774C58.9503 243.774 61.9503 253.774 56.3603 259.774C52.22 264.037 47.7311 267.947 42.9403 271.464L42.8903 263.684Z" fill="#06B25F"/>
<path d="M42.7903 272.174C42.7903 272.174 43.4103 267.894 38.2703 261.034C33.1303 254.174 29.7703 250.194 29.7703 250.194C29.7703 250.194 25.3603 259.624 30.0703 266.414C33.5569 271.224 37.4441 275.73 41.6903 279.884L42.7903 272.174Z" fill="#06B25F"/>
<path d="M36.8203 297.354C36.8203 297.354 36.8203 293.024 42.8803 286.964C48.9403 280.904 52.8803 277.444 52.8803 277.444C52.8803 277.444 55.8803 287.394 50.2803 293.444C46.1461 297.707 41.6602 301.614 36.8703 305.124L36.8203 297.354Z" fill="#06B25F"/>
<path d="M40.8603 320.174C40.8603 320.174 39.7703 315.984 44.0603 308.564C48.3503 301.144 51.2803 296.834 51.2803 296.834C51.2803 296.834 56.7303 305.694 52.8303 312.974C49.9135 318.145 46.5684 323.062 42.8303 327.674L40.8603 320.174Z" fill="#06B25F"/>
<path d="M52.4503 188.494C52.141 192.997 51.5868 197.481 50.7903 201.924C48.3903 214.294 42.4103 222.284 40.0103 233.454C37.6103 244.624 44.4903 259.034 42.6503 273.384C40.8103 287.734 35.2203 295.724 36.8203 305.304C38.4203 314.884 46.8203 340.824 46.8203 340.824" stroke="#263238" stroke-width="1.03476" stroke-linecap="round" stroke-linejoin="round"/>
<path d="M51.4603 199.844L57.9903 194.834" stroke="#263238" stroke-width="1.03476" stroke-linecap="round" stroke-linejoin="round"/>
<path d="M51.7603 194.074L49.0303 189.214" stroke="#263238" stroke-width="1.03476" stroke-linecap="round" stroke-linejoin="round"/>
<path d="M40.3703 232.944C40.3703 232.944 45.8403 228.844 51.4603 224.744" stroke="#263238" stroke-width="1.03476" stroke-linecap="round" stroke-linejoin="round"/>
<path d="M43.1103 224.414C43.1103 224.414 38.5503 215.484 33.3903 209.564" stroke="#263238" stroke-width="1.03476" stroke-linecap="round" stroke-linejoin="round"/>
<path d="M43.1103 269.844C46.2273 264.091 50.1652 258.822 54.8003 254.204" stroke="#263238" stroke-width="1.03476" stroke-linecap="round" stroke-linejoin="round"/>
<path d="M42.0603 275.914C40.3973 272.01 38.4139 268.251 36.1303 264.674C32.9503 259.974 32.4903 259.364 32.4903 259.364" stroke="#263238" stroke-width="1.03476" stroke-linecap="round" stroke-linejoin="round"/>
<path d="M36.8203 305.304C38.2038 301.85 39.8485 298.507 41.7403 295.304C43.6327 292.349 45.7666 289.556 48.1203 286.954" stroke="#263238" stroke-width="1.03476" stroke-linecap="round" stroke-linejoin="round"/>
<path d="M42.8403 327.704C42.5237 324.423 43.0863 321.116 44.4703 318.124C46.7503 313.714 49.3303 307.954 50.4003 305.674" stroke="#263238" stroke-width="1.03476" stroke-linecap="round" stroke-linejoin="round"/>
<path d="M12.2303 247.404C12.2303 247.404 11.7603 244.694 14.9003 240.234C18.0403 235.774 20.1103 233.184 20.1103 233.184C20.1103 233.184 23.1103 239.104 20.2203 243.514C18.0844 246.637 15.6893 249.574 13.0603 252.294L12.2303 247.404Z" fill="#06B25F"/>
<path d="M20.6703 263.404C20.6703 263.404 20.2103 260.684 23.3503 256.234C26.4903 251.784 28.5503 249.184 28.5503 249.184C28.5503 249.184 31.5503 255.094 28.6603 259.504C26.5294 262.625 24.1411 265.562 21.5203 268.284L20.6703 263.404Z" fill="#06B25F"/>
<path d="M13.2703 251.994C13.2703 251.994 12.5103 249.344 7.75031 246.684C2.99031 244.024 0.000307635 242.564 0.000307635 242.564C0.000307635 242.564 -0.119691 249.184 4.38031 251.914C7.65285 253.801 11.0782 255.41 14.6203 256.724L13.2703 251.994Z" fill="#06B25F"/>
<path d="M23.3903 270.854C23.3903 270.854 22.3903 268.294 17.3903 266.154C12.3903 264.014 9.25031 262.904 9.25031 262.904C9.25031 262.904 9.83031 269.494 14.5903 271.734C18.0446 273.268 21.6202 274.512 25.2803 275.454L23.3903 270.854Z" fill="#06B25F"/>
<path d="M25.9203 292.884C25.9203 292.884 25.4503 290.174 20.9903 287.034C16.5303 283.894 13.7203 282.144 13.7203 282.144C13.7203 282.144 12.9003 288.714 17.0803 291.904C20.1378 294.127 23.3757 296.09 26.7603 297.774L25.9203 292.884Z" fill="#06B25F"/>
<path d="M26.9003 298.204C26.9003 298.204 26.0603 295.564 28.5303 290.724C31.0003 285.884 32.6803 283.004 32.6803 283.004C32.6803 283.004 36.4703 288.434 34.2603 293.214C32.5904 296.604 30.6403 299.849 28.4303 302.914L26.9003 298.204Z" fill="#06B25F"/>
<path d="M34.5103 320.094C34.5103 320.094 34.8203 317.354 39.0903 313.964C43.3603 310.574 46.0903 308.674 46.0903 308.674C46.0903 308.674 47.2903 315.184 43.2903 318.604C40.3639 320.996 37.2431 323.14 33.9603 325.014L34.5103 320.094Z" fill="#06B25F"/>
<path d="M33.3803 313.344C33.3803 313.344 32.9103 310.624 28.4603 307.484C24.0103 304.344 21.1803 302.564 21.1803 302.564C21.1803 302.564 20.3603 309.134 24.5503 312.324C27.6062 314.549 30.8444 316.513 34.2303 318.194L33.3803 313.344Z" fill="#06B25F"/>
<path d="M33.3203 328.094C33.3203 328.094 33.5603 325.344 30.0403 321.184C26.5203 317.024 24.2403 314.604 24.2403 314.604C24.2403 314.604 21.7803 320.754 25.0303 324.904C27.424 327.827 30.0564 330.547 32.9003 333.034L33.3203 328.094Z" fill="#06B25F"/>
<path d="M11.7603 246.774C12.4476 249.563 13.2821 252.313 14.2603 255.014C17.1103 262.514 21.7303 266.874 24.4403 273.624C27.1503 280.374 24.4403 290.144 27.1203 298.944C29.8003 307.744 34.2103 312.144 34.2403 318.324C34.2703 324.504 31.8403 341.684 31.8403 341.684" stroke="#263238" stroke-width="1.03476" stroke-linecap="round" stroke-linejoin="round"/>
<path d="M13.6203 253.784L8.98031 251.354" stroke="#263238" stroke-width="1.03476" stroke-linecap="round" stroke-linejoin="round"/>
<path d="M12.8003 250.204L13.9903 246.854" stroke="#263238" stroke-width="1.03476" stroke-linecap="round" stroke-linejoin="round"/>
<path d="M24.1603 273.344C24.1603 273.344 20.2903 271.344 16.3203 269.404" stroke="#263238" stroke-width="1.03476" stroke-linecap="round" stroke-linejoin="round"/>
<path d="M21.5203 268.284C22.6598 264.685 24.1608 261.211 26.0003 257.914" stroke="#263238" stroke-width="1.03476" stroke-linecap="round" stroke-linejoin="round"/>
<path d="M26.4503 296.774C23.8804 293.506 20.8486 290.629 17.4503 288.234" stroke="#263238" stroke-width="1.03476" stroke-linecap="round" stroke-linejoin="round"/>
<path d="M27.7803 300.464C28.3942 297.836 29.2271 295.263 30.2703 292.774C31.7603 289.484 31.9803 289.044 31.9803 289.044" stroke="#263238" stroke-width="1.03476" stroke-linecap="round" stroke-linejoin="round"/>
<path d="M34.0603 323.014C35.5715 321.144 37.2446 319.41 39.0603 317.834C40.2148 316.987 41.2984 316.047 42.3003 315.024" stroke="#263238" stroke-width="1.03476" stroke-linecap="round" stroke-linejoin="round"/>
<path d="M34.2403 318.324C33.0022 316.32 31.6114 314.414 30.0803 312.624C28.5736 310.973 26.9312 309.451 25.1703 308.074" stroke="#263238" stroke-width="1.03476" stroke-linecap="round" stroke-linejoin="round"/>
<path d="M32.9003 333.034C32.7429 330.939 32.0321 328.924 30.8403 327.194C28.9303 324.684 26.6803 321.344 25.7703 320.034" stroke="#263238" stroke-width="1.03476" stroke-linecap="round" stroke-linejoin="round"/>
<path d="M19.4703 338.694H59.0603V368.504C59.0603 369.3 58.7442 370.063 58.1816 370.625C57.619 371.188 56.856 371.504 56.0603 371.504H22.5103C21.7147 371.504 20.9516 371.188 20.389 370.625C19.8264 370.063 19.5103 369.3 19.5103 368.504V338.694H19.4703Z" fill="#263238"/>
<path d="M58.7503 343.864H19.4703C19.0624 343.864 18.6584 343.783 18.2817 343.627C17.9049 343.471 17.5627 343.241 17.2747 342.952C16.9867 342.664 16.7586 342.321 16.6034 341.943C16.4482 341.566 16.369 341.162 16.3703 340.754V340.754C16.3703 339.932 16.6969 339.143 17.2783 338.562C17.8596 337.981 18.6481 337.654 19.4703 337.654H58.7503C59.5725 337.654 60.361 337.981 60.9423 338.562C61.5237 339.143 61.8503 339.932 61.8503 340.754V340.754C61.8516 341.162 61.7724 341.566 61.6172 341.943C61.462 342.321 61.2339 342.664 60.9459 342.952C60.6579 343.241 60.3157 343.471 59.9389 343.627C59.5622 343.783 59.1583 343.864 58.7503 343.864V343.864Z" fill="#263238"/>
<path d="M71.0603 361.564C71.0603 361.564 68.9103 369.844 68.9103 371.934C68.9103 374.024 68.3903 375.424 72.9103 376.294C77.4303 377.164 80.4103 376.644 81.1103 374.554C81.8103 372.464 82.3303 361.984 82.3303 361.984L71.3303 359.884L71.0603 361.564Z" fill="white" stroke="#263238" stroke-width="1.03476" stroke-linecap="round" stroke-linejoin="round"/>
<path d="M81.0603 374.564C81.2023 374.087 81.3026 373.598 81.3603 373.104C77.1662 373.126 72.9778 372.792 68.8403 372.104C68.8403 374.104 68.4503 375.454 72.8403 376.294C77.2303 377.134 80.3903 376.654 81.0603 374.564Z" fill="white" stroke="#263238" stroke-width="1.03476" stroke-linecap="round" stroke-linejoin="round"/>
<path d="M177.11 362.344C177.11 362.344 180.6 363.564 185.67 365.134C190.74 366.704 201.06 368.454 202.06 368.624C203.06 368.794 203.06 370.894 202.23 371.774C201.4 372.654 196.82 375.264 191.41 376.654C186 378.044 167.66 379.274 166.09 378.234C164.78 377.354 165.22 368.804 165.74 366.884C166.26 364.964 177.11 362.344 177.11 362.344Z" fill="white" stroke="#263238" stroke-width="1.03476" stroke-linecap="round" stroke-linejoin="round"/>
<path d="M202.25 371.774C202.535 371.442 202.732 371.044 202.823 370.615C202.914 370.187 202.896 369.743 202.77 369.324C199.23 372.144 192.16 375.244 184.97 375.964C178.444 376.429 171.892 376.396 165.37 375.864C165.5 377.064 165.73 377.974 166.11 378.234C167.68 379.234 186.01 378.054 191.43 376.654C196.85 375.254 201.38 372.644 202.25 371.774Z" fill="white" stroke="#263238" stroke-width="1.03476" stroke-linecap="round" stroke-linejoin="round"/>
<path d="M92.6603 210.134C92.6603 210.134 89.6603 228.394 91.9803 238.534C91.9803 238.534 87.5903 278.754 86.9103 296.674C86.9103 296.674 77.4503 328.114 76.0903 337.914C74.8097 345.876 73.131 353.77 71.0603 361.564C73.1645 362.728 75.4499 363.529 77.8203 363.934C82.5603 364.934 83.2303 361.224 83.2303 361.224C83.2303 361.224 109.23 301.394 111.29 292.604C113.35 283.814 120.06 252.394 120.06 252.394L148.06 303.774C148.06 303.774 149.42 321.354 153.47 331.494C157.52 341.634 165.3 369.684 165.3 369.684C168.378 369.856 171.463 369.518 174.43 368.684C178.49 367.334 178.49 365.304 178.49 365.304C178.49 365.304 172.4 342.654 172.4 335.224C172.4 327.794 170.04 302.434 168.35 295.334C166.66 288.234 155.16 251.054 153.47 246.994C151.78 242.934 148.06 230.094 148.06 230.094L145.7 210.144C145.7 210.144 116.66 218.254 92.6603 210.134Z" fill="#263238" stroke="#263238" stroke-width="1.03476" stroke-linecap="round" stroke-linejoin="round"/>
<path d="M114.11 123.984C114.11 123.984 112.55 120.614 112.55 118.544C112.55 116.474 111.55 106.634 111.55 106.634C111.55 106.634 126.55 79.464 130.7 74.284C133.407 70.9664 136.443 67.931 139.76 65.224C139.76 65.224 149.86 63.154 151.93 63.154C154 63.154 156.33 62.154 156.33 60.824C156.33 59.494 152.96 59.824 150.89 59.824C148.82 59.824 146.23 58.014 146.23 58.014C146.23 58.014 149.6 48.364 150.63 44.554C151.18 42.554 152.96 38.344 151.63 38.344C150.3 38.344 150.08 39.344 149.3 40.934C148.52 42.524 145.16 47.664 145.16 47.664L145.93 36.274C145.93 36.274 144.93 34.724 144.12 36.534C143.095 39.3288 142.23 42.1802 141.53 45.074C141.29 45.9804 140.849 46.8212 140.24 47.534L139.24 39.044C139.24 39.044 137.48 37.174 137.17 40.414C137 42.214 137.17 48.184 137.17 49.214C137.17 50.244 136.17 47.744 136.17 47.744C136.17 47.744 135.56 44.934 134.88 44.554C134.2 44.174 133.59 45.074 133.88 47.144C134.17 49.214 133.62 57.754 133.62 57.754C133.62 57.754 132.07 59.824 129.74 62.674C127.41 65.524 108.74 82.344 101.74 87.784C94.7403 93.224 93.9803 97.624 92.9403 103.054C91.9003 108.484 90.8703 140.054 90.8703 151.464C90.8703 162.874 91.8703 180.964 92.6803 186.924C93.4903 192.884 92.0603 200.564 91.0603 204.744C90.0603 208.924 91.0603 212.504 93.9103 214.574C96.7603 216.644 108.91 217.944 119.01 217.944C129.11 217.944 139.46 216.944 142.57 215.874C145.68 214.804 148.06 214.564 148.06 210.434C148.06 206.304 145.99 198.014 145.99 195.684C145.99 193.354 150.14 169.284 150.14 169.284C150.14 169.284 176.54 177.284 181.46 175.494C186.38 173.704 227.53 134.854 227.53 134.854C227.53 134.854 234 132.264 237.37 131.744C240.74 131.224 245.91 128.904 246.17 128.124C246.43 127.344 245.65 127.604 243.58 127.604C241.735 127.73 239.91 128.066 238.14 128.604C238.14 128.604 245.21 124.124 246.43 123.684C247.27 123.374 248.72 121.464 246.69 121.874C244.14 122.384 237.89 124.204 237.89 124.204L246.17 119.024C246.17 119.024 247.46 116.954 245.91 116.954C244.36 116.954 236.59 121.614 236.59 121.614L242.59 115.994C243.76 114.914 242.78 113.384 241.4 114.184L234.4 118.184C232.694 119.182 230.883 119.99 229 120.594L227.71 121.374C227.968 120.006 228.141 118.623 228.23 117.234C228.23 115.934 227.45 112.574 225.64 112.314C223.83 112.054 225.38 114.644 225.38 115.934C225.38 117.224 222.79 123.934 222.79 124.994V128.104C222.79 128.104 213.99 135.864 205.97 140.014C197.95 144.164 179.82 157.874 179.82 157.874C179.82 157.874 159.12 147.254 154.46 143.374C149.8 139.494 144.62 134.834 139.46 130.694C136.781 128.466 133.925 126.459 130.92 124.694L114.11 123.984Z" fill="white" stroke="#263238" stroke-width="1.03476" stroke-linecap="round" stroke-linejoin="round"/>
<path d="M200.61 143.214C191.82 148.834 179.85 157.894 179.85 157.894C179.85 157.894 159.15 147.274 154.49 143.394C149.83 139.514 144.65 134.854 139.49 130.714C136.811 128.486 133.955 126.479 130.95 124.714L114.13 123.944C114.13 123.944 112.57 120.574 112.57 118.504C112.57 116.434 111.57 106.594 111.57 106.594C111.57 106.594 119.32 92.594 125.22 82.744L124.75 82.264C121.85 79.374 117.84 77.814 114.34 76.964C109.46 81.294 104.61 85.464 101.73 87.704C94.7303 93.134 93.9703 97.544 92.9303 102.974C91.8903 108.404 90.8603 139.974 90.8603 151.384C90.8603 162.794 91.8603 180.884 92.6703 186.844C93.4803 192.804 92.0603 200.564 91.0603 204.744C90.0603 208.924 91.0603 212.504 93.9103 214.574C96.7603 216.644 108.91 217.944 119.01 217.944C129.11 217.944 139.46 216.944 142.57 215.874C145.68 214.804 148.06 214.564 148.06 210.434C148.06 206.304 145.99 198.014 145.99 195.684C145.99 193.354 150.14 169.284 150.14 169.284C150.14 169.284 176.54 177.284 181.46 175.494C184.08 174.494 197.06 162.994 208.57 152.494C206.476 148.962 203.782 145.822 200.61 143.214Z" fill="#A6CAFF" stroke="#263238" stroke-width="1.03476" stroke-linecap="round" stroke-linejoin="round"/>
<path d="M142.06 135.324C142.06 135.324 131.64 138.164 131.06 146.054" stroke="#263238" stroke-width="1.03476" stroke-linecap="round" stroke-linejoin="round"/>
<path d="M150.06 169.284C150.06 169.284 137.92 165.944 131.61 159.624" stroke="#263238" stroke-width="1.03476" stroke-linecap="round" stroke-linejoin="round"/>
<path d="M143.32 167.564C143.32 167.564 132.9 170.404 123.43 166.624" stroke="#263238" stroke-width="1.03476" stroke-linecap="round" stroke-linejoin="round"/>
<path d="M99.3603 150.794C99.3603 150.794 102.65 173.794 118.51 185.254" stroke="#263238" stroke-width="1.03476" stroke-linecap="round" stroke-linejoin="round"/>
<path d="M123.51 191.564C124.72 191.894 125.97 192.184 127.26 192.414" stroke="#263238" stroke-width="1.03476" stroke-linecap="round" stroke-linejoin="round"/>
<path d="M99.3603 173.764C103.796 180.38 109.926 185.685 117.11 189.124" stroke="#263238" stroke-width="1.03476" stroke-linecap="round" stroke-linejoin="round"/>
<path d="M96.2903 122.704C96.2903 122.704 106.39 117.704 112.39 122.384" stroke="#263238" stroke-width="1.03476" stroke-linecap="round" stroke-linejoin="round"/>
<path d="M99.1303 99.664C99.1303 99.664 108.29 102.824 110.81 109.134" stroke="#263238" stroke-width="1.03476" stroke-linecap="round" stroke-linejoin="round"/>
<path d="M105.13 97.454C107.322 99.2229 108.874 101.66 109.55 104.394" stroke="#263238" stroke-width="1.03476" stroke-linecap="round" stroke-linejoin="round"/>
<path d="M148.27 82.564C148.27 82.564 149.83 91.364 149.83 93.694C149.83 96.024 147.24 96.804 148.27 99.904C149.3 103.004 151.64 103.274 151.12 105.904C150.6 108.534 147.24 110.044 147.24 110.044C147.24 110.044 145.43 117.294 143.61 120.394C141.79 123.494 135.07 121.174 135.07 121.174L134.55 129.454C134.55 129.454 132.22 132.824 123.68 131.784C118.764 131.241 113.962 129.932 109.45 127.904L108.15 126.094C108.15 126.094 114.88 122.724 115.15 120.394C115.42 118.064 115.15 112.634 115.15 104.864C115.15 97.094 112.82 82.084 125.5 78.204C138.18 74.324 148.27 82.564 148.27 82.564Z" fill="white" stroke="#263238" stroke-width="1.03476" stroke-linecap="round" stroke-linejoin="round"/>
<path d="M132.46 103.814C132.46 103.814 129.54 97.114 126.27 100.944C124.15 103.434 126.79 110.784 128.08 111.814C129.37 112.844 132.22 112.334 132.22 112.334C132.22 112.334 128.08 116.474 123.68 116.474C119.28 116.474 115.4 112.334 112.55 105.084C109.7 97.834 107.63 85.414 110.74 77.904C113.85 70.394 129.9 70.144 133.52 70.144C137.14 70.144 142.58 72.214 142.58 72.214C142.58 72.214 154.23 71.214 154.49 75.064C154.75 78.914 152.93 79.204 152.93 79.204C152.93 79.204 161.22 83.604 157.33 85.414C153.44 87.224 147.5 86.194 143.61 86.194C142.569 86.1336 141.531 86.368 140.617 86.8703C139.702 87.3726 138.948 88.1225 138.44 89.034C138.44 89.034 142.06 91.364 140.77 92.404C139.48 93.444 134.77 95.504 134.3 97.324C133.83 99.144 136.11 101.984 134.55 103.324C132.99 104.664 132.46 103.814 132.46 103.814Z" fill="#263238" stroke="#263238" stroke-width="1.03476" stroke-linecap="round" stroke-linejoin="round"/>
<path d="M146.86 100.684C146.86 102.004 146.31 103.074 145.64 103.074C144.97 103.074 144.43 102.004 144.43 100.684C144.43 99.364 144.98 98.294 145.64 98.294C146.3 98.294 146.86 99.364 146.86 100.684Z" fill="#263238"/>
<path d="M142.62 97.634C142.62 97.634 144.29 93.734 146.94 95.824" stroke="#263238" stroke-width="1.03476" stroke-linecap="round" stroke-linejoin="round"/>
<path d="M120.04 252.394L117.67 247.994L105.84 244.954" stroke="white" stroke-width="1.03476" stroke-linecap="round" stroke-linejoin="round"/>
</svg>
