<svg width="272" height="250" viewBox="0 0 272 250" fill="none" xmlns="http://www.w3.org/2000/svg">
<path d="M137.434 167.552C130.747 152.372 131.736 127.51 134.835 125.44C138.245 123.168 143.644 134.824 149.049 131.414C154.454 128.004 158.146 120.61 153.597 108.955C149.049 97.2996 143.081 104.976 138.814 107.805C134.548 110.634 131.138 108.092 131.995 97.8574C132.622 90.3078 135.566 76.4332 137.072 69.6828C137.751 69.9761 138.429 70.2578 139.096 70.5856C125.739 64.3297 110.956 62.3402 104.706 64.3297C98.4557 66.3191 99.5885 66.8884 102.711 74.277C109.237 89.6925 84.5295 94.9767 77.4111 83.1031C73.1504 75.9962 79.4178 72.0058 77.7101 66.8884C76.0023 61.7709 44.4526 67.7394 40.4736 70.0163C40.4736 70.0163 48.144 93.016 47.0113 101.284C45.8786 109.553 41.8939 113.227 35.9255 107.253C29.9571 101.279 22.2809 106.678 21.9934 116.637C21.7059 126.595 23.4137 134.542 30.2388 132.271C37.0639 129.999 42.4631 121.754 44.7343 132.271C47.0055 142.787 43.0094 156.42 40.7554 166.097C40.7554 166.097 58.6664 173.773 66.906 173.204C75.1456 172.635 80.2688 172.353 77.7101 167.236C75.1514 162.118 70.8849 158.709 74.0129 153.022C77.1408 147.335 89.6469 147.905 96.1845 149.325C102.722 150.745 105.568 155.581 103.579 160.98C101.589 166.379 98.174 171.784 104.43 172.917C110.324 173.992 125.314 171.525 140.079 166.718C139.205 167 138.297 167.276 137.434 167.552Z" stroke="#263238" stroke-miterlimit="10"/>
<path d="M142.793 165.81C141.919 166.109 141.04 166.385 140.166 166.69C141.04 166.402 141.919 166.109 142.793 165.81Z" stroke="#263238" stroke-miterlimit="10"/>
<path d="M246.55 104.688C241.151 104.688 240.864 108.955 235.177 108.104C229.49 107.253 228.927 94.1718 234.895 71.1491C234.895 71.1491 228.358 75.9791 213.575 76.2666C198.792 76.5541 192.823 74.8406 196.52 69.4414C200.218 64.0422 203.058 59.7758 199.93 55.5151C196.802 51.2544 181.737 51.8179 176.931 55.5151C172.124 59.2123 175.51 63.473 178.92 68.3029C182.33 73.1329 178.345 75.9791 172.664 76.2666C166.983 76.5541 152.482 76.8416 139.119 70.5799C138.452 70.2637 137.774 69.9704 137.095 69.6772C135.589 76.4448 132.645 90.3193 132.018 97.8517C131.161 108.087 134.571 110.645 138.837 107.799C143.104 104.953 149.072 97.2825 153.62 108.949C158.169 120.616 154.471 127.993 149.072 131.408C143.673 134.824 138.245 123.169 134.847 125.44C131.748 127.51 130.759 152.372 137.446 167.552C139.234 166.977 141.022 166.402 142.805 165.827C158.439 160.422 174.073 157.864 176.919 161.561C179.765 165.258 178.644 164.689 174.93 170.375C171.215 176.062 171.514 180.892 177.77 183.732C184.026 186.573 199.372 186.032 200.77 179.472C202.167 172.911 194.232 169.237 197.929 162.981C201.626 156.725 234.32 165.81 234.32 165.81C234.32 165.81 226.932 140.792 229.772 132.547C232.613 124.301 234.895 126.314 239.444 129.419C243.992 132.524 249.96 132.265 252.237 123.169C254.514 114.072 251.95 104.688 246.55 104.688Z" stroke="#263238" stroke-miterlimit="10"/>
<path d="M229.648 44.3981C236.885 40.982 239.982 32.3461 236.566 25.1094C233.15 17.8727 224.514 14.7756 217.277 18.1917C210.041 21.6078 206.943 30.2437 210.359 37.4804C213.776 44.7171 222.411 47.8142 229.648 44.3981Z" fill="#84B5FF" stroke="#263238" stroke-miterlimit="10"/>
<path d="M224.682 43.1693C231.227 42.4975 235.989 36.6468 235.317 30.1013C234.645 23.5559 228.794 18.7944 222.249 19.4661C215.704 20.1379 210.942 25.9886 211.614 32.5341C212.286 39.0795 218.136 43.8411 224.682 43.1693Z" fill="white" stroke="#263238" stroke-miterlimit="10"/>
<path d="M227.191 39.1516C231.519 37.0931 233.358 31.9164 231.3 27.5891C229.241 23.2618 224.064 21.4225 219.737 23.481C215.41 25.5394 213.571 30.7161 215.629 35.0435C217.687 39.3708 222.864 41.21 227.191 39.1516Z" fill="#84B5FF" stroke="#263238" stroke-miterlimit="10"/>
<path d="M228.938 31.308C228.938 30.2243 228.617 29.1648 228.015 28.2637C227.413 27.3626 226.557 26.6602 225.556 26.2455C224.554 25.8307 223.453 25.7222 222.39 25.9337C221.327 26.1451 220.35 26.667 219.584 27.4333C218.818 28.1997 218.296 29.1761 218.084 30.239C217.873 31.302 217.981 32.4037 218.396 33.405C218.811 34.4063 219.513 35.2621 220.414 35.8642C221.316 36.4663 222.375 36.7877 223.459 36.7877C224.179 36.7885 224.891 36.6472 225.557 36.3721C226.222 36.097 226.826 35.6934 227.335 35.1844C227.844 34.6754 228.248 34.0711 228.523 33.4059C228.798 32.7407 228.939 32.0278 228.938 31.308V31.308Z" fill="white" stroke="#263238" stroke-miterlimit="10"/>
<path d="M226 31.3081C226.001 30.8052 225.853 30.3133 225.575 29.8946C225.296 29.4759 224.9 29.1492 224.435 28.956C223.971 28.7628 223.46 28.7116 222.966 28.809C222.473 28.9064 222.02 29.148 221.664 29.5032C221.308 29.8584 221.065 30.3113 220.967 30.8044C220.868 31.2976 220.918 31.8089 221.11 32.2736C221.302 32.7383 221.628 33.1356 222.046 33.4151C222.464 33.6946 222.956 33.8438 223.459 33.8438C224.132 33.8438 224.777 33.5768 225.254 33.1015C225.73 32.6261 225.999 31.9811 226 31.3081V31.3081Z" fill="#84B5FF" stroke="#263238" stroke-miterlimit="10"/>
<path d="M224.511 27.3348L223.465 31.308L227.213 32.1302L224.511 27.3348Z" fill="#263238" stroke="#263238" stroke-miterlimit="10"/>
<path d="M226.109 29.5486L242.595 20.5673" stroke="#263238" stroke-width="2" stroke-miterlimit="10"/>
<path d="M237.305 23.5227L237.552 19.216L245.297 14.7886V19.7047L237.305 23.5227Z" fill="#263238" stroke="#263238" stroke-miterlimit="10"/>
<path d="M248.62 22.045L245.228 19.5438L237.27 23.7239L241.105 25.9434L248.62 22.045Z" fill="#263238" stroke="#263238" stroke-miterlimit="10"/>
<path d="M147.503 32.1878H141.741V45.9071H147.503V32.1878Z" fill="#84B5FF" stroke="#263238" stroke-miterlimit="10"/>
<path d="M155.995 28.0306H150.234V45.9071H155.995V28.0306Z" fill="#84B5FF" stroke="#263238" stroke-miterlimit="10"/>
<path d="M164.488 32.1878H158.726V45.9071H164.488V32.1878Z" fill="#84B5FF" stroke="#263238" stroke-miterlimit="10"/>
<path d="M172.986 27.1278H167.225V45.907H172.986V27.1278Z" fill="#84B5FF" stroke="#263238" stroke-miterlimit="10"/>
<path d="M181.479 20.2567H175.717V45.9071H181.479V20.2567Z" fill="#84B5FF" stroke="#263238" stroke-miterlimit="10"/>
<path d="M173.831 9.38942L176.08 10.3497L160.791 25.0234L153.488 21.0387L141.919 28.0709V30.1926L153.534 23.1317L161.09 27.2544L177.333 11.6606L178.201 13.9434L181.415 6.48572L173.831 9.38942Z" fill="#263238" stroke="#263238" stroke-linecap="round" stroke-linejoin="round"/>
<path d="M106.753 45.3312C114.544 43.5025 119.377 35.7044 117.548 27.9136C115.72 20.1229 107.922 15.2897 100.131 17.1185C92.3402 18.9472 87.507 26.7453 89.3358 34.5361C91.1645 42.3268 98.9626 47.1599 106.753 45.3312Z" fill="white" stroke="#263238" stroke-miterlimit="10"/>
<path d="M106.306 43.7858C113.241 42.2025 117.58 35.2973 115.996 28.3624C114.413 21.4275 107.508 17.0891 100.573 18.6723C93.6382 20.2555 89.2998 27.1608 90.883 34.0957C92.4662 41.0306 99.3715 45.369 106.306 43.7858Z" fill="#84B5FF" stroke="#263238" stroke-miterlimit="10"/>
<path d="M105.213 42.7814C111.555 41.7985 115.9 35.8603 114.917 29.5182C113.934 23.176 107.995 18.8315 101.653 19.8145C95.3112 20.7974 90.9667 26.7356 91.9496 33.0777C92.9326 39.4199 98.8708 43.7644 105.213 42.7814Z" fill="white" stroke="#263238" stroke-miterlimit="10"/>
<path d="M103.263 41.2497V39.404C102.689 39.4223 102.119 39.3149 101.592 39.0894C101.064 38.8639 100.592 38.5258 100.209 38.0988C99.5309 37.2785 99.1668 36.0537 99.1169 34.4246L101.917 33.9473C101.926 34.5071 101.996 35.0642 102.124 35.6091C102.199 35.9874 102.381 36.3364 102.647 36.6153C102.764 36.7255 102.901 36.8112 103.051 36.8675C103.201 36.9238 103.361 36.9495 103.521 36.9431C103.684 36.9618 103.849 36.9346 103.998 36.8645C104.146 36.7943 104.272 36.6841 104.361 36.5463C104.519 36.2679 104.598 35.952 104.591 35.6321C104.617 35.0228 104.455 34.4203 104.125 33.9071C103.76 33.3927 103.329 32.9287 102.843 32.5271L101.158 31.0839C100.791 30.743 100.447 30.3781 100.129 29.9914C99.8191 29.6106 99.5743 29.1813 99.4044 28.7207C99.2143 28.1778 99.1228 27.6053 99.1342 27.0302C99.1074 26.5039 99.1878 25.9777 99.3707 25.4834C99.5535 24.9892 99.835 24.5373 100.198 24.1552C100.977 23.4417 101.988 23.0333 103.044 23.0053V21.1883H103.999V22.9593C104.615 22.9687 105.218 23.135 105.752 23.4423C106.182 23.7149 106.534 24.093 106.776 24.5405C107.018 24.9816 107.192 25.4564 107.293 25.9492C107.396 26.4381 107.461 26.934 107.489 27.4327L104.654 27.8467C104.648 27.4111 104.607 26.9766 104.533 26.5472C104.493 26.2262 104.37 25.9212 104.177 25.6617C104.078 25.5525 103.954 25.4689 103.816 25.4178C103.678 25.3667 103.529 25.3498 103.383 25.3685C103.217 25.3659 103.053 25.4045 102.906 25.4808C102.758 25.557 102.632 25.6686 102.538 25.8055C102.348 26.0788 102.248 26.4042 102.251 26.737C102.225 27.2612 102.379 27.7786 102.688 28.2032C102.99 28.5877 103.322 28.9473 103.682 29.2784L105.327 30.7044C105.763 31.1025 106.169 31.533 106.54 31.9924C106.911 32.4599 107.211 32.979 107.431 33.5334C107.667 34.1498 107.782 34.8056 107.771 35.4653C107.779 36.1286 107.632 36.7846 107.339 37.38C107.055 37.9408 106.627 38.4153 106.097 38.7543C105.527 39.119 104.875 39.3363 104.2 39.3868V41.2497H103.263Z" fill="#263238"/>
<path d="M56.4813 20.0094H29.5775V45.3032H56.4813V20.0094Z" fill="white" stroke="#263238" stroke-miterlimit="10"/>
<path d="M56.4813 20.0094H29.5775V26.5125H56.4813V20.0094Z" fill="#84B5FF" stroke="#263238" stroke-linecap="round" stroke-linejoin="round"/>
<path d="M34.9825 30.1235H31.7625V33.3435H34.9825V30.1235Z" fill="#84B5FF" stroke="#263238" stroke-linecap="round" stroke-linejoin="round"/>
<path d="M39.8124 30.1235H36.5924V33.3435H39.8124V30.1235Z" fill="#84B5FF" stroke="#263238" stroke-linecap="round" stroke-linejoin="round"/>
<path d="M44.6366 30.1235H41.4166V33.3435H44.6366V30.1235Z" fill="#84B5FF" stroke="#263238" stroke-linecap="round" stroke-linejoin="round"/>
<path d="M49.4665 30.1235H46.2465V33.3435H49.4665V30.1235Z" fill="#84B5FF" stroke="#263238" stroke-linecap="round" stroke-linejoin="round"/>
<path d="M54.2964 30.1235H51.0764V33.3435H54.2964V30.1235Z" fill="#84B5FF" stroke="#263238" stroke-linecap="round" stroke-linejoin="round"/>
<path d="M34.9825 35.1835H31.7625V38.4034H34.9825V35.1835Z" fill="#84B5FF" stroke="#263238" stroke-linecap="round" stroke-linejoin="round"/>
<path d="M39.8124 35.1835H36.5924V38.4034H39.8124V35.1835Z" fill="#84B5FF" stroke="#263238" stroke-linecap="round" stroke-linejoin="round"/>
<path d="M44.6366 35.1835H41.4166V38.4034H44.6366V35.1835Z" fill="#84B5FF" stroke="#263238" stroke-linecap="round" stroke-linejoin="round"/>
<path d="M49.4665 35.1835H46.2465V38.4034H49.4665V35.1835Z" fill="#84B5FF" stroke="#263238" stroke-linecap="round" stroke-linejoin="round"/>
<path d="M54.2964 35.1835H51.0764V38.4034H54.2964V35.1835Z" fill="#84B5FF" stroke="#263238" stroke-linecap="round" stroke-linejoin="round"/>
<path d="M34.9825 40.2433H31.7625V43.4632H34.9825V40.2433Z" fill="#84B5FF" stroke="#263238" stroke-linecap="round" stroke-linejoin="round"/>
<path d="M39.8124 40.2433H36.5924V43.4632H39.8124V40.2433Z" fill="#84B5FF" stroke="#263238" stroke-linecap="round" stroke-linejoin="round"/>
<path d="M44.6366 40.2433H41.4166V43.4632H44.6366V40.2433Z" fill="#84B5FF" stroke="#263238" stroke-linecap="round" stroke-linejoin="round"/>
<path d="M49.4665 40.2433H46.2465V43.4632H49.4665V40.2433Z" fill="#84B5FF" stroke="#263238" stroke-linecap="round" stroke-linejoin="round"/>
<path d="M54.2964 40.2433H51.0764V43.4632H54.2964V40.2433Z" fill="#84B5FF" stroke="#263238" stroke-linecap="round" stroke-linejoin="round"/>
<path d="M35.5575 15.8695H33.2575V22.0794H35.5575V15.8695Z" fill="#263238"/>
<path d="M41.3073 15.8695H39.0074V22.0794H41.3073V15.8695Z" fill="#263238"/>
<path d="M47.0515 15.8695H44.7515V22.0794H47.0515V15.8695Z" fill="#263238"/>
<path d="M52.8014 15.8695H50.5015V22.0794H52.8014V15.8695Z" fill="#263238"/>
<path d="M6.18118 208.951C7.42891 209.498 10.4821 209.429 10.4821 209.429C10.4821 209.429 9.82663 207.434 9.76913 207.313C9.09639 205.91 6.98042 203.598 5.25545 203.828C4.97021 203.875 4.69803 203.981 4.45662 204.14C4.21522 204.299 4.01 204.507 3.85432 204.751C3.69865 204.995 3.59601 205.268 3.55309 205.554C3.51017 205.84 3.52794 206.131 3.60522 206.41C3.89272 207.6 5.11745 208.491 6.18118 208.951Z" fill="#84B5FF"/>
<path d="M7.23337 217.801C8.5271 217.985 11.2583 217.197 11.4711 217.134C11.9178 218.693 12.4692 220.22 13.1213 221.705C13.495 222.573 13.9033 223.43 14.3173 224.298C14.07 223.93 13.8458 223.608 13.8055 223.568C12.7935 222.389 10.1371 220.693 8.5386 221.4C8.27554 221.519 8.04066 221.693 7.8493 221.909C7.65794 222.126 7.51442 222.38 7.42812 222.656C7.34183 222.932 7.3147 223.222 7.34852 223.509C7.38234 223.796 7.47633 224.073 7.62437 224.321C8.19936 225.396 9.63109 225.931 10.7811 226.098C11.9311 226.264 14.2828 225.643 14.898 225.465C15.059 225.793 15.22 226.126 15.3867 226.454C16.1745 228.024 16.968 229.588 17.6867 231.146C17.9455 231.692 18.1812 232.244 18.4169 232.796C18.1927 232.469 18.0087 232.221 17.9742 232.164C16.9565 231.014 14.3 229.318 12.7015 229.996C12.4399 230.118 12.2067 230.293 12.017 230.511C11.8273 230.728 11.6854 230.983 11.6003 231.259C11.5152 231.535 11.489 231.825 11.5231 232.112C11.5573 232.399 11.6512 232.675 11.7988 232.923C12.3738 233.998 13.8113 234.527 14.9555 234.694C16.0997 234.861 18.233 234.297 18.9804 234.119C19.2047 234.694 19.4289 235.269 19.6244 235.844C19.7452 236.229 19.8947 236.597 19.9924 236.994C20.0902 237.39 20.2109 237.764 20.3144 238.144C20.4927 238.885 20.6824 239.65 20.8377 240.38C20.9527 240.886 21.0504 241.375 21.1482 241.858C20.8952 241.312 20.3834 240.248 20.3317 240.162C19.5037 238.845 17.1347 236.793 15.45 237.218C15.1767 237.298 14.9228 237.433 14.7044 237.616C14.486 237.799 14.3077 238.025 14.1808 238.279C14.0539 238.534 13.9811 238.813 13.967 239.097C13.9529 239.382 13.9977 239.666 14.0988 239.932C14.5185 241.082 15.8237 241.829 16.9737 242.169C18.1927 242.537 20.8952 242.197 21.2344 242.169C21.3954 242.979 21.5449 243.767 21.6771 244.509C21.9646 246.159 22.1831 247.631 22.3499 248.879H23.4999C23.2986 247.585 23.0399 246.05 22.6949 244.325C22.5339 243.503 22.3441 242.629 22.1199 241.732C22.935 241.406 23.7299 241.031 24.5004 240.61C25.3916 241.576 27.6686 242.703 27.9503 242.847C27.6398 243.612 27.3293 244.354 27.0246 245.044C26.3921 246.498 25.7941 247.786 25.2651 248.879H26.5013C26.9556 247.867 27.4558 246.717 27.9733 245.429C28.2953 244.653 28.6173 243.819 28.945 242.962C29.2728 243.031 31.9465 243.572 33.1942 243.29C34.3442 243.037 35.6954 242.399 36.2072 241.277C36.3342 241.017 36.4052 240.733 36.4154 240.444C36.4255 240.155 36.3748 239.867 36.2663 239.598C36.1579 239.33 35.9942 239.087 35.7859 238.886C35.5776 238.685 35.3293 238.53 35.0572 238.431C33.407 237.856 30.8943 239.754 29.9685 241.001C29.9168 241.076 29.3935 241.939 29.106 242.491C29.2383 242.14 29.3705 241.801 29.497 241.438C29.7615 240.72 30.003 239.995 30.2675 239.219L30.6125 238.069C30.7333 237.684 30.8138 237.27 30.923 236.862C31.1473 235.924 31.3255 234.958 31.498 233.987C32.1305 234.217 34.373 234.999 35.5229 234.912C36.6729 234.826 38.1334 234.406 38.8004 233.377C38.9672 233.141 39.0822 232.872 39.138 232.588C39.1937 232.305 39.1888 232.012 39.1236 231.73C39.0585 231.449 38.9346 231.184 38.7599 230.953C38.5853 230.723 38.364 230.532 38.1104 230.393C36.5637 229.599 33.7922 231.066 32.694 232.164C32.625 232.233 31.9235 233.107 31.544 233.596C31.636 233.021 31.7337 232.446 31.8085 231.825C32.0212 230.1 32.1822 228.346 32.3835 226.598C32.4352 226.063 32.4927 225.528 32.5502 224.994C32.7745 225.08 35.4252 226.063 36.7247 225.977C37.8746 225.891 39.3294 225.471 40.0021 224.442C40.168 224.205 40.2823 223.936 40.3375 223.653C40.3928 223.369 40.3877 223.077 40.3226 222.796C40.2575 222.514 40.1339 222.25 39.9598 222.019C39.7857 221.788 39.565 221.597 39.3121 221.457C37.7654 220.658 34.9939 222.124 33.89 223.223C33.8095 223.303 32.8032 224.568 32.5617 224.902C32.6825 223.723 32.8205 222.556 32.9987 221.406C33.2352 219.853 33.5694 218.317 33.9992 216.806C34.1027 216.846 36.8742 217.887 38.1966 217.795C39.3466 217.714 40.8071 217.289 41.4741 216.26C41.64 216.023 41.7543 215.754 41.8095 215.471C41.8647 215.187 41.8596 214.895 41.7945 214.614C41.7295 214.332 41.6059 214.067 41.4318 213.837C41.2577 213.606 41.037 213.415 40.7841 213.275C39.2374 212.476 36.4659 213.948 35.3677 215.041C35.2814 215.127 34.2177 216.484 34.0165 216.766C34.0165 216.679 34.0625 216.587 34.0855 216.501C34.5617 215 35.1717 213.546 35.9082 212.154C36.2992 211.378 36.7247 210.659 37.1502 209.975C37.6447 210.222 39.9101 211.32 41.1233 211.372C42.3366 211.424 43.7683 211.154 44.5733 210.222C44.7648 210.005 44.9083 209.751 44.9945 209.475C45.0807 209.199 45.1076 208.907 45.0734 208.62C45.0392 208.333 44.9447 208.056 44.7961 207.808C44.6475 207.56 44.4481 207.346 44.2111 207.18C42.7621 206.214 39.8469 207.376 38.6336 208.33C38.5646 208.382 37.9552 208.992 37.5182 209.44C37.7137 209.135 37.9092 208.813 38.0931 208.52C38.8176 207.428 39.5536 206.467 40.2091 205.645C40.5886 205.168 40.9394 204.748 41.2728 204.352C41.8823 204.352 44.3433 204.265 45.4185 203.777C46.4938 203.288 47.6725 202.368 47.9255 201.166C47.9951 200.885 48.0048 200.593 47.9538 200.308C47.9028 200.023 47.7923 199.752 47.6295 199.513C47.4667 199.274 47.2553 199.071 47.0091 198.919C46.7629 198.767 46.4874 198.669 46.2005 198.63C44.4755 198.446 42.4171 200.815 41.7846 202.236C41.7328 202.356 41.1003 204.375 41.1291 204.375H41.1233C40.7956 204.748 40.4449 205.151 40.0769 205.599C39.3984 206.427 38.6451 207.376 37.8919 208.474C37.0529 209.632 36.2848 210.84 35.5919 212.091C34.8173 213.483 34.1688 214.942 33.6542 216.449V216.507C33.6542 215.995 33.6542 214.569 33.6542 214.46C33.453 212.919 32.1592 210.061 30.4515 209.745C30.1658 209.7 29.8739 209.716 29.5948 209.792C29.3157 209.867 29.0557 210.001 28.8316 210.184C28.6076 210.367 28.4246 210.594 28.2945 210.853C28.1645 211.111 28.0903 211.394 28.0768 211.683C27.9791 212.907 28.8645 214.132 29.727 214.903C30.7045 215.777 33.4127 216.628 33.6312 216.685C33.1428 218.233 32.7586 219.812 32.4812 221.412C32.3145 222.343 32.1765 223.286 32.05 224.229C32.05 223.792 32.05 223.395 32.05 223.343C31.8487 221.802 30.555 218.945 28.8473 218.629C28.5621 218.584 28.2706 218.6 27.9919 218.675C27.7132 218.75 27.4534 218.883 27.2295 219.065C27.0055 219.248 26.8224 219.475 26.692 219.732C26.5616 219.99 26.4868 220.272 26.4726 220.561C26.3748 221.785 27.2603 223.01 28.1228 223.786C28.9853 224.562 31.2968 225.333 31.9062 225.511L31.7682 226.604C31.5612 228.329 31.36 230.088 31.1128 231.779C31.0265 232.354 30.9173 232.963 30.808 233.555C30.808 233.164 30.808 232.831 30.808 232.785C30.6068 231.244 29.3188 228.38 27.6053 228.064C27.3198 228.02 27.0282 228.037 26.7495 228.113C26.4707 228.189 26.2111 228.322 25.9872 228.505C25.7634 228.688 25.5804 228.915 25.4501 229.173C25.3197 229.431 25.245 229.713 25.2306 230.002C25.1328 231.227 26.0183 232.451 26.8866 233.222C27.7548 233.992 29.8305 234.7 30.555 234.947C30.4285 235.522 30.302 236.143 30.1525 236.723C30.0433 237.109 29.9628 237.494 29.8305 237.873C29.6983 238.253 29.5833 238.644 29.4625 239.023C29.198 239.742 28.9335 240.484 28.6633 241.18L28.0883 242.583C28.1803 242.008 28.3413 240.817 28.3413 240.714C28.3203 239.349 27.9522 238.011 27.2718 236.827C27.2832 236.676 27.2832 236.524 27.2718 236.373C27.2323 236.088 27.1337 235.815 26.9825 235.571C26.8313 235.326 26.6308 235.116 26.3937 234.954C26.1566 234.791 25.8883 234.68 25.6058 234.628C25.3234 234.575 25.033 234.582 24.7534 234.648C23.0744 235.096 22.0049 238.046 21.9244 239.598C21.9244 239.69 21.9819 240.691 22.0279 241.323C21.9474 240.955 21.8669 240.605 21.7749 240.225C21.5966 239.483 21.4012 238.747 21.1999 237.954C21.0849 237.574 20.9642 237.189 20.8492 236.804C20.7342 236.419 20.5789 236.022 20.4409 235.625C20.1132 234.717 19.7279 233.814 19.3254 232.911C19.9752 232.756 22.2809 232.17 23.2009 231.457C24.1209 230.744 25.0983 229.594 25.0926 228.369C25.0999 228.08 25.0465 227.793 24.9357 227.526C24.8249 227.258 24.6592 227.018 24.4495 226.819C24.2397 226.62 23.9904 226.467 23.7179 226.371C23.4454 226.274 23.1556 226.236 22.8674 226.259C21.1424 226.448 19.6359 229.203 19.3254 230.726C19.3254 230.818 19.2047 231.934 19.1587 232.549C18.9114 232.009 18.6642 231.468 18.3997 230.928C17.6235 229.375 16.7955 227.823 15.9732 226.27L15.2257 224.844C15.4615 224.787 18.21 224.148 19.2507 223.355C20.1764 222.648 21.1482 221.492 21.1424 220.267C21.1497 219.978 21.0963 219.691 20.9855 219.424C20.8747 219.157 20.709 218.916 20.4993 218.717C20.2895 218.518 20.0403 218.366 19.7677 218.269C19.4952 218.173 19.2054 218.134 18.9172 218.157C17.1922 218.347 15.6857 221.101 15.3752 222.625C15.3752 222.74 15.2028 224.35 15.1913 224.758C14.6163 223.706 14.1103 222.659 13.6273 221.601C12.9557 220.179 12.3795 218.713 11.9023 217.214C12.0115 217.214 14.8865 216.536 15.9272 215.725C16.8472 215.018 17.8247 213.862 17.8132 212.637C17.8214 212.348 17.7687 212.061 17.6585 211.794C17.5484 211.527 17.3833 211.286 17.1739 211.087C16.9646 210.888 16.7157 210.735 16.4435 210.639C16.1712 210.542 15.8817 210.504 15.5937 210.527C13.8688 210.717 12.3623 213.471 12.046 214.989C12.046 215.11 11.8678 216.84 11.8621 217.157L11.7701 216.892C11.3426 215.378 11.0483 213.829 10.8903 212.263C10.7926 211.401 10.7523 210.567 10.7236 209.762C11.2986 209.693 13.7768 209.36 14.8118 208.733C15.8467 208.106 16.899 207.088 17.0255 205.858C17.0652 205.572 17.0441 205.28 16.9637 205.003C16.8832 204.725 16.7452 204.467 16.5586 204.247C16.372 204.026 16.141 203.847 15.8807 203.721C15.6203 203.596 15.3364 203.526 15.0475 203.518C13.3225 203.518 11.5171 206.088 11.0226 207.543C11.0226 207.623 10.8213 208.468 10.7063 209.089C10.7063 208.721 10.7063 208.348 10.7063 207.997C10.7063 206.68 10.7926 205.473 10.8731 204.409C10.9248 203.834 10.9823 203.259 11.0456 202.747C11.5458 202.402 13.5583 200.982 14.1793 199.964C14.8003 198.947 15.2775 197.544 14.8233 196.405C14.7256 196.134 14.572 195.887 14.3725 195.679C14.173 195.471 13.932 195.308 13.6651 195.2C13.3983 195.091 13.1117 195.04 12.8238 195.05C12.5359 195.059 12.2533 195.129 11.9943 195.255C10.4476 196.054 10.0393 199.165 10.2693 200.695C10.2693 200.827 10.8788 202.862 10.9018 202.845H10.9363C10.8673 203.334 10.7983 203.863 10.7408 204.438C10.6316 205.507 10.5223 206.709 10.4936 208.031C10.4449 209.454 10.4775 210.879 10.5913 212.298C10.7174 213.886 10.9829 215.46 11.3848 217.001V217.059C11.1088 216.628 10.3038 215.455 10.2348 215.368C9.21709 214.218 6.56063 212.522 4.96216 213.201C4.71693 213.324 4.49897 213.496 4.32112 213.706C4.14327 213.915 4.00913 214.158 3.92661 214.42C3.84408 214.682 3.81485 214.958 3.84062 215.231C3.86639 215.505 3.94665 215.77 4.07667 216.012C4.66891 217.099 6.08339 217.628 7.23337 217.801Z" fill="#84B5FF"/>
<path d="M37.0639 209.624C37.0639 209.624 37.6389 207.594 37.6389 207.462C37.8574 205.927 37.3629 202.828 35.799 202.069C35.5354 201.95 35.2497 201.887 34.9605 201.886C34.6713 201.885 34.3851 201.945 34.1207 202.063C33.8563 202.18 33.6197 202.352 33.4263 202.567C33.233 202.782 33.0873 203.035 32.9988 203.311C32.579 204.461 33.108 205.881 33.7405 206.853C34.4765 207.997 37.0582 209.624 37.0639 209.624Z" fill="#84B5FF"/>
<path d="M218.416 208.951C219.664 209.498 222.717 209.429 222.717 209.429C222.717 209.429 222.062 207.434 222.004 207.313C221.331 205.91 219.215 203.598 217.49 203.828C217.205 203.875 216.933 203.981 216.692 204.14C216.45 204.299 216.245 204.507 216.089 204.751C215.934 204.995 215.831 205.268 215.788 205.554C215.745 205.84 215.763 206.131 215.84 206.41C216.128 207.6 217.352 208.491 218.416 208.951Z" fill="#84B5FF"/>
<path d="M219.468 217.801C220.762 217.985 223.493 217.197 223.706 217.134C224.155 218.692 224.707 220.219 225.356 221.705C225.73 222.573 226.138 223.43 226.552 224.298C226.305 223.93 226.081 223.608 226.041 223.568C225.029 222.389 222.372 220.693 220.774 221.4C220.511 221.519 220.276 221.693 220.084 221.909C219.893 222.126 219.749 222.38 219.663 222.656C219.577 222.932 219.55 223.223 219.584 223.509C219.617 223.796 219.711 224.073 219.859 224.321C220.434 225.396 221.866 225.931 223.016 226.098C224.166 226.264 226.518 225.643 227.133 225.465C227.294 225.793 227.455 226.126 227.622 226.454C228.41 228.024 229.203 229.588 229.922 231.146C230.181 231.692 230.416 232.244 230.652 232.796C230.428 232.469 230.244 232.221 230.209 232.164C229.192 231.014 226.541 229.318 224.937 229.996C224.674 230.117 224.44 230.291 224.249 230.508C224.058 230.726 223.915 230.98 223.829 231.256C223.742 231.532 223.715 231.823 223.748 232.11C223.782 232.397 223.875 232.674 224.022 232.923C224.597 233.998 226.035 234.527 227.179 234.694C228.323 234.861 230.456 234.297 231.204 234.119C231.428 234.694 231.658 235.269 231.848 235.844C231.969 236.229 232.118 236.597 232.216 236.994C232.314 237.391 232.434 237.764 232.538 238.144C232.716 238.885 232.906 239.65 233.061 240.38C233.176 240.886 233.274 241.375 233.372 241.858C233.119 241.312 232.607 240.248 232.555 240.162C231.727 238.845 229.358 236.793 227.674 237.218C227.396 237.298 227.138 237.435 226.917 237.621C226.695 237.806 226.515 238.036 226.389 238.296C226.262 238.556 226.191 238.839 226.18 239.128C226.17 239.416 226.22 239.704 226.328 239.972C226.748 241.122 228.053 241.87 229.203 242.209C230.422 242.577 233.124 242.238 233.464 242.209C233.625 243.02 233.774 243.807 233.906 244.549C234.194 246.199 234.412 247.671 234.579 248.919H235.729C235.528 247.625 235.269 246.09 234.924 244.365C234.763 243.543 234.573 242.669 234.349 241.772C235.164 241.446 235.959 241.072 236.73 240.651C237.621 241.617 239.898 242.744 240.18 242.887C239.869 243.652 239.559 244.394 239.254 245.084C238.621 246.539 238.023 247.827 237.494 248.919H238.731C239.185 247.907 239.685 246.757 240.203 245.469C240.525 244.693 240.847 243.859 241.174 243.002C241.502 243.071 244.176 243.612 245.424 243.33C246.574 243.077 247.925 242.439 248.436 241.318C248.564 241.058 248.634 240.774 248.645 240.484C248.655 240.195 248.604 239.907 248.496 239.638C248.387 239.37 248.223 239.127 248.015 238.926C247.807 238.725 247.559 238.57 247.286 238.472C245.636 237.897 243.124 239.794 242.198 241.042C242.146 241.116 241.623 241.979 241.335 242.531C241.468 242.18 241.6 241.841 241.732 241.479C241.991 240.76 242.232 240.035 242.497 239.259L242.842 238.109C242.963 237.724 243.043 237.31 243.152 236.902C243.377 235.965 243.555 234.999 243.727 234.027C244.36 234.257 246.602 235.039 247.752 234.953C248.902 234.866 250.363 234.447 251.03 233.417C251.197 233.181 251.312 232.912 251.367 232.629C251.423 232.345 251.418 232.052 251.353 231.771C251.288 231.489 251.164 231.224 250.989 230.994C250.815 230.763 250.593 230.572 250.34 230.433C248.793 229.64 246.022 231.106 244.923 232.204C244.854 232.273 244.153 233.147 243.773 233.636C243.865 233.061 243.963 232.486 244.038 231.865C244.251 230.14 244.412 228.386 244.584 226.638C244.636 226.103 244.693 225.569 244.751 225.034C244.975 225.12 247.626 226.103 248.925 226.017C250.075 225.931 251.53 225.511 252.203 224.482C252.369 224.245 252.483 223.977 252.538 223.693C252.593 223.41 252.588 223.117 252.523 222.836C252.458 222.555 252.334 222.29 252.16 222.059C251.986 221.829 251.766 221.637 251.513 221.498C249.966 220.699 247.194 222.165 246.091 223.263C246.01 223.343 245.004 224.608 244.762 224.942C244.883 223.763 245.021 222.596 245.199 221.446C245.436 219.893 245.77 218.357 246.2 216.846C246.303 216.886 249.075 217.927 250.397 217.835C251.547 217.755 253.008 217.329 253.675 216.3C253.841 216.063 253.955 215.795 254.01 215.511C254.065 215.227 254.06 214.935 253.995 214.654C253.93 214.372 253.806 214.108 253.632 213.877C253.458 213.647 253.238 213.455 252.985 213.316C251.438 212.516 248.666 213.988 247.568 215.081C247.482 215.167 246.418 216.524 246.217 216.806C246.217 216.72 246.263 216.628 246.286 216.541C246.762 215.041 247.372 213.586 248.109 212.194C248.5 211.418 248.925 210.699 249.351 210.015C249.845 210.262 252.111 211.361 253.324 211.412C254.537 211.464 255.969 211.194 256.774 210.262C256.965 210.046 257.109 209.791 257.195 209.515C257.281 209.239 257.308 208.948 257.274 208.66C257.24 208.373 257.145 208.097 256.997 207.848C256.848 207.6 256.649 207.386 256.412 207.221C254.963 206.255 252.047 207.416 250.834 208.371C250.771 208.422 250.156 209.032 249.719 209.48C249.914 209.176 250.11 208.854 250.294 208.56C251.024 207.468 251.754 206.508 252.41 205.686C252.789 205.208 253.14 204.789 253.473 204.392C254.083 204.392 256.544 204.306 257.619 203.817C258.694 203.328 259.873 202.408 260.126 201.206C260.196 200.925 260.205 200.633 260.154 200.348C260.103 200.063 259.993 199.792 259.83 199.553C259.667 199.314 259.456 199.112 259.21 198.959C258.963 198.807 258.688 198.709 258.401 198.671C256.676 198.487 254.612 200.856 253.979 202.276C253.928 202.397 253.295 204.415 253.324 204.415H253.364C253.036 204.789 252.686 205.191 252.318 205.64C251.639 206.467 250.886 207.416 250.133 208.514C249.304 209.673 248.545 210.881 247.861 212.131C247.087 213.523 246.438 214.982 245.924 216.49C245.926 216.509 245.926 216.528 245.924 216.547C245.924 216.035 245.924 214.609 245.924 214.5C245.723 212.959 244.429 210.101 242.721 209.785C242.435 209.74 242.143 209.756 241.864 209.832C241.585 209.908 241.325 210.041 241.101 210.224C240.877 210.407 240.694 210.635 240.564 210.893C240.434 211.151 240.36 211.434 240.346 211.723C240.249 212.948 241.134 214.172 241.997 214.943C242.974 215.817 245.682 216.668 245.901 216.725C245.412 218.273 245.028 219.852 244.751 221.452C244.584 222.383 244.446 223.326 244.32 224.269C244.32 223.832 244.32 223.435 244.32 223.384C244.118 221.843 242.825 218.985 241.117 218.669C240.832 218.624 240.54 218.64 240.261 218.715C239.983 218.79 239.723 218.923 239.499 219.106C239.275 219.288 239.092 219.515 238.962 219.773C238.831 220.03 238.756 220.312 238.742 220.601C238.644 221.826 239.53 223.05 240.392 223.826C241.255 224.603 243.566 225.373 244.176 225.551C244.136 225.914 244.084 226.276 244.038 226.644C243.831 228.369 243.63 230.128 243.382 231.819C243.296 232.394 243.187 233.003 243.078 233.596C243.078 233.205 243.078 232.871 243.078 232.825C242.876 231.284 241.588 228.421 239.875 228.104C239.589 228.061 239.298 228.077 239.019 228.153C238.74 228.229 238.481 228.363 238.257 228.545C238.033 228.728 237.85 228.956 237.72 229.213C237.589 229.471 237.515 229.754 237.5 230.042C237.402 231.267 238.288 232.492 239.156 233.262C240.024 234.033 242.106 234.74 242.825 234.987C242.698 235.562 242.572 236.183 242.422 236.764C242.313 237.149 242.232 237.534 242.1 237.914C241.968 238.293 241.853 238.684 241.732 239.064C241.468 239.782 241.203 240.524 240.933 241.22L240.358 242.623C240.45 242.048 240.611 240.858 240.611 240.754C240.593 239.388 240.224 238.05 239.541 236.867C239.543 236.715 239.534 236.564 239.513 236.413C239.473 236.128 239.375 235.855 239.223 235.611C239.072 235.367 238.872 235.156 238.635 234.994C238.397 234.832 238.129 234.721 237.847 234.668C237.564 234.615 237.274 234.622 236.994 234.688C235.315 235.137 234.246 238.086 234.165 239.639C234.165 239.731 234.223 240.731 234.269 241.364C234.188 240.996 234.108 240.645 234.016 240.265C233.837 239.524 233.642 238.788 233.441 237.994C233.326 237.615 233.205 237.23 233.09 236.844C232.975 236.459 232.82 236.062 232.682 235.666C232.354 234.757 231.969 233.854 231.566 232.952C232.216 232.796 234.522 232.21 235.442 231.497C236.362 230.784 237.339 229.634 237.333 228.409C237.341 228.12 237.287 227.833 237.176 227.566C237.066 227.299 236.9 227.058 236.69 226.859C236.48 226.66 236.231 226.507 235.959 226.411C235.686 226.314 235.396 226.276 235.108 226.299C233.383 226.489 231.877 229.243 231.566 230.767C231.566 230.859 231.445 231.974 231.399 232.589C231.152 232.049 230.905 231.508 230.641 230.968C229.864 229.415 229.036 227.863 228.214 226.31L227.467 224.884C227.702 224.827 230.451 224.189 231.491 223.395C232.417 222.688 233.389 221.532 233.383 220.308C233.391 220.019 233.337 219.731 233.226 219.464C233.115 219.197 232.95 218.956 232.74 218.757C232.53 218.558 232.281 218.406 232.009 218.309C231.736 218.213 231.446 218.175 231.158 218.197C229.433 218.387 227.927 221.141 227.616 222.665C227.616 222.78 227.444 224.39 227.432 224.798C226.886 223.746 226.351 222.7 225.868 221.642C225.206 220.218 224.64 218.753 224.172 217.254C224.281 217.254 227.156 216.576 228.197 215.765C229.117 215.058 230.094 213.902 230.083 212.677C230.091 212.389 230.038 212.101 229.928 211.834C229.818 211.567 229.653 211.327 229.443 211.127C229.234 210.928 228.985 210.776 228.713 210.679C228.441 210.583 228.151 210.544 227.863 210.567C226.138 210.757 224.632 213.511 224.316 215.029C224.316 215.15 224.137 216.881 224.132 217.197L224.04 216.932C223.612 215.418 223.318 213.869 223.16 212.304C223.068 211.441 223.022 210.607 222.993 209.802C223.568 209.733 226.046 209.4 227.081 208.773C228.116 208.146 229.169 207.129 229.295 205.898C229.335 205.612 229.314 205.32 229.233 205.043C229.153 204.765 229.015 204.508 228.828 204.287C228.642 204.066 228.411 203.887 228.15 203.762C227.89 203.636 227.606 203.567 227.317 203.558C225.592 203.558 223.787 206.128 223.292 207.583C223.292 207.663 223.091 208.509 222.976 209.13C222.976 208.762 222.976 208.388 222.976 208.037C222.976 206.721 223.062 205.513 223.143 204.449C223.194 203.874 223.252 203.299 223.315 202.788C223.815 202.443 225.828 201.022 226.449 200.005C227.07 198.987 227.547 197.584 227.093 196.445C226.995 196.174 226.842 195.927 226.642 195.719C226.443 195.512 226.201 195.348 225.935 195.24C225.668 195.131 225.381 195.08 225.093 195.09C224.805 195.099 224.523 195.169 224.264 195.295C222.717 196.095 222.309 199.205 222.568 200.735C222.568 200.867 223.143 202.903 223.2 202.885H223.229C223.16 203.374 223.091 203.903 223.033 204.478C222.924 205.548 222.815 206.749 222.786 208.072C222.737 209.495 222.77 210.919 222.884 212.338C223.01 213.926 223.275 215.5 223.677 217.042V217.099C223.401 216.668 222.596 215.495 222.527 215.409C221.51 214.259 218.853 212.562 217.255 213.241C216.991 213.361 216.756 213.535 216.565 213.752C216.374 213.969 216.23 214.224 216.144 214.5C216.058 214.776 216.031 215.067 216.064 215.355C216.098 215.642 216.192 215.919 216.34 216.168C216.904 217.099 218.318 217.628 219.468 217.801Z" fill="#84B5FF"/>
<path d="M249.299 209.624C249.299 209.624 249.874 207.594 249.874 207.462C250.092 205.927 249.598 202.828 248.034 202.069C247.77 201.95 247.485 201.887 247.195 201.886C246.906 201.885 246.62 201.945 246.356 202.063C246.091 202.18 245.855 202.352 245.661 202.567C245.468 202.782 245.322 203.035 245.234 203.311C244.814 204.461 245.343 205.881 245.975 206.853C246.711 207.997 249.27 209.624 249.299 209.624Z" fill="#84B5FF"/>
<path d="M194.261 89.2673C194.261 89.2673 194.439 82.7757 198.182 80.9357C201.925 79.0957 202.138 85.1734 202.138 85.1734C202.138 85.1734 210.7 79.734 212.557 83.8566C214.414 87.9793 211.821 89.9745 211.821 89.9745C211.821 89.9745 219.422 89.71 219.951 93.8787C220.48 98.0474 216.553 100.089 216.553 100.089C216.553 100.089 221.251 103.924 219.601 105.695C217.95 107.466 214.339 107.592 214.339 107.592C214.339 107.592 216.386 111.703 212.816 113.164C209.245 114.624 205.163 111.905 205.163 111.905C205.163 111.905 205.795 113.791 203.116 113.313C200.436 112.836 197.728 111.588 196.066 107.656C194.404 103.723 192.26 92.585 194.261 89.2673Z" fill="#263238" stroke="#263238" stroke-linecap="round" stroke-linejoin="round"/>
<path d="M154.736 214.644C154.736 214.644 152.603 222.786 152.637 223.689C152.672 224.592 151.93 226.639 152.557 227.219C153.73 228.176 154.973 229.043 156.277 229.812C156.808 229.805 157.326 229.648 157.772 229.358C157.916 229.229 158.032 229.071 158.112 228.895C158.192 228.719 158.235 228.528 158.238 228.335C158.238 228.03 157.381 226.754 157.266 226.455C157.151 226.156 158.836 222.263 159.474 220.325C159.952 218.595 160.294 216.83 160.497 215.047L154.736 214.644Z" fill="#BDBDBD" stroke="#263238" stroke-miterlimit="10"/>
<path d="M157.053 220.314C157.053 220.314 155.84 223.188 155.759 223.683C155.679 224.177 154.034 225.557 154.253 226.661C154.471 227.765 156.898 227.472 158.094 224.206" fill="#BDBDBD"/>
<path d="M157.053 220.314C157.053 220.314 155.84 223.188 155.759 223.683C155.679 224.177 154.034 225.557 154.253 226.661C154.471 227.765 156.898 227.472 158.094 224.206" stroke="#263238" stroke-miterlimit="10"/>
<path d="M162.487 170.416C162.487 170.416 161.469 187.022 161.084 188.488C160.699 189.954 156.076 203.346 155.058 207.462C154.434 210.012 153.99 212.602 153.73 215.213L159.934 216.519L163.418 201.212C163.418 201.212 167.972 187.263 167.046 180.725C166.572 176.916 164.986 173.33 162.487 170.416Z" fill="#84B5FF" stroke="#263238" stroke-miterlimit="10"/>
<path d="M194.807 248.862C194.882 245.251 195.031 240.381 195.382 237.592C195.957 232.774 198.015 229.795 200.131 223.792C202.247 217.789 202.431 209.901 202.431 209.901L164.539 211.223C164.539 211.223 160.147 227.513 157.484 239.495C156.762 242.569 156.34 245.706 156.225 248.862" fill="#84B5FF"/>
<path d="M194.807 248.862C194.882 245.251 195.031 240.381 195.382 237.592C195.957 232.774 198.015 229.795 200.131 223.792C202.247 217.789 202.431 209.901 202.431 209.901L164.539 211.223C164.539 211.223 160.147 227.513 157.484 239.495C156.762 242.569 156.34 245.706 156.225 248.862" stroke="#263238" stroke-miterlimit="10"/>
<path d="M169.502 217.329L201.028 218.215L201.695 215.777L169.502 217.329Z" fill="#263238" stroke="#263238" stroke-linecap="round" stroke-linejoin="round"/>
<path d="M167.909 248.287C167.909 248.287 167.288 228.57 167.271 217.87Z" fill="white"/>
<path d="M167.909 248.287C167.909 248.287 167.288 228.57 167.271 217.87" stroke="#263238" stroke-miterlimit="10"/>
<path d="M192.076 128.706L196.676 131.799C196.676 131.799 202.121 136.664 203.461 140.689C204.8 144.714 203.829 168.616 202.477 176.338C201.126 184.06 204.501 193.68 205.703 199.108C206.905 204.536 207.428 214.633 207.428 214.633C207.428 214.633 208.279 215.817 193.513 216.329C178.747 216.841 168.449 217.611 167.242 217.853C166.512 218.002 165.772 218.096 165.028 218.134L164.453 212.89L163.021 217.209L159.957 216.507C159.957 216.507 161.86 207.123 162.337 203.466C162.814 199.809 165.827 187.367 165.868 182.686C165.908 178.006 161.998 170.473 161.233 165.839C160.469 161.204 162.01 153.258 165.833 147.255C169.657 141.252 172.221 138.929 179.696 132.8C187.171 126.671 192.076 128.706 192.076 128.706Z" fill="#84B5FF" stroke="#263238" stroke-miterlimit="10"/>
<path d="M180.093 198.769L195.52 200.517L194.652 196.48L185.026 195.652" stroke="#263238" stroke-miterlimit="10"/>
<path d="M174.7 195.428L173.918 198.073L177.787 198.51" stroke="#263238" stroke-miterlimit="10"/>
<path d="M180.49 168.996C179.765 168.324 179.099 167.591 178.5 166.805" stroke="#263238" stroke-miterlimit="10"/>
<path d="M185.854 173.527C185.854 173.527 184.227 172.296 182.445 170.767" stroke="#263238" stroke-miterlimit="10"/>
<path d="M192.076 128.706C192.076 128.706 187.171 126.665 179.696 132.8C172.221 138.935 169.663 141.264 165.822 147.255C163.527 150.959 162.002 155.087 161.337 159.393C161.429 159.842 161.527 160.296 161.636 160.762C163.775 169.801 166.155 174.171 166.155 174.171C166.155 174.171 170.295 153.574 177.5 145.225C184.704 136.877 196.67 131.799 196.67 131.799L192.076 128.706Z" fill="#84B5FF" stroke="#263238" stroke-miterlimit="10"/>
<path d="M174.096 88.5313C174.096 88.5313 168.697 93.574 168.294 97.5472C167.892 101.52 167.472 104.947 166.799 106.23C166.126 107.512 162.734 108.351 163.884 110.289C165.034 112.227 166.109 112.186 166.109 112.186C166.109 112.186 167.834 120.76 169.145 121.961C170.456 123.163 175.096 122.473 175.096 122.473L176.534 132.869C176.534 132.869 166.88 141.431 164.999 153.362C163.119 165.293 165.27 172.101 165.27 172.101C165.27 172.101 166.529 153.304 170.876 146.266C175.223 139.228 185.32 132.564 186.809 131.362C188.298 130.161 192.076 128.694 192.076 128.694C192.076 128.694 190.282 124.67 190.04 122.853C189.799 121.036 189.879 118.362 190.219 117.632C190.558 116.901 196.589 114.711 198.843 107.799C201.097 100.888 197.78 92.7288 194.244 89.2558C190.707 85.7829 178.615 84.0579 174.096 88.5313Z" fill="#BDBDBD" stroke="#263238" stroke-miterlimit="10"/>
<path d="M198.866 107.811C201.166 100.911 197.803 92.7403 194.267 89.2673C190.73 85.7944 178.621 84.0579 174.102 88.5313C174.102 88.5313 173.814 88.8016 173.366 89.2673C175.083 88.8378 176.873 88.779 178.615 89.0948C182.232 89.6698 182.151 92.5448 181.168 95.299C180.185 98.0532 180.927 98.5419 182.772 99.8989C184.618 101.256 182.726 103.861 184.026 104.896C185.325 105.931 186.383 100.296 189.201 104.355C192.018 108.415 190.127 110.254 188.367 111.393C187.382 112.051 186.312 112.573 185.187 112.945C185.187 112.945 187.85 116.068 190.477 117.356C191.737 116.418 196.819 114.021 198.866 107.811Z" fill="#263238" stroke="#263238" stroke-linecap="round" stroke-linejoin="round"/>
<path d="M169.036 113.705C169.036 113.705 172.802 113.394 174.544 111.715" stroke="#263238" stroke-miterlimit="10"/>
<path d="M171.428 104.809C171.457 105.701 171.117 106.437 170.675 106.454C170.232 106.471 169.841 105.758 169.806 104.867C169.772 103.976 170.117 103.24 170.56 103.222C171.002 103.205 171.393 103.918 171.428 104.809Z" fill="#263238"/>
<path d="M169.806 101.17C169.806 101.17 171.02 99.5366 172.756 101.463" stroke="#263238" stroke-miterlimit="10"/>
<path d="M175.096 122.485L179.587 120.794L176.459 126.412L175.096 122.485Z" fill="#263238" stroke="#263238" stroke-miterlimit="10"/>
<path d="M162.165 205.013L156.277 229.812L161.561 231.043L164.47 212.908L162.165 205.013Z" fill="white" stroke="#263238" stroke-miterlimit="10"/>
<path d="M167.368 145.64C166.238 148.1 165.441 150.701 164.999 153.373C163.119 165.298 165.27 172.112 165.27 172.112C165.27 172.112 166.517 153.569 170.79 146.427C169.623 146.296 168.475 146.031 167.368 145.64V145.64Z" fill="white" stroke="#263238" stroke-miterlimit="10"/>
<path d="M185.561 153.379L185.159 174.424L148.33 180.495L149.135 190.414C149.135 190.414 169.576 190.817 179.087 190.006C188.597 189.195 196.911 188.591 198.107 187.579C199.303 186.567 202.771 167.006 204.185 153.247C205.6 139.487 202.771 134.847 197.107 135.64" fill="#84B5FF"/>
<path d="M185.561 153.379L185.159 174.424L148.33 180.495L149.135 190.414C149.135 190.414 169.576 190.817 179.087 190.006C188.597 189.195 196.911 188.591 198.107 187.579C199.303 186.567 202.771 167.006 204.185 153.247C205.6 139.487 202.771 134.847 197.107 135.64" stroke="#263238" stroke-miterlimit="10"/>
<path d="M126.297 179.604L123.347 188.551L126.222 190.115C126.222 190.115 129.873 192.944 131.874 194.474C133.875 196.003 135.41 196.003 136.474 195.532C137.538 195.06 142.362 188.229 142.949 186.935C143.535 185.642 140.712 181.76 137.889 180.104C135.065 178.449 132.714 178.46 131.058 178.955C129.49 179.296 127.898 179.513 126.297 179.604Z" fill="white" stroke="#263238" stroke-miterlimit="10"/>
<path d="M148.331 180.495L143.673 180.093C142.212 179.712 140.724 179.441 139.223 179.282C138.009 179.282 136.388 180.495 135.577 181.105C134.766 181.714 125.866 191.426 125.866 191.426C125.866 191.426 126.676 193.042 127.89 192.639C129.103 192.237 131.34 191.219 131.34 191.219C131.34 191.219 128.913 193.651 130.126 194.865C131.34 196.078 133.363 196.078 133.363 196.078L134.784 195.267C135.381 195.738 136.067 196.082 136.802 196.279C137.814 196.48 139.435 196.078 140.827 195.267C142.218 194.456 145.835 190.236 145.835 190.236L148.94 189.034L148.331 180.495Z" fill="#BDBDBD" stroke="#263238" stroke-miterlimit="10"/>
<path d="M127.901 179.989C127.901 179.989 133.789 176.574 136.376 177.517C138.964 178.46 142.385 184.227 141.442 185.055C140.499 185.883 138.97 185.521 138.147 184.699C137.46 184.074 136.71 183.521 135.911 183.048C134.36 183.919 132.623 184.405 130.845 184.463" fill="white"/>
<path d="M127.901 179.989C127.901 179.989 133.789 176.574 136.376 177.517C138.964 178.46 142.385 184.227 141.442 185.055C140.499 185.883 138.97 185.521 138.147 184.699C137.46 184.074 136.71 183.521 135.911 183.048C134.36 183.919 132.623 184.405 130.845 184.463" stroke="#263238" stroke-miterlimit="10"/>
<path d="M145.461 193.358L143.593 192.357C143.442 192.278 143.309 192.169 143.2 192.038C143.092 191.906 143.011 191.755 142.961 191.592C142.911 191.429 142.894 191.258 142.911 191.088C142.927 190.918 142.977 190.754 143.058 190.604V190.604C143.138 190.454 143.247 190.321 143.379 190.213C143.51 190.105 143.662 190.025 143.825 189.975C143.988 189.926 144.159 189.91 144.328 189.927C144.497 189.944 144.662 189.994 144.812 190.075L146.68 191.069C146.983 191.232 147.209 191.507 147.31 191.836C147.41 192.165 147.376 192.52 147.215 192.823V192.823C147.053 193.126 146.777 193.352 146.449 193.453C146.12 193.553 145.765 193.519 145.461 193.358Z" fill="white" stroke="#263238" stroke-miterlimit="10"/>
<path d="M143.811 195.359L141.942 194.359C141.647 194.196 141.426 193.926 141.326 193.604C141.227 193.282 141.256 192.934 141.408 192.634C141.571 192.339 141.842 192.12 142.163 192.021C142.485 191.922 142.832 191.952 143.133 192.105L145.001 193.099C145.298 193.26 145.52 193.531 145.619 193.853C145.719 194.175 145.689 194.524 145.536 194.824C145.375 195.121 145.105 195.343 144.782 195.442C144.46 195.542 144.112 195.512 143.811 195.359V195.359Z" fill="white" stroke="#263238" stroke-miterlimit="10"/>
<path d="M141.925 197.124L140.056 196.124C139.906 196.044 139.773 195.935 139.664 195.804C139.556 195.672 139.475 195.52 139.426 195.357C139.377 195.194 139.36 195.023 139.378 194.853C139.395 194.684 139.446 194.52 139.527 194.37C139.608 194.22 139.717 194.087 139.848 193.979C139.98 193.872 140.132 193.791 140.295 193.742C140.457 193.693 140.628 193.676 140.798 193.693C140.967 193.71 141.131 193.76 141.281 193.841L143.15 194.841C143.3 194.922 143.433 195.031 143.54 195.162C143.648 195.294 143.729 195.446 143.778 195.609C143.827 195.771 143.844 195.942 143.827 196.112C143.81 196.281 143.759 196.445 143.679 196.595C143.599 196.745 143.49 196.878 143.358 196.986C143.226 197.094 143.075 197.174 142.912 197.223C142.749 197.273 142.578 197.289 142.409 197.272C142.239 197.255 142.075 197.205 141.925 197.124V197.124Z" fill="white" stroke="#263238" stroke-miterlimit="10"/>
<path d="M137.958 197.21L137.469 196.952C137.318 196.872 137.185 196.763 137.077 196.632C136.968 196.5 136.887 196.349 136.837 196.186C136.788 196.023 136.771 195.852 136.787 195.682C136.804 195.513 136.854 195.348 136.934 195.198V195.198C137.096 194.895 137.372 194.669 137.701 194.569C138.029 194.468 138.384 194.502 138.688 194.663L139.177 194.928C139.327 195.007 139.46 195.116 139.569 195.248C139.677 195.379 139.759 195.531 139.808 195.694C139.858 195.856 139.875 196.028 139.858 196.197C139.842 196.367 139.792 196.531 139.711 196.681V196.681C139.631 196.831 139.522 196.964 139.39 197.072C139.259 197.18 139.107 197.261 138.944 197.31C138.781 197.359 138.61 197.375 138.441 197.358C138.272 197.341 138.107 197.291 137.958 197.21V197.21Z" fill="white" stroke="#263238" stroke-miterlimit="10"/>
<path d="M126.297 179.604L101.584 169.157L102.498 185.527L122.904 190.201L126.297 179.604Z" fill="#263238" stroke="#263238" stroke-linecap="round" stroke-linejoin="round"/>
<path d="M122.904 190.201L126.297 179.604L122.841 178.075L122.772 178.425L119.61 189.402L122.904 190.201Z" fill="white" stroke="#263238" stroke-miterlimit="10"/>
<path d="M87.6977 114.124L94.0226 117.062C94.0226 117.062 96.6791 124.589 95.7936 124.808C94.9081 125.026 88.2669 119.719 88.2669 119.719L87.6977 114.124Z" fill="white" stroke="#263238" stroke-linecap="round" stroke-linejoin="round"/>
<path d="M91.3719 112.618L91.8146 110.082C91.8146 110.082 97.6795 110.485 100.025 110.467C102.371 110.45 104.418 110.151 104.401 107.661C104.384 105.172 103.015 96.679 103.015 96.679C103.015 96.679 105.649 96.0752 106.667 94.8965C107.684 93.7178 106.212 92.263 104.884 90.5093C103.556 88.7556 102.366 86.8639 102.21 84.8112C102.055 82.7585 98.4902 76.0426 98.4902 76.0426C98.4902 76.0426 99.0652 75.0133 97.1505 72.8284C95.2358 70.6434 85.415 70.2639 79.1303 73.4033C72.8456 76.5428 71.4139 81.0737 71.4427 86.0531C71.4714 91.0326 74.3176 98.0532 74.3176 98.0532C74.3176 98.0532 72.4604 105.683 72.3167 106.103C72.1729 106.523 70.5054 109.795 70.5054 109.795C70.5054 109.795 78.3656 115.274 81.2348 117.735C84.104 120.196 90.5841 124.405 90.6244 122.128C90.6646 119.851 90.9234 114.711 90.9234 114.711L91.3719 112.618Z" fill="white" stroke="#263238" stroke-linecap="round" stroke-linejoin="round"/>
<path d="M100.037 88.8361C100.071 89.687 99.8759 90.3828 99.5942 90.3943C99.3124 90.4058 99.0479 89.733 99.0192 88.8821C98.9904 88.0311 99.1744 87.3353 99.4619 87.3238C99.7494 87.3123 99.9967 87.9851 100.037 88.8361Z" fill="#263238"/>
<path d="M95.9143 86.0244C95.9143 86.0244 97.2195 83.8164 100.6 85.1159" stroke="#263238" stroke-width="2" stroke-linecap="round" stroke-linejoin="round"/>
<path d="M104.401 107.661C104.401 105.166 103.015 96.679 103.015 96.679C103.015 96.679 101.4 95.8107 98.3235 96.5582C95.2473 97.3057 94.4078 102.308 93.8213 102.883C93.2348 103.458 89.4111 100.008 87.9276 97.645C86.4441 95.2818 85.3977 91.2396 85.2367 88.8764C85.0757 86.5131 90.6358 85.3229 91.5041 83.1264C92.3723 80.93 88.2726 78.5898 89.7043 77.1235C91.1361 75.6573 94.0973 76.2208 95.5635 76.5025C96.563 76.6377 97.5803 76.4778 98.4902 76.0426C98.4902 76.0426 99.0652 75.0133 97.1505 72.8284C95.2358 70.6434 85.4149 70.2639 79.1303 73.4033C72.8456 76.5428 71.4139 81.0737 71.4426 86.0531C71.4714 90.0781 73.3343 95.46 74.0358 97.3575C74.6295 97.6142 75.2693 97.7472 75.9161 97.7485C76.491 97.599 76.928 95.8395 77.2098 94.0743C77.4915 92.309 81.7292 90.2391 81.7292 90.2391C81.7292 90.2391 82.494 95.5118 82.4997 96.5352C82.5055 97.5587 81.9247 102.693 84.7537 105.16C86.9687 106.996 89.3302 108.648 91.8146 110.099C91.8146 110.099 97.6795 110.502 100.025 110.485C102.371 110.467 104.418 110.151 104.401 107.661Z" fill="#263238" stroke="#263238" stroke-linecap="round" stroke-linejoin="round"/>
<path d="M82.632 93.873C82.632 93.873 81.413 86.8466 79.366 87.1514C77.319 87.4561 76.1576 90.1011 77.204 93.4763C78.2505 96.8515 80.3032 96.5352 81.4705 96.2362" fill="white"/>
<path d="M82.632 93.873C82.632 93.873 81.413 86.8466 79.366 87.1514C77.319 87.4561 76.1576 90.1011 77.204 93.4763C78.2505 96.8515 80.3032 96.5352 81.4705 96.2362" stroke="#263238" stroke-linecap="round" stroke-linejoin="round"/>
<path d="M97.024 99.2032C97.024 99.2032 98.2028 100.664 101.279 100.646" stroke="white" stroke-linecap="round" stroke-linejoin="round"/>
<path d="M64.123 248.862H95.1725C95.276 247.229 96.4835 240.95 96.4835 236.833C96.4835 232.078 99.7552 201.402 99.7552 201.402L59.3736 200.873L60.6961 219.647L64.123 248.862Z" fill="#263238" stroke="#263238" stroke-linecap="round" stroke-linejoin="round"/>
<path d="M68.1479 110.864C68.1479 110.864 61.0698 119.943 59.0746 125.032C57.0793 130.121 55.5326 131.006 55.9754 137.423C56.4181 143.84 59.523 169.513 59.523 169.513L53.3246 202.937C60.6405 205.558 68.3519 206.904 76.123 206.916C88.9568 206.916 94.5228 205.812 95.3795 205.37C96.2362 204.927 104.004 202.937 104.004 202.937C104.004 202.937 104.004 165.091 101.566 152.033C99.1284 138.975 96.035 129.034 94.931 126.579C93.827 124.123 90.2793 116.177 90.2793 116.177L68.1479 110.864Z" fill="#263238" stroke="#263238" stroke-linecap="round" stroke-linejoin="round"/>
<path d="M94.9482 126.579C93.8385 124.146 90.2965 116.177 90.2965 116.177L68.1479 110.864C68.1479 110.864 66.6529 112.785 64.8417 115.355C69.6659 118.155 81.6084 125.078 82.3157 125.25C83.2011 125.475 87.6286 125.032 87.6286 125.032L85.6506 127.464C85.6506 127.464 90.9635 131.673 92.7345 133.438C93.666 134.37 96.3684 136.831 98.7259 138.958C97.1217 132.599 95.6382 128.108 94.9482 126.579Z" fill="#263238" stroke="#263238" stroke-linecap="round" stroke-linejoin="round"/>
<path d="M84.7651 121.047L92.2918 127.021L98.4844 138.09L94.5055 121.933L86.3176 117.287L84.7651 121.047Z" fill="white" stroke="#263238" stroke-linecap="round" stroke-linejoin="round"/>
<path d="M69.7177 106.661L92.8898 117.103V125.291L66.3942 111.75L69.7177 106.661Z" fill="white" stroke="#263238" stroke-linecap="round" stroke-linejoin="round"/>
<path d="M100.359 190.42H60.3165V222.821H100.359V190.42Z" fill="#84B5FF" stroke="#263238" stroke-miterlimit="10"/>
<path d="M82.793 205.864C82.793 205.864 85.7714 209.745 86.9386 210.136C87.9213 210.54 88.734 211.271 89.2386 212.206C89.7561 212.982 90.3886 218.807 90.7911 219.198C91.1936 219.589 91.1821 220.492 89.7561 219.842C88.3301 219.192 87.4561 216.967 87.4561 216.967L87.9736 222.142C87.9736 222.142 89.1236 222.401 88.2324 223.051C87.3411 223.7 86.5477 224.603 85.7714 224.201C85.0807 223.789 84.4318 223.312 83.8337 222.775C82.9089 223.085 81.9241 223.174 80.9587 223.033C79.5385 222.775 79.8088 223.292 78.5035 222.384C77.1983 221.475 77.2041 222.516 76.5601 220.831C75.5569 217.816 74.7351 214.744 74.0991 211.631C73.8404 209.947 73.5816 207.606 73.5816 207.606L82.793 205.864Z" fill="white" stroke="#263238" stroke-linecap="round" stroke-linejoin="round"/>
<path d="M83.3162 203.403L84.2189 207.417L73.0871 208.969L72.5696 204.956L83.3162 203.403Z" fill="white" stroke="#263238" stroke-linecap="round" stroke-linejoin="round"/>
<path d="M69.0507 118.839C69.0507 118.839 61.3056 121.271 61.0871 124.813C60.8686 128.355 58.2984 171.313 59.4081 174.188C60.5179 177.063 71.4025 206.198 71.4025 206.198L84.0178 204.651C84.0178 204.651 77.5549 170.864 77.3479 170.197C77.1409 169.53 81.6833 131.891 81.6833 131.891" fill="#263238"/>
<path d="M69.0507 118.839C69.0507 118.839 61.3056 121.271 61.0871 124.813C60.8686 128.355 58.2984 171.313 59.4081 174.188C60.5179 177.063 71.4025 206.198 71.4025 206.198L84.0178 204.651C84.0178 204.651 77.5549 170.864 77.3479 170.197C77.1409 169.53 81.6833 131.891 81.6833 131.891" stroke="#263238" stroke-linecap="round" stroke-linejoin="round"/>
<path d="M80.1825 142.701L77.3305 170.197L80.0502 187.28" stroke="#878787" stroke-linecap="round" stroke-linejoin="round"/>
<path d="M80.6195 138.492L80.47 139.953" stroke="#878787" stroke-linecap="round" stroke-linejoin="round"/>
<path d="M60.1958 134.237L59.3448 160.054" stroke="#878787" stroke-linecap="round" stroke-linejoin="round"/>
<path d="M89.1294 182.772L97.6392 182.462L98.404 185.527L84.3052 186.429" stroke="#878787" stroke-linecap="round" stroke-linejoin="round"/>
<path d="M82.0397 183.025L86.5707 182.864" stroke="#878787" stroke-linecap="round" stroke-linejoin="round"/>
<path d="M66.7219 116.085L82.3329 125.25L87.6459 125.032L85.6506 127.464L95.9372 135.658" stroke="#878787" stroke-linecap="round" stroke-linejoin="round"/>
<path d="M0 248.862H262.478" stroke="#263238" stroke-miterlimit="10"/>
<path d="M74.1796 11.9021V50.7658" stroke="#263238" stroke-miterlimit="10"/>
<path d="M133.875 11.9022V50.7659" stroke="#263238" stroke-miterlimit="10"/>
<path d="M193.571 11.9022V50.7659" stroke="#263238" stroke-miterlimit="10"/>
</svg>
