<svg width="293" height="281" viewBox="0 0 293 281" fill="none" xmlns="http://www.w3.org/2000/svg">
<path d="M167.287 36.1896H148.762V40.4562H167.287V36.1896Z" fill="#84B5FF"/>
<path d="M160.933 42.3539H148.762V46.6205H160.933V42.3539Z" fill="#84B5FF"/>
<path d="M155.77 48.5181H148.762V52.7847H155.77V48.5181Z" fill="#84B5FF"/>
<g opacity="0.2">
<path opacity="0.2" d="M167.287 36.1896H148.762V40.4562H167.287V36.1896Z" fill="black"/>
<path opacity="0.2" d="M160.933 42.3539H148.762V46.6205H160.933V42.3539Z" fill="black"/>
<path opacity="0.2" d="M155.77 48.5183H148.762V52.7849H155.77V48.5183Z" fill="black"/>
</g>
<path d="M116.592 83.4361V96.2817H122.874V83.4361H116.592Z" fill="#84B5FF"/>
<path d="M125.668 87.8467V96.2817H131.95V87.8467H125.668Z" fill="#84B5FF"/>
<path d="M134.738 91.4198V96.2754H141.02V91.4198H134.738Z" fill="#84B5FF"/>
<g opacity="0.2">
<path opacity="0.2" d="M116.592 83.4364V96.282H122.874V83.4364H116.592Z" fill="black"/>
<path opacity="0.2" d="M125.668 87.8468V96.2818H131.95V87.8468H125.668Z" fill="black"/>
<path opacity="0.2" d="M134.738 91.4199V96.2754H141.02V91.4199H134.738Z" fill="black"/>
</g>
<path d="M115.185 105.653H191.257C192.254 105.654 193.24 105.459 194.161 105.079C195.082 104.699 195.919 104.141 196.624 103.438C197.329 102.734 197.888 101.898 198.27 100.978C198.652 100.057 198.848 99.071 198.848 98.0747V35.3846C198.848 34.3883 198.652 33.4019 198.27 32.4816C197.888 31.5614 197.329 30.7255 196.624 30.0216C195.919 29.3178 195.082 28.7599 194.161 28.3798C193.24 27.9998 192.254 27.8051 191.257 27.8068H115.185C114.189 27.8059 113.203 28.0012 112.282 28.3816C111.362 28.7619 110.525 29.3199 109.82 30.0235C109.115 30.7272 108.556 31.5628 108.174 32.4827C107.792 33.4025 107.595 34.3886 107.594 35.3846V98.0747C107.595 99.0707 107.792 100.057 108.174 100.977C108.556 101.896 109.115 102.732 109.82 103.436C110.525 104.139 111.362 104.697 112.282 105.078C113.203 105.458 114.189 105.653 115.185 105.653V105.653Z" stroke="#263238" stroke-width="1.0631" stroke-miterlimit="10"/>
<path d="M163.151 84.1299H190.276" stroke="#263238" stroke-width="1.0631" stroke-miterlimit="10"/>
<path d="M163.151 87.0288H190.276" stroke="#263238" stroke-width="1.0631" stroke-miterlimit="10"/>
<path d="M163.151 89.9277H190.276" stroke="#263238" stroke-width="1.0631" stroke-miterlimit="10"/>
<path d="M163.151 92.8333H190.276" stroke="#263238" stroke-width="1.0631" stroke-miterlimit="10"/>
<path d="M163.151 95.7322H190.276" stroke="#263238" stroke-width="1.0631" stroke-miterlimit="10"/>
<path d="M115.761 36.8243H142.885" stroke="#263238" stroke-width="1.0631" stroke-miterlimit="10"/>
<path d="M115.761 39.7232H142.885" stroke="#263238" stroke-width="1.0631" stroke-miterlimit="10"/>
<path d="M115.761 42.6221H142.885" stroke="#263238" stroke-width="1.0631" stroke-miterlimit="10"/>
<path d="M115.761 45.5211H142.885" stroke="#263238" stroke-width="1.0631" stroke-miterlimit="10"/>
<path d="M115.761 48.4266H142.885" stroke="#263238" stroke-width="1.0631" stroke-miterlimit="10"/>
<path d="M186.879 59.6231L192.049 62.3388L191.467 47.7591L179.112 55.5528L184.282 58.262L180.394 65.6631C179.707 65.6658 179.04 65.8959 178.497 66.3175L171.652 63.1372C171.652 62.3006 171.32 61.4984 170.728 60.9069C170.137 60.3153 169.334 59.983 168.498 59.983C167.661 59.983 166.859 60.3153 166.267 60.9069C165.676 61.4984 165.344 62.3006 165.344 63.1372C165.343 63.5892 165.442 64.0358 165.632 64.4459L156.66 74.1701C156.374 74.0784 156.077 74.0298 155.777 74.0261C155.625 74.0314 155.474 74.0467 155.325 74.072L142.427 57.7712C142.613 57.3601 142.706 56.9135 142.702 56.4624C142.702 55.6259 142.37 54.8236 141.778 54.2321C141.187 53.6406 140.384 53.3083 139.548 53.3083C138.711 53.3083 137.909 53.6406 137.317 54.2321C136.726 54.8236 136.394 55.6259 136.394 56.4624C136.4 56.7873 136.456 57.1093 136.557 57.4178L121.827 72.4164C121.481 72.2897 121.116 72.2233 120.747 72.22C120.125 72.2213 119.517 72.407 119 72.7537C118.484 73.1003 118.081 73.5924 117.844 74.1676C117.607 74.7429 117.545 75.3756 117.667 75.9857C117.79 76.5959 118.09 77.1561 118.53 77.5956C118.971 78.0352 119.532 78.3343 120.142 78.4552C120.752 78.5761 121.385 78.5134 121.96 78.275C122.535 78.0366 123.026 77.6331 123.371 77.1157C123.717 76.5982 123.901 75.9899 123.901 75.3676C123.9 75.1068 123.865 74.8472 123.797 74.5955L138.651 59.4268C138.941 59.518 139.243 59.5665 139.548 59.5708C139.741 59.5703 139.934 59.5528 140.124 59.5184L152.956 75.7864C152.724 76.2507 152.61 76.765 152.624 77.2839C152.639 77.8027 152.781 78.31 153.038 78.7607C153.295 79.2115 153.66 79.5918 154.099 79.8679C154.539 80.144 155.04 80.3073 155.558 80.3435C156.075 80.3796 156.594 80.2875 157.068 80.0751C157.541 79.8628 157.955 79.5368 158.273 79.1262C158.59 78.7156 158.801 78.233 158.888 77.7212C158.974 77.2093 158.932 76.6842 158.767 76.1922L167.968 66.2259C168.143 66.2569 168.32 66.2744 168.498 66.2782C169.123 66.279 169.734 66.0921 170.252 65.7416L177.253 69.0136C177.28 69.499 177.419 69.9717 177.659 70.3944C177.9 70.8172 178.235 71.1785 178.638 71.4502C179.041 71.7218 179.502 71.8963 179.984 71.96C180.466 72.0237 180.956 71.9749 181.416 71.8174C181.876 71.6599 182.293 71.3979 182.635 71.0521C182.977 70.7062 183.234 70.2859 183.386 69.8241C183.538 69.3623 183.581 68.8715 183.512 68.3903C183.442 67.909 183.262 67.4504 182.986 67.0504L186.879 59.6231Z" fill="#263238"/>
<path d="M90.2071 73.9477L81.3598 60.1205L66.7408 70.872L53.2605 44.1927L17.6881 66.8083V85.0788H97.9027V69.7203L90.2071 73.9477Z" fill="#263238" stroke="#263238" stroke-width="1.16063" stroke-linecap="round" stroke-linejoin="round"/>
<path d="M91.7449 84.3131L82.132 69.7203L65.9752 76.251L47.1223 58.2031L17.6881 70.0867V96.6024H97.9027V80.0857L91.7449 84.3131Z" fill="#84B5FF" stroke="#263238" stroke-width="0.876601" stroke-miterlimit="10"/>
<path opacity="0.2" d="M91.7449 84.3131L82.132 69.7203L65.9752 76.251L47.1223 58.2031L17.6881 70.0867V96.6024H97.9027V80.0857L91.7449 84.3131Z" fill="black"/>
<path d="M91.7449 84.3131L82.132 69.7203L65.9752 76.251L47.1223 58.2031L17.6881 70.0867V96.6024H97.9027V80.0857L91.7449 84.3131Z" stroke="#263238" stroke-width="0.876601" stroke-miterlimit="10"/>
<path d="M63.266 37.4264H56.8073C56.4123 37.4234 56.028 37.5544 55.7171 37.7979C55.4061 38.0414 55.1868 38.3831 55.095 38.7672C55.0031 39.1513 55.0441 39.5552 55.2113 39.913C55.3784 40.2709 55.6619 40.5615 56.0154 40.7376L53.7578 43.1392L57.8739 40.9339H63.266C63.7312 40.9339 64.1772 40.7491 64.5061 40.4202C64.835 40.0913 65.0198 39.6452 65.0198 39.1801C65.0198 38.715 64.835 38.2689 64.5061 37.94C64.1772 37.6111 63.7312 37.4264 63.266 37.4264V37.4264Z" fill="#84B5FF"/>
<path opacity="0.2" d="M63.266 37.4264H56.8073C56.4123 37.4234 56.028 37.5544 55.7171 37.7979C55.4061 38.0414 55.1868 38.3831 55.095 38.7672C55.0031 39.1513 55.0441 39.5552 55.2113 39.913C55.3784 40.2709 55.6619 40.5615 56.0154 40.7376L53.7578 43.1392L57.8739 40.9339H63.266C63.7312 40.9339 64.1772 40.7491 64.5061 40.4202C64.835 40.0913 65.0198 39.6452 65.0198 39.1801C65.0198 38.715 64.835 38.2689 64.5061 37.94C64.1772 37.6111 63.7312 37.4264 63.266 37.4264V37.4264Z" fill="black"/>
<path d="M91.5551 53.0399H85.0963C84.7014 53.037 84.3171 53.168 84.0062 53.4114C83.6952 53.6549 83.4759 53.9966 83.3841 54.3807C83.2922 54.7649 83.3332 55.1688 83.5004 55.5266C83.6675 55.8844 83.951 56.1751 84.3045 56.3511L82.0469 58.7723L86.163 56.5605H91.5551C92.0203 56.5605 92.4663 56.3758 92.7952 56.0469C93.1241 55.718 93.3089 55.2719 93.3089 54.8068C93.3089 54.3416 93.1241 53.8956 92.7952 53.5667C92.4663 53.2378 92.0203 53.053 91.5551 53.053V53.0399Z" fill="#84B5FF"/>
<path opacity="0.2" d="M91.5551 53.0399H85.0963C84.7014 53.037 84.3171 53.168 84.0062 53.4114C83.6952 53.6549 83.4759 53.9966 83.3841 54.3807C83.2922 54.7649 83.3332 55.1688 83.5004 55.5266C83.6675 55.8844 83.951 56.1751 84.3045 56.3511L82.0469 58.7723L86.163 56.5605H91.5551C92.0203 56.5605 92.4663 56.3758 92.7952 56.0469C93.1241 55.718 93.3089 55.2719 93.3089 54.8068C93.3089 54.3416 93.1241 53.8956 92.7952 53.5667C92.4663 53.2378 92.0203 53.053 91.5551 53.053V53.0399Z" fill="black"/>
<path d="M20.9273 105.653H96.9996C97.9958 105.654 98.9826 105.459 99.9035 105.079C100.824 104.699 101.661 104.141 102.366 103.438C103.071 102.734 103.631 101.898 104.012 100.978C104.394 100.057 104.59 99.071 104.59 98.0747V35.3846C104.59 34.3883 104.394 33.4019 104.012 32.4816C103.631 31.5614 103.071 30.7255 102.366 30.0216C101.661 29.3178 100.824 28.7599 99.9035 28.3798C98.9826 27.9998 97.9958 27.8051 96.9996 27.8068H20.9273C19.931 27.8051 18.9442 27.9998 18.0233 28.3798C17.1025 28.7599 16.2655 29.3178 15.5605 30.0216C14.8554 30.7255 14.2961 31.5614 13.9145 32.4816C13.5328 33.4019 13.3364 34.3883 13.3364 35.3846V98.0747C13.3364 99.071 13.5328 100.057 13.9145 100.978C14.2961 101.898 14.8554 102.734 15.5605 103.438C16.2655 104.141 17.1025 104.699 18.0233 105.079C18.9442 105.459 19.931 105.654 20.9273 105.653V105.653Z" stroke="#263238" stroke-width="1.0631" stroke-miterlimit="10"/>
<path d="M19.1146 36.2681H24.3563" stroke="#263238" stroke-width="1.0631" stroke-miterlimit="10"/>
<path d="M19.1146 41.9743H24.3563" stroke="#263238" stroke-width="1.0631" stroke-miterlimit="10"/>
<path d="M19.1146 47.6807H24.3563" stroke="#263238" stroke-width="1.0631" stroke-miterlimit="10"/>
<path d="M19.1146 53.3869H24.3563" stroke="#263238" stroke-width="1.0631" stroke-miterlimit="10"/>
<path d="M19.1146 59.0931H24.3563" stroke="#263238" stroke-width="1.0631" stroke-miterlimit="10"/>
<path d="M224.978 44.0029C221.57 44.0081 218.24 45.0234 215.409 46.9205C212.578 48.8176 210.373 51.5114 209.072 54.6614C207.771 57.8115 207.434 61.2763 208.102 64.6181C208.77 67.96 210.414 71.0288 212.825 73.4367C215.237 75.8447 218.308 77.4837 221.651 78.1467C224.994 78.8096 228.458 78.4668 231.606 77.1614C234.754 75.856 237.445 73.6468 239.337 70.8128C241.23 67.9789 242.241 64.6474 242.241 61.2395C242.234 56.6656 240.412 52.2815 237.175 49.0498C233.939 45.8181 229.552 44.0029 224.978 44.0029V44.0029ZM224.978 73.411C222.571 73.402 220.221 72.6799 218.224 71.336C216.227 69.992 214.673 68.0865 213.759 65.8601C212.844 63.6337 212.61 61.1862 213.086 58.8267C213.561 56.4672 214.725 54.3016 216.431 52.6033C218.137 50.905 220.307 49.7502 222.669 49.2848C225.03 48.8193 227.477 49.0641 229.699 49.9881C231.922 50.9122 233.82 52.4741 235.156 54.4767C236.491 56.4792 237.203 58.8325 237.202 61.2395C237.198 62.8413 236.879 64.4268 236.263 65.9053C235.647 67.3839 234.746 68.7267 233.611 69.8569C232.476 70.9871 231.129 71.8827 229.648 72.4925C228.166 73.1024 226.58 73.4145 224.978 73.411V73.411Z" fill="#84B5FF" stroke="#263238" stroke-width="1.0631" stroke-miterlimit="10"/>
<g opacity="0.2">
<path opacity="0.2" d="M224.978 44.0029C221.57 44.0081 218.24 45.0234 215.409 46.9205C212.578 48.8176 210.373 51.5114 209.072 54.6614C207.771 57.8115 207.434 61.2763 208.102 64.6181C208.77 67.96 210.414 71.0288 212.825 73.4367C215.237 75.8447 218.308 77.4837 221.651 78.1467C224.994 78.8096 228.458 78.4668 231.606 77.1614C234.754 75.856 237.445 73.6468 239.337 70.8128C241.23 67.9789 242.241 64.6474 242.241 61.2395C242.234 56.6656 240.412 52.2815 237.175 49.0498C233.939 45.8181 229.552 44.0029 224.978 44.0029V44.0029ZM224.978 73.411C222.571 73.402 220.221 72.6799 218.224 71.336C216.227 69.992 214.673 68.0865 213.759 65.8601C212.844 63.6337 212.61 61.1862 213.086 58.8267C213.561 56.4672 214.725 54.3016 216.431 52.6033C218.137 50.905 220.307 49.7502 222.669 49.2848C225.03 48.8193 227.477 49.0641 229.699 49.9881C231.922 50.9122 233.82 52.4741 235.156 54.4767C236.491 56.4792 237.203 58.8325 237.202 61.2395C237.198 62.8413 236.879 64.4268 236.263 65.9053C235.647 67.3839 234.746 68.7267 233.611 69.8569C232.476 70.9871 231.129 71.8827 229.648 72.4925C228.166 73.1024 226.58 73.4145 224.978 73.411V73.411Z" fill="black"/>
</g>
<path d="M224.978 44.0029C221.57 44.0081 218.24 45.0234 215.409 46.9205C212.578 48.8176 210.373 51.5114 209.072 54.6614C207.771 57.8115 207.434 61.2763 208.102 64.6181C208.77 67.96 210.414 71.0288 212.825 73.4367C215.237 75.8447 218.308 77.4837 221.651 78.1467C224.994 78.8096 228.458 78.4668 231.606 77.1614C234.754 75.856 237.445 73.6468 239.337 70.8128C241.23 67.9789 242.241 64.6474 242.241 61.2395C242.234 56.6656 240.412 52.2815 237.175 49.0498C233.939 45.8181 229.552 44.0029 224.978 44.0029V44.0029ZM224.978 73.411C222.571 73.402 220.221 72.6799 218.224 71.336C216.227 69.992 214.673 68.0865 213.759 65.8601C212.844 63.6337 212.61 61.1862 213.086 58.8267C213.561 56.4672 214.725 54.3016 216.431 52.6033C218.137 50.905 220.307 49.7502 222.669 49.2848C225.03 48.8193 227.477 49.0641 229.699 49.9881C231.922 50.9122 233.82 52.4741 235.156 54.4767C236.491 56.4792 237.203 58.8325 237.202 61.2395C237.198 62.8413 236.879 64.4268 236.263 65.9053C235.647 67.3839 234.746 68.7267 233.611 69.8569C232.476 70.9871 231.129 71.8827 229.648 72.4925C228.166 73.1024 226.58 73.4145 224.978 73.411V73.411Z" stroke="#263238" stroke-width="1.0631" stroke-miterlimit="10"/>
<path d="M224.978 44.003C222.648 43.9936 220.341 44.4593 218.198 45.3718C216.054 46.2843 214.12 47.6244 212.512 49.3101L216.17 52.811C217.562 51.3533 219.294 50.2636 221.211 49.6399C223.128 49.0161 225.17 48.8776 227.153 49.2368C229.137 49.5961 231 50.4418 232.576 51.6983C234.153 52.9547 235.393 54.5827 236.185 56.4361C236.978 58.2896 237.298 60.3107 237.117 62.3184C236.937 64.3261 236.261 66.2576 235.15 67.9398C234.039 69.6221 232.529 71.0025 230.753 71.9573C228.978 72.9122 226.994 73.4117 224.978 73.4111V78.4695C227.269 78.5142 229.546 78.1014 231.676 77.2554C233.806 76.4094 235.746 75.1472 237.382 73.5425C239.019 71.9378 240.318 70.0229 241.206 67.9099C242.093 65.7968 242.55 63.5281 242.55 61.2363C242.55 58.9445 242.093 56.6757 241.206 54.5626C240.318 52.4496 239.019 50.5347 237.382 48.93C235.746 47.3254 233.806 46.0631 231.676 45.2171C229.546 44.3711 227.269 43.9584 224.978 44.003V44.003Z" fill="#263238" stroke="#263238" stroke-width="1.0631" stroke-linecap="round" stroke-linejoin="round"/>
<path d="M267.552 44.0029C264.144 44.0081 260.814 45.0234 257.983 46.9205C255.152 48.8176 252.947 51.5114 251.646 54.6614C250.346 57.8115 250.008 61.2763 250.676 64.6181C251.344 67.96 252.988 71.0288 255.4 73.4367C257.811 75.8447 260.882 77.4837 264.225 78.1467C267.568 78.8096 271.032 78.4668 274.181 77.1614C277.329 75.856 280.019 73.6468 281.912 70.8128C283.805 67.9789 284.815 64.6474 284.815 61.2395C284.808 56.6656 282.986 52.2815 279.75 49.0498C276.513 45.8181 272.126 44.0029 267.552 44.0029V44.0029ZM267.552 73.411C265.144 73.4097 262.789 72.6942 260.787 71.355C258.786 70.0158 257.226 68.113 256.305 65.8872C255.385 63.6615 255.145 61.2127 255.616 58.8507C256.087 56.4886 257.248 54.3193 258.952 52.617C260.656 50.9148 262.827 49.7561 265.189 49.2875C267.552 48.8189 270 49.0614 272.225 49.9843C274.45 50.9072 276.351 52.4691 277.688 54.4725C279.025 56.4759 279.738 58.8308 279.737 61.2395C279.728 64.4672 278.441 67.56 276.158 69.8411C273.874 72.1222 270.78 73.4058 267.552 73.411V73.411Z" fill="#84B5FF" stroke="#263238" stroke-width="1.0631" stroke-miterlimit="10"/>
<g opacity="0.2">
<path opacity="0.2" d="M267.552 44.0029C264.144 44.0081 260.814 45.0234 257.983 46.9205C255.152 48.8176 252.947 51.5114 251.646 54.6614C250.346 57.8115 250.008 61.2763 250.676 64.6181C251.344 67.96 252.988 71.0288 255.4 73.4367C257.811 75.8447 260.882 77.4837 264.225 78.1467C267.568 78.8096 271.032 78.4668 274.181 77.1614C277.329 75.856 280.019 73.6468 281.912 70.8128C283.805 67.9789 284.815 64.6474 284.815 61.2395C284.808 56.6656 282.986 52.2815 279.75 49.0498C276.513 45.8181 272.126 44.0029 267.552 44.0029V44.0029ZM267.552 73.411C265.144 73.4097 262.789 72.6942 260.787 71.355C258.786 70.0158 257.226 68.113 256.305 65.8872C255.385 63.6615 255.145 61.2127 255.616 58.8507C256.087 56.4886 257.248 54.3193 258.952 52.617C260.656 50.9148 262.827 49.7561 265.189 49.2875C267.552 48.8189 270 49.0614 272.225 49.9843C274.45 50.9072 276.351 52.4691 277.688 54.4725C279.025 56.4759 279.738 58.8308 279.737 61.2395C279.728 64.4672 278.441 67.56 276.158 69.8411C273.874 72.1222 270.78 73.4058 267.552 73.411V73.411Z" fill="black"/>
</g>
<path d="M267.552 44.0029C264.144 44.0081 260.814 45.0234 257.983 46.9205C255.152 48.8176 252.947 51.5114 251.646 54.6614C250.346 57.8115 250.008 61.2763 250.676 64.6181C251.344 67.96 252.988 71.0288 255.4 73.4367C257.811 75.8447 260.882 77.4837 264.225 78.1467C267.568 78.8096 271.032 78.4668 274.181 77.1614C277.329 75.856 280.019 73.6468 281.912 70.8128C283.805 67.9789 284.815 64.6474 284.815 61.2395C284.808 56.6656 282.986 52.2815 279.75 49.0498C276.513 45.8181 272.126 44.0029 267.552 44.0029V44.0029ZM267.552 73.411C265.144 73.4097 262.789 72.6942 260.787 71.355C258.786 70.0158 257.226 68.113 256.305 65.8872C255.385 63.6615 255.145 61.2127 255.616 58.8507C256.087 56.4886 257.248 54.3193 258.952 52.617C260.656 50.9148 262.827 49.7561 265.189 49.2875C267.552 48.8189 270 49.0614 272.225 49.9843C274.45 50.9072 276.351 52.4691 277.688 54.4725C279.025 56.4759 279.738 58.8308 279.737 61.2395C279.728 64.4672 278.441 67.56 276.158 69.8411C273.874 72.1222 270.78 73.4058 267.552 73.411V73.411Z" stroke="#263238" stroke-width="1.0631" stroke-miterlimit="10"/>
<path d="M274.273 45.3576L272.31 50.0168C274.898 51.1115 277.028 53.0677 278.339 55.5537C279.649 58.0397 280.06 60.9025 279.5 63.6566C278.941 66.4107 277.446 68.8866 275.27 70.6644C273.093 72.4423 270.369 73.4127 267.559 73.4111V78.4695C271.54 78.4786 275.402 77.1086 278.488 74.5923C281.573 72.076 283.692 68.5687 284.484 64.6667C285.276 60.7648 284.692 56.7089 282.832 53.1888C280.971 49.6686 277.949 46.9014 274.279 45.3576H274.273Z" fill="#263238" stroke="#263238" stroke-width="1.0631" stroke-linecap="round" stroke-linejoin="round"/>
<path d="M282.564 27.8068H211.432C210.194 27.8059 208.967 28.049 207.823 28.5221C206.679 28.9951 205.639 29.689 204.762 30.564C203.886 31.4391 203.191 32.4781 202.716 33.6218C202.241 34.7656 201.997 35.9916 201.996 37.2299V96.2359C201.999 98.7357 202.995 101.132 204.765 102.898C206.534 104.663 208.932 105.654 211.432 105.652H282.564C283.802 105.654 285.028 105.412 286.172 104.94C287.317 104.467 288.357 103.774 289.233 102.899C290.109 102.025 290.805 100.986 291.28 99.843C291.754 98.6996 291.999 97.4739 292 96.2359V37.2299C291.999 35.9916 291.754 34.7656 291.28 33.6218C290.805 32.4781 290.11 31.4391 289.234 30.564C288.357 29.689 287.317 28.9951 286.173 28.5221C285.029 28.049 283.802 27.8059 282.564 27.8068V27.8068Z" stroke="#263238" stroke-width="1.0631" stroke-miterlimit="10"/>
<path d="M209.639 84.1299H236.757" stroke="#263238" stroke-width="1.0631" stroke-miterlimit="10"/>
<path d="M209.639 87.0288H236.757" stroke="#263238" stroke-width="1.0631" stroke-miterlimit="10"/>
<path d="M209.639 89.9277H236.757" stroke="#263238" stroke-width="1.0631" stroke-miterlimit="10"/>
<path d="M209.639 92.8331H236.757" stroke="#263238" stroke-width="1.0631" stroke-miterlimit="10"/>
<path d="M209.639 95.7322H236.757" stroke="#263238" stroke-width="1.0631" stroke-miterlimit="10"/>
<path d="M254.425 84.1299H281.55" stroke="#263238" stroke-width="1.0631" stroke-miterlimit="10"/>
<path d="M254.425 87.0288H281.55" stroke="#263238" stroke-width="1.0631" stroke-miterlimit="10"/>
<path d="M254.425 89.9277H281.55" stroke="#263238" stroke-width="1.0631" stroke-miterlimit="10"/>
<path d="M254.425 92.8331H281.55" stroke="#263238" stroke-width="1.0631" stroke-miterlimit="10"/>
<path d="M254.425 95.7322H281.55" stroke="#263238" stroke-width="1.0631" stroke-miterlimit="10"/>
<path d="M232.529 35.7969H259.647" stroke="#263238" stroke-width="1.0631" stroke-miterlimit="10"/>
<path d="M232.529 38.7023H259.647" stroke="#263238" stroke-width="1.0631" stroke-miterlimit="10"/>
<path d="M201.708 214.739H281.988C284.64 214.74 287.185 213.689 289.063 211.815C290.94 209.941 291.997 207.399 292 204.746V120.193C291.999 118.879 291.74 117.578 291.236 116.364C290.732 115.151 289.995 114.048 289.065 113.12C288.135 112.191 287.032 111.455 285.817 110.953C284.603 110.451 283.302 110.193 281.988 110.194H163.413C162.099 110.193 160.798 110.451 159.584 110.953C158.369 111.455 157.266 112.191 156.336 113.12C155.407 114.048 154.669 115.151 154.165 116.364C153.662 117.578 153.402 118.879 153.401 120.193V175.907" stroke="#263238" stroke-width="1.0631" stroke-miterlimit="10"/>
<path d="M192.232 159.502H173.137V187.254H192.232V159.502Z" fill="#84B5FF" stroke="#263238" stroke-width="1.16063" stroke-miterlimit="10"/>
<path opacity="0.2" d="M192.232 159.502H173.137V187.254H192.232V159.502Z" fill="black"/>
<path d="M192.232 159.502H173.137V187.254H192.232V159.502Z" stroke="#263238" stroke-width="1.16063" stroke-miterlimit="10"/>
<path d="M218.748 145.622H199.653V176.346H218.748V145.622Z" fill="#84B5FF" stroke="#263238" stroke-width="1.16063" stroke-miterlimit="10"/>
<path opacity="0.2" d="M218.748 145.622H199.653V176.346H218.748V145.622Z" fill="black"/>
<path d="M218.748 145.622H199.653V176.346H218.748V145.622Z" stroke="#263238" stroke-width="1.16063" stroke-miterlimit="10"/>
<path d="M245.264 134.229H226.169V154.548H245.264V134.229Z" fill="#84B5FF" stroke="#263238" stroke-width="1.16063" stroke-miterlimit="10"/>
<path opacity="0.2" d="M245.264 134.229H226.169V154.548H245.264V134.229Z" fill="black"/>
<path d="M245.264 134.229H226.169V154.548H245.264V134.229Z" stroke="#263238" stroke-width="1.16063" stroke-miterlimit="10"/>
<path d="M192.232 187.248H173.137V198.647H192.232V187.248Z" fill="#263238" stroke="#263238" stroke-width="1.16063" stroke-linecap="round" stroke-linejoin="round"/>
<path d="M218.748 176.346H199.653V198.647H218.748V176.346Z" fill="#263238" stroke="#263238" stroke-width="1.16063" stroke-linecap="round" stroke-linejoin="round"/>
<path d="M270.216 145.622H251.121V176.346H270.216V145.622Z" fill="#84B5FF" stroke="#263238" stroke-width="1.16063" stroke-miterlimit="10"/>
<path opacity="0.2" d="M270.216 145.622H251.121V176.346H270.216V145.622Z" fill="black"/>
<path d="M270.216 145.622H251.121V176.346H270.216V145.622Z" stroke="#263238" stroke-width="1.16063" stroke-miterlimit="10"/>
<path d="M270.216 176.346H251.121V198.647H270.216V176.346Z" fill="#263238" stroke="#263238" stroke-width="1.16063" stroke-linecap="round" stroke-linejoin="round"/>
<path d="M245.264 154.542H226.169V198.647H245.264V154.542Z" fill="#263238" stroke="#263238" stroke-width="1.16063" stroke-linecap="round" stroke-linejoin="round"/>
<path d="M215.437 134.269H203.521C202.974 134.269 202.45 134.486 202.063 134.873C201.676 135.259 201.459 135.783 201.459 136.33V139.072C201.459 139.619 201.676 140.143 202.063 140.53C202.45 140.916 202.974 141.133 203.521 141.133H207.938L209.482 143.803L211.02 141.133H215.437C215.984 141.133 216.508 140.916 216.894 140.53C217.281 140.143 217.498 139.619 217.498 139.072V136.33C217.498 135.783 217.281 135.259 216.894 134.873C216.508 134.486 215.984 134.269 215.437 134.269V134.269Z" fill="#84B5FF"/>
<path opacity="0.5" d="M215.437 134.269H203.521C202.974 134.269 202.45 134.486 202.063 134.873C201.676 135.259 201.459 135.783 201.459 136.33V139.072C201.459 139.619 201.676 140.143 202.063 140.53C202.45 140.916 202.974 141.133 203.521 141.133H207.938L209.482 143.803L211.02 141.133H215.437C215.984 141.133 216.508 140.916 216.894 140.53C217.281 140.143 217.498 139.619 217.498 139.072V136.33C217.498 135.783 217.281 135.259 216.894 134.873C216.508 134.486 215.984 134.269 215.437 134.269V134.269Z" fill="white"/>
<path d="M215.437 134.269H203.521C202.974 134.269 202.45 134.486 202.063 134.873C201.676 135.259 201.459 135.783 201.459 136.33V139.072C201.459 139.619 201.676 140.143 202.063 140.53C202.45 140.916 202.974 141.133 203.521 141.133H207.938L209.482 143.803L211.02 141.133H215.437C215.984 141.133 216.508 140.916 216.894 140.53C217.281 140.143 217.498 139.619 217.498 139.072V136.33C217.498 135.783 217.281 135.259 216.894 134.873C216.508 134.486 215.984 134.269 215.437 134.269V134.269Z" stroke="#263238" stroke-width="1.16689" stroke-linecap="round" stroke-linejoin="round"/>
<path d="M188.64 148.502H176.73C176.184 148.502 175.661 148.718 175.275 149.103C174.888 149.488 174.67 150.011 174.669 150.556V153.305C174.67 153.85 174.888 154.373 175.275 154.758C175.661 155.143 176.184 155.36 176.73 155.36H181.141L182.685 158.03L184.229 155.36H188.64C189.185 155.36 189.709 155.143 190.095 154.758C190.481 154.373 190.699 153.85 190.701 153.305V150.556C190.699 150.011 190.481 149.488 190.095 149.103C189.709 148.718 189.185 148.502 188.64 148.502V148.502Z" fill="#84B5FF"/>
<path opacity="0.5" d="M188.64 148.502H176.73C176.184 148.502 175.661 148.718 175.275 149.103C174.888 149.488 174.67 150.011 174.669 150.556V153.305C174.67 153.85 174.888 154.373 175.275 154.758C175.661 155.143 176.184 155.36 176.73 155.36H181.141L182.685 158.03L184.229 155.36H188.64C189.185 155.36 189.709 155.143 190.095 154.758C190.481 154.373 190.699 153.85 190.701 153.305V150.556C190.699 150.011 190.481 149.488 190.095 149.103C189.709 148.718 189.185 148.502 188.64 148.502V148.502Z" fill="white"/>
<path d="M188.64 148.502H176.73C176.184 148.502 175.661 148.718 175.275 149.103C174.888 149.488 174.67 150.011 174.669 150.556V153.305C174.67 153.85 174.888 154.373 175.275 154.758C175.661 155.143 176.184 155.36 176.73 155.36H181.141L182.685 158.03L184.229 155.36H188.64C189.185 155.36 189.709 155.143 190.095 154.758C190.481 154.373 190.699 153.85 190.701 153.305V150.556C190.699 150.011 190.481 149.488 190.095 149.103C189.709 148.718 189.185 148.502 188.64 148.502V148.502Z" stroke="#263238" stroke-width="1.16689" stroke-linecap="round" stroke-linejoin="round"/>
<path d="M241.553 122.837H229.637C229.09 122.837 228.566 123.054 228.179 123.44C227.793 123.827 227.576 124.351 227.576 124.898V127.64C227.576 127.91 227.629 128.178 227.733 128.428C227.836 128.677 227.988 128.904 228.18 129.095C228.371 129.286 228.599 129.437 228.849 129.54C229.099 129.643 229.367 129.696 229.637 129.695H234.054L235.592 132.365L237.136 129.695H241.553C241.824 129.696 242.092 129.643 242.342 129.54C242.592 129.437 242.819 129.286 243.011 129.095C243.202 128.904 243.354 128.677 243.458 128.428C243.561 128.178 243.615 127.91 243.615 127.64V124.898C243.615 124.351 243.398 123.827 243.011 123.44C242.624 123.054 242.1 122.837 241.553 122.837V122.837Z" fill="#84B5FF"/>
<path opacity="0.5" d="M241.553 122.837H229.637C229.09 122.837 228.566 123.054 228.179 123.44C227.793 123.827 227.576 124.351 227.576 124.898V127.64C227.576 127.91 227.629 128.178 227.733 128.428C227.836 128.677 227.988 128.904 228.18 129.095C228.371 129.286 228.599 129.437 228.849 129.54C229.099 129.643 229.367 129.696 229.637 129.695H234.054L235.592 132.365L237.136 129.695H241.553C241.824 129.696 242.092 129.643 242.342 129.54C242.592 129.437 242.819 129.286 243.011 129.095C243.202 128.904 243.354 128.677 243.458 128.428C243.561 128.178 243.615 127.91 243.615 127.64V124.898C243.615 124.351 243.398 123.827 243.011 123.44C242.624 123.054 242.1 122.837 241.553 122.837V122.837Z" fill="white"/>
<path d="M241.553 122.837H229.637C229.09 122.837 228.566 123.054 228.179 123.44C227.793 123.827 227.576 124.351 227.576 124.898V127.64C227.576 127.91 227.629 128.178 227.733 128.428C227.836 128.677 227.988 128.904 228.18 129.095C228.371 129.286 228.599 129.437 228.849 129.54C229.099 129.643 229.367 129.696 229.637 129.695H234.054L235.592 132.365L237.136 129.695H241.553C241.824 129.696 242.092 129.643 242.342 129.54C242.592 129.437 242.819 129.286 243.011 129.095C243.202 128.904 243.354 128.677 243.458 128.428C243.561 128.178 243.615 127.91 243.615 127.64V124.898C243.615 124.351 243.398 123.827 243.011 123.44C242.624 123.054 242.1 122.837 241.553 122.837V122.837Z" stroke="#263238" stroke-width="1.16689" stroke-linecap="round" stroke-linejoin="round"/>
<path d="M266.649 134.092H254.739C254.193 134.092 253.668 134.309 253.282 134.696C252.895 135.082 252.678 135.607 252.678 136.153V138.895C252.678 139.166 252.731 139.433 252.835 139.683C252.939 139.933 253.091 140.16 253.282 140.351C253.474 140.541 253.701 140.693 253.951 140.796C254.201 140.898 254.469 140.951 254.739 140.95H259.15L260.694 143.62L262.239 140.95H266.649C266.92 140.951 267.188 140.898 267.438 140.796C267.689 140.693 267.917 140.542 268.109 140.351C268.301 140.16 268.453 139.933 268.558 139.684C268.662 139.434 268.716 139.166 268.717 138.895V136.153C268.715 135.606 268.497 135.082 268.109 134.695C267.721 134.309 267.196 134.092 266.649 134.092V134.092Z" fill="#84B5FF"/>
<path opacity="0.5" d="M266.649 134.092H254.739C254.193 134.092 253.668 134.309 253.282 134.696C252.895 135.082 252.678 135.607 252.678 136.153V138.895C252.678 139.166 252.731 139.433 252.835 139.683C252.939 139.933 253.091 140.16 253.282 140.351C253.474 140.541 253.701 140.693 253.951 140.796C254.201 140.898 254.469 140.951 254.739 140.95H259.15L260.694 143.62L262.239 140.95H266.649C266.92 140.951 267.188 140.898 267.438 140.796C267.689 140.693 267.917 140.542 268.109 140.351C268.301 140.16 268.453 139.933 268.558 139.684C268.662 139.434 268.716 139.166 268.717 138.895V136.153C268.715 135.606 268.497 135.082 268.109 134.695C267.721 134.309 267.196 134.092 266.649 134.092V134.092Z" fill="white"/>
<path d="M266.649 134.092H254.739C254.193 134.092 253.668 134.309 253.282 134.696C252.895 135.082 252.678 135.607 252.678 136.153V138.895C252.678 139.166 252.731 139.433 252.835 139.683C252.939 139.933 253.091 140.16 253.282 140.351C253.474 140.541 253.701 140.693 253.951 140.796C254.201 140.898 254.469 140.951 254.739 140.95H259.15L260.694 143.62L262.239 140.95H266.649C266.92 140.951 267.188 140.898 267.438 140.796C267.689 140.693 267.917 140.542 268.109 140.351C268.301 140.16 268.453 139.933 268.558 139.684C268.662 139.434 268.716 139.166 268.717 138.895V136.153C268.715 135.606 268.497 135.082 268.109 134.695C267.721 134.309 267.196 134.092 266.649 134.092V134.092Z" stroke="#263238" stroke-width="1.16689" stroke-linecap="round" stroke-linejoin="round"/>
<path d="M173.785 118.937H200.91" stroke="#263238" stroke-width="1.0631" stroke-miterlimit="10"/>
<path d="M173.785 121.835H200.91" stroke="#263238" stroke-width="1.0631" stroke-miterlimit="10"/>
<path d="M173.785 124.741H200.91" stroke="#263238" stroke-width="1.0631" stroke-miterlimit="10"/>
<path d="M173.785 127.64H200.91" stroke="#263238" stroke-width="1.0631" stroke-miterlimit="10"/>
<path d="M173.785 130.539H200.91" stroke="#263238" stroke-width="1.0631" stroke-miterlimit="10"/>
<path d="M28.2433 165.195C27.8834 165.627 27.5169 166.085 27.1243 166.608C22.2557 173.152 24.7947 186.894 21.8369 191.966C18.879 197.037 11.4714 195.585 9.99247 203.555C8.51356 211.525 9.33808 219.849 8.08821 223.841C6.83833 227.833 1.95661 230.385 1.10591 235.07C0.25521 239.756 0 243.152 0 243.152L28.2433 242.223V165.195Z" fill="#84B5FF"/>
<path opacity="0.7" d="M28.2433 165.195C27.8834 165.627 27.5169 166.085 27.1243 166.608C22.2557 173.152 24.7947 186.894 21.8369 191.966C18.879 197.037 11.4714 195.585 9.99247 203.555C8.51356 211.525 9.33808 219.849 8.08821 223.841C6.83833 227.833 1.95661 230.385 1.10591 235.07C0.25521 239.756 0 243.152 0 243.152L28.2433 242.223V165.195Z" fill="white"/>
<path d="M128.678 242.517L99.6761 245.868L108.582 254.113L128.58 252.379" fill="#263238"/>
<path d="M128.678 242.517L99.6761 245.868L108.582 254.113L128.58 252.379" stroke="#263238" stroke-width="0.969857" stroke-linecap="round" stroke-linejoin="round"/>
<path d="M109.132 247.183L127.71 245.154" stroke="white" stroke-width="0.484928" stroke-linecap="round" stroke-linejoin="round"/>
<path d="M110.585 249.212L127.422 247.765" stroke="white" stroke-width="0.484928" stroke-linecap="round" stroke-linejoin="round"/>
<path d="M112.325 250.952L127.71 249.499" stroke="white" stroke-width="0.484928" stroke-linecap="round" stroke-linejoin="round"/>
<path d="M110.984 245.992L116.278 251.764" stroke="white" stroke-width="0.484928" stroke-linecap="round" stroke-linejoin="round"/>
<path d="M114.904 245.802L120.165 251.24" stroke="white" stroke-width="0.484928" stroke-linecap="round" stroke-linejoin="round"/>
<path d="M118.974 245.22L124.229 250.658" stroke="white" stroke-width="0.484928" stroke-linecap="round" stroke-linejoin="round"/>
<path d="M123.326 244.932L127.71 249.499" stroke="white" stroke-width="0.484928" stroke-linecap="round" stroke-linejoin="round"/>
<path d="M99.0217 173.846C98.0663 173.44 93.6426 156.223 93.6426 156.223L91.3653 149.732C91.3653 149.732 87.9429 138.051 86.6341 135.879C85.3254 133.706 80.0903 131.952 80.0903 131.952L78.1271 130.872L69.6201 126.292V126.338L68.3964 123.779L53.7512 112C53.7512 112 54.013 114.84 54.4056 117.641C54.3664 117.641 51.3562 119.604 50.283 121.325C50.0801 121.646 49.9035 122.333 49.092 124.132C45.8201 125.821 33.498 132.279 29.4212 135.427C24.6376 139.111 23.7673 141.716 23.9832 143.888L24.2057 147.356C24.2057 147.356 26.2474 159.79 28.3742 165.921L28.1124 165.797L28.0404 242.112L89.3106 239.788L89.4087 183.099C91.5028 182.412 93.6819 181.607 94.9972 181.025L95.3244 181.319L98.0859 183.341C98.5298 183.675 99.0451 183.901 99.5912 184.002C100.137 184.103 100.7 184.076 101.233 183.924C102.405 183.59 101.672 182.202 100.821 181.744C100.175 181.308 99.563 180.825 98.9889 180.298L96.4368 177.118C97.9681 177.393 100.422 177.825 101.443 177.969C102.961 178.185 104.918 178.623 105.134 176.66C105.35 174.697 100.546 174.5 99.0217 173.846Z" fill="white"/>
<path d="M53.8232 112.026C53.8232 112.026 54.6543 121.253 55.1974 122.915C55.6882 124.42 58.1684 132.633 60.3409 136.317C62.5135 140.001 65.1637 139.589 65.576 135.453C65.9883 131.317 65.7789 124.61 65.7789 124.61" stroke="#263238" stroke-width="0.969857" stroke-linecap="round" stroke-linejoin="round"/>
<path d="M54.3206 117.857C54.3206 117.857 51.4347 119.617 50.3484 121.351C49.2622 123.085 44.6945 139.137 44.6945 139.137L53.3848 139.576L45.9968 142.848" stroke="#263238" stroke-width="0.969857" stroke-linecap="round" stroke-linejoin="round"/>
<path d="M46.2193 144.778C46.2193 144.778 53.6073 156.93 54.6936 158.239C55.3609 159.049 55.9421 159.926 56.4277 160.856" stroke="#263238" stroke-width="0.969857" stroke-linecap="round" stroke-linejoin="round"/>
<path d="M54.9095 121.593C54.9095 121.593 58.6003 136.782 60.799 144.804C62.9977 152.827 65.0983 162.82 65.0983 162.82" stroke="#263238" stroke-width="0.969857" stroke-linecap="round" stroke-linejoin="round"/>
<path d="M65.7527 126.344C65.7527 126.344 66.623 143.914 66.623 150.857V161.916" stroke="#263238" stroke-width="0.969857" stroke-linecap="round" stroke-linejoin="round"/>
<path d="M68.8152 124.603L74.685 136.539L69.9015 138.058L77.2895 142.174L70.5559 163.219" stroke="#263238" stroke-width="0.969857" stroke-linecap="round" stroke-linejoin="round"/>
<path d="M69.6855 126.344L78.1599 130.899" stroke="#263238" stroke-width="0.969857" stroke-linecap="round" stroke-linejoin="round"/>
<path d="M84.9 144.13L85.9863 164.521" stroke="#263238" stroke-width="0.969857" stroke-linecap="round" stroke-linejoin="round"/>
<path d="M49.0397 124.171C49.0397 124.171 34.2636 131.762 29.4866 135.453C24.7096 139.144 23.8327 141.742 24.0487 143.914" stroke="#263238" stroke-width="0.969857" stroke-linecap="round" stroke-linejoin="round"/>
<path d="M28.1779 165.823V241.745" stroke="#263238" stroke-width="0.969857" stroke-linecap="round" stroke-linejoin="round"/>
<path d="M66.4267 184.48V238.931" stroke="#263238" stroke-width="0.969857" stroke-linecap="round" stroke-linejoin="round"/>
<path d="M33.4849 142.835C33.4849 142.835 38.4713 144.582 40.6832 148.816" stroke="#263238" stroke-width="0.969857" stroke-linecap="round" stroke-linejoin="round"/>
<path d="M36.7241 142.586C36.7241 142.586 41.2132 144.333 43.2091 148.567" stroke="#263238" stroke-width="0.969857" stroke-linecap="round" stroke-linejoin="round"/>
<path d="M33.7336 212.271H50.2765V215.517H34.3225" stroke="#263238" stroke-width="0.969857" stroke-linecap="round" stroke-linejoin="round"/>
<path d="M94.9056 159.09C93.3481 155.163 92.0459 151.891 91.3653 149.738C91.4013 151.043 91.1708 152.342 90.6882 153.555C90.2055 154.767 89.4807 155.869 88.558 156.793C84.0428 161.203 82.7667 159.672 82.9696 165.797C83.1724 171.922 85.5871 174.703 84.0755 179.925C82.5639 185.147 75.9873 190.304 76.2229 199.347C76.3078 201.33 76.8593 203.265 77.8327 204.995L50.5971 241.346L89.5462 240.201V188.197L94.9056 159.09Z" fill="#84B5FF"/>
<path opacity="0.7" d="M94.9056 159.09C93.3481 155.163 92.0459 151.891 91.3653 149.738C91.4013 151.043 91.1708 152.342 90.6882 153.555C90.2055 154.767 89.4807 155.869 88.558 156.793C84.0428 161.203 82.7667 159.672 82.9696 165.797C83.1724 171.922 85.5871 174.703 84.0755 179.925C82.5639 185.147 75.9873 190.304 76.2229 199.347C76.3078 201.33 76.8593 203.265 77.8327 204.995L50.5971 241.346L89.5462 240.201V188.197L94.9056 159.09Z" fill="white"/>
<path d="M89.5789 215.354V237.95" stroke="#263238" stroke-width="0.969857" stroke-linecap="round" stroke-linejoin="round"/>
<path d="M76.8772 94.0173C78.186 93.8014 84.6972 89.6787 83.6109 85.5561C82.5246 81.4335 73.3828 76.4405 66.2108 78.8356C61.8901 80.274 57.8992 82.5586 54.4711 85.5561C54.4711 85.5561 49.6941 85.5561 47.9272 87.5193C46.1604 89.4824 47.4953 92.5057 48.5816 94.6783C49.5239 96.5563 49.4847 101.536 49.4585 102.825C49.3992 102.822 49.3402 102.836 49.2883 102.865C48.9247 103.065 48.6074 103.34 48.3571 103.672C48.1068 104.003 47.9291 104.384 47.8356 104.789C47.5411 106.097 48.0843 107.844 49.4061 109.821C49.846 110.563 50.4643 111.183 51.2048 111.625C51.9454 112.068 52.7847 112.318 53.6466 112.353V112.353C54.2134 113.006 54.6748 113.744 55.0142 114.539C55.5639 115.848 61.0411 124.25 64.1756 124.492C64.6271 124.531 65.059 124.544 65.4844 124.544C68.187 124.544 70.1502 123.818 71.2037 122.418C72.5976 120.566 76.0527 113.099 76.4846 109.467C76.5566 108.813 76.5959 107.995 76.6155 107.013C77.099 106.401 77.362 105.644 77.362 104.864C77.362 104.084 77.099 103.326 76.6155 102.714C76.5435 98.8729 76.3407 94.8942 76.2883 93.9781C76.4791 94.0358 76.6805 94.0493 76.8772 94.0173V94.0173Z" fill="white"/>
<path d="M75.9873 93.8015C75.9873 93.8015 76.6417 105.731 76.2032 109.422C75.7648 113.112 72.2769 120.481 70.9681 122.221C69.6594 123.962 67.0418 124.387 64.2345 124.185C61.4272 123.982 55.9762 115.939 55.3218 114.421C54.9592 113.544 54.4453 112.738 53.8036 112.039C53.8036 112.039 51.4151 112.255 49.6744 109.651C47.9338 107.046 47.2859 104.416 49.4585 103.14" stroke="#263238" stroke-width="0.969857" stroke-linecap="round" stroke-linejoin="round"/>
<path d="M66.6426 105.515C66.6426 105.515 68.1674 102.897 69.6855 104.429L70.7718 111.372L67.4999 112.242L67.9318 115.71" stroke="#263238" stroke-width="0.969857" stroke-linecap="round" stroke-linejoin="round"/>
<path d="M63.3838 108.767C65.1836 108.767 66.6427 107.311 66.6427 105.515C66.6427 103.719 65.1836 102.263 63.3838 102.263C61.584 102.263 60.125 103.719 60.125 105.515C60.125 107.311 61.584 108.767 63.3838 108.767Z" fill="#84B5FF" stroke="#263238" stroke-width="0.969857" stroke-linecap="round" stroke-linejoin="round"/>
<path opacity="0.4" d="M63.3838 108.767C65.1836 108.767 66.6427 107.311 66.6427 105.515C66.6427 103.719 65.1836 102.263 63.3838 102.263C61.584 102.263 60.125 103.719 60.125 105.515C60.125 107.311 61.584 108.767 63.3838 108.767Z" fill="white" stroke="#263238" stroke-width="1.16689" stroke-miterlimit="10"/>
<path d="M77.0736 104.867C77.0736 104.22 76.8817 103.587 76.5221 103.049C76.1626 102.511 75.6516 102.092 75.0537 101.844C74.4559 101.597 73.798 101.532 73.1633 101.658C72.5286 101.784 71.9456 102.096 71.488 102.553C71.0304 103.011 70.7188 103.594 70.5926 104.229C70.4663 104.863 70.5311 105.521 70.7788 106.119C71.0264 106.717 71.4458 107.228 71.9838 107.588C72.5219 107.947 73.1545 108.139 73.8016 108.139C74.6694 108.139 75.5016 107.794 76.1152 107.181C76.7288 106.567 77.0736 105.735 77.0736 104.867V104.867Z" fill="#84B5FF" stroke="#263238" stroke-width="0.969857" stroke-linecap="round" stroke-linejoin="round"/>
<path opacity="0.4" d="M77.0736 104.867C77.0736 104.22 76.8817 103.587 76.5221 103.049C76.1626 102.511 75.6516 102.092 75.0537 101.844C74.4559 101.597 73.798 101.532 73.1633 101.658C72.5286 101.784 71.9456 102.096 71.488 102.553C71.0304 103.011 70.7188 103.594 70.5926 104.229C70.4663 104.863 70.5311 105.521 70.7788 106.119C71.0264 106.717 71.4458 107.228 71.9838 107.588C72.5219 107.947 73.1545 108.139 73.8016 108.139C74.6694 108.139 75.5016 107.794 76.1152 107.181C76.7288 106.567 77.0736 105.735 77.0736 104.867V104.867Z" fill="white" stroke="#263238" stroke-width="1.16689" stroke-miterlimit="10"/>
<path d="M60.125 105.515L53.6073 105.947" stroke="#263238" stroke-width="0.969857" stroke-linecap="round" stroke-linejoin="round"/>
<path d="M60.1773 100.993C60.1773 100.993 61.9245 99.2525 65.1703 100.247" stroke="#263238" stroke-width="0.969857" stroke-linecap="round" stroke-linejoin="round"/>
<path d="M71.1579 99.9985C71.1579 99.9985 74.4298 98.2578 75.3983 100.496" stroke="#263238" stroke-width="0.969857" stroke-linecap="round" stroke-linejoin="round"/>
<path d="M56.2118 94.2333C56.2118 94.2333 57.9524 98.356 58.3843 99.0103C58.8162 99.6647 56.2118 102.695 56.2118 102.695V105.731L53.5942 105.947L50.9767 103.565L49.4585 103.126C49.4585 103.126 49.6744 96.8378 48.5882 94.6718C47.5019 92.5057 46.1996 89.4367 47.9338 87.5128C49.6679 85.5889 54.4776 85.5496 54.4776 85.5496C57.9058 82.5521 61.8967 80.2675 66.2173 78.8291C73.4156 76.4406 82.5115 81.4466 83.5978 85.5496C84.6841 89.6526 78.186 93.8014 76.8773 94.0174C75.5685 94.2333 73.6053 91.6354 71.6422 91.6354H68.5993C66.4267 91.6354 66.2108 91.4129 63.8157 91.4129C61.4207 91.4129 56.2118 94.2333 56.2118 94.2333Z" fill="#263238"/>
<path d="M58.934 90.6735C58.934 90.6735 62.6443 88.6187 64.5028 85.1178C66.3612 81.6168 60.1708 83.2659 58.5217 85.53C56.8726 87.7942 60.7924 86.9697 60.7924 86.9697" stroke="white" stroke-width="0.484928" stroke-linecap="round" stroke-linejoin="round"/>
<path d="M56.2117 94.2333C56.2117 94.2333 53.9868 96.6414 51.101 96.8508" stroke="white" stroke-width="0.484928" stroke-linecap="round" stroke-linejoin="round"/>
<path d="M57.2849 97.2632C57.2849 97.2632 53.3586 99.1151 51.3038 99.1151" stroke="white" stroke-width="0.484928" stroke-linecap="round" stroke-linejoin="round"/>
<path d="M51.3038 100.758C51.3038 100.758 54.3991 101.412 56.0481 100.758" stroke="white" stroke-width="0.484928" stroke-linecap="round" stroke-linejoin="round"/>
<path d="M62.2321 91.0857C62.2321 91.0857 63.8811 90.8828 69.2406 89.0309C74.6 87.179 76.4388 85.1046 72.9509 82.4413" stroke="white" stroke-width="0.484928" stroke-linecap="round" stroke-linejoin="round"/>
<path d="M169.944 207.422C169.944 207.422 161.404 184.709 159.212 182.523C157.02 180.337 146.033 173.643 146.033 173.643L145.149 172.131L144.613 170.293C144.613 170.293 143.958 167.524 142.074 166.157L141.923 165.836L128.966 160.287C128.966 160.287 129.058 162.001 129.195 164.069C127.664 164.626 124.268 166.118 123.103 168.774C122.344 170.495 121.912 173.355 121.696 176.045L121.166 176.437L121.362 175.717C121.362 175.717 107.018 183.76 106.37 185.069C105.533 186.168 103.367 193.216 103.367 193.216C103.367 193.216 101.207 199.989 98.8319 207.468C95.4814 217.755 92.2422 228.036 92.0328 229.678C92.0328 229.829 92.0328 229.757 92.0328 229.757C91.8169 232.577 102.588 242.975 102.588 242.975H102.732L104.041 244.284C104.041 244.284 104.041 244.153 104.041 243.741C104.95 245.593 106.436 248.321 107.614 247.746C108.582 247.268 108.268 245.586 107.483 243.394C108.458 244.879 109.577 245.959 110.467 245.527C112.005 244.768 111.239 242.144 109.695 238.388C109.563 238.067 109.362 237.78 109.106 237.546C108.851 237.312 108.547 237.137 108.216 237.033C108.713 236.981 109.217 236.929 109.734 236.863C110.251 239.265 111.409 241.346 112.711 241.071C114.014 240.796 114.21 239.108 113.948 236.235C114.079 236.235 114.256 235.849 114.387 235.829C114.962 237.851 115.846 239.651 116.958 239.415C118.182 239.154 118.516 237.936 118.372 235.489C118.372 234.579 118.306 234.285 118.274 233.709C118.751 234.004 121.094 235.417 121.362 235.62C122.233 236.274 128.855 234.861 128.855 234.861C138.527 231.733 153.99 231.589 163.976 224.901C170.644 220.405 169.944 207.422 169.944 207.422ZM108.981 226L111.599 208.777L112.639 224.482L112.332 228.356L108.981 226Z" fill="white"/>
<path d="M106.41 184.696L121.991 175.534C121.991 175.534 122.966 167.184 124.955 166.334C124.955 166.334 127.69 163.945 130.799 164.416C132.579 164.678 133.894 162.453 134.902 158.579C134.902 150.916 134.797 141.133 134.718 135.021C134.064 132.004 133.357 129.557 133.122 128.602L125.779 125.52C125.779 125.52 124.209 120.219 116.134 119.035C108.059 117.85 99.4012 126.508 98.4131 132.404C97.425 138.3 103.138 144.588 100.972 147.932C98.8057 151.276 89.749 156.184 87.3867 161.884C85.0243 167.583 85.6133 171.516 85.6133 171.516C85.6133 171.516 92.1113 180.75 90.338 183.897C88.5646 187.045 78.1337 189.99 78.33 199.23C78.5132 207.789 86.9875 213.816 96.3779 214.935L106.41 184.696Z" fill="#263238"/>
<path d="M123.456 127.097C123.456 127.097 117.894 120.723 110.886 122.778C103.877 124.832 101.194 132.247 102.64 135.951C104.087 139.654 107.378 142.736 104.905 148.292C102.431 153.848 96.2471 154.672 93.1257 161.053C90.0042 167.433 90.8615 169.494 90.8615 169.494" stroke="white" stroke-width="0.484928" stroke-linecap="round" stroke-linejoin="round"/>
<path d="M119.746 132.449C119.746 132.449 114.596 133.064 114.596 136.376C114.596 139.687 117.482 141.31 117.868 145.426C118.254 149.542 117.043 151.191 113.942 156.334C110.84 161.478 110.67 164.154 112.914 167.655C115.159 171.156 116.625 176.915 113.739 178.97" stroke="white" stroke-width="0.484928" stroke-linecap="round" stroke-linejoin="round"/>
<path d="M120.983 128.333C120.983 128.333 114.799 125.061 109.858 128.13C104.918 131.2 111.507 137.39 112.332 143.149C113.156 148.907 109.06 153.03 103.471 159.201C101.834 161.068 100.619 163.266 99.9074 165.645C99.196 168.025 99.0055 170.529 99.3489 172.989" stroke="white" stroke-width="0.484928" stroke-linecap="round" stroke-linejoin="round"/>
<path d="M98.93 180.193C98.93 180.193 100.37 183.276 96.4499 187.392C92.5301 191.508 84.082 192.542 82.0534 198.713C80.0248 204.883 84.0755 208.182 84.0755 208.182" stroke="white" stroke-width="0.484928" stroke-linecap="round" stroke-linejoin="round"/>
<path d="M129.012 159.94C129.012 159.94 129.444 168.212 129.883 170.378C130.321 172.544 132.068 180.279 132.729 187.11C133.049 190.655 133.706 194.161 134.692 197.581C134.692 197.581 139.986 218.141 140.3 192.313C140.412 183.204 139.43 168.886 139.43 168.886L139.862 164.547" fill="white"/>
<g style="mix-blend-mode:multiply" opacity="0.3">
<path d="M137.866 165.228L129.882 170.378L129.372 161.681C129.372 161.681 134.705 164.835 137.866 165.228Z" fill="#84B5FF"/>
</g>
<g style="mix-blend-mode:multiply" opacity="0.3">
<path d="M139.443 168.859C139.443 168.859 139.181 183.622 138.461 189.865C138.064 193.832 138.474 197.839 139.666 201.644C139.666 201.644 140.667 178.806 139.443 168.859Z" fill="#84B5FF"/>
</g>
<path d="M129.012 159.94C129.012 159.94 129.444 168.212 129.883 170.378C130.321 172.544 132.068 180.279 132.729 187.11C133.049 190.655 133.706 194.161 134.692 197.581C134.692 197.581 139.986 218.141 140.3 192.313C140.412 183.204 139.43 168.886 139.43 168.886L139.862 164.547" stroke="#263238" stroke-width="0.969857" stroke-linecap="round" stroke-linejoin="round"/>
<path d="M123.254 194.597L121.873 197.554L130.956 206.421L123.254 194.597Z" fill="#84B5FF"/>
<path opacity="0.7" d="M123.254 194.597L121.873 197.554L130.956 206.421L123.254 194.597Z" fill="white"/>
<path d="M112.672 201.134C112.672 201.134 115.708 194.119 116.664 195.715C117.619 197.312 111.553 204.164 113.948 205.119C116.343 206.074 119.838 202.567 118.738 205.433C117.639 208.299 115.708 211.65 115.708 213.089C115.708 214.529 116.363 228.71 116.363 228.71L116.526 229.665L114.609 230.974C114.609 230.974 112.535 228.899 112.535 227.146C112.535 225.392 112.214 218.377 112.214 216.787C112.214 215.197 111.468 209.588 111.468 209.588L112.672 201.134Z" fill="#84B5FF"/>
<path opacity="0.7" d="M112.672 201.134C112.672 201.134 115.709 194.119 116.664 195.715C117.619 197.312 111.553 204.164 113.948 205.119C116.343 206.074 119.838 202.567 118.738 205.433C117.639 208.299 115.708 211.65 115.708 213.089C115.708 214.529 116.363 228.71 116.363 228.71L116.526 229.665L114.609 230.974C114.609 230.974 112.535 228.899 112.535 227.146C112.535 225.392 112.214 218.377 112.214 216.787C112.214 215.197 111.56 209.196 111.56 209.196L112.672 201.134Z" fill="white"/>
<path d="M129.117 164.017C129.117 164.017 124.667 164.953 123.142 168.428C121.618 171.902 121.408 179.925 121.624 182.091C121.745 183.834 121.745 185.583 121.624 187.326L127.71 185.363" fill="white"/>
<g style="mix-blend-mode:multiply" opacity="0.3">
<path d="M129.954 169.527C128.121 169.57 126.358 170.237 124.955 171.418C122.383 173.44 122.115 177.085 122.115 177.085C122.115 177.085 121.303 172.766 122.926 168.99C124.549 165.215 129.117 164.017 129.117 164.017L129.954 169.527Z" fill="#84B5FF"/>
</g>
<path d="M129.117 164.017C129.117 164.017 124.667 164.953 123.142 168.428C121.618 171.902 121.408 179.925 121.624 182.091C121.745 183.834 121.745 185.583 121.624 187.326L127.71 185.363" stroke="#263238" stroke-width="0.969857" stroke-linecap="round" stroke-linejoin="round"/>
<path d="M129.228 185.782L122.494 193.373C122.494 193.373 127.494 201.18 129.882 203.784" stroke="#263238" stroke-width="0.969857" stroke-linecap="round" stroke-linejoin="round"/>
<path d="M146.399 202.698L149.874 189.466L143.788 184.885L148.572 183.367L144.645 169.92C144.645 169.92 143.919 166.543 141.373 165.457" stroke="#263238" stroke-width="0.969857" stroke-linecap="round" stroke-linejoin="round"/>
<path d="M132.5 179.271C132.5 179.271 134.673 181.888 137.081 181.443C139.489 180.998 139.469 179.709 139.469 179.709" stroke="#263238" stroke-width="0.969857" stroke-linecap="round" stroke-linejoin="round"/>
<path d="M111.239 182.006C111.239 182.006 107.725 185.834 107.882 186.79C108.039 187.745 112.194 189.499 111.239 190.611C110.284 191.724 107.882 189.021 107.404 189.499C106.927 189.977 98.1448 219.941 98.9432 220.406C99.7415 220.87 101.659 219.129 102.137 220.248C102.614 221.367 94.1531 224.548 95.9068 225.484C97.6606 226.419 101.973 224.365 101.142 224.685C100.311 225.006 97.9485 228.029 98.5898 229.305C99.2311 230.581 106.069 237.047 106.069 237.047C105.667 237.213 105.344 237.528 105.17 237.928C104.995 238.327 104.982 238.778 105.134 239.186C105.316 240.009 105.778 240.742 106.442 241.261C106.442 241.261 104.61 239.749 104.329 241.385C104.169 242.238 104.075 243.102 104.047 243.97L99.5648 239.533C95.9134 235.816 92.9425 232.335 92.0656 229.344C92.0656 229.344 91.9085 229.783 92.8705 226.275C93.8324 222.768 103.406 192.804 103.406 192.804C103.406 192.804 105.572 185.749 106.403 184.656C107.234 183.564 111.239 182.006 111.239 182.006Z" fill="#84B5FF"/>
<path opacity="0.7" d="M111.239 182.006C111.239 182.006 107.725 185.834 107.882 186.79C108.039 187.745 112.194 189.499 111.239 190.611C110.284 191.724 107.882 189.021 107.404 189.499C106.927 189.977 98.1448 219.941 98.9432 220.406C99.7415 220.87 101.659 219.129 102.137 220.248C102.614 221.367 94.153 224.548 95.9068 225.484C97.6606 226.419 101.973 224.365 101.142 224.685C100.311 225.006 97.9485 228.029 98.5898 229.305C99.2311 230.581 106.069 237.047 106.069 237.047C105.667 237.213 105.344 237.528 105.17 237.928C104.995 238.327 104.982 238.778 105.134 239.186C105.316 240.009 105.778 240.742 106.442 241.261C106.442 241.261 104.61 239.749 104.329 241.385C104.047 243.021 103.903 244.094 103.903 244.094L99.5648 239.514C95.0365 234.992 92.2357 231.425 92.0656 229.325C92.0656 229.325 91.5355 230.319 92.8705 226.256C94.0025 222.801 103.406 192.784 103.406 192.784C103.406 192.784 105.572 185.73 106.403 184.637C107.234 183.544 111.239 182.006 111.239 182.006Z" fill="white"/>
<path d="M119.105 177.648V189.865L126.807 187.896L129.372 184.938L121.474 186.515L121.991 175.502L119.105 177.648Z" fill="#84B5FF"/>
<path opacity="0.7" d="M119.105 177.648V189.865L126.807 187.896L129.372 184.938L121.474 186.515L121.991 175.502L119.105 177.648Z" fill="white"/>
<path d="M121.408 175.371C121.408 175.371 107.064 183.393 106.41 184.696C105.755 185.998 92.288 226.576 92.0721 229.384C91.8561 232.191 102.719 242.831 102.719 242.831" stroke="#263238" stroke-width="0.969857" stroke-linecap="round" stroke-linejoin="round"/>
<path d="M113.366 195.761L109.021 225.693" stroke="#263238" stroke-width="0.969857" stroke-linecap="round" stroke-linejoin="round"/>
<path d="M113.798 194.021L114.452 190.984" stroke="#263238" stroke-width="0.969857" stroke-linecap="round" stroke-linejoin="round"/>
<path d="M96.6331 227.434C96.6331 227.434 99.4601 223.507 103.589 223.743C107.718 223.978 113.798 229.816 113.798 229.816" stroke="#263238" stroke-width="0.969857" stroke-linecap="round" stroke-linejoin="round"/>
<path d="M97.9354 222.872C98.8468 222.053 100.008 221.565 101.231 221.487C102.453 221.409 103.667 221.744 104.676 222.441" stroke="#263238" stroke-width="0.969857" stroke-linecap="round" stroke-linejoin="round"/>
<path d="M118.104 231.91C118.056 231.549 117.925 231.205 117.72 230.905C117.515 230.604 117.242 230.357 116.923 230.181C116.605 230.006 116.249 229.908 115.886 229.896C115.523 229.884 115.161 229.957 114.832 230.11C114.564 230.244 114.336 230.446 114.169 230.695C114.003 230.943 113.904 231.231 113.883 231.53C113.641 233.918 115.106 239.788 117.07 239.383C118.699 239.016 118.647 235.927 118.104 231.91Z" fill="white" stroke="#263238" stroke-width="0.969857" stroke-linecap="round" stroke-linejoin="round"/>
<path d="M113.732 233.644C113.684 233.284 113.552 232.94 113.346 232.641C113.141 232.341 112.868 232.095 112.55 231.92C112.231 231.746 111.876 231.648 111.513 231.636C111.15 231.624 110.79 231.698 110.46 231.851C110.192 231.983 109.964 232.183 109.797 232.431C109.631 232.679 109.532 232.966 109.511 233.264C109.269 235.653 110.735 241.522 112.698 241.117C114.354 240.75 114.302 237.668 113.732 233.644Z" fill="white" stroke="#263238" stroke-width="0.969857" stroke-linecap="round" stroke-linejoin="round"/>
<path d="M109.741 238.015C109.605 237.675 109.391 237.372 109.116 237.13C108.841 236.889 108.512 236.715 108.158 236.625C107.803 236.534 107.432 236.529 107.075 236.609C106.717 236.689 106.384 236.852 106.102 237.086C105.874 237.28 105.702 237.532 105.602 237.814C105.502 238.097 105.478 238.401 105.533 238.695C105.886 241.064 108.765 246.424 110.552 245.514C112.09 244.729 111.239 241.562 109.741 238.015Z" fill="white" stroke="#263238" stroke-width="0.969857" stroke-linecap="round" stroke-linejoin="round"/>
<path d="M106.927 242.203C106.827 241.948 106.667 241.721 106.462 241.54C106.257 241.359 106.012 241.229 105.746 241.161C105.481 241.093 105.204 241.09 104.937 241.15C104.67 241.211 104.421 241.334 104.211 241.509C104.042 241.656 103.913 241.844 103.838 242.055C103.762 242.266 103.742 242.493 103.779 242.713C104.047 244.487 106.194 248.466 107.535 247.805C108.687 247.235 108.078 245.017 106.927 242.203Z" fill="white" stroke="#263238" stroke-width="0.969857" stroke-linecap="round" stroke-linejoin="round"/>
<path d="M118.437 233.493C118.437 233.493 120.139 235.332 121.402 235.725C122.442 236.045 127.854 235.07 127.854 235.07" stroke="#263238" stroke-width="0.969857" stroke-linecap="round" stroke-linejoin="round"/>
<path d="M126.185 239.147C126.185 239.147 122.71 240.011 120.296 240.456C117.881 240.901 115.296 241.11 115.296 241.11C115.296 241.11 113.556 243.283 112.253 243.283" stroke="#263238" stroke-width="0.969857" stroke-linecap="round" stroke-linejoin="round"/>
<path d="M146.079 173.29C146.079 173.29 157.066 179.991 159.258 182.176C161.45 184.362 169.146 204.857 169.146 204.857" stroke="#263238" stroke-width="0.969857" stroke-linecap="round" stroke-linejoin="round"/>
<path d="M156.523 187.915L158.983 205.682" stroke="#263238" stroke-width="0.969857" stroke-linecap="round" stroke-linejoin="round"/>
<path d="M158.983 203.542L157.452 190.343L164.218 205.25L159.291 205.472L158.983 203.542Z" fill="#84B5FF"/>
<path opacity="0.7" d="M158.983 203.542L157.452 190.343L164.218 205.25L159.291 205.472L158.983 203.542Z" fill="white"/>
<path d="M117.142 197.037L112.888 204.02L116.494 201.167" stroke="#263238" stroke-width="0.969857" stroke-linecap="round" stroke-linejoin="round"/>
<path d="M111.704 209.621C111.704 209.621 112.587 222.591 112.587 224.358C112.587 226.125 112.338 228.454 112.338 228.454" stroke="#263238" stroke-width="0.969857" stroke-linecap="round" stroke-linejoin="round"/>
<path d="M126.401 124.826C126.401 124.826 120.099 128.51 119.668 133.935C119.459 137.513 119.826 141.101 120.754 144.562C120.754 144.562 118.791 142.828 118.581 146.735C118.372 150.641 121.624 153.671 122.926 153.671H124.235C124.235 153.671 127.134 159.626 130.615 162.447C134.097 165.267 137.493 165.391 139.882 164.521C142.27 163.651 146.838 159.75 147.276 154.542C147.715 149.333 147.276 140.655 146.838 135.237C146.399 129.819 145.319 125.906 139.45 123.956C133.58 122.005 129.444 123.301 126.401 124.826Z" fill="white"/>
<g style="mix-blend-mode:multiply" opacity="0.3">
<path d="M120.754 144.562C120.754 144.562 118.791 142.828 118.581 146.735C118.372 150.641 121.624 153.671 122.926 153.671H124.235C124.235 153.671 127.134 159.619 130.615 162.446L132.107 163.474C132.616 163.781 133.147 164.048 133.698 164.272C132.526 162.833 129.981 159.515 128.783 156.531C127.2 152.604 126.82 144.313 127.2 138.993C127.579 133.673 130.36 131.501 130.36 131.501L126.434 131.304C125.851 131.304 122.809 135.833 119.72 138.43L120.754 144.562Z" fill="#84B5FF"/>
</g>
<path d="M126.401 124.826C126.401 124.826 120.099 128.51 119.668 133.935C119.459 137.513 119.826 141.101 120.754 144.562C120.754 144.562 118.791 142.828 118.581 146.735C118.372 150.641 121.624 153.671 122.926 153.671H124.235C124.235 153.671 127.134 159.626 130.615 162.447C134.097 165.267 137.493 165.391 139.882 164.521C142.27 163.651 146.838 159.75 147.276 154.542C147.715 149.333 147.276 140.655 146.838 135.237C146.399 129.819 145.319 125.906 139.45 123.956C133.58 122.005 129.444 123.301 126.401 124.826Z" stroke="#263238" stroke-width="0.969857" stroke-linecap="round" stroke-linejoin="round"/>
<path d="M136.466 144.739C136.466 144.739 138.285 141.63 140.097 143.43L141.406 149.601L138.789 150.137L139.037 153.992" stroke="#263238" stroke-width="0.969857" stroke-linecap="round" stroke-linejoin="round"/>
<path d="M132.579 148.619C134.725 148.619 136.466 146.882 136.466 144.739C136.466 142.596 134.725 140.858 132.579 140.858C130.432 140.858 128.691 142.596 128.691 144.739C128.691 146.882 130.432 148.619 132.579 148.619Z" fill="#84B5FF" stroke="#263238" stroke-width="0.969857" stroke-linecap="round" stroke-linejoin="round"/>
<path opacity="0.4" d="M132.579 148.619C134.725 148.619 136.466 146.882 136.466 144.739C136.466 142.596 134.725 140.858 132.579 140.858C130.432 140.858 128.691 142.596 128.691 144.739C128.691 146.882 130.432 148.619 132.579 148.619Z" fill="white" stroke="#263238" stroke-width="1.16689" stroke-miterlimit="10"/>
<path d="M148.919 143.96C148.92 143.191 148.693 142.439 148.268 141.799C147.842 141.158 147.236 140.658 146.527 140.361C145.818 140.065 145.036 139.985 144.281 140.132C143.527 140.279 142.832 140.646 142.286 141.187C141.739 141.728 141.365 142.418 141.211 143.172C141.056 143.925 141.128 144.707 141.418 145.42C141.707 146.132 142.201 146.743 142.837 147.175C143.474 147.607 144.223 147.841 144.992 147.847C145.506 147.852 146.016 147.756 146.492 147.563C146.968 147.37 147.401 147.084 147.766 146.723C148.131 146.361 148.421 145.931 148.619 145.457C148.817 144.983 148.919 144.474 148.919 143.96V143.96Z" fill="#84B5FF" stroke="#263238" stroke-width="0.969857" stroke-linecap="round" stroke-linejoin="round"/>
<path opacity="0.4" d="M148.919 143.96C148.92 143.191 148.693 142.439 148.268 141.799C147.842 141.158 147.236 140.658 146.527 140.361C145.818 140.065 145.036 139.985 144.281 140.132C143.527 140.279 142.832 140.646 142.286 141.187C141.739 141.728 141.365 142.418 141.211 143.172C141.056 143.925 141.128 144.707 141.418 145.42C141.707 146.132 142.201 146.743 142.837 147.175C143.474 147.607 144.223 147.841 144.992 147.847C145.506 147.852 146.016 147.756 146.492 147.563C146.968 147.37 147.401 147.084 147.766 146.723C148.131 146.361 148.421 145.931 148.619 145.457C148.817 144.983 148.919 144.474 148.919 143.96V143.96Z" fill="white" stroke="#263238" stroke-width="1.16689" stroke-miterlimit="10"/>
<path d="M128.692 144.739L120.911 145.256" stroke="#263238" stroke-width="0.969857" stroke-linecap="round" stroke-linejoin="round"/>
<path d="M129.411 139.549C129.865 138.992 130.463 138.569 131.141 138.328C131.818 138.087 132.548 138.036 133.253 138.182" stroke="#263238" stroke-width="0.969857" stroke-linecap="round" stroke-linejoin="round"/>
<path d="M141.498 137.907C142.14 137.555 142.881 137.427 143.603 137.546C144.326 137.665 144.988 138.022 145.483 138.561" stroke="#263238" stroke-width="0.969857" stroke-linecap="round" stroke-linejoin="round"/>
<path d="M146.831 135.237C146.399 129.812 145.313 125.906 139.443 123.956C133.573 122.005 129.444 123.301 126.401 124.826C126.401 124.826 120.099 128.51 119.668 133.935C119.459 137.513 119.826 141.101 120.754 144.562C120.754 144.562 122.494 146.296 122.926 143.908C123.358 141.519 122.056 137.613 128.161 133.058C134.267 128.504 142.938 130.676 145.98 135.021C146.336 135.306 146.643 135.646 146.89 136.029C146.897 135.95 146.838 135.335 146.831 135.237Z" fill="#263238"/>
<path d="M51.8666 159.312C51.8666 159.312 46.6315 158.448 42.7052 161.053C41.5874 161.797 40.7065 162.845 40.1671 164.075C39.6277 165.305 39.4525 166.663 39.6623 167.989" stroke="#263238" stroke-width="0.969857" stroke-linecap="round" stroke-linejoin="round"/>
<path d="M40.5654 159.75C40.5654 159.75 37.9478 162.787 37.9478 165.391" stroke="#263238" stroke-width="0.969857" stroke-linecap="round" stroke-linejoin="round"/>
<path d="M24.2646 147.383C24.2646 147.383 26.8822 163.219 29.2641 167.989C31.6461 172.76 38.4255 177.321 43.6083 179.487C48.791 181.653 73.1603 185.128 74.0307 184.912C74.901 184.696 69.9015 180.141 70.9878 174.5C71.5309 171.7 75.3329 168.86 75.3329 168.86C75.3329 168.86 64.686 164.279 60.5569 162.571C56.4277 160.863 51.8666 159.299 51.8666 159.299C51.8666 159.299 45.9771 153.881 43.1764 151.492C40.6012 149.466 37.9163 147.583 35.134 145.851" stroke="#263238" stroke-width="0.969857" stroke-linecap="round" stroke-linejoin="round"/>
<path d="M96.1227 176.764L98.9628 180.298C99.5368 180.825 100.149 181.308 100.795 181.744C101.646 182.202 102.379 183.59 101.207 183.923C100.673 184.076 100.111 184.103 99.565 184.002C99.0189 183.901 98.5036 183.675 98.0597 183.341L95.2982 181.319L92.9882 179.231L94.6634 176.221L96.1227 176.764Z" fill="white" stroke="#263238" stroke-width="0.969857" stroke-linecap="round" stroke-linejoin="round"/>
<path d="M75.3329 168.859C75.3329 168.859 82.073 170.378 84.2456 170.823C86.4182 171.268 97.5035 173.211 99.0216 173.859C100.54 174.507 105.323 174.729 105.107 176.679C104.891 178.629 102.935 178.198 101.417 177.988C99.8985 177.779 95.1084 176.908 95.1084 176.908C95.1084 176.908 96.6331 179.729 96.2012 180.377C95.7693 181.025 85.9863 184.499 84.0297 184.499C82.073 184.499 80.7577 181.025 79.9005 179.919L77.2829 176.647L72.0479 174.265" fill="white"/>
<path d="M75.3329 168.859C75.3329 168.859 82.073 170.378 84.2456 170.823C86.4182 171.268 97.5035 173.211 99.0216 173.859C100.54 174.507 105.323 174.729 105.107 176.679C104.891 178.629 102.935 178.198 101.417 177.988C99.8985 177.779 95.1084 176.908 95.1084 176.908C95.1084 176.908 96.6331 179.729 96.2012 180.377C95.7693 181.025 85.9863 184.499 84.0297 184.499C82.073 184.499 80.7577 181.025 79.9005 179.919L77.2829 176.647L72.0479 174.265" stroke="#263238" stroke-width="0.969857" stroke-linecap="round" stroke-linejoin="round"/>
<path d="M95.1084 176.889L93.5902 174.716" stroke="#263238" stroke-width="0.969857" stroke-linecap="round" stroke-linejoin="round"/>
<path d="M74.0307 184.912C75.1673 183.877 76.0529 182.596 76.6199 181.167C77.1869 179.738 77.4204 178.199 77.3026 176.666" stroke="#263238" stroke-width="0.969857" stroke-linecap="round" stroke-linejoin="round"/>
<path d="M85.5479 179.487L87.2885 183.609" stroke="#263238" stroke-width="0.969857" stroke-linecap="round" stroke-linejoin="round"/>
<path d="M89.893 177.753L91.6336 182.307" stroke="#263238" stroke-width="0.969857" stroke-linecap="round" stroke-linejoin="round"/>
<path d="M131.623 209.425V260.401L199.64 256.501V205.957L131.623 209.425Z" fill="#263238" stroke="#263238" stroke-width="0.969857" stroke-linecap="round" stroke-linejoin="round"/>
<path d="M199.64 205.957L196.159 204L128.796 207.259V256.933L131.623 260.401V209.425L199.64 205.957Z" fill="white" stroke="#263238" stroke-width="0.969857" stroke-linecap="round" stroke-linejoin="round"/>
<path d="M128.796 207.259L131.617 209.425" stroke="#263238" stroke-width="0.969857" stroke-linecap="round" stroke-linejoin="round"/>
<path d="M158.787 239.147V273.64L177.476 272.338V237.629L158.787 239.147Z" fill="#263238" stroke="#263238" stroke-width="0.969857" stroke-linecap="round" stroke-linejoin="round"/>
<path d="M158.204 258.674V239.147L177.476 237.629L177.528 257.463" stroke="white" stroke-width="0.969857" stroke-linecap="round" stroke-linejoin="round"/>
<path d="M158.787 273.64L149.004 264.963L158.787 264.524" fill="white"/>
<path d="M158.787 273.64L149.004 264.963L158.787 264.524" stroke="#263238" stroke-width="0.969857" stroke-linecap="round" stroke-linejoin="round"/>
<path opacity="0.7" d="M40.2644 241.765L102.071 247.955C102.071 247.955 99.7022 246.051 100.625 245.868C102.379 245.527 104.977 245.292 104.977 245.292L99.5255 239.546L40.2644 241.765" fill="#84B5FF"/>
<path opacity="0.7" d="M40.2644 241.765L102.071 247.955C102.071 247.955 99.7022 246.051 100.625 245.868C102.379 245.527 104.977 245.292 104.977 245.292L99.5255 239.546L40.2644 241.765" fill="white"/>
<path d="M99.5713 239.572L3.11488 243.008" stroke="#263238" stroke-width="0.969857" stroke-linecap="round" stroke-linejoin="round"/>
<path d="M199.175 237.498L264.195 277.625" stroke="#263238" stroke-width="0.969857" stroke-linecap="round" stroke-linejoin="round"/>
<path d="M80.9868 247.602L46.9522 251.757L68.8806 274.785L105.566 270.25L80.9868 247.602Z" fill="#84B5FF"/>
<path opacity="0.7" d="M80.9868 247.602L46.9522 251.757L68.8806 274.785L105.566 270.25L80.9868 247.602Z" fill="white"/>
<path d="M46.1931 256.665L76.4453 252.889L98.3804 275.158L63.5867 280.066L46.1931 256.665Z" fill="white"/>
<path d="M64.6272 276.827C64.5751 276.827 64.5252 276.806 64.4883 276.769C64.4515 276.732 64.4308 276.682 64.4308 276.63C64.4308 276.578 64.4515 276.528 64.4883 276.491C64.5252 276.455 64.5751 276.434 64.6272 276.434L92.4516 272.854C92.5032 272.85 92.5544 272.865 92.5955 272.897C92.6366 272.928 92.6646 272.974 92.6741 273.025C92.6778 273.051 92.6761 273.078 92.6691 273.103C92.6621 273.129 92.6499 273.153 92.6334 273.174C92.6169 273.194 92.5963 273.212 92.573 273.224C92.5496 273.237 92.5239 273.245 92.4974 273.247L64.6795 276.827H64.6272Z" fill="#84B5FF"/>
<path d="M63.0762 274.968C63.0242 274.968 62.9742 274.948 62.9374 274.911C62.9006 274.874 62.8799 274.824 62.8799 274.772C62.8799 274.72 62.9006 274.67 62.9374 274.633C62.9742 274.596 63.0242 274.576 63.0762 274.576L90.9007 270.996C90.9528 270.989 91.0055 271.003 91.0472 271.035C91.0889 271.067 91.1163 271.114 91.1232 271.166C91.1302 271.218 91.1161 271.271 91.0842 271.313C91.0523 271.354 91.0051 271.382 90.9531 271.389L63.1351 274.968H63.0762Z" fill="#84B5FF"/>
<path d="M61.5319 273.11C61.4831 273.11 61.4359 273.092 61.3996 273.059C61.3633 273.027 61.3405 272.981 61.3356 272.933C61.3299 272.881 61.3444 272.829 61.3761 272.788C61.4078 272.746 61.4542 272.719 61.5057 272.71L89.3106 269.131C89.3628 269.128 89.4141 269.145 89.455 269.178C89.4959 269.21 89.5236 269.256 89.5331 269.308C89.5358 269.333 89.5333 269.359 89.5259 269.384C89.5185 269.409 89.5062 269.432 89.4898 269.452C89.4733 269.473 89.4531 269.489 89.4302 269.501C89.4073 269.514 89.3822 269.521 89.3564 269.524L61.5384 273.11H61.5319Z" fill="#84B5FF"/>
<path d="M59.981 271.245C59.9289 271.245 59.879 271.224 59.8422 271.187C59.8054 271.15 59.7847 271.1 59.7847 271.048C59.7847 270.996 59.8054 270.946 59.8422 270.91C59.879 270.873 59.9289 270.852 59.981 270.852L87.8055 267.273C87.8573 267.267 87.9094 267.281 87.9508 267.313C87.9922 267.345 88.0199 267.391 88.028 267.443C88.0316 267.469 88.0301 267.495 88.0235 267.52C88.0169 267.545 88.0054 267.569 87.9896 267.59C87.9737 267.61 87.9539 267.628 87.9313 267.641C87.9087 267.654 87.8837 267.662 87.8578 267.665L60.0333 271.245H59.981Z" fill="#84B5FF"/>
<path d="M58.4367 269.386C58.3888 269.387 58.3425 269.37 58.3063 269.338C58.2702 269.307 58.2467 269.263 58.2403 269.216C58.2367 269.19 58.2382 269.164 58.2448 269.139C58.2514 269.113 58.2629 269.09 58.2787 269.069C58.2946 269.048 58.3144 269.031 58.337 269.018C58.3596 269.005 58.3846 268.997 58.4105 268.994L86.235 265.414C86.2868 265.408 86.3389 265.423 86.3803 265.455C86.4217 265.486 86.4493 265.533 86.4575 265.584C86.4611 265.611 86.4594 265.637 86.4524 265.663C86.4454 265.689 86.4332 265.712 86.4167 265.733C86.4002 265.754 86.3797 265.771 86.3563 265.784C86.3329 265.797 86.3072 265.804 86.2808 265.807L58.4628 269.386H58.4367Z" fill="#84B5FF"/>
<path d="M56.8857 267.521C56.8369 267.521 56.7897 267.503 56.7534 267.471C56.7171 267.438 56.6943 267.393 56.6894 267.344C56.6853 267.293 56.7004 267.242 56.7318 267.201C56.7632 267.16 56.8087 267.132 56.8596 267.122L84.6841 263.542C84.7369 263.537 84.7898 263.552 84.8314 263.585C84.873 263.618 84.9 263.666 84.9066 263.719C84.9121 263.77 84.8974 263.822 84.8656 263.862C84.8338 263.902 84.7874 263.929 84.7364 263.935L56.9119 267.521H56.8857Z" fill="#84B5FF"/>
<path d="M55.3414 265.663C55.2936 265.663 55.2472 265.646 55.2111 265.615C55.1749 265.583 55.1515 265.54 55.1451 265.493C55.1414 265.467 55.1429 265.44 55.1495 265.415C55.1561 265.39 55.1677 265.366 55.1835 265.346C55.1993 265.325 55.2191 265.308 55.2418 265.295C55.2644 265.282 55.2894 265.273 55.3152 265.27L83.1397 261.691C83.1913 261.686 83.2425 261.702 83.2836 261.733C83.3247 261.764 83.3527 261.81 83.3622 261.861C83.3659 261.887 83.3641 261.914 83.3571 261.939C83.3501 261.965 83.338 261.989 83.3215 262.01C83.305 262.031 83.2844 262.048 83.261 262.06C83.2377 262.073 83.212 262.081 83.1855 262.083L55.3676 265.663H55.3414Z" fill="#84B5FF"/>
<path d="M53.7905 263.804C53.7384 263.804 53.6885 263.784 53.6517 263.747C53.6149 263.71 53.5942 263.66 53.5942 263.608C53.5942 263.556 53.6149 263.506 53.6517 263.469C53.6885 263.432 53.7384 263.412 53.7905 263.412L81.615 259.832C81.6408 259.829 81.667 259.83 81.6921 259.837C81.7172 259.844 81.7408 259.855 81.7615 259.871C81.7821 259.887 81.7995 259.907 81.8125 259.929C81.8256 259.952 81.834 259.977 81.8375 260.002C81.8409 260.028 81.8392 260.054 81.8326 260.079C81.8259 260.105 81.8143 260.128 81.7985 260.149C81.7827 260.169 81.763 260.187 81.7405 260.2C81.718 260.213 81.6931 260.221 81.6673 260.225L53.8429 263.804H53.7905Z" fill="#84B5FF"/>
<path d="M52.2462 261.946C52.1973 261.946 52.1501 261.928 52.1138 261.896C52.0775 261.863 52.0547 261.818 52.0498 261.769C52.0442 261.717 52.0587 261.665 52.0903 261.624C52.122 261.582 52.1685 261.555 52.22 261.547L80.0445 257.967C80.097 257.963 80.149 257.979 80.1903 258.012C80.2315 258.045 80.2589 258.092 80.267 258.144C80.2697 258.17 80.2672 258.196 80.2598 258.221C80.2524 258.246 80.2401 258.269 80.2237 258.289C80.2072 258.309 80.187 258.325 80.1641 258.338C80.1412 258.35 80.1161 258.357 80.0903 258.36L52.2723 261.946H52.2462Z" fill="#84B5FF"/>
<path d="M50.7018 260.081C50.6497 260.081 50.5998 260.06 50.563 260.023C50.5262 259.987 50.5055 259.937 50.5055 259.885C50.5055 259.832 50.5262 259.783 50.563 259.746C50.5998 259.709 50.6497 259.688 50.7018 259.688L78.5263 256.109C78.5781 256.103 78.6302 256.118 78.6716 256.149C78.713 256.181 78.7407 256.227 78.7488 256.279C78.7525 256.305 78.751 256.331 78.7444 256.356C78.7378 256.381 78.7262 256.405 78.7104 256.426C78.6945 256.447 78.6747 256.464 78.6521 256.477C78.6295 256.49 78.6045 256.498 78.5787 256.501L50.7018 260.081Z" fill="#84B5FF"/>
<g opacity="0.7">
<path opacity="0.7" d="M64.6271 276.826C64.5751 276.826 64.5251 276.806 64.4883 276.769C64.4515 276.732 64.4308 276.682 64.4308 276.63C64.4308 276.578 64.4515 276.528 64.4883 276.491C64.5251 276.454 64.5751 276.434 64.6271 276.434L92.4516 272.854C92.5032 272.85 92.5544 272.865 92.5955 272.897C92.6366 272.928 92.6646 272.974 92.6741 273.024C92.6778 273.051 92.676 273.077 92.669 273.103C92.662 273.129 92.6499 273.153 92.6334 273.173C92.6169 273.194 92.5963 273.211 92.5729 273.224C92.5496 273.237 92.5239 273.244 92.4974 273.247L64.6795 276.826H64.6271Z" fill="white"/>
<path opacity="0.7" d="M63.0762 274.968C63.0242 274.968 62.9742 274.947 62.9374 274.91C62.9006 274.874 62.8799 274.824 62.8799 274.772C62.8799 274.72 62.9006 274.67 62.9374 274.633C62.9742 274.596 63.0242 274.575 63.0762 274.575L90.9007 270.996C90.9528 270.989 91.0055 271.003 91.0472 271.035C91.0889 271.067 91.1163 271.114 91.1232 271.166C91.1302 271.218 91.1161 271.271 91.0842 271.312C91.0523 271.354 91.0051 271.382 90.9531 271.388L63.1351 274.968H63.0762Z" fill="white"/>
<path opacity="0.7" d="M61.5319 273.109C61.4831 273.11 61.4359 273.092 61.3996 273.059C61.3633 273.026 61.3405 272.981 61.3356 272.933C61.3299 272.881 61.3444 272.829 61.3761 272.787C61.4078 272.746 61.4542 272.718 61.5057 272.71L89.3106 269.131C89.3628 269.128 89.4141 269.145 89.455 269.177C89.4959 269.21 89.5236 269.256 89.5331 269.307C89.5358 269.333 89.5333 269.359 89.5259 269.384C89.5185 269.409 89.5062 269.432 89.4898 269.452C89.4733 269.472 89.4531 269.489 89.4302 269.501C89.4073 269.513 89.3822 269.521 89.3564 269.523L61.5384 273.109H61.5319Z" fill="white"/>
<path opacity="0.7" d="M59.981 271.244C59.9289 271.244 59.879 271.224 59.8422 271.187C59.8054 271.15 59.7847 271.1 59.7847 271.048C59.7847 270.996 59.8054 270.946 59.8422 270.909C59.879 270.873 59.9289 270.852 59.981 270.852L87.8055 267.272C87.8573 267.267 87.9094 267.281 87.9508 267.313C87.9922 267.345 88.0199 267.391 88.028 267.443C88.0316 267.468 88.0302 267.495 88.0236 267.52C88.017 267.545 88.0054 267.569 87.9896 267.589C87.9737 267.61 87.9539 267.627 87.9313 267.64C87.9087 267.653 87.8837 267.662 87.8578 267.665L60.0334 271.244H59.981Z" fill="white"/>
<path opacity="0.7" d="M58.4367 269.386C58.3888 269.386 58.3425 269.369 58.3063 269.338C58.2702 269.307 58.2467 269.263 58.2403 269.216C58.2367 269.19 58.2382 269.164 58.2448 269.138C58.2514 269.113 58.2629 269.09 58.2787 269.069C58.2946 269.048 58.3144 269.031 58.337 269.018C58.3596 269.005 58.3846 268.997 58.4105 268.993L86.235 265.414C86.2868 265.408 86.3389 265.423 86.3803 265.454C86.4217 265.486 86.4493 265.532 86.4575 265.584C86.4611 265.61 86.4594 265.637 86.4524 265.663C86.4454 265.688 86.4332 265.712 86.4167 265.733C86.4002 265.754 86.3797 265.771 86.3563 265.784C86.3329 265.796 86.3072 265.804 86.2808 265.806L58.4628 269.386H58.4367Z" fill="white"/>
<path opacity="0.7" d="M56.8858 267.521C56.8369 267.521 56.7898 267.503 56.7535 267.471C56.7172 267.438 56.6943 267.393 56.6894 267.344C56.6853 267.293 56.7004 267.241 56.7318 267.2C56.7633 267.159 56.8088 267.131 56.8596 267.122L84.6841 263.542C84.7369 263.537 84.7898 263.552 84.8314 263.585C84.873 263.618 84.9 263.666 84.9066 263.719C84.9121 263.77 84.8974 263.821 84.8656 263.862C84.8338 263.902 84.7874 263.928 84.7364 263.935L56.9119 267.521H56.8858Z" fill="white"/>
<path opacity="0.7" d="M55.3414 265.662C55.2936 265.663 55.2472 265.646 55.2111 265.615C55.1749 265.583 55.1515 265.54 55.1451 265.492C55.1414 265.467 55.1429 265.44 55.1495 265.415C55.1561 265.39 55.1677 265.366 55.1835 265.345C55.1993 265.325 55.2191 265.307 55.2418 265.294C55.2644 265.281 55.2894 265.273 55.3152 265.27L83.1397 261.69C83.1913 261.686 83.2425 261.701 83.2836 261.733C83.3247 261.764 83.3527 261.81 83.3622 261.861C83.3659 261.887 83.3641 261.914 83.3571 261.939C83.3501 261.965 83.338 261.989 83.3215 262.01C83.305 262.03 83.2844 262.048 83.261 262.06C83.2377 262.073 83.212 262.081 83.1855 262.083L55.3676 265.662H55.3414Z" fill="white"/>
<path opacity="0.7" d="M53.7905 263.804C53.7384 263.804 53.6885 263.783 53.6517 263.747C53.6149 263.71 53.5942 263.66 53.5942 263.608C53.5942 263.556 53.6149 263.506 53.6517 263.469C53.6885 263.432 53.7384 263.411 53.7905 263.411L81.615 259.832C81.6408 259.829 81.667 259.83 81.6921 259.837C81.7172 259.844 81.7408 259.855 81.7615 259.871C81.7821 259.887 81.7995 259.906 81.8125 259.929C81.8256 259.951 81.834 259.976 81.8375 260.002C81.8409 260.028 81.8392 260.054 81.8326 260.079C81.8259 260.104 81.8143 260.128 81.7985 260.149C81.7827 260.169 81.763 260.187 81.7405 260.2C81.718 260.213 81.6931 260.221 81.6673 260.225L53.8429 263.804H53.7905Z" fill="white"/>
<path opacity="0.7" d="M52.2462 261.946C52.1973 261.946 52.1501 261.928 52.1138 261.895C52.0775 261.862 52.0547 261.817 52.0498 261.769C52.0442 261.717 52.0587 261.665 52.0903 261.624C52.122 261.582 52.1685 261.554 52.22 261.546L80.0445 257.967C80.097 257.963 80.149 257.979 80.1903 258.012C80.2315 258.044 80.2589 258.092 80.267 258.144C80.2697 258.169 80.2672 258.195 80.2598 258.22C80.2524 258.245 80.2401 258.268 80.2237 258.288C80.2072 258.308 80.187 258.325 80.1641 258.337C80.1412 258.349 80.1161 258.357 80.0903 258.359L52.2723 261.946H52.2462Z" fill="white"/>
<path opacity="0.7" d="M50.7018 260.081C50.6497 260.081 50.5998 260.06 50.563 260.023C50.5262 259.987 50.5055 259.937 50.5055 259.885C50.5055 259.832 50.5262 259.783 50.563 259.746C50.5998 259.709 50.6497 259.688 50.7018 259.688L78.5263 256.109C78.5781 256.103 78.6302 256.118 78.6716 256.149C78.713 256.181 78.7407 256.227 78.7488 256.279C78.7525 256.305 78.751 256.331 78.7444 256.356C78.7378 256.381 78.7262 256.405 78.7104 256.426C78.6945 256.447 78.6747 256.464 78.6521 256.477C78.6295 256.49 78.6045 256.498 78.5787 256.501L50.7018 260.081Z" fill="white"/>
</g>
<path d="M80.1492 131.978C80.1492 131.978 85.3843 133.719 86.693 135.905C88.0018 138.09 91.3653 149.732 91.3653 149.732" stroke="#263238" stroke-width="0.969857" stroke-linecap="round" stroke-linejoin="round"/>
</svg>
