<svg width="1600" height="654" viewBox="0 0 1600 654" fill="none" xmlns="http://www.w3.org/2000/svg">
<path d="M15.5695 194.763C-186.579 226.625 -440.391 294.811 -440.391 294.811L-379.136 1045.85C-379.136 1045.85 -186.053 1136.11 -24.3857 1129.46C243.245 1118.47 429.344 958.631 697.084 942.259C994.407 924.078 1140.76 1013.4 1438.09 995.702C1616.94 985.057 1891.24 933.436 1891.24 933.436L1809.48 1.0003C1809.48 1.0003 1726.19 42.8836 1663.51 60.3556C1520.96 100.091 1423.45 58.0947 1270.16 73.4579C994.021 101.133 869.322 207.256 592.419 226.798C362.496 243.024 241.792 159.105 15.5695 194.763Z" fill="#194484" fill-opacity="0.07" stroke="black"/>
<path d="M290.359 146.702C123.295 159.243 -93 255.069 -93 255.069L-93.0001 811.729C-93.0001 811.729 58.54 898.189 190.895 903.527C410.001 912.364 572.486 794.371 792.038 798.828C1035.85 803.778 1149.32 886.369 1393.11 891.714C1539.75 894.93 1767 871.073 1767 871.073L1767 48C1767 48 1696.25 136.621 1643.95 146.702C1524.99 169.629 1448.21 128.888 1322.11 131.221C1094.96 135.425 986.149 213.688 758.908 211.207C570.222 209.146 477.319 132.668 290.359 146.702Z" fill="#194484" stroke="black"/>
</svg>
