<svg xmlns="http://www.w3.org/2000/svg" version="1.1" xmlns:xlink="http://www.w3.org/1999/xlink" xmlns:svgjs="http://svgjs.com/svgjs" width="1440" height="650" preserveAspectRatio="none" viewBox="0 0 1440 650"><g mask="url(&quot;#SvgjsMask1568&quot;)" fill="none"><rect width="1440" height="650" x="0" y="0" fill="url(#SvgjsLinearGradient1569)"></rect><path d="M206.58 237.18L263.74 270.18L263.74 336.18L206.58 369.18L149.42 336.18L149.42 270.18zM206.58 435.18L263.74 468.18L263.74 534.18L206.58 567.18L149.42 534.18L149.42 468.18zM378.06 -59.82L435.22 -26.82L435.22 39.18L378.06 72.18L320.9 39.18L320.9 -26.82zM378.06 534.18L435.22 567.18L435.22 633.18L378.06 666.18L320.9 633.18L320.9 567.18zM549.53 39.18L606.69 72.18L606.69 138.18L549.53 171.18L492.37 138.18L492.37 72.18zM492.37 138.18L549.53 171.18L549.53 237.18L492.37 270.18L435.22 237.18L435.22 171.18zM492.37 336.18L549.53 369.18L549.53 435.18L492.37 468.18L435.22 435.18L435.22 369.18zM663.85 435.18L721.01 468.18L721.01 534.18L663.85 567.18L606.69 534.18L606.69 468.18zM721.01 138.18L778.17 171.18L778.17 237.18L721.01 270.18L663.85 237.18L663.85 171.18zM892.49 237.18L949.65 270.18L949.65 336.18L892.49 369.18L835.33 336.18L835.33 270.18zM835.33 336.18L892.49 369.18L892.49 435.18L835.33 468.18L778.17 435.18L778.17 369.18zM949.65 -59.82L1006.81 -26.82L1006.81 39.18L949.65 72.18L892.49 39.18L892.49 -26.82zM1006.81 633.18L1063.97 666.18L1063.97 732.18L1006.81 765.18L949.65 732.18L949.65 666.18zM1121.13 237.18L1178.29 270.18L1178.29 336.18L1121.13 369.18L1063.97 336.18L1063.97 270.18zM1178.29 -59.82L1235.45 -26.82L1235.45 39.18L1178.29 72.18L1121.13 39.18L1121.13 -26.82z" stroke="#03305d" stroke-width="2"></path><path d="M199.98 237.18 a6.6 6.6 0 1 0 13.2 0 a6.6 6.6 0 1 0 -13.2 0zM257.14 270.18 a6.6 6.6 0 1 0 13.2 0 a6.6 6.6 0 1 0 -13.2 0zM257.14 336.18 a6.6 6.6 0 1 0 13.2 0 a6.6 6.6 0 1 0 -13.2 0zM199.98 369.18 a6.6 6.6 0 1 0 13.2 0 a6.6 6.6 0 1 0 -13.2 0zM142.82 336.18 a6.6 6.6 0 1 0 13.2 0 a6.6 6.6 0 1 0 -13.2 0zM142.82 270.18 a6.6 6.6 0 1 0 13.2 0 a6.6 6.6 0 1 0 -13.2 0zM199.98 435.18 a6.6 6.6 0 1 0 13.2 0 a6.6 6.6 0 1 0 -13.2 0zM257.14 468.18 a6.6 6.6 0 1 0 13.2 0 a6.6 6.6 0 1 0 -13.2 0zM257.14 534.18 a6.6 6.6 0 1 0 13.2 0 a6.6 6.6 0 1 0 -13.2 0zM199.98 567.18 a6.6 6.6 0 1 0 13.2 0 a6.6 6.6 0 1 0 -13.2 0zM142.82 534.18 a6.6 6.6 0 1 0 13.2 0 a6.6 6.6 0 1 0 -13.2 0zM142.82 468.18 a6.6 6.6 0 1 0 13.2 0 a6.6 6.6 0 1 0 -13.2 0zM371.46 -59.82 a6.6 6.6 0 1 0 13.2 0 a6.6 6.6 0 1 0 -13.2 0zM428.62 -26.82 a6.6 6.6 0 1 0 13.2 0 a6.6 6.6 0 1 0 -13.2 0zM428.62 39.18 a6.6 6.6 0 1 0 13.2 0 a6.6 6.6 0 1 0 -13.2 0zM371.46 72.18 a6.6 6.6 0 1 0 13.2 0 a6.6 6.6 0 1 0 -13.2 0zM314.3 39.18 a6.6 6.6 0 1 0 13.2 0 a6.6 6.6 0 1 0 -13.2 0zM314.3 -26.82 a6.6 6.6 0 1 0 13.2 0 a6.6 6.6 0 1 0 -13.2 0zM371.46 534.18 a6.6 6.6 0 1 0 13.2 0 a6.6 6.6 0 1 0 -13.2 0zM428.62 567.18 a6.6 6.6 0 1 0 13.2 0 a6.6 6.6 0 1 0 -13.2 0zM428.62 633.18 a6.6 6.6 0 1 0 13.2 0 a6.6 6.6 0 1 0 -13.2 0zM371.46 666.18 a6.6 6.6 0 1 0 13.2 0 a6.6 6.6 0 1 0 -13.2 0zM314.3 633.18 a6.6 6.6 0 1 0 13.2 0 a6.6 6.6 0 1 0 -13.2 0zM314.3 567.18 a6.6 6.6 0 1 0 13.2 0 a6.6 6.6 0 1 0 -13.2 0zM542.93 39.18 a6.6 6.6 0 1 0 13.2 0 a6.6 6.6 0 1 0 -13.2 0zM600.09 72.18 a6.6 6.6 0 1 0 13.2 0 a6.6 6.6 0 1 0 -13.2 0zM600.09 138.18 a6.6 6.6 0 1 0 13.2 0 a6.6 6.6 0 1 0 -13.2 0zM542.93 171.18 a6.6 6.6 0 1 0 13.2 0 a6.6 6.6 0 1 0 -13.2 0zM485.77 138.18 a6.6 6.6 0 1 0 13.2 0 a6.6 6.6 0 1 0 -13.2 0zM485.77 72.18 a6.6 6.6 0 1 0 13.2 0 a6.6 6.6 0 1 0 -13.2 0zM542.93 237.18 a6.6 6.6 0 1 0 13.2 0 a6.6 6.6 0 1 0 -13.2 0zM485.77 270.18 a6.6 6.6 0 1 0 13.2 0 a6.6 6.6 0 1 0 -13.2 0zM428.62 237.18 a6.6 6.6 0 1 0 13.2 0 a6.6 6.6 0 1 0 -13.2 0zM428.62 171.18 a6.6 6.6 0 1 0 13.2 0 a6.6 6.6 0 1 0 -13.2 0zM485.77 336.18 a6.6 6.6 0 1 0 13.2 0 a6.6 6.6 0 1 0 -13.2 0zM542.93 369.18 a6.6 6.6 0 1 0 13.2 0 a6.6 6.6 0 1 0 -13.2 0zM542.93 435.18 a6.6 6.6 0 1 0 13.2 0 a6.6 6.6 0 1 0 -13.2 0zM485.77 468.18 a6.6 6.6 0 1 0 13.2 0 a6.6 6.6 0 1 0 -13.2 0zM428.62 435.18 a6.6 6.6 0 1 0 13.2 0 a6.6 6.6 0 1 0 -13.2 0zM428.62 369.18 a6.6 6.6 0 1 0 13.2 0 a6.6 6.6 0 1 0 -13.2 0zM657.25 435.18 a6.6 6.6 0 1 0 13.2 0 a6.6 6.6 0 1 0 -13.2 0zM714.41 468.18 a6.6 6.6 0 1 0 13.2 0 a6.6 6.6 0 1 0 -13.2 0zM714.41 534.18 a6.6 6.6 0 1 0 13.2 0 a6.6 6.6 0 1 0 -13.2 0zM657.25 567.18 a6.6 6.6 0 1 0 13.2 0 a6.6 6.6 0 1 0 -13.2 0zM600.09 534.18 a6.6 6.6 0 1 0 13.2 0 a6.6 6.6 0 1 0 -13.2 0zM600.09 468.18 a6.6 6.6 0 1 0 13.2 0 a6.6 6.6 0 1 0 -13.2 0zM714.41 138.18 a6.6 6.6 0 1 0 13.2 0 a6.6 6.6 0 1 0 -13.2 0zM771.57 171.18 a6.6 6.6 0 1 0 13.2 0 a6.6 6.6 0 1 0 -13.2 0zM771.57 237.18 a6.6 6.6 0 1 0 13.2 0 a6.6 6.6 0 1 0 -13.2 0zM714.41 270.18 a6.6 6.6 0 1 0 13.2 0 a6.6 6.6 0 1 0 -13.2 0zM657.25 237.18 a6.6 6.6 0 1 0 13.2 0 a6.6 6.6 0 1 0 -13.2 0zM657.25 171.18 a6.6 6.6 0 1 0 13.2 0 a6.6 6.6 0 1 0 -13.2 0zM885.89 237.18 a6.6 6.6 0 1 0 13.2 0 a6.6 6.6 0 1 0 -13.2 0zM943.05 270.18 a6.6 6.6 0 1 0 13.2 0 a6.6 6.6 0 1 0 -13.2 0zM943.05 336.18 a6.6 6.6 0 1 0 13.2 0 a6.6 6.6 0 1 0 -13.2 0zM885.89 369.18 a6.6 6.6 0 1 0 13.2 0 a6.6 6.6 0 1 0 -13.2 0zM828.73 336.18 a6.6 6.6 0 1 0 13.2 0 a6.6 6.6 0 1 0 -13.2 0zM828.73 270.18 a6.6 6.6 0 1 0 13.2 0 a6.6 6.6 0 1 0 -13.2 0zM885.89 435.18 a6.6 6.6 0 1 0 13.2 0 a6.6 6.6 0 1 0 -13.2 0zM828.73 468.18 a6.6 6.6 0 1 0 13.2 0 a6.6 6.6 0 1 0 -13.2 0zM771.57 435.18 a6.6 6.6 0 1 0 13.2 0 a6.6 6.6 0 1 0 -13.2 0zM771.57 369.18 a6.6 6.6 0 1 0 13.2 0 a6.6 6.6 0 1 0 -13.2 0zM943.05 -59.82 a6.6 6.6 0 1 0 13.2 0 a6.6 6.6 0 1 0 -13.2 0zM1000.21 -26.82 a6.6 6.6 0 1 0 13.2 0 a6.6 6.6 0 1 0 -13.2 0zM1000.21 39.18 a6.6 6.6 0 1 0 13.2 0 a6.6 6.6 0 1 0 -13.2 0zM943.05 72.18 a6.6 6.6 0 1 0 13.2 0 a6.6 6.6 0 1 0 -13.2 0zM885.89 39.18 a6.6 6.6 0 1 0 13.2 0 a6.6 6.6 0 1 0 -13.2 0zM885.89 -26.82 a6.6 6.6 0 1 0 13.2 0 a6.6 6.6 0 1 0 -13.2 0zM1000.21 633.18 a6.6 6.6 0 1 0 13.2 0 a6.6 6.6 0 1 0 -13.2 0zM1057.37 666.18 a6.6 6.6 0 1 0 13.2 0 a6.6 6.6 0 1 0 -13.2 0zM1057.37 732.18 a6.6 6.6 0 1 0 13.2 0 a6.6 6.6 0 1 0 -13.2 0zM1000.21 765.18 a6.6 6.6 0 1 0 13.2 0 a6.6 6.6 0 1 0 -13.2 0zM943.05 732.18 a6.6 6.6 0 1 0 13.2 0 a6.6 6.6 0 1 0 -13.2 0zM943.05 666.18 a6.6 6.6 0 1 0 13.2 0 a6.6 6.6 0 1 0 -13.2 0zM1114.53 237.18 a6.6 6.6 0 1 0 13.2 0 a6.6 6.6 0 1 0 -13.2 0zM1171.69 270.18 a6.6 6.6 0 1 0 13.2 0 a6.6 6.6 0 1 0 -13.2 0zM1171.69 336.18 a6.6 6.6 0 1 0 13.2 0 a6.6 6.6 0 1 0 -13.2 0zM1114.53 369.18 a6.6 6.6 0 1 0 13.2 0 a6.6 6.6 0 1 0 -13.2 0zM1057.37 336.18 a6.6 6.6 0 1 0 13.2 0 a6.6 6.6 0 1 0 -13.2 0zM1057.37 270.18 a6.6 6.6 0 1 0 13.2 0 a6.6 6.6 0 1 0 -13.2 0zM1171.69 -59.82 a6.6 6.6 0 1 0 13.2 0 a6.6 6.6 0 1 0 -13.2 0zM1228.85 -26.82 a6.6 6.6 0 1 0 13.2 0 a6.6 6.6 0 1 0 -13.2 0zM1228.85 39.18 a6.6 6.6 0 1 0 13.2 0 a6.6 6.6 0 1 0 -13.2 0zM1171.69 72.18 a6.6 6.6 0 1 0 13.2 0 a6.6 6.6 0 1 0 -13.2 0zM1114.53 39.18 a6.6 6.6 0 1 0 13.2 0 a6.6 6.6 0 1 0 -13.2 0zM1114.53 -26.82 a6.6 6.6 0 1 0 13.2 0 a6.6 6.6 0 1 0 -13.2 0z" fill="#03305d"></path><path d="M3.9 -0.43L42.01 21.57L42.01 65.57L3.9 87.57L-34.21 65.57L-34.21 21.57zM42.01 65.57L80.11 87.57L80.11 131.57L42.01 153.57L3.9 131.57L3.9 87.57zM3.9 263.57L42.01 285.57L42.01 329.57L3.9 351.57L-34.21 329.57L-34.21 285.57zM3.9 659.57L42.01 681.57L42.01 725.57L3.9 747.57L-34.21 725.57L-34.21 681.57zM80.11 -0.43L118.22 21.57L118.22 65.57L80.11 87.57L42.01 65.57L42.01 21.57zM118.22 65.57L156.32 87.57L156.32 131.57L118.22 153.57L80.11 131.57L80.11 87.57zM80.11 263.57L118.22 285.57L118.22 329.57L80.11 351.57L42.01 329.57L42.01 285.57zM118.22 329.57L156.32 351.57L156.32 395.57L118.22 417.57L80.11 395.57L80.11 351.57zM80.11 395.57L118.22 417.57L118.22 461.57L80.11 483.57L42.01 461.57L42.01 417.57zM80.11 527.57L118.22 549.57L118.22 593.57L80.11 615.57L42.01 593.57L42.01 549.57zM194.43 197.57L232.54 219.57L232.54 263.57L194.43 285.57L156.32 263.57L156.32 219.57zM194.43 329.57L232.54 351.57L232.54 395.57L194.43 417.57L156.32 395.57L156.32 351.57zM156.32 395.57L194.43 417.57L194.43 461.57L156.32 483.57L118.22 461.57L118.22 417.57zM194.43 593.57L232.54 615.57L232.54 659.57L194.43 681.57L156.32 659.57L156.32 615.57zM156.32 659.57L194.43 681.57L194.43 725.57L156.32 747.57L118.22 725.57L118.22 681.57zM270.64 65.57L308.75 87.57L308.75 131.57L270.64 153.57L232.54 131.57L232.54 87.57zM270.64 197.57L308.75 219.57L308.75 263.57L270.64 285.57L232.54 263.57L232.54 219.57zM232.54 263.57L270.64 285.57L270.64 329.57L232.54 351.57L194.43 329.57L194.43 285.57zM308.75 -0.43L346.86 21.57L346.86 65.57L308.75 87.57L270.64 65.57L270.64 21.57zM346.86 65.57L384.96 87.57L384.96 131.57L346.86 153.57L308.75 131.57L308.75 87.57zM308.75 263.57L346.86 285.57L346.86 329.57L308.75 351.57L270.64 329.57L270.64 285.57zM308.75 395.57L346.86 417.57L346.86 461.57L308.75 483.57L270.64 461.57L270.64 417.57zM346.86 461.57L384.96 483.57L384.96 527.57L346.86 549.57L308.75 527.57L308.75 483.57zM308.75 527.57L346.86 549.57L346.86 593.57L308.75 615.57L270.64 593.57L270.64 549.57zM308.75 659.57L346.86 681.57L346.86 725.57L308.75 747.57L270.64 725.57L270.64 681.57zM384.96 263.57L423.07 285.57L423.07 329.57L384.96 351.57L346.86 329.57L346.86 285.57zM384.96 395.57L423.07 417.57L423.07 461.57L384.96 483.57L346.86 461.57L346.86 417.57zM384.96 527.57L423.07 549.57L423.07 593.57L384.96 615.57L346.86 593.57L346.86 549.57zM423.07 593.57L461.17 615.57L461.17 659.57L423.07 681.57L384.96 659.57L384.96 615.57zM384.96 659.57L423.07 681.57L423.07 725.57L384.96 747.57L346.86 725.57L346.86 681.57zM499.28 65.57L537.39 87.57L537.39 131.57L499.28 153.57L461.17 131.57L461.17 87.57zM461.17 131.57L499.28 153.57L499.28 197.57L461.17 219.57L423.07 197.57L423.07 153.57zM461.17 395.57L499.28 417.57L499.28 461.57L461.17 483.57L423.07 461.57L423.07 417.57zM499.28 461.57L537.39 483.57L537.39 527.57L499.28 549.57L461.17 527.57L461.17 483.57zM461.17 527.57L499.28 549.57L499.28 593.57L461.17 615.57L423.07 593.57L423.07 549.57zM537.39 -0.43L575.49 21.57L575.49 65.57L537.39 87.57L499.28 65.57L499.28 21.57zM537.39 131.57L575.49 153.57L575.49 197.57L537.39 219.57L499.28 197.57L499.28 153.57zM575.49 197.57L613.6 219.57L613.6 263.57L575.49 285.57L537.39 263.57L537.39 219.57zM537.39 263.57L575.49 285.57L575.49 329.57L537.39 351.57L499.28 329.57L499.28 285.57zM537.39 527.57L575.49 549.57L575.49 593.57L537.39 615.57L499.28 593.57L499.28 549.57zM537.39 659.57L575.49 681.57L575.49 725.57L537.39 747.57L499.28 725.57L499.28 681.57zM613.6 -0.43L651.71 21.57L651.71 65.57L613.6 87.57L575.49 65.57L575.49 21.57zM651.71 65.57L689.81 87.57L689.81 131.57L651.71 153.57L613.6 131.57L613.6 87.57zM651.71 329.57L689.81 351.57L689.81 395.57L651.71 417.57L613.6 395.57L613.6 351.57zM651.71 461.57L689.81 483.57L689.81 527.57L651.71 549.57L613.6 527.57L613.6 483.57zM651.71 593.57L689.81 615.57L689.81 659.57L651.71 681.57L613.6 659.57L613.6 615.57zM689.81 131.57L727.92 153.57L727.92 197.57L689.81 219.57L651.71 197.57L651.71 153.57zM727.92 329.57L766.02 351.57L766.02 395.57L727.92 417.57L689.81 395.57L689.81 351.57zM727.92 461.57L766.02 483.57L766.02 527.57L727.92 549.57L689.81 527.57L689.81 483.57zM689.81 527.57L727.92 549.57L727.92 593.57L689.81 615.57L651.71 593.57L651.71 549.57zM727.92 593.57L766.02 615.57L766.02 659.57L727.92 681.57L689.81 659.57L689.81 615.57zM689.81 659.57L727.92 681.57L727.92 725.57L689.81 747.57L651.71 725.57L651.71 681.57zM766.02 -0.43L804.13 21.57L804.13 65.57L766.02 87.57L727.92 65.57L727.92 21.57zM766.02 395.57L804.13 417.57L804.13 461.57L766.02 483.57L727.92 461.57L727.92 417.57zM804.13 593.57L842.24 615.57L842.24 659.57L804.13 681.57L766.02 659.57L766.02 615.57zM766.02 659.57L804.13 681.57L804.13 725.57L766.02 747.57L727.92 725.57L727.92 681.57zM880.34 65.57L918.45 87.57L918.45 131.57L880.34 153.57L842.24 131.57L842.24 87.57zM842.24 263.57L880.34 285.57L880.34 329.57L842.24 351.57L804.13 329.57L804.13 285.57zM880.34 329.57L918.45 351.57L918.45 395.57L880.34 417.57L842.24 395.57L842.24 351.57zM880.34 461.57L918.45 483.57L918.45 527.57L880.34 549.57L842.24 527.57L842.24 483.57zM918.45 -0.43L956.55 21.57L956.55 65.57L918.45 87.57L880.34 65.57L880.34 21.57zM956.55 65.57L994.66 87.57L994.66 131.57L956.55 153.57L918.45 131.57L918.45 87.57zM918.45 131.57L956.55 153.57L956.55 197.57L918.45 219.57L880.34 197.57L880.34 153.57zM918.45 395.57L956.55 417.57L956.55 461.57L918.45 483.57L880.34 461.57L880.34 417.57zM994.66 -0.43L1032.77 21.57L1032.77 65.57L994.66 87.57L956.55 65.57L956.55 21.57zM1032.77 65.57L1070.87 87.57L1070.87 131.57L1032.77 153.57L994.66 131.57L994.66 87.57zM994.66 131.57L1032.77 153.57L1032.77 197.57L994.66 219.57L956.55 197.57L956.55 153.57zM994.66 263.57L1032.77 285.57L1032.77 329.57L994.66 351.57L956.55 329.57L956.55 285.57zM1032.77 329.57L1070.87 351.57L1070.87 395.57L1032.77 417.57L994.66 395.57L994.66 351.57zM994.66 527.57L1032.77 549.57L1032.77 593.57L994.66 615.57L956.55 593.57L956.55 549.57zM1032.77 593.57L1070.87 615.57L1070.87 659.57L1032.77 681.57L994.66 659.57L994.66 615.57zM994.66 659.57L1032.77 681.57L1032.77 725.57L994.66 747.57L956.55 725.57L956.55 681.57zM1108.98 461.57L1147.09 483.57L1147.09 527.57L1108.98 549.57L1070.87 527.57L1070.87 483.57zM1185.19 65.57L1223.3 87.57L1223.3 131.57L1185.19 153.57L1147.09 131.57L1147.09 87.57zM1185.19 197.57L1223.3 219.57L1223.3 263.57L1185.19 285.57L1147.09 263.57L1147.09 219.57zM1147.09 395.57L1185.19 417.57L1185.19 461.57L1147.09 483.57L1108.98 461.57L1108.98 417.57zM1185.19 461.57L1223.3 483.57L1223.3 527.57L1185.19 549.57L1147.09 527.57L1147.09 483.57zM1147.09 527.57L1185.19 549.57L1185.19 593.57L1147.09 615.57L1108.98 593.57L1108.98 549.57zM1185.19 593.57L1223.3 615.57L1223.3 659.57L1185.19 681.57L1147.09 659.57L1147.09 615.57zM1147.09 659.57L1185.19 681.57L1185.19 725.57L1147.09 747.57L1108.98 725.57L1108.98 681.57zM1261.4 65.57L1299.51 87.57L1299.51 131.57L1261.4 153.57L1223.3 131.57L1223.3 87.57zM1223.3 131.57L1261.4 153.57L1261.4 197.57L1223.3 219.57L1185.19 197.57L1185.19 153.57zM1261.4 197.57L1299.51 219.57L1299.51 263.57L1261.4 285.57L1223.3 263.57L1223.3 219.57zM1223.3 395.57L1261.4 417.57L1261.4 461.57L1223.3 483.57L1185.19 461.57L1185.19 417.57zM1223.3 527.57L1261.4 549.57L1261.4 593.57L1223.3 615.57L1185.19 593.57L1185.19 549.57zM1261.4 593.57L1299.51 615.57L1299.51 659.57L1261.4 681.57L1223.3 659.57L1223.3 615.57zM1223.3 659.57L1261.4 681.57L1261.4 725.57L1223.3 747.57L1185.19 725.57L1185.19 681.57zM1337.62 65.57L1375.72 87.57L1375.72 131.57L1337.62 153.57L1299.51 131.57L1299.51 87.57zM1299.51 131.57L1337.62 153.57L1337.62 197.57L1299.51 219.57L1261.4 197.57L1261.4 153.57zM1299.51 263.57L1337.62 285.57L1337.62 329.57L1299.51 351.57L1261.4 329.57L1261.4 285.57zM1337.62 329.57L1375.72 351.57L1375.72 395.57L1337.62 417.57L1299.51 395.57L1299.51 351.57zM1299.51 395.57L1337.62 417.57L1337.62 461.57L1299.51 483.57L1261.4 461.57L1261.4 417.57zM1337.62 593.57L1375.72 615.57L1375.72 659.57L1337.62 681.57L1299.51 659.57L1299.51 615.57zM1299.51 659.57L1337.62 681.57L1337.62 725.57L1299.51 747.57L1261.4 725.57L1261.4 681.57zM1375.72 -0.43L1413.83 21.57L1413.83 65.57L1375.72 87.57L1337.62 65.57L1337.62 21.57zM1413.83 197.57L1451.94 219.57L1451.94 263.57L1413.83 285.57L1375.72 263.57L1375.72 219.57zM1375.72 395.57L1413.83 417.57L1413.83 461.57L1375.72 483.57L1337.62 461.57L1337.62 417.57zM1413.83 461.57L1451.94 483.57L1451.94 527.57L1413.83 549.57L1375.72 527.57L1375.72 483.57zM1375.72 527.57L1413.83 549.57L1413.83 593.57L1375.72 615.57L1337.62 593.57L1337.62 549.57zM1413.83 593.57L1451.94 615.57L1451.94 659.57L1413.83 681.57L1375.72 659.57L1375.72 615.57zM1375.72 659.57L1413.83 681.57L1413.83 725.57L1375.72 747.57L1337.62 725.57L1337.62 681.57z" stroke="rgba(6, 80, 156, 0.93)" stroke-width="2"></path></g><defs><mask id="SvgjsMask1568"><rect width="1440" height="650" fill="#ffffff"></rect></mask><linearGradient x1="100%" y1="50%" x2="0%" y2="50%" gradientUnits="userSpaceOnUse" id="SvgjsLinearGradient1569"><stop stop-color="#0e2a47" offset="0"></stop><stop stop-color="rgba(0, 25, 57, 1)" offset="0.47"></stop><stop stop-color="rgba(0, 25, 57, 1)" offset="1"></stop></linearGradient></defs></svg>