<svg width="467" height="402" viewBox="0 0 467 402" fill="none" xmlns="http://www.w3.org/2000/svg">
<path d="M181.068 393.455C181.068 398.177 149.04 402 109.533 402C70.0254 402 37.9978 398.151 37.9978 393.455C37.9978 388.76 70.0254 384.911 109.533 384.911C149.04 384.911 181.068 388.76 181.068 393.455Z" fill="#263238"/>
<path d="M288.689 307.328C289.78 308.661 290.776 310.076 291.669 311.562" stroke="#263238" stroke-width="0.5" stroke-linecap="round" stroke-linejoin="round"/>
<path d="M284.52 311.049C285.417 312.185 286.236 313.385 286.972 314.641" stroke="#263238" stroke-width="0.5" stroke-linecap="round" stroke-linejoin="round"/>
<path d="M290.258 309.394L285.844 312.793" stroke="#263238" stroke-width="0.5" stroke-linecap="round" stroke-linejoin="round"/>
<path d="M292.024 312.152C292.892 313.655 293.659 315.219 294.317 316.835" stroke="#263238" stroke-width="0.5" stroke-linecap="round" stroke-linejoin="round"/>
<path d="M287.34 315.128C288.068 316.404 288.715 317.728 289.277 319.093" stroke="#263238" stroke-width="0.5" stroke-linecap="round" stroke-linejoin="round"/>
<path d="M293.25 314.448L288.37 317.078" stroke="#263238" stroke-width="0.5" stroke-linecap="round" stroke-linejoin="round"/>
<path d="M294.574 317.476C295.205 319.107 295.721 320.783 296.119 322.493" stroke="#263238" stroke-width="0.5" stroke-linecap="round" stroke-linejoin="round"/>
<path d="M289.486 319.632C290.022 321.007 290.461 322.423 290.798 323.866" stroke="#263238" stroke-width="0.5" stroke-linecap="round" stroke-linejoin="round"/>
<path d="M295.433 319.953L290.209 321.723" stroke="#263238" stroke-width="0.5" stroke-linecap="round" stroke-linejoin="round"/>
<path d="M296.267 323.16C296.636 324.88 296.89 326.625 297.027 328.382" stroke="#263238" stroke-width="0.5" stroke-linecap="round" stroke-linejoin="round"/>
<path d="M290.921 324.43C291.232 325.879 291.445 327.35 291.558 328.83" stroke="#263238" stroke-width="0.5" stroke-linecap="round" stroke-linejoin="round"/>
<path d="M296.733 325.752L291.313 326.612" stroke="#263238" stroke-width="0.5" stroke-linecap="round" stroke-linejoin="round"/>
<path d="M297.063 329.062C297.124 329.934 297.137 330.82 297.124 331.628L297.002 334.258" stroke="#263238" stroke-width="0.5" stroke-linecap="round" stroke-linejoin="round"/>
<path d="M291.594 329.408C291.594 330.152 291.655 330.897 291.594 331.641L291.484 333.873" stroke="#263238" stroke-width="0.5" stroke-linecap="round" stroke-linejoin="round"/>
<path d="M297.125 331.692L291.644 331.641" stroke="#263238" stroke-width="0.5" stroke-linecap="round" stroke-linejoin="round"/>
<path d="M296.966 335.015C296.855 335.887 296.72 336.747 296.598 337.581C296.524 338.017 296.475 338.453 296.389 338.864L296.071 340.147" stroke="#263238" stroke-width="0.5" stroke-linecap="round" stroke-linejoin="round"/>
<path d="M291.509 334.45L291.19 336.657C291.129 337.016 291.092 337.388 291.019 337.747L290.749 338.825" stroke="#263238" stroke-width="0.5" stroke-linecap="round" stroke-linejoin="round"/>
<path d="M296.598 337.619L291.19 336.657" stroke="#263238" stroke-width="0.5" stroke-linecap="round" stroke-linejoin="round"/>
<path d="M295.911 340.865C295.728 341.737 295.486 342.595 295.188 343.431C294.893 344.252 294.611 345.086 294.305 345.907" stroke="#263238" stroke-width="0.5" stroke-linecap="round" stroke-linejoin="round"/>
<path d="M290.614 339.39C290.458 340.114 290.253 340.826 290.001 341.519C289.743 342.212 289.523 342.918 289.253 343.611" stroke="#263238" stroke-width="0.5" stroke-linecap="round" stroke-linejoin="round"/>
<path d="M295.188 343.393L290.001 341.52" stroke="#263238" stroke-width="0.5" stroke-linecap="round" stroke-linejoin="round"/>
<path d="M294.023 346.484L292.919 348.858C292.502 349.628 292.061 350.372 291.619 351.116" stroke="#263238" stroke-width="0.5" stroke-linecap="round" stroke-linejoin="round"/>
<path d="M289.02 344.124L288.088 346.138L286.997 348.05" stroke="#263238" stroke-width="0.5" stroke-linecap="round" stroke-linejoin="round"/>
<path d="M292.919 348.858L288.088 346.138" stroke="#263238" stroke-width="0.5" stroke-linecap="round" stroke-linejoin="round"/>
<path d="M291.301 351.707C290.859 352.451 290.32 353.131 289.829 353.836L289.069 354.888L288.223 355.876" stroke="#263238" stroke-width="0.5" stroke-linecap="round" stroke-linejoin="round"/>
<path d="M286.702 348.551C286.335 349.179 285.869 349.744 285.476 350.347L284.839 351.245L284.127 352.066" stroke="#263238" stroke-width="0.5" stroke-linecap="round" stroke-linejoin="round"/>
<path d="M289.805 353.836L285.452 350.347" stroke="#263238" stroke-width="0.5" stroke-linecap="round" stroke-linejoin="round"/>
<path d="M287.757 356.377C287.209 357.046 286.62 357.676 285.991 358.263C285.366 358.84 284.765 359.456 284.115 360.008" stroke="#263238" stroke-width="0.5" stroke-linecap="round" stroke-linejoin="round"/>
<path d="M283.723 352.489C283.27 353.076 282.77 353.622 282.227 354.119C281.7 354.606 281.185 355.132 280.645 355.607" stroke="#263238" stroke-width="0.5" stroke-linecap="round" stroke-linejoin="round"/>
<path d="M285.991 358.263L282.227 354.081" stroke="#263238" stroke-width="0.5" stroke-linecap="round" stroke-linejoin="round"/>
<path d="M283.588 360.431L281.565 362.009L279.419 363.382" stroke="#263238" stroke-width="0.5" stroke-linecap="round" stroke-linejoin="round"/>
<path d="M280.204 355.915L278.499 357.249L276.672 358.404" stroke="#263238" stroke-width="0.5" stroke-linecap="round" stroke-linejoin="round"/>
<path d="M281.565 362.009L278.499 357.249" stroke="#263238" stroke-width="0.5" stroke-linecap="round" stroke-linejoin="round"/>
<path d="M278.855 363.729C278.119 364.165 277.347 364.511 276.599 364.909L275.458 365.473L274.232 365.922" stroke="#263238" stroke-width="0.5" stroke-linecap="round" stroke-linejoin="round"/>
<path d="M276.194 358.712C275.581 359.071 274.968 359.366 274.294 359.7C273.975 359.854 273.656 360.033 273.325 360.175L272.332 360.559" stroke="#263238" stroke-width="0.5" stroke-linecap="round" stroke-linejoin="round"/>
<path d="M276.599 364.909L274.294 359.7" stroke="#263238" stroke-width="0.5" stroke-linecap="round" stroke-linejoin="round"/>
<path d="M273.656 366.166C272.073 366.754 270.455 367.234 268.813 367.603" stroke="#263238" stroke-width="0.5" stroke-linecap="round" stroke-linejoin="round"/>
<path d="M271.804 360.751C270.473 361.275 269.108 361.703 267.721 362.034" stroke="#263238" stroke-width="0.5" stroke-linecap="round" stroke-linejoin="round"/>
<path d="M271.253 366.962L269.781 361.432" stroke="#263238" stroke-width="0.5" stroke-linecap="round" stroke-linejoin="round"/>
<path d="M268.163 367.718L265.711 368.116C264.889 368.219 264.043 368.219 263.258 368.283" stroke="#263238" stroke-width="0.5" stroke-linecap="round" stroke-linejoin="round"/>
<path d="M267.17 362.073L265.073 362.407C264.362 362.497 263.651 362.497 262.939 362.548" stroke="#263238" stroke-width="0.5" stroke-linecap="round" stroke-linejoin="round"/>
<path d="M265.661 368.116L265.073 362.407" stroke="#263238" stroke-width="0.5" stroke-linecap="round" stroke-linejoin="round"/>
<path d="M262.498 368.308C260.819 368.325 259.14 368.24 257.47 368.052" stroke="#263238" stroke-width="0.5" stroke-linecap="round" stroke-linejoin="round"/>
<path d="M262.388 362.574C261.677 362.625 260.964 362.625 260.254 362.574C259.544 362.57 258.835 362.514 258.133 362.407" stroke="#263238" stroke-width="0.5" stroke-linecap="round" stroke-linejoin="round"/>
<path d="M259.984 368.257L260.254 362.522" stroke="#263238" stroke-width="0.5" stroke-linecap="round" stroke-linejoin="round"/>
<path d="M256.821 367.949C255.999 367.808 255.153 367.706 254.368 367.513L251.916 366.859" stroke="#263238" stroke-width="0.5" stroke-linecap="round" stroke-linejoin="round"/>
<path d="M257.581 362.266C256.882 362.138 256.171 362.073 255.484 361.907L253.424 361.355" stroke="#263238" stroke-width="0.5" stroke-linecap="round" stroke-linejoin="round"/>
<path d="M254.332 367.513L255.484 361.906" stroke="#263238" stroke-width="0.5" stroke-linecap="round" stroke-linejoin="round"/>
<path d="M251.254 366.692C249.658 366.142 248.098 365.487 246.582 364.729" stroke="#263238" stroke-width="0.5" stroke-linecap="round" stroke-linejoin="round"/>
<path d="M252.885 361.213C251.535 360.749 250.216 360.191 248.936 359.545" stroke="#263238" stroke-width="0.5" stroke-linecap="round" stroke-linejoin="round"/>
<path d="M248.887 365.781L250.886 360.444" stroke="#263238" stroke-width="0.5" stroke-linecap="round" stroke-linejoin="round"/>
<path d="M245.932 364.382L244.804 363.805L243.725 363.125C243.014 362.65 242.266 362.24 241.592 361.714" stroke="#263238" stroke-width="0.5" stroke-linecap="round" stroke-linejoin="round"/>
<path d="M248.385 359.251L247.428 358.763L246.521 358.186C245.92 357.788 245.295 357.442 244.718 356.993" stroke="#263238" stroke-width="0.5" stroke-linecap="round" stroke-linejoin="round"/>
<path d="M243.774 363.176L246.57 358.237" stroke="#263238" stroke-width="0.5" stroke-linecap="round" stroke-linejoin="round"/>
<path d="M241.113 361.355C240.451 360.829 239.765 360.316 239.115 359.764L237.251 357.968" stroke="#263238" stroke-width="0.5" stroke-linecap="round" stroke-linejoin="round"/>
<path d="M244.326 356.685C243.762 356.235 243.173 355.812 242.621 355.337L241.027 353.849" stroke="#263238" stroke-width="0.5" stroke-linecap="round" stroke-linejoin="round"/>
<path d="M239.115 359.764L242.622 355.35" stroke="#263238" stroke-width="0.5" stroke-linecap="round" stroke-linejoin="round"/>
<path d="M236.76 357.518C235.585 356.262 234.491 354.924 233.487 353.515" stroke="#263238" stroke-width="0.5" stroke-linecap="round" stroke-linejoin="round"/>
<path d="M240.635 353.464C239.65 352.395 238.729 351.264 237.876 350.077" stroke="#263238" stroke-width="0.5" stroke-linecap="round" stroke-linejoin="round"/>
<path d="M235.068 355.582L239.2 351.81" stroke="#263238" stroke-width="0.5" stroke-linecap="round" stroke-linejoin="round"/>
<path d="M233.094 352.977C232.849 352.617 232.579 352.271 232.346 351.912L231.696 350.783C231.279 350.013 230.789 349.294 230.47 348.499" stroke="#263238" stroke-width="0.5" stroke-linecap="round" stroke-linejoin="round"/>
<path d="M237.533 349.615C237.324 349.307 237.104 349.025 236.908 348.717L236.356 347.755C236.012 347.114 235.583 346.472 235.289 345.831" stroke="#263238" stroke-width="0.5" stroke-linecap="round" stroke-linejoin="round"/>
<path d="M231.696 350.783L236.356 347.755" stroke="#263238" stroke-width="0.5" stroke-linecap="round" stroke-linejoin="round"/>
<path d="M230.139 347.884C229.784 347.088 229.391 346.305 229.072 345.497L228.202 343.021" stroke="#263238" stroke-width="0.5" stroke-linecap="round" stroke-linejoin="round"/>
<path d="M235.044 345.305C234.749 344.638 234.406 344.022 234.136 343.291L233.413 341.199" stroke="#263238" stroke-width="0.5" stroke-linecap="round" stroke-linejoin="round"/>
<path d="M229.072 345.497L234.136 343.29" stroke="#263238" stroke-width="0.5" stroke-linecap="round" stroke-linejoin="round"/>
<path d="M227.981 342.366C227.5 340.684 227.127 338.969 226.865 337.234" stroke="#263238" stroke-width="0.5" stroke-linecap="round" stroke-linejoin="round"/>
<path d="M233.217 340.66C232.816 339.237 232.505 337.788 232.285 336.323" stroke="#263238" stroke-width="0.5" stroke-linecap="round" stroke-linejoin="round"/>
<path d="M227.344 339.814L232.69 338.505" stroke="#263238" stroke-width="0.5" stroke-linecap="round" stroke-linejoin="round"/>
<path d="M226.767 336.541L226.583 335.258C226.583 334.822 226.583 334.373 226.497 333.975L226.387 331.345" stroke="#263238" stroke-width="0.5" stroke-linecap="round" stroke-linejoin="round"/>
<path d="M232.199 335.746L232.04 334.643C232.021 334.271 232.021 333.899 232.04 333.527L231.929 331.307" stroke="#263238" stroke-width="0.5" stroke-linecap="round" stroke-linejoin="round"/>
<path d="M226.497 333.925L231.978 333.527" stroke="#263238" stroke-width="0.5" stroke-linecap="round" stroke-linejoin="round"/>
<path d="M226.412 330.614L226.534 327.984C226.534 327.099 226.767 326.239 226.878 325.418" stroke="#263238" stroke-width="0.5" stroke-linecap="round" stroke-linejoin="round"/>
<path d="M231.893 330.717L232.003 328.497C232.003 327.753 232.199 327.022 232.285 326.291" stroke="#263238" stroke-width="0.5" stroke-linecap="round" stroke-linejoin="round"/>
<path d="M226.534 327.984L232.003 328.497" stroke="#263238" stroke-width="0.5" stroke-linecap="round" stroke-linejoin="round"/>
<path d="M226.976 324.687C227.112 323.821 227.296 322.964 227.527 322.121C227.71 321.251 227.943 320.394 228.226 319.555" stroke="#263238" stroke-width="0.5" stroke-linecap="round" stroke-linejoin="round"/>
<path d="M232.371 325.713C232.482 324.981 232.638 324.257 232.837 323.545C232.988 322.818 233.185 322.102 233.425 321.402" stroke="#263238" stroke-width="0.5" stroke-linecap="round" stroke-linejoin="round"/>
<path d="M227.527 322.107L232.837 323.544" stroke="#263238" stroke-width="0.5" stroke-linecap="round" stroke-linejoin="round"/>
<path d="M228.447 318.939C228.754 318.118 228.987 317.271 229.367 316.476L230.458 314.102" stroke="#263238" stroke-width="0.5" stroke-linecap="round" stroke-linejoin="round"/>
<path d="M233.67 320.864C233.928 320.171 234.112 319.44 234.431 318.785L235.363 316.771" stroke="#263238" stroke-width="0.5" stroke-linecap="round" stroke-linejoin="round"/>
<path d="M229.367 316.476L234.382 318.785" stroke="#263238" stroke-width="0.5" stroke-linecap="round" stroke-linejoin="round"/>
<path d="M230.765 313.486C231.591 311.957 232.512 310.487 233.523 309.085" stroke="#263238" stroke-width="0.5" stroke-linecap="round" stroke-linejoin="round"/>
<path d="M235.559 316.257C236.265 314.967 237.047 313.725 237.901 312.537" stroke="#263238" stroke-width="0.5" stroke-linecap="round" stroke-linejoin="round"/>
<path d="M232.064 311.228L236.675 314.359" stroke="#263238" stroke-width="0.5" stroke-linecap="round" stroke-linejoin="round"/>
<path d="M233.916 308.534C234.416 307.825 234.96 307.152 235.547 306.519C236.123 305.891 236.65 305.236 237.288 304.621" stroke="#263238" stroke-width="0.5" stroke-linecap="round" stroke-linejoin="round"/>
<path d="M238.232 312.075C238.657 311.474 239.12 310.904 239.618 310.368C240.073 309.8 240.565 309.264 241.089 308.765" stroke="#263238" stroke-width="0.5" stroke-linecap="round" stroke-linejoin="round"/>
<path d="M235.547 306.52L239.617 310.369" stroke="#263238" stroke-width="0.5" stroke-linecap="round" stroke-linejoin="round"/>
<path d="M237.778 304.159C238.416 303.594 239.004 302.94 239.679 302.427L241.69 300.849" stroke="#263238" stroke-width="0.5" stroke-linecap="round" stroke-linejoin="round"/>
<path d="M241.494 308.38C242.033 307.892 242.524 307.341 243.1 306.917L244.804 305.634" stroke="#263238" stroke-width="0.5" stroke-linecap="round" stroke-linejoin="round"/>
<path d="M239.679 302.427L243.1 306.917" stroke="#263238" stroke-width="0.5" stroke-linecap="round" stroke-linejoin="round"/>
<path d="M242.254 300.464C243.656 299.499 245.123 298.642 246.643 297.898" stroke="#263238" stroke-width="0.5" stroke-linecap="round" stroke-linejoin="round"/>
<path d="M245.27 305.25C246.447 304.439 247.676 303.715 248.949 303.082" stroke="#263238" stroke-width="0.5" stroke-linecap="round" stroke-linejoin="round"/>
<path d="M244.387 299.091L247.085 304.095" stroke="#263238" stroke-width="0.5" stroke-linecap="round" stroke-linejoin="round"/>
<path d="M247.232 297.667C247.987 297.285 248.765 296.955 249.562 296.679C250.362 296.349 251.181 296.07 252.014 295.845" stroke="#263238" stroke-width="0.5" stroke-linecap="round" stroke-linejoin="round"/>
<path d="M249.488 302.799C250.124 302.48 250.779 302.206 251.45 301.978C252.108 301.693 252.784 301.457 253.473 301.272" stroke="#263238" stroke-width="0.5" stroke-linecap="round" stroke-linejoin="round"/>
<path d="M249.562 296.615L251.45 302.004" stroke="#263238" stroke-width="0.5" stroke-linecap="round" stroke-linejoin="round"/>
<path d="M252.59 295.601C253.412 295.408 254.209 295.126 255.043 294.998L257.495 294.6" stroke="#263238" stroke-width="0.5" stroke-linecap="round" stroke-linejoin="round"/>
<path d="M254.013 301.144C254.699 300.977 255.374 300.733 256.073 300.63L258.182 300.297" stroke="#263238" stroke-width="0.5" stroke-linecap="round" stroke-linejoin="round"/>
<path d="M255.043 294.998L256.073 300.63" stroke="#263238" stroke-width="0.5" stroke-linecap="round" stroke-linejoin="round"/>
<path d="M258.194 294.498C259.87 294.361 261.552 294.314 263.233 294.357" stroke="#263238" stroke-width="0.5" stroke-linecap="round" stroke-linejoin="round"/>
<path d="M258.734 300.233C260.156 300.233 261.566 300.015 262.988 300.105" stroke="#263238" stroke-width="0.5" stroke-linecap="round" stroke-linejoin="round"/>
<path d="M260.695 294.356L260.866 300.091" stroke="#263238" stroke-width="0.5" stroke-linecap="round" stroke-linejoin="round"/>
<path d="M263.871 294.382C265.548 294.486 267.216 294.714 268.862 295.062" stroke="#263238" stroke-width="0.5" stroke-linecap="round" stroke-linejoin="round"/>
<path d="M263.552 300.104C264.97 300.192 266.38 300.389 267.77 300.695" stroke="#263238" stroke-width="0.5" stroke-linecap="round" stroke-linejoin="round"/>
<path d="M266.385 294.639L265.674 300.323" stroke="#263238" stroke-width="0.5" stroke-linecap="round" stroke-linejoin="round"/>
<path d="M269.512 295.204C271.151 295.59 272.762 296.1 274.33 296.73" stroke="#263238" stroke-width="0.5" stroke-linecap="round" stroke-linejoin="round"/>
<path d="M268.31 300.797C269.694 301.126 271.054 301.555 272.381 302.08" stroke="#263238" stroke-width="0.5" stroke-linecap="round" stroke-linejoin="round"/>
<path d="M271.952 295.883L270.37 301.375" stroke="#263238" stroke-width="0.5" stroke-linecap="round" stroke-linejoin="round"/>
<path d="M274.956 296.974C276.515 297.634 278.027 298.41 279.48 299.296" stroke="#263238" stroke-width="0.5" stroke-linecap="round" stroke-linejoin="round"/>
<path d="M272.908 302.298C274.22 302.857 275.494 303.509 276.721 304.249" stroke="#263238" stroke-width="0.5" stroke-linecap="round" stroke-linejoin="round"/>
<path d="M277.249 298.051L274.845 303.209" stroke="#263238" stroke-width="0.5" stroke-linecap="round" stroke-linejoin="round"/>
<path d="M280.044 299.629C281.478 300.549 282.851 301.569 284.152 302.683" stroke="#263238" stroke-width="0.5" stroke-linecap="round" stroke-linejoin="round"/>
<path d="M277.212 304.543C278.423 305.315 279.582 306.173 280.682 307.109" stroke="#263238" stroke-width="0.5" stroke-linecap="round" stroke-linejoin="round"/>
<path d="M282.153 301.08L278.99 305.775" stroke="#263238" stroke-width="0.5" stroke-linecap="round" stroke-linejoin="round"/>
<path d="M284.667 303.12C285.939 304.265 287.139 305.495 288.26 306.802" stroke="#263238" stroke-width="0.5" stroke-linecap="round" stroke-linejoin="round"/>
<path d="M281.111 307.495C282.193 308.458 283.21 309.5 284.152 310.612" stroke="#263238" stroke-width="0.5" stroke-linecap="round" stroke-linejoin="round"/>
<path d="M286.519 304.903L282.681 308.996" stroke="#263238" stroke-width="0.5" stroke-linecap="round" stroke-linejoin="round"/>
<path d="M274.134 349.602C271.657 351.434 268.836 352.694 265.858 353.299C262.881 353.904 259.814 353.841 256.862 353.113C253.91 352.385 251.138 351.01 248.732 349.077C246.326 347.145 244.339 344.7 242.904 341.904" stroke="#263238" stroke-width="2" stroke-miterlimit="10"/>
<path d="M282.435 325.572C283.551 329.985 283.354 334.65 281.87 338.943C280.387 343.237 277.689 346.955 274.134 349.602" stroke="#22B94C" stroke-width="5" stroke-miterlimit="10"/>
<path d="M246.288 315.872C248.913 312.997 252.222 310.905 255.875 309.812C259.529 308.718 263.394 308.662 267.075 309.65C270.756 310.638 274.119 312.633 276.819 315.431C279.518 318.23 281.457 321.73 282.435 325.572" stroke="#263238" stroke-width="2" stroke-miterlimit="10"/>
<path d="M242.891 341.892C240.768 337.733 239.954 332.979 240.564 328.307C241.174 323.635 243.177 319.284 246.288 315.873" stroke="#225FB9" stroke-width="5" stroke-miterlimit="10"/>
<path d="M363.13 359.507C361.849 360.646 360.493 361.687 359.071 362.625" stroke="#263238" stroke-width="0.5" stroke-linecap="round" stroke-linejoin="round"/>
<path d="M359.562 355.132C358.486 356.101 357.342 356.984 356.141 357.775" stroke="#263238" stroke-width="0.5" stroke-linecap="round" stroke-linejoin="round"/>
<path d="M361.156 361.15L357.894 356.518" stroke="#263238" stroke-width="0.5" stroke-linecap="round" stroke-linejoin="round"/>
<path d="M358.52 362.997C357.075 363.898 355.576 364.7 354.032 365.396" stroke="#263238" stroke-width="0.5" stroke-linecap="round" stroke-linejoin="round"/>
<path d="M355.662 358.083C354.449 358.851 353.187 359.533 351.886 360.123" stroke="#263238" stroke-width="0.5" stroke-linecap="round" stroke-linejoin="round"/>
<path d="M356.312 364.28L353.811 359.173" stroke="#263238" stroke-width="0.5" stroke-linecap="round" stroke-linejoin="round"/>
<path d="M353.419 365.666C351.859 366.321 350.257 366.862 348.624 367.282" stroke="#263238" stroke-width="0.5" stroke-linecap="round" stroke-linejoin="round"/>
<path d="M351.383 360.341C350.069 360.9 348.716 361.355 347.337 361.701" stroke="#263238" stroke-width="0.5" stroke-linecap="round" stroke-linejoin="round"/>
<path d="M351.052 366.564L349.372 361.098" stroke="#263238" stroke-width="0.5" stroke-linecap="round" stroke-linejoin="round"/>
<path d="M347.987 367.436C346.348 367.824 344.684 368.086 343.008 368.219" stroke="#263238" stroke-width="0.5" stroke-linecap="round" stroke-linejoin="round"/>
<path d="M346.785 361.816C345.396 362.142 343.986 362.365 342.567 362.484" stroke="#263238" stroke-width="0.5" stroke-linecap="round" stroke-linejoin="round"/>
<path d="M345.51 367.923L344.688 362.252" stroke="#263238" stroke-width="0.5" stroke-linecap="round" stroke-linejoin="round"/>
<path d="M342.346 368.231C341.512 368.295 340.666 368.308 339.832 368.295L337.319 368.154" stroke="#263238" stroke-width="0.5" stroke-linecap="round" stroke-linejoin="round"/>
<path d="M342.015 362.548C341.304 362.548 340.593 362.612 339.882 362.548L337.76 362.445" stroke="#263238" stroke-width="0.5" stroke-linecap="round" stroke-linejoin="round"/>
<path d="M339.833 368.334L339.881 362.586" stroke="#263238" stroke-width="0.5" stroke-linecap="round" stroke-linejoin="round"/>
<path d="M336.669 368.232L334.217 367.847C333.8 367.77 333.383 367.718 332.99 367.629L331.764 367.295" stroke="#263238" stroke-width="0.5" stroke-linecap="round" stroke-linejoin="round"/>
<path d="M337.196 362.445L335.1 362.124C334.744 362.06 334.388 362.022 334.045 361.945L333.015 361.663" stroke="#263238" stroke-width="0.5" stroke-linecap="round" stroke-linejoin="round"/>
<path d="M334.168 367.783L335.1 362.125" stroke="#263238" stroke-width="0.5" stroke-linecap="round" stroke-linejoin="round"/>
<path d="M331.065 367.064C330.23 366.873 329.41 366.616 328.613 366.294C327.828 365.999 327.031 365.704 326.259 365.383" stroke="#263238" stroke-width="0.5" stroke-linecap="round" stroke-linejoin="round"/>
<path d="M332.476 361.522C331.783 361.359 331.103 361.144 330.44 360.88C329.778 360.611 329.104 360.38 328.454 360.098" stroke="#263238" stroke-width="0.5" stroke-linecap="round" stroke-linejoin="round"/>
<path d="M328.65 366.294L330.44 360.88" stroke="#263238" stroke-width="0.5" stroke-linecap="round" stroke-linejoin="round"/>
<path d="M325.695 365.075L323.426 363.933C322.703 363.497 321.992 363.035 321.268 362.573" stroke="#263238" stroke-width="0.5" stroke-linecap="round" stroke-linejoin="round"/>
<path d="M327.951 359.84L326.026 358.878L324.211 357.736" stroke="#263238" stroke-width="0.5" stroke-linecap="round" stroke-linejoin="round"/>
<path d="M323.426 363.933L326.026 358.878" stroke="#263238" stroke-width="0.5" stroke-linecap="round" stroke-linejoin="round"/>
<path d="M320.729 362.214C320.018 361.752 319.368 361.188 318.693 360.674L317.688 359.879L316.756 358.994" stroke="#263238" stroke-width="0.5" stroke-linecap="round" stroke-linejoin="round"/>
<path d="M323.733 357.429C323.132 357.044 322.58 356.556 322.004 356.146L321.158 355.479L320.373 354.722" stroke="#263238" stroke-width="0.5" stroke-linecap="round" stroke-linejoin="round"/>
<path d="M318.669 360.675L322.004 356.12" stroke="#263238" stroke-width="0.5" stroke-linecap="round" stroke-linejoin="round"/>
<path d="M316.241 358.532C315.605 357.959 315.007 357.342 314.451 356.685C313.887 356.03 313.31 355.402 312.771 354.722" stroke="#263238" stroke-width="0.5" stroke-linecap="round" stroke-linejoin="round"/>
<path d="M319.956 354.311C319.414 353.829 318.906 353.306 318.436 352.746C317.97 352.194 317.467 351.655 317.014 351.091" stroke="#263238" stroke-width="0.5" stroke-linecap="round" stroke-linejoin="round"/>
<path d="M314.451 356.685L318.436 352.746" stroke="#263238" stroke-width="0.5" stroke-linecap="round" stroke-linejoin="round"/>
<path d="M312.379 354.17L310.87 352.053L309.558 349.808" stroke="#263238" stroke-width="0.5" stroke-linecap="round" stroke-linejoin="round"/>
<path d="M316.682 350.616L315.407 348.832L314.304 346.934" stroke="#263238" stroke-width="0.5" stroke-linecap="round" stroke-linejoin="round"/>
<path d="M310.87 352.053L315.407 348.833" stroke="#263238" stroke-width="0.5" stroke-linecap="round" stroke-linejoin="round"/>
<path d="M309.215 349.218C308.798 348.448 308.467 347.64 308.099 346.857C307.915 346.459 307.719 346.062 307.56 345.664L307.118 344.381" stroke="#263238" stroke-width="0.5" stroke-linecap="round" stroke-linejoin="round"/>
<path d="M314.009 346.421C313.666 345.779 313.384 345.138 313.065 344.432C312.918 344.099 312.759 343.765 312.612 343.419L312.256 342.379" stroke="#263238" stroke-width="0.5" stroke-linecap="round" stroke-linejoin="round"/>
<path d="M308.099 346.857L313.065 344.445" stroke="#263238" stroke-width="0.5" stroke-linecap="round" stroke-linejoin="round"/>
<path d="M306.898 343.778C306.326 342.123 305.863 340.43 305.512 338.71" stroke="#263238" stroke-width="0.5" stroke-linecap="round" stroke-linejoin="round"/>
<path d="M312.06 341.84C311.565 340.445 311.156 339.018 310.834 337.568" stroke="#263238" stroke-width="0.5" stroke-linecap="round" stroke-linejoin="round"/>
<path d="M306.125 341.263L311.41 339.723" stroke="#263238" stroke-width="0.5" stroke-linecap="round" stroke-linejoin="round"/>
<path d="M305.414 338.03L305.034 335.464C304.923 334.592 304.923 333.719 304.874 332.834" stroke="#263238" stroke-width="0.5" stroke-linecap="round" stroke-linejoin="round"/>
<path d="M310.809 336.991L310.478 334.784C310.392 334.053 310.404 333.309 310.355 332.564" stroke="#263238" stroke-width="0.5" stroke-linecap="round" stroke-linejoin="round"/>
<path d="M305.034 335.413L310.478 334.784" stroke="#263238" stroke-width="0.5" stroke-linecap="round" stroke-linejoin="round"/>
<path d="M304.788 332.102C304.742 331.248 304.742 330.391 304.788 329.536C304.811 328.657 304.876 327.779 304.984 326.906" stroke="#263238" stroke-width="0.5" stroke-linecap="round" stroke-linejoin="round"/>
<path d="M310.318 331.987C310.27 331.243 310.27 330.498 310.318 329.754C310.328 329.012 310.381 328.27 310.477 327.535" stroke="#263238" stroke-width="0.5" stroke-linecap="round" stroke-linejoin="round"/>
<path d="M304.887 329.472L310.368 329.754" stroke="#263238" stroke-width="0.5" stroke-linecap="round" stroke-linejoin="round"/>
<path d="M305.181 326.162C305.328 325.303 305.414 324.417 305.598 323.596L306.223 321.03" stroke="#263238" stroke-width="0.5" stroke-linecap="round" stroke-linejoin="round"/>
<path d="M310.613 326.958C310.735 326.226 310.797 325.482 310.956 324.764L311.496 322.608" stroke="#263238" stroke-width="0.5" stroke-linecap="round" stroke-linejoin="round"/>
<path d="M305.598 323.558L310.956 324.764" stroke="#263238" stroke-width="0.5" stroke-linecap="round" stroke-linejoin="round"/>
<path d="M306.395 320.337C306.916 318.668 307.539 317.035 308.259 315.449" stroke="#263238" stroke-width="0.5" stroke-linecap="round" stroke-linejoin="round"/>
<path d="M311.631 322.043C312.071 320.631 312.599 319.251 313.212 317.912" stroke="#263238" stroke-width="0.5" stroke-linecap="round" stroke-linejoin="round"/>
<path d="M307.253 317.861L312.366 319.953" stroke="#263238" stroke-width="0.5" stroke-linecap="round" stroke-linejoin="round"/>
<path d="M308.541 314.821L309.105 313.64L309.755 312.511C310.196 311.767 310.601 310.984 311.091 310.279" stroke="#263238" stroke-width="0.5" stroke-linecap="round" stroke-linejoin="round"/>
<path d="M313.458 317.386L313.911 316.386L314.475 315.436C314.855 314.808 315.174 314.153 315.603 313.55" stroke="#263238" stroke-width="0.5" stroke-linecap="round" stroke-linejoin="round"/>
<path d="M309.755 312.511L314.475 315.436" stroke="#263238" stroke-width="0.5" stroke-linecap="round" stroke-linejoin="round"/>
<path d="M311.484 309.727C311.999 309.034 312.477 308.316 313.016 307.636L314.708 305.686" stroke="#263238" stroke-width="0.5" stroke-linecap="round" stroke-linejoin="round"/>
<path d="M315.935 313.063C316.364 312.473 316.768 311.857 317.222 311.279L318.657 309.637" stroke="#263238" stroke-width="0.5" stroke-linecap="round" stroke-linejoin="round"/>
<path d="M313.016 307.636L317.222 311.305" stroke="#263238" stroke-width="0.5" stroke-linecap="round" stroke-linejoin="round"/>
<path d="M315.15 305.173C316.356 303.949 317.633 302.805 318.975 301.747" stroke="#263238" stroke-width="0.5" stroke-linecap="round" stroke-linejoin="round"/>
<path d="M319.025 309.214C320.046 308.183 321.127 307.219 322.262 306.327" stroke="#263238" stroke-width="0.5" stroke-linecap="round" stroke-linejoin="round"/>
<path d="M317.014 303.402L320.606 307.726" stroke="#263238" stroke-width="0.5" stroke-linecap="round" stroke-linejoin="round"/>
<path d="M319.503 301.336C319.834 301.08 320.165 300.798 320.52 300.554L321.599 299.874C322.323 299.438 323.009 298.924 323.77 298.591" stroke="#263238" stroke-width="0.5" stroke-linecap="round" stroke-linejoin="round"/>
<path d="M322.715 305.981C322.997 305.763 323.279 305.532 323.574 305.326L324.481 304.749C325.076 304.345 325.69 303.972 326.32 303.633" stroke="#263238" stroke-width="0.5" stroke-linecap="round" stroke-linejoin="round"/>
<path d="M321.599 299.874L324.481 304.749" stroke="#263238" stroke-width="0.5" stroke-linecap="round" stroke-linejoin="round"/>
<path d="M324.407 298.244C325.18 297.872 325.915 297.462 326.7 297.128L329.067 296.217" stroke="#263238" stroke-width="0.5" stroke-linecap="round" stroke-linejoin="round"/>
<path d="M326.86 303.376C327.497 303.068 328.086 302.709 328.785 302.427L330.783 301.67" stroke="#263238" stroke-width="0.5" stroke-linecap="round" stroke-linejoin="round"/>
<path d="M326.651 297.128L328.748 302.427" stroke="#263238" stroke-width="0.5" stroke-linecap="round" stroke-linejoin="round"/>
<path d="M329.631 295.986C331.239 295.482 332.877 295.092 334.535 294.818" stroke="#263238" stroke-width="0.5" stroke-linecap="round" stroke-linejoin="round"/>
<path d="M331.262 301.516C332.625 301.096 334.014 300.77 335.418 300.541" stroke="#263238" stroke-width="0.5" stroke-linecap="round" stroke-linejoin="round"/>
<path d="M332.071 295.319L333.334 300.913" stroke="#263238" stroke-width="0.5" stroke-linecap="round" stroke-linejoin="round"/>
<path d="M335.198 294.716L336.424 294.523C336.841 294.523 337.258 294.523 337.65 294.433L340.164 294.305" stroke="#263238" stroke-width="0.5" stroke-linecap="round" stroke-linejoin="round"/>
<path d="M335.97 300.4L337.012 300.233C337.368 300.233 337.724 300.233 338.079 300.156L340.213 300.053" stroke="#263238" stroke-width="0.5" stroke-linecap="round" stroke-linejoin="round"/>
<path d="M337.699 294.434L338.079 300.156" stroke="#263238" stroke-width="0.5" stroke-linecap="round" stroke-linejoin="round"/>
<path d="M340.875 294.344L343.389 294.473C344.222 294.473 345.056 294.716 345.841 294.832" stroke="#263238" stroke-width="0.5" stroke-linecap="round" stroke-linejoin="round"/>
<path d="M340.765 300.079L342.898 300.194C343.609 300.194 344.296 300.399 345.007 300.489" stroke="#263238" stroke-width="0.5" stroke-linecap="round" stroke-linejoin="round"/>
<path d="M343.389 294.473L342.898 300.195" stroke="#263238" stroke-width="0.5" stroke-linecap="round" stroke-linejoin="round"/>
<path d="M346.478 294.934C347.306 295.075 348.125 295.268 348.931 295.511C349.762 295.701 350.581 295.945 351.383 296.243" stroke="#263238" stroke-width="0.5" stroke-linecap="round" stroke-linejoin="round"/>
<path d="M345.559 300.579C346.258 300.699 346.95 300.862 347.631 301.067C348.321 301.227 349.001 301.433 349.666 301.682" stroke="#263238" stroke-width="0.5" stroke-linecap="round" stroke-linejoin="round"/>
<path d="M348.992 295.511L347.631 301.067" stroke="#263238" stroke-width="0.5" stroke-linecap="round" stroke-linejoin="round"/>
<path d="M352.033 296.474C352.818 296.794 353.627 297.038 354.375 297.436L356.656 298.578" stroke="#263238" stroke-width="0.5" stroke-linecap="round" stroke-linejoin="round"/>
<path d="M350.157 301.888C350.819 302.157 351.506 302.35 352.143 302.683L354.056 303.658" stroke="#263238" stroke-width="0.5" stroke-linecap="round" stroke-linejoin="round"/>
<path d="M354.375 297.436L352.18 302.683" stroke="#263238" stroke-width="0.5" stroke-linecap="round" stroke-linejoin="round"/>
<path d="M357.232 298.95C358.695 299.811 360.1 300.776 361.438 301.836" stroke="#263238" stroke-width="0.5" stroke-linecap="round" stroke-linejoin="round"/>
<path d="M354.583 303.915C355.821 304.646 357.009 305.465 358.139 306.366" stroke="#263238" stroke-width="0.5" stroke-linecap="round" stroke-linejoin="round"/>
<path d="M359.39 300.258L356.41 305.082" stroke="#263238" stroke-width="0.5" stroke-linecap="round" stroke-linejoin="round"/>
<path d="M361.965 302.195C362.643 302.718 363.286 303.288 363.89 303.902C364.528 304.473 365.133 305.081 365.705 305.724" stroke="#263238" stroke-width="0.5" stroke-linecap="round" stroke-linejoin="round"/>
<path d="M358.593 306.712C359.697 307.645 360.749 308.643 361.745 309.701" stroke="#263238" stroke-width="0.5" stroke-linecap="round" stroke-linejoin="round"/>
<path d="M363.89 303.902L360.212 308.161" stroke="#263238" stroke-width="0.5" stroke-linecap="round" stroke-linejoin="round"/>
<path d="M366.097 306.237C366.649 306.904 367.262 307.52 367.753 308.226L369.261 310.33" stroke="#263238" stroke-width="0.5" stroke-linecap="round" stroke-linejoin="round"/>
<path d="M362.124 310.125C362.578 310.689 363.105 311.202 363.522 311.805L364.748 313.589" stroke="#263238" stroke-width="0.5" stroke-linecap="round" stroke-linejoin="round"/>
<path d="M367.802 308.226L363.522 311.806" stroke="#263238" stroke-width="0.5" stroke-linecap="round" stroke-linejoin="round"/>
<path d="M369.678 310.907C370.6 312.375 371.419 313.91 372.13 315.5" stroke="#263238" stroke-width="0.5" stroke-linecap="round" stroke-linejoin="round"/>
<path d="M365.104 314.076C365.879 315.308 366.571 316.594 367.176 317.925" stroke="#263238" stroke-width="0.5" stroke-linecap="round" stroke-linejoin="round"/>
<path d="M370.99 313.152L366.22 315.975" stroke="#263238" stroke-width="0.5" stroke-linecap="round" stroke-linejoin="round"/>
<path d="M372.424 316.129C372.784 316.922 373.099 317.736 373.368 318.567C373.678 319.384 373.94 320.219 374.153 321.069" stroke="#263238" stroke-width="0.5" stroke-linecap="round" stroke-linejoin="round"/>
<path d="M367.422 318.49C367.73 319.155 367.997 319.841 368.219 320.543C368.48 321.235 368.705 321.942 368.893 322.659" stroke="#263238" stroke-width="0.5" stroke-linecap="round" stroke-linejoin="round"/>
<path d="M373.368 318.567L368.219 320.543" stroke="#263238" stroke-width="0.5" stroke-linecap="round" stroke-linejoin="round"/>
<path d="M374.325 321.736C374.521 322.596 374.779 323.43 374.914 324.302L375.294 326.868" stroke="#263238" stroke-width="0.5" stroke-linecap="round" stroke-linejoin="round"/>
<path d="M369.028 323.224C369.187 323.943 369.42 324.648 369.518 325.38L369.849 327.586" stroke="#263238" stroke-width="0.5" stroke-linecap="round" stroke-linejoin="round"/>
<path d="M374.913 324.302L369.518 325.38" stroke="#263238" stroke-width="0.5" stroke-linecap="round" stroke-linejoin="round"/>
<path d="M375.379 327.586C375.44 329.344 375.624 331.101 375.526 332.859" stroke="#263238" stroke-width="0.5" stroke-linecap="round" stroke-linejoin="round"/>
<path d="M369.923 328.164C369.923 329.652 370.143 331.127 370.045 332.616" stroke="#263238" stroke-width="0.5" stroke-linecap="round" stroke-linejoin="round"/>
<path d="M375.514 330.217L370.033 330.396" stroke="#263238" stroke-width="0.5" stroke-linecap="round" stroke-linejoin="round"/>
<path d="M375.502 333.591C375.392 335.345 375.171 337.089 374.84 338.813" stroke="#263238" stroke-width="0.5" stroke-linecap="round" stroke-linejoin="round"/>
<path d="M370.021 333.206C369.935 334.689 369.751 336.164 369.469 337.62" stroke="#263238" stroke-width="0.5" stroke-linecap="round" stroke-linejoin="round"/>
<path d="M375.257 336.157L369.812 335.426" stroke="#263238" stroke-width="0.5" stroke-linecap="round" stroke-linejoin="round"/>
<path d="M374.68 339.441C374.311 341.157 373.824 342.842 373.221 344.484" stroke="#263238" stroke-width="0.5" stroke-linecap="round" stroke-linejoin="round"/>
<path d="M369.359 338.184C369.049 339.633 368.639 341.057 368.133 342.444" stroke="#263238" stroke-width="0.5" stroke-linecap="round" stroke-linejoin="round"/>
<path d="M374.067 341.994L368.807 340.339" stroke="#263238" stroke-width="0.5" stroke-linecap="round" stroke-linejoin="round"/>
<path d="M373.025 345.138C372.384 346.765 371.643 348.346 370.806 349.872" stroke="#263238" stroke-width="0.5" stroke-linecap="round" stroke-linejoin="round"/>
<path d="M367.937 342.995C367.398 344.368 366.771 345.701 366.061 346.985" stroke="#263238" stroke-width="0.5" stroke-linecap="round" stroke-linejoin="round"/>
<path d="M371.983 347.537L367.054 345.022" stroke="#263238" stroke-width="0.5" stroke-linecap="round" stroke-linejoin="round"/>
<path d="M370.475 350.462C369.596 351.959 368.625 353.395 367.569 354.76" stroke="#263238" stroke-width="0.5" stroke-linecap="round" stroke-linejoin="round"/>
<path d="M365.778 347.498C365.041 348.765 364.222 349.979 363.326 351.129" stroke="#263238" stroke-width="0.5" stroke-linecap="round" stroke-linejoin="round"/>
<path d="M369.089 352.669L364.614 349.346" stroke="#263238" stroke-width="0.5" stroke-linecap="round" stroke-linejoin="round"/>
<path d="M367.152 355.286C366.056 356.625 364.877 357.885 363.62 359.058" stroke="#263238" stroke-width="0.5" stroke-linecap="round" stroke-linejoin="round"/>
<path d="M362.97 351.553C362.033 352.685 361.03 353.757 359.966 354.76" stroke="#263238" stroke-width="0.5" stroke-linecap="round" stroke-linejoin="round"/>
<path d="M365.447 357.236L361.523 353.22" stroke="#263238" stroke-width="0.5" stroke-linecap="round" stroke-linejoin="round"/>
<path d="M322.715 344.265C320.965 341.673 319.761 338.722 319.182 335.606C318.604 332.49 318.665 329.282 319.36 326.193C320.056 323.103 321.37 320.204 323.217 317.686C325.064 315.168 327.4 313.09 330.072 311.587" stroke="#263238" stroke-width="2" stroke-miterlimit="10"/>
<path d="M345.694 352.964C341.473 354.13 337.012 353.923 332.907 352.369C328.801 350.814 325.246 347.988 322.715 344.265" stroke="#225FB9" stroke-width="5" stroke-miterlimit="10"/>
<path d="M354.951 315.142C357.699 317.887 359.699 321.349 360.745 325.171C361.791 328.993 361.845 333.037 360.902 336.888C359.96 340.739 358.054 344.258 355.381 347.084C352.708 349.909 349.365 351.939 345.694 352.964" stroke="#263238" stroke-width="2" stroke-miterlimit="10"/>
<path d="M330.085 311.588C334.06 309.366 338.603 308.514 343.068 309.152C347.533 309.79 351.691 311.886 354.951 315.141" stroke="#B93422" stroke-width="5" stroke-miterlimit="10"/>
<path d="M383.349 334.219C383.233 332.464 383.233 330.702 383.349 328.946" stroke="#263238" stroke-width="0.5" stroke-linecap="round" stroke-linejoin="round"/>
<path d="M388.818 333.77C388.714 332.288 388.714 330.8 388.818 329.318" stroke="#263238" stroke-width="0.5" stroke-linecap="round" stroke-linejoin="round"/>
<path d="M383.239 331.589L388.732 331.538" stroke="#263238" stroke-width="0.5" stroke-linecap="round" stroke-linejoin="round"/>
<path d="M383.362 328.266C383.508 326.514 383.766 324.773 384.134 323.057" stroke="#263238" stroke-width="0.5" stroke-linecap="round" stroke-linejoin="round"/>
<path d="M388.831 328.728C388.949 327.247 389.166 325.776 389.48 324.327" stroke="#263238" stroke-width="0.5" stroke-linecap="round" stroke-linejoin="round"/>
<path d="M383.656 325.649L389.076 326.521" stroke="#263238" stroke-width="0.5" stroke-linecap="round" stroke-linejoin="round"/>
<path d="M384.294 322.39C384.688 320.678 385.209 319.001 385.851 317.374" stroke="#263238" stroke-width="0.5" stroke-linecap="round" stroke-linejoin="round"/>
<path d="M389.615 323.763C389.949 322.322 390.388 320.911 390.927 319.542" stroke="#263238" stroke-width="0.5" stroke-linecap="round" stroke-linejoin="round"/>
<path d="M384.98 319.85L390.192 321.633" stroke="#263238" stroke-width="0.5" stroke-linecap="round" stroke-linejoin="round"/>
<path d="M386.108 316.733C386.77 315.118 387.545 313.558 388.426 312.062" stroke="#263238" stroke-width="0.5" stroke-linecap="round" stroke-linejoin="round"/>
<path d="M391.136 319.003C391.696 317.637 392.352 316.316 393.098 315.051" stroke="#263238" stroke-width="0.5" stroke-linecap="round" stroke-linejoin="round"/>
<path d="M387.188 314.359L392.055 316.989" stroke="#263238" stroke-width="0.5" stroke-linecap="round" stroke-linejoin="round"/>
<path d="M388.769 311.472C389.21 310.728 389.689 310.009 390.204 309.304L391.773 307.251" stroke="#263238" stroke-width="0.5" stroke-linecap="round" stroke-linejoin="round"/>
<path d="M393.392 314.551C393.772 313.922 394.177 313.268 394.618 312.716L395.955 310.984" stroke="#263238" stroke-width="0.5" stroke-linecap="round" stroke-linejoin="round"/>
<path d="M390.204 309.303L394.606 312.716" stroke="#263238" stroke-width="0.5" stroke-linecap="round" stroke-linejoin="round"/>
<path d="M392.19 306.725C392.766 306.083 393.416 305.442 393.956 304.839C394.25 304.531 394.532 304.197 394.851 303.902L395.82 303.068" stroke="#263238" stroke-width="0.5" stroke-linecap="round" stroke-linejoin="round"/>
<path d="M396.298 310.496L397.782 308.905C398.039 308.636 398.272 308.367 398.542 308.11L399.363 307.404" stroke="#263238" stroke-width="0.5" stroke-linecap="round" stroke-linejoin="round"/>
<path d="M393.956 304.838L397.781 308.944" stroke="#263238" stroke-width="0.5" stroke-linecap="round" stroke-linejoin="round"/>
<path d="M396.323 302.619C396.96 302.045 397.632 301.514 398.333 301.028C399.032 300.54 399.719 300.04 400.43 299.565" stroke="#263238" stroke-width="0.5" stroke-linecap="round" stroke-linejoin="round"/>
<path d="M399.792 307.071C400.323 306.598 400.889 306.169 401.485 305.788C402.073 305.378 402.649 304.942 403.25 304.505" stroke="#263238" stroke-width="0.5" stroke-linecap="round" stroke-linejoin="round"/>
<path d="M398.333 301.028L401.484 305.737" stroke="#263238" stroke-width="0.5" stroke-linecap="round" stroke-linejoin="round"/>
<path d="M401.006 299.245L403.238 297.962C403.998 297.603 404.783 297.282 405.555 296.936" stroke="#263238" stroke-width="0.5" stroke-linecap="round" stroke-linejoin="round"/>
<path d="M403.741 304.223L405.617 303.158L407.579 302.298" stroke="#263238" stroke-width="0.5" stroke-linecap="round" stroke-linejoin="round"/>
<path d="M403.238 297.988L405.617 303.158" stroke="#263238" stroke-width="0.5" stroke-linecap="round" stroke-linejoin="round"/>
<path d="M406.156 296.692C406.941 296.371 407.75 296.153 408.548 295.871L409.774 295.486L411 295.216" stroke="#263238" stroke-width="0.5" stroke-linecap="round" stroke-linejoin="round"/>
<path d="M408.081 302.067C408.743 301.785 409.442 301.618 410.117 301.374L411.122 301.041L412.177 300.823" stroke="#263238" stroke-width="0.5" stroke-linecap="round" stroke-linejoin="round"/>
<path d="M408.547 295.871L410.117 301.375" stroke="#263238" stroke-width="0.5" stroke-linecap="round" stroke-linejoin="round"/>
<path d="M411.637 295.101C412.445 294.9 413.264 294.754 414.09 294.665C414.924 294.575 415.757 294.46 416.542 294.396" stroke="#263238" stroke-width="0.5" stroke-linecap="round" stroke-linejoin="round"/>
<path d="M412.692 300.708C413.38 300.526 414.081 300.402 414.788 300.335C415.5 300.258 416.199 300.156 416.91 300.104" stroke="#263238" stroke-width="0.5" stroke-linecap="round" stroke-linejoin="round"/>
<path d="M414.114 294.639L414.813 300.336" stroke="#263238" stroke-width="0.5" stroke-linecap="round" stroke-linejoin="round"/>
<path d="M417.278 294.37L419.804 294.331L422.317 294.536" stroke="#263238" stroke-width="0.5" stroke-linecap="round" stroke-linejoin="round"/>
<path d="M417.486 300.092L419.62 300.066L421.741 300.246" stroke="#263238" stroke-width="0.5" stroke-linecap="round" stroke-linejoin="round"/>
<path d="M419.803 294.331L419.62 300.066" stroke="#263238" stroke-width="0.5" stroke-linecap="round" stroke-linejoin="round"/>
<path d="M422.967 294.6C423.801 294.703 424.623 294.882 425.42 295.036L426.646 295.28L427.872 295.639" stroke="#263238" stroke-width="0.5" stroke-linecap="round" stroke-linejoin="round"/>
<path d="M422.293 300.233C423.004 300.323 423.691 300.489 424.39 300.618C424.745 300.682 425.101 300.733 425.444 300.81L426.462 301.118" stroke="#263238" stroke-width="0.5" stroke-linecap="round" stroke-linejoin="round"/>
<path d="M425.456 295.037L424.389 300.669" stroke="#263238" stroke-width="0.5" stroke-linecap="round" stroke-linejoin="round"/>
<path d="M428.534 295.819C430.147 296.317 431.728 296.921 433.267 297.628" stroke="#263238" stroke-width="0.5" stroke-linecap="round" stroke-linejoin="round"/>
<path d="M427.001 301.336C428.363 301.752 429.698 302.258 430.999 302.85" stroke="#263238" stroke-width="0.5" stroke-linecap="round" stroke-linejoin="round"/>
<path d="M430.925 296.653L429.012 302.029" stroke="#263238" stroke-width="0.5" stroke-linecap="round" stroke-linejoin="round"/>
<path d="M433.855 297.936L436.099 299.219C436.835 299.642 437.509 300.156 438.221 300.63" stroke="#263238" stroke-width="0.5" stroke-linecap="round" stroke-linejoin="round"/>
<path d="M431.489 303.12L433.377 304.133C434.003 304.492 434.604 304.941 435.18 305.339" stroke="#263238" stroke-width="0.5" stroke-linecap="round" stroke-linejoin="round"/>
<path d="M436.1 299.155L433.377 304.133" stroke="#263238" stroke-width="0.5" stroke-linecap="round" stroke-linejoin="round"/>
<path d="M438.772 300.938C440.141 301.956 441.451 303.057 442.696 304.235" stroke="#263238" stroke-width="0.5" stroke-linecap="round" stroke-linejoin="round"/>
<path d="M435.646 305.647C436.236 306.036 436.802 306.464 437.338 306.93C437.909 307.379 438.454 307.863 438.969 308.38" stroke="#263238" stroke-width="0.5" stroke-linecap="round" stroke-linejoin="round"/>
<path d="M440.783 302.529L437.338 306.994" stroke="#263238" stroke-width="0.5" stroke-linecap="round" stroke-linejoin="round"/>
<path d="M443.162 304.711C443.751 305.34 444.389 305.93 444.94 306.597L446.547 308.624" stroke="#263238" stroke-width="0.5" stroke-linecap="round" stroke-linejoin="round"/>
<path d="M439.361 308.855C439.852 309.381 440.391 309.869 440.857 310.433L442.218 312.152" stroke="#263238" stroke-width="0.5" stroke-linecap="round" stroke-linejoin="round"/>
<path d="M444.94 306.596L440.857 310.432" stroke="#263238" stroke-width="0.5" stroke-linecap="round" stroke-linejoin="round"/>
<path d="M447.025 309.214C448.01 310.641 448.907 312.132 449.71 313.679" stroke="#263238" stroke-width="0.5" stroke-linecap="round" stroke-linejoin="round"/>
<path d="M442.574 312.588C443.397 313.8 444.154 315.059 444.842 316.36" stroke="#263238" stroke-width="0.5" stroke-linecap="round" stroke-linejoin="round"/>
<path d="M448.374 311.344L443.763 314.436" stroke="#263238" stroke-width="0.5" stroke-linecap="round" stroke-linejoin="round"/>
<path d="M449.968 314.217L450.556 315.385L451.047 316.604C451.353 317.412 451.733 318.207 451.978 319.041" stroke="#263238" stroke-width="0.5" stroke-linecap="round" stroke-linejoin="round"/>
<path d="M445.1 316.912L445.602 317.887L446.019 318.913C446.277 319.606 446.596 320.273 446.804 320.979" stroke="#263238" stroke-width="0.5" stroke-linecap="round" stroke-linejoin="round"/>
<path d="M451.047 316.604L446.019 318.875" stroke="#263238" stroke-width="0.5" stroke-linecap="round" stroke-linejoin="round"/>
<path d="M452.175 319.709C452.42 320.543 452.69 321.377 452.91 322.275L453.425 324.841" stroke="#263238" stroke-width="0.5" stroke-linecap="round" stroke-linejoin="round"/>
<path d="M447.025 321.505C447.221 322.211 447.454 322.916 447.638 323.635L448.079 325.816" stroke="#263238" stroke-width="0.5" stroke-linecap="round" stroke-linejoin="round"/>
<path d="M452.91 322.224L447.589 323.635" stroke="#263238" stroke-width="0.5" stroke-linecap="round" stroke-linejoin="round"/>
<path d="M453.56 325.482C453.799 327.221 453.934 328.974 453.965 330.73" stroke="#263238" stroke-width="0.5" stroke-linecap="round" stroke-linejoin="round"/>
<path d="M448.141 326.38C448.343 327.855 448.453 329.342 448.472 330.832" stroke="#263238" stroke-width="0.5" stroke-linecap="round" stroke-linejoin="round"/>
<path d="M453.842 328.1L448.374 328.6" stroke="#263238" stroke-width="0.5" stroke-linecap="round" stroke-linejoin="round"/>
<path d="M453.965 331.422C453.965 331.859 453.965 332.295 453.965 332.705L453.855 333.988C453.769 334.861 453.769 335.746 453.609 336.554" stroke="#263238" stroke-width="0.5" stroke-linecap="round" stroke-linejoin="round"/>
<path d="M448.484 331.409C448.484 331.781 448.484 332.153 448.484 332.525L448.386 333.629C448.353 334.372 448.284 335.113 448.177 335.848" stroke="#263238" stroke-width="0.5" stroke-linecap="round" stroke-linejoin="round"/>
<path d="M453.867 334.052L448.398 333.629" stroke="#263238" stroke-width="0.5" stroke-linecap="round" stroke-linejoin="round"/>
<path d="M453.499 337.35C453.339 338.21 453.229 339.082 453.033 339.916L452.334 342.482" stroke="#263238" stroke-width="0.5" stroke-linecap="round" stroke-linejoin="round"/>
<path d="M448.092 336.426C447.957 337.145 447.859 337.889 447.699 338.607L447.111 340.75" stroke="#263238" stroke-width="0.5" stroke-linecap="round" stroke-linejoin="round"/>
<path d="M453.033 339.942L447.699 338.607" stroke="#263238" stroke-width="0.5" stroke-linecap="round" stroke-linejoin="round"/>
<path d="M452.162 343.136C451.602 344.796 450.938 346.416 450.176 347.986" stroke="#263238" stroke-width="0.5" stroke-linecap="round" stroke-linejoin="round"/>
<path d="M447.025 341.289C446.546 342.684 445.985 344.046 445.345 345.368" stroke="#263238" stroke-width="0.5" stroke-linecap="round" stroke-linejoin="round"/>
<path d="M451.243 345.599L446.179 343.38" stroke="#263238" stroke-width="0.5" stroke-linecap="round" stroke-linejoin="round"/>
<path d="M449.87 348.602L449.293 349.77C449.085 350.154 448.84 350.514 448.619 350.886L447.246 353.093" stroke="#263238" stroke-width="0.5" stroke-linecap="round" stroke-linejoin="round"/>
<path d="M445.026 345.92L444.548 346.908C444.364 347.229 444.155 347.536 443.972 347.844L442.807 349.718" stroke="#263238" stroke-width="0.5" stroke-linecap="round" stroke-linejoin="round"/>
<path d="M448.619 350.885L443.971 347.845" stroke="#263238" stroke-width="0.5" stroke-linecap="round" stroke-linejoin="round"/>
<path d="M446.828 353.618L445.247 355.671C444.719 356.364 444.094 356.954 443.518 357.583" stroke="#263238" stroke-width="0.5" stroke-linecap="round" stroke-linejoin="round"/>
<path d="M442.451 350.167L441.114 351.899C440.673 352.489 440.134 352.977 439.643 353.516" stroke="#263238" stroke-width="0.5" stroke-linecap="round" stroke-linejoin="round"/>
<path d="M445.247 355.671L441.115 351.899" stroke="#263238" stroke-width="0.5" stroke-linecap="round" stroke-linejoin="round"/>
<path d="M443.052 358.07C442.461 358.696 441.83 359.279 441.164 359.815C440.532 360.394 439.869 360.934 439.177 361.432" stroke="#263238" stroke-width="0.5" stroke-linecap="round" stroke-linejoin="round"/>
<path d="M439.263 353.926C438.76 354.455 438.223 354.948 437.657 355.402C437.131 355.898 436.574 356.357 435.989 356.775" stroke="#263238" stroke-width="0.5" stroke-linecap="round" stroke-linejoin="round"/>
<path d="M441.164 359.815L437.657 355.401" stroke="#263238" stroke-width="0.5" stroke-linecap="round" stroke-linejoin="round"/>
<path d="M438.626 361.816C437.927 362.291 437.252 362.843 436.516 363.253L434.297 364.536" stroke="#263238" stroke-width="0.5" stroke-linecap="round" stroke-linejoin="round"/>
<path d="M435.523 357.095C434.922 357.492 434.371 357.954 433.745 358.301L431.869 359.353" stroke="#263238" stroke-width="0.5" stroke-linecap="round" stroke-linejoin="round"/>
<path d="M436.516 363.254L433.745 358.301" stroke="#263238" stroke-width="0.5" stroke-linecap="round" stroke-linejoin="round"/>
<path d="M433.709 364.806C432.181 365.541 430.608 366.167 429 366.679" stroke="#263238" stroke-width="0.5" stroke-linecap="round" stroke-linejoin="round"/>
<path d="M431.366 359.623C430.076 360.237 428.749 360.764 427.394 361.201" stroke="#263238" stroke-width="0.5" stroke-linecap="round" stroke-linejoin="round"/>
<path d="M431.379 365.833L429.405 360.482" stroke="#263238" stroke-width="0.5" stroke-linecap="round" stroke-linejoin="round"/>
<path d="M428.362 366.949C427.56 367.218 426.74 367.428 425.91 367.577C425.102 367.781 424.283 367.935 423.458 368.039" stroke="#263238" stroke-width="0.5" stroke-linecap="round" stroke-linejoin="round"/>
<path d="M426.854 361.367C426.18 361.594 425.492 361.77 424.794 361.893C424.104 362.07 423.404 362.203 422.698 362.291" stroke="#263238" stroke-width="0.5" stroke-linecap="round" stroke-linejoin="round"/>
<path d="M425.922 367.513L424.794 361.894" stroke="#263238" stroke-width="0.5" stroke-linecap="round" stroke-linejoin="round"/>
<path d="M422.796 368.052C421.962 368.173 421.123 368.25 420.282 368.283H417.768" stroke="#263238" stroke-width="0.5" stroke-linecap="round" stroke-linejoin="round"/>
<path d="M422.145 362.355C421.434 362.355 420.735 362.561 420.024 362.561H417.891" stroke="#263238" stroke-width="0.5" stroke-linecap="round" stroke-linejoin="round"/>
<path d="M420.282 368.283L420.024 362.561" stroke="#263238" stroke-width="0.5" stroke-linecap="round" stroke-linejoin="round"/>
<path d="M417.106 368.308C415.427 368.221 413.755 368.011 412.103 367.68" stroke="#263238" stroke-width="0.5" stroke-linecap="round" stroke-linejoin="round"/>
<path d="M417.339 362.574C415.919 362.495 414.506 362.319 413.109 362.048" stroke="#263238" stroke-width="0.5" stroke-linecap="round" stroke-linejoin="round"/>
<path d="M414.592 368.091L415.218 362.394" stroke="#263238" stroke-width="0.5" stroke-linecap="round" stroke-linejoin="round"/>
<path d="M411.466 367.564C409.825 367.188 408.208 366.708 406.622 366.127" stroke="#263238" stroke-width="0.5" stroke-linecap="round" stroke-linejoin="round"/>
<path d="M412.569 361.945C411.183 361.627 409.815 361.225 408.474 360.739" stroke="#263238" stroke-width="0.5" stroke-linecap="round" stroke-linejoin="round"/>
<path d="M409.013 366.923L410.509 361.406" stroke="#263238" stroke-width="0.5" stroke-linecap="round" stroke-linejoin="round"/>
<path d="M405.997 365.884C405.224 365.537 404.415 365.268 403.667 364.87L401.436 363.664" stroke="#263238" stroke-width="0.5" stroke-linecap="round" stroke-linejoin="round"/>
<path d="M407.959 360.534C407.309 360.239 406.622 360.021 405.997 359.687L404.096 358.661" stroke="#263238" stroke-width="0.5" stroke-linecap="round" stroke-linejoin="round"/>
<path d="M403.667 364.87L405.997 359.674" stroke="#263238" stroke-width="0.5" stroke-linecap="round" stroke-linejoin="round"/>
<path d="M400.847 363.343C399.449 362.368 397.99 361.483 396.69 360.367" stroke="#263238" stroke-width="0.5" stroke-linecap="round" stroke-linejoin="round"/>
<path d="M403.606 358.378C402.441 357.544 401.153 356.813 400.087 355.812" stroke="#263238" stroke-width="0.5" stroke-linecap="round" stroke-linejoin="round"/>
<path d="M398.738 361.906L401.828 357.159" stroke="#263238" stroke-width="0.5" stroke-linecap="round" stroke-linejoin="round"/>
<path d="M396.175 359.943C394.87 358.824 393.64 357.611 392.497 356.312" stroke="#263238" stroke-width="0.5" stroke-linecap="round" stroke-linejoin="round"/>
<path d="M399.658 355.504C398.557 354.563 397.525 353.538 396.568 352.438" stroke="#263238" stroke-width="0.5" stroke-linecap="round" stroke-linejoin="round"/>
<path d="M394.287 358.199L398.064 354.029" stroke="#263238" stroke-width="0.5" stroke-linecap="round" stroke-linejoin="round"/>
<path d="M392.08 355.812C390.969 354.491 389.949 353.089 389.027 351.617" stroke="#263238" stroke-width="0.5" stroke-linecap="round" stroke-linejoin="round"/>
<path d="M396.187 352.015C395.253 350.897 394.393 349.714 393.612 348.474" stroke="#263238" stroke-width="0.5" stroke-linecap="round" stroke-linejoin="round"/>
<path d="M390.486 353.772L394.839 350.283" stroke="#263238" stroke-width="0.5" stroke-linecap="round" stroke-linejoin="round"/>
<path d="M388.659 351.04C387.778 349.542 386.991 347.987 386.304 346.382" stroke="#263238" stroke-width="0.5" stroke-linecap="round" stroke-linejoin="round"/>
<path d="M393.306 347.986C392.557 346.722 391.894 345.406 391.32 344.047" stroke="#263238" stroke-width="0.5" stroke-linecap="round" stroke-linejoin="round"/>
<path d="M387.408 348.755L392.252 346.048" stroke="#263238" stroke-width="0.5" stroke-linecap="round" stroke-linejoin="round"/>
<path d="M386.035 345.753C385.386 344.131 384.845 342.463 384.416 340.762" stroke="#263238" stroke-width="0.5" stroke-linecap="round" stroke-linejoin="round"/>
<path d="M391.087 343.521C390.54 342.149 390.085 340.739 389.726 339.3" stroke="#263238" stroke-width="0.5" stroke-linecap="round" stroke-linejoin="round"/>
<path d="M385.152 343.29L390.339 341.43" stroke="#263238" stroke-width="0.5" stroke-linecap="round" stroke-linejoin="round"/>
<path d="M384.257 340.096C383.858 338.387 383.575 336.65 383.411 334.899" stroke="#263238" stroke-width="0.5" stroke-linecap="round" stroke-linejoin="round"/>
<path d="M389.578 338.723C389.249 337.278 389.012 335.812 388.867 334.335" stroke="#263238" stroke-width="0.5" stroke-linecap="round" stroke-linejoin="round"/>
<path d="M383.754 337.517L389.162 336.555" stroke="#263238" stroke-width="0.5" stroke-linecap="round" stroke-linejoin="round"/>
<path d="M418.823 308.944C421.856 308.98 424.847 309.691 427.597 311.03C430.348 312.368 432.795 314.303 434.775 316.707C436.756 319.111 438.226 321.928 439.086 324.972C439.946 328.016 440.178 331.216 439.766 334.36" stroke="#263238" stroke-width="2" stroke-miterlimit="10"/>
<path d="M398.652 323.327C400.21 319.063 402.978 315.4 406.584 312.829C410.189 310.258 414.46 308.903 418.823 308.945" stroke="#225FB9" stroke-width="5" stroke-miterlimit="10"/>
<path d="M422.501 353.349C418.765 354.067 414.913 353.731 411.342 352.376C407.771 351.022 404.609 348.696 402.181 345.64C399.752 342.583 398.146 338.905 397.526 334.984C396.905 331.062 397.294 327.039 398.652 323.327" stroke="#263238" stroke-width="2" stroke-miterlimit="10"/>
<path d="M439.815 334.36C439.208 339.03 437.207 343.38 434.098 346.789C430.989 350.199 426.93 352.495 422.501 353.349" stroke="#EDE416" stroke-width="5" stroke-miterlimit="10"/>
<path d="M213.095 231.426H234.884" stroke="#263238" stroke-width="2" stroke-linecap="round" stroke-linejoin="round"/>
<path d="M213.095 236.558H234.884" stroke="#263238" stroke-width="2" stroke-linecap="round" stroke-linejoin="round"/>
<path d="M213.095 241.677H234.884" stroke="#263238" stroke-width="2" stroke-linecap="round" stroke-linejoin="round"/>
<path d="M240.525 263.334L256.085 232.798L268.997 263.334L282.767 212.039L297.468 263.334L311.925 248.81L325.952 263.334L339.857 237.032L352.266 263.334L367.777 248.81L382.896 263.334L395.697 193.859L411.368 263.334L426.106 248.81L439.839 263.334" stroke="#263238" stroke-linecap="round" stroke-linejoin="round"/>
<path d="M439.839 257.727L426.106 223.805L411.368 224.318L395.697 168.867L382.896 184.801L367.777 223.805L352.266 225.267L339.857 203.597L325.952 238.341L311.925 245.179L297.468 228.603L282.767 198.632L268.997 216.62L256.085 210.885L240.525 257.727" stroke="#263238" stroke-linecap="round" stroke-linejoin="round"/>
<path d="M240.28 269.53V274.906" stroke="#263238" stroke-width="0.5" stroke-linecap="round" stroke-linejoin="round"/>
<path d="M268.751 269.53V274.906" stroke="#263238" stroke-width="0.5" stroke-linecap="round" stroke-linejoin="round"/>
<path d="M297.223 269.53V274.906" stroke="#263238" stroke-width="0.5" stroke-linecap="round" stroke-linejoin="round"/>
<path d="M325.695 269.53V274.906" stroke="#263238" stroke-width="0.5" stroke-linecap="round" stroke-linejoin="round"/>
<path d="M354.167 269.53V274.906" stroke="#263238" stroke-width="0.5" stroke-linecap="round" stroke-linejoin="round"/>
<path d="M382.638 269.53V274.906" stroke="#263238" stroke-width="0.5" stroke-linecap="round" stroke-linejoin="round"/>
<path d="M411.11 269.53V274.906" stroke="#263238" stroke-width="0.5" stroke-linecap="round" stroke-linejoin="round"/>
<path d="M439.594 269.53V274.906" stroke="#263238" stroke-width="0.5" stroke-linecap="round" stroke-linejoin="round"/>
<path d="M234.038 269.53H446.338" stroke="#263238" stroke-width="0.5" stroke-linecap="round" stroke-linejoin="round"/>
<path d="M375.367 171.048C374.744 171.034 374.14 170.823 373.636 170.441C373.131 170.059 372.749 169.525 372.541 168.911C372.334 168.296 372.31 167.63 372.473 167.001C372.636 166.372 372.978 165.81 373.454 165.39C385.09 155.207 393.788 141.837 398.574 126.775C403.36 111.713 404.045 95.5552 400.553 80.1094C400.366 79.2808 400.501 78.4085 400.929 77.6842C401.356 76.96 402.042 76.4432 402.833 76.2476C403.625 76.0519 404.459 76.1934 405.151 76.6409C405.843 77.0885 406.337 77.8054 406.524 78.6339C408.089 85.5888 408.879 92.7098 408.878 99.8547C408.891 113.295 406.076 126.574 400.634 138.749C395.193 150.924 387.257 161.697 377.39 170.304C376.825 170.801 376.106 171.065 375.367 171.048V171.048Z" fill="#4390FF" stroke="#263238" stroke-miterlimit="10"/>
<path d="M321.084 170.24C358.235 170.24 388.352 138.727 388.352 99.8548C388.352 60.9822 358.235 29.4697 321.084 29.4697C283.933 29.4697 253.817 60.9822 253.817 99.8548C253.817 138.727 283.933 170.24 321.084 170.24Z" stroke="#263238" stroke-miterlimit="10"/>
<path d="M321.084 48.0605C311.294 48.058 301.722 51.0935 293.58 56.7833C285.438 62.473 279.092 70.5613 275.343 80.0253C271.595 89.4892 270.613 99.9038 272.521 109.952C274.43 120 279.143 129.23 286.066 136.475C292.988 143.72 301.808 148.654 311.411 150.653C321.013 152.653 330.967 151.628 340.012 147.708C349.058 143.788 356.79 137.15 362.23 128.632C367.669 120.114 370.573 110.1 370.573 99.8551C370.573 86.1205 365.359 72.9483 356.079 63.2353C346.798 53.5224 334.211 48.064 321.084 48.0605V48.0605ZM321.084 137.87C313.889 137.86 306.858 135.618 300.881 131.426C294.903 127.235 290.248 121.283 287.504 114.324C284.759 107.364 284.048 99.7092 285.462 92.327C286.875 84.9449 290.349 78.1669 295.443 72.8504C300.538 67.5339 307.025 63.9176 314.084 62.4588C321.143 60.9999 328.457 61.7641 335.101 64.6546C341.745 67.5451 347.421 72.4322 351.41 78.6978C355.4 84.9635 357.524 92.3262 357.514 99.8551C357.514 104.858 356.571 109.813 354.74 114.434C352.909 119.056 350.225 123.255 346.841 126.79C343.458 130.326 339.441 133.129 335.022 135.039C330.602 136.949 325.866 137.928 321.084 137.922V137.87Z" fill="#5BB922" stroke="#263238" stroke-miterlimit="10"/>
<path d="M327.963 99.855C327.963 101.282 327.559 102.676 326.801 103.862C326.043 105.048 324.966 105.972 323.706 106.518C322.446 107.063 321.06 107.205 319.723 106.926C318.386 106.647 317.158 105.959 316.195 104.949C315.232 103.939 314.576 102.653 314.312 101.254C314.047 99.8542 314.186 98.4041 314.709 97.0868C315.233 95.7695 316.118 94.6442 317.253 93.8535C318.387 93.0627 319.721 92.642 321.084 92.6445C322.91 92.6479 324.66 93.4091 325.949 94.761C327.239 96.1128 327.963 97.9449 327.963 99.855Z" fill="#263238" stroke="#263238" stroke-linecap="round" stroke-linejoin="round"/>
<path d="M375.367 74.1308L423.887 60.2744" stroke="#263238" stroke-linecap="round" stroke-linejoin="round"/>
<path d="M283.698 135.817L258.439 159.72H228.803" stroke="#263238" stroke-linecap="round" stroke-linejoin="round"/>
<path d="M300.877 46.1356L286.641 6.13184H269.487" stroke="#263238" stroke-linecap="round" stroke-linejoin="round"/>
<path d="M236.65 1H258.439" stroke="#263238" stroke-width="2" stroke-linecap="round" stroke-linejoin="round"/>
<path d="M236.65 6.13184H258.439" stroke="#263238" stroke-width="2" stroke-linecap="round" stroke-linejoin="round"/>
<path d="M236.65 11.2642H258.439" stroke="#263238" stroke-width="2" stroke-linecap="round" stroke-linejoin="round"/>
<path d="M228.803 165.929H250.604" stroke="#263238" stroke-width="2" stroke-linecap="round" stroke-linejoin="round"/>
<path d="M228.803 171.048H250.604" stroke="#263238" stroke-width="2" stroke-linecap="round" stroke-linejoin="round"/>
<path d="M228.803 176.18H250.604" stroke="#263238" stroke-width="2" stroke-linecap="round" stroke-linejoin="round"/>
<path d="M429.772 47.4961H451.562" stroke="#263238" stroke-width="2" stroke-linecap="round" stroke-linejoin="round"/>
<path d="M429.772 52.6147H451.562" stroke="#263238" stroke-width="2" stroke-linecap="round" stroke-linejoin="round"/>
<path d="M429.772 57.7471H451.562" stroke="#263238" stroke-width="2" stroke-linecap="round" stroke-linejoin="round"/>
<path d="M429.772 118.483H451.562" stroke="#263238" stroke-width="2" stroke-linecap="round" stroke-linejoin="round"/>
<path d="M429.772 123.603H451.562" stroke="#263238" stroke-width="2" stroke-linecap="round" stroke-linejoin="round"/>
<path d="M429.772 128.735H451.562" stroke="#263238" stroke-width="2" stroke-linecap="round" stroke-linejoin="round"/>
<path d="M321.084 31.8174V37.0007" stroke="#263238" stroke-linecap="round" stroke-linejoin="round"/>
<path d="M304.249 34.1396L305.536 39.1433" stroke="#263238" stroke-linecap="round" stroke-linejoin="round"/>
<path d="M288.566 40.9395L291.043 45.4171" stroke="#263238" stroke-linecap="round" stroke-linejoin="round"/>
<path d="M275.103 51.7422L278.598 55.4115" stroke="#263238" stroke-linecap="round" stroke-linejoin="round"/>
<path d="M264.766 65.8428L269.058 68.4216" stroke="#263238" stroke-linecap="round" stroke-linejoin="round"/>
<path d="M258.268 82.252L263.05 83.5863" stroke="#263238" stroke-linecap="round" stroke-linejoin="round"/>
<path d="M256.06 99.8545H261.002" stroke="#263238" stroke-linecap="round" stroke-linejoin="round"/>
<path d="M258.268 117.457L263.05 116.123" stroke="#263238" stroke-linecap="round" stroke-linejoin="round"/>
<path d="M264.766 133.867L269.058 131.288" stroke="#263238" stroke-linecap="round" stroke-linejoin="round"/>
<path d="M275.103 147.967L278.598 144.297" stroke="#263238" stroke-linecap="round" stroke-linejoin="round"/>
<path d="M288.566 158.77L291.043 154.292" stroke="#263238" stroke-linecap="round" stroke-linejoin="round"/>
<path d="M304.249 165.57L305.536 160.566" stroke="#263238" stroke-linecap="round" stroke-linejoin="round"/>
<path d="M321.084 167.892V162.708" stroke="#263238" stroke-linecap="round" stroke-linejoin="round"/>
<path d="M337.908 165.57L336.632 160.566" stroke="#263238" stroke-linecap="round" stroke-linejoin="round"/>
<path d="M353.59 158.77L351.113 154.292" stroke="#263238" stroke-linecap="round" stroke-linejoin="round"/>
<path d="M367.054 147.967L363.559 144.297" stroke="#263238" stroke-linecap="round" stroke-linejoin="round"/>
<path d="M373.099 131.288L406.034 151.175H428.534" stroke="#263238" stroke-linecap="round" stroke-linejoin="round"/>
<path d="M383.889 117.457L379.107 116.123" stroke="#263238" stroke-linecap="round" stroke-linejoin="round"/>
<path d="M386.096 99.8545H381.155" stroke="#263238" stroke-linecap="round" stroke-linejoin="round"/>
<path d="M383.889 82.252L379.107 83.5863" stroke="#263238" stroke-linecap="round" stroke-linejoin="round"/>
<path d="M377.39 65.8428L373.099 68.4216" stroke="#263238" stroke-linecap="round" stroke-linejoin="round"/>
<path d="M367.054 51.7422L363.559 55.4115" stroke="#263238" stroke-linecap="round" stroke-linejoin="round"/>
<path d="M353.59 40.9395L351.113 45.4171" stroke="#263238" stroke-linecap="round" stroke-linejoin="round"/>
<path d="M337.908 34.1396L336.632 39.1433" stroke="#263238" stroke-linecap="round" stroke-linejoin="round"/>
<path d="M204.635 84.1124H229.256V68.2803H214.971L213.512 64.4185H204.635V84.1124Z" fill="#B9AA22" stroke="#263238" stroke-miterlimit="10"/>
<path d="M204.635 109.708H229.256V93.8761H214.971L213.512 90.0015H204.635V109.708Z" fill="#B9AA22" stroke="#263238" stroke-miterlimit="10"/>
<path d="M204.635 135.291H229.256V119.459H214.971L213.512 115.597H204.635V135.291Z" fill="#B9AA22" stroke="#263238" stroke-miterlimit="10"/>
<path d="M263.871 187.188C263.871 187.782 263.703 188.362 263.388 188.856C263.072 189.349 262.624 189.734 262.1 189.961C261.576 190.189 260.999 190.248 260.442 190.132C259.886 190.016 259.374 189.731 258.973 189.311C258.572 188.891 258.299 188.356 258.188 187.773C258.077 187.191 258.134 186.587 258.351 186.039C258.568 185.49 258.936 185.021 259.408 184.692C259.88 184.362 260.434 184.186 261.002 184.186C261.762 184.189 262.49 184.506 263.027 185.069C263.565 185.631 263.868 186.393 263.871 187.188Z" fill="#225FB9"/>
<path d="M274.821 190.19C276.406 190.19 277.69 188.846 277.69 187.188C277.69 185.53 276.406 184.186 274.821 184.186C273.236 184.186 271.952 185.53 271.952 187.188C271.952 188.846 273.236 190.19 274.821 190.19Z" fill="#225FB9"/>
<path d="M288.628 190.19C290.212 190.19 291.497 188.846 291.497 187.188C291.497 185.53 290.212 184.186 288.628 184.186C287.043 184.186 285.758 185.53 285.758 187.188C285.758 188.846 287.043 190.19 288.628 190.19Z" fill="#225FB9"/>
<path d="M302.434 190.19C304.019 190.19 305.303 188.846 305.303 187.188C305.303 185.53 304.019 184.186 302.434 184.186C300.85 184.186 299.565 185.53 299.565 187.188C299.565 188.846 300.85 190.19 302.434 190.19Z" fill="#225FB9"/>
<path d="M208.252 294.575H10.8011L16.9443 286.12H200.306L208.252 294.575Z" fill="white" stroke="#263238" stroke-linecap="round" stroke-linejoin="round"/>
<path d="M128.22 287.274C126.073 286.355 123.995 285.27 122.003 284.028C122.003 284.028 133.492 224.318 133.921 204.701C134.35 185.084 136.901 144.528 136.901 144.528H85.4629C85.4629 144.528 88.0133 185.097 88.4425 204.701C88.8716 224.305 97.9331 284.028 97.9331 284.028C95.9422 285.273 93.864 286.358 91.7164 287.274C88.9575 288.365 85.5119 289.84 87.2286 290.533C89.5697 291.321 92.0467 291.566 94.4875 291.252C98.0918 290.249 101.567 288.792 104.836 286.915C106.21 285.837 108.061 169.483 108.061 169.483H111.74C111.74 169.483 113.677 285.837 115.05 286.915C118.323 288.795 121.803 290.251 125.412 291.252C127.848 291.565 130.321 291.32 132.658 290.533C134.35 289.802 130.942 288.365 128.22 287.274Z" fill="#81471E" stroke="#263238" stroke-linecap="round" stroke-linejoin="round"/>
<path d="M103.782 69.1909L87.5841 83.894V146.748H129.335V83.445L116.019 69.5245L103.782 69.1909Z" fill="white" stroke="#263238" stroke-linecap="round" stroke-linejoin="round"/>
<path d="M113.726 84.6897L109.618 82.7139L106.504 84.2535L109.091 93.042L104.689 139.82L108.858 144.529L113.726 139.628L110.747 93.042L113.726 84.6897Z" fill="#B9223D"/>
<path d="M81.7721 80.7124L55.7281 115.186L73.3483 117.303L82.005 109.131L81.7721 80.7124Z" fill="white" stroke="#263238" stroke-linecap="round" stroke-linejoin="round"/>
<path d="M101.109 68.8057L81.7721 80.7119V225.293H102.47V69.5241L101.109 68.8057Z" fill="white" stroke="#263238" stroke-linecap="round" stroke-linejoin="round"/>
<path d="M136.729 80.7124L163.129 111.633L145.509 113.75L136.582 109.131L136.729 80.7124Z" fill="white" stroke="#263238" stroke-linecap="round" stroke-linejoin="round"/>
<path d="M117.38 68.8057L136.729 80.7119V225.293H116.019V69.5241L117.38 68.8057Z" fill="white" stroke="#263238" stroke-linecap="round" stroke-linejoin="round"/>
<path d="M109.729 82.7136L100.434 87.1399V74.4126H118.68V87.1399L109.729 82.7136Z" fill="white" stroke="#263238" stroke-linecap="round" stroke-linejoin="round"/>
<path d="M118.68 74.4131L109.618 82.714L100.741 74.4131V52.2686H118.68V74.4131Z" fill="white" stroke="#263238" stroke-linecap="round" stroke-linejoin="round"/>
<g style="mix-blend-mode:multiply">
<path d="M100.459 66.5474L106.896 74.348H112.745L118.68 67.484L118.116 60.9792L100.741 60.1196L100.459 66.5474Z" fill="#E1BEE7"/>
</g>
<path d="M98.7913 46.3922C98.7913 46.3922 95.4684 45.4813 95.7994 47.919C96.1305 50.3567 97.136 54.8857 98.8036 55.9377L100.459 56.9769L98.7913 46.3922Z" fill="white" stroke="#263238" stroke-linecap="round" stroke-linejoin="round"/>
<path d="M121.083 46.3922C121.083 46.3922 124.406 45.4813 124.075 47.919C123.744 50.3567 122.738 54.8857 121.083 55.9377L119.416 56.9769L121.083 46.3922Z" fill="white" stroke="#263238" stroke-linecap="round" stroke-linejoin="round"/>
<path d="M122.64 42.3504C122.65 40.4327 122.261 38.5358 121.501 36.7908C120.741 35.0458 119.628 33.4943 118.239 32.2438C116.849 30.9932 115.217 30.0734 113.454 29.5479C111.692 29.0224 109.841 28.9037 108.03 29.2002C106.219 29.4967 104.492 30.2012 102.967 31.265C101.442 32.3287 100.156 33.7264 99.1983 35.3613C98.2404 36.9962 97.6334 38.8293 97.4191 40.7339C97.2049 42.6384 97.3886 44.5689 97.9576 46.3918L101.17 62.2368L107.056 70.8714H112.733L118.435 63.353L121.917 46.7639C122.396 45.3464 122.641 43.8539 122.64 42.3504V42.3504Z" fill="white" stroke="#263238" stroke-linecap="round" stroke-linejoin="round"/>
<path d="M100.459 44.9811C100.459 44.9811 102.494 42.6717 104.321 43.4415C106.148 44.2113 105.437 46.5207 110.759 47.098C113.75 47.4783 116.785 47.1449 119.636 46.1229L119.918 41.2989L100.422 38.502L100.459 44.9811Z" fill="#E1BEE7"/>
<path d="M119.918 41.2986C119.212 42.9579 118.765 44.7253 118.594 46.5332C118.876 48.6896 119.437 50.7959 120.262 52.7942C120.262 52.7942 124.247 44.0955 123.94 40.9522C123.634 37.8088 119.636 40.2593 119.918 41.2986Z" fill="#263238" stroke="#263238" stroke-linecap="round" stroke-linejoin="round"/>
<path d="M98.9508 52.1013C98.9508 52.1013 98.9508 51.5625 99.0366 50.7413C99.2205 48.4961 99.7233 44.1596 100.949 43.3898C102.617 42.3506 102.445 36.8593 102.445 36.8593C102.445 36.8593 100.116 39.6049 108.11 42.389C116.105 45.1731 122.591 44.0954 126.92 38.168C131.248 32.2406 127.251 28.0708 126.576 30.1621C125.902 32.2534 124.578 35.0375 122.248 32.9462C119.918 30.8549 116.264 26.6724 109.606 26.6724C102.948 26.6724 99.9562 32.9462 99.9562 32.9462C98.8871 33.489 97.9797 34.3265 97.3315 35.3687C96.6834 36.4108 96.319 37.6182 96.2777 38.8608C96.339 43.0434 98.9508 52.1013 98.9508 52.1013Z" fill="#263238" stroke="#263238" stroke-linecap="round" stroke-linejoin="round"/>
<path d="M122.371 41.0675C117.662 41.2599 113.653 37.937 109.557 35.0118C105.462 32.0865 102.691 35.0118 102.691 35.0118C103.008 33.42 103.818 31.9821 104.995 30.9201C106.172 29.858 107.65 29.2309 109.202 29.1356C114.768 28.7636 116.559 36.7566 121.758 37.4623" stroke="white" stroke-width="0.5" stroke-linecap="round" stroke-linejoin="round"/>
<path d="M109.091 51.8062H97.9452L99.1714 55.6551C99.2803 56.0234 99.4981 56.346 99.7933 56.5765C100.089 56.807 100.446 56.9337 100.814 56.9381H106.565C106.949 56.9357 107.322 56.7995 107.624 56.5509C107.926 56.3023 108.14 55.9555 108.233 55.5653L109.091 51.8062Z" fill="white" stroke="#263238" stroke-linecap="round" stroke-linejoin="round"/>
<path d="M121.439 51.8062H110.305L111.531 55.6551C111.636 56.0234 111.851 56.3467 112.145 56.5777C112.438 56.8086 112.795 56.9349 113.162 56.9381H118.913C119.299 56.9386 119.675 56.8037 119.979 56.5548C120.284 56.306 120.5 55.9576 120.593 55.5653L121.439 51.8062Z" fill="white" stroke="#263238" stroke-linecap="round" stroke-linejoin="round"/>
<path d="M97.9453 51.8067L97.3936 46.123" stroke="#263238" stroke-linecap="round" stroke-linejoin="round"/>
<path d="M121.439 51.8065L122.714 46.418" stroke="#263238" stroke-linecap="round" stroke-linejoin="round"/>
<path d="M109.091 51.8062H110.305" stroke="#263238" stroke-linecap="round" stroke-linejoin="round"/>
<path d="M108.785 53.6279H110.759" stroke="#263238" stroke-linecap="round" stroke-linejoin="round"/>
<path d="M112.022 60.98C112.022 60.98 111.176 62.263 110.195 62.263C109.214 62.263 108.356 60.98 108.356 60.98" stroke="#263238" stroke-linecap="round" stroke-linejoin="round"/>
<path d="M100.79 68.8188L102.691 87.3453L102.494 129.004L91.5815 89.7702L97.835 86.8064L91.1278 83.7016L97.2341 70.6279L100.79 68.8188Z" fill="white" stroke="#263238" stroke-linecap="round" stroke-linejoin="round"/>
<path d="M118.802 68.8188L116.056 86.0495L116.154 129.607L128.023 89.7702L121.77 86.8064L128.465 83.7016L122.358 70.6279L118.802 68.8188Z" fill="white" stroke="#263238" stroke-linecap="round" stroke-linejoin="round"/>
<path d="M83.317 116.841L90.9316 112.158V116.559L83.317 116.841Z" fill="white" stroke="#263238" stroke-linecap="round" stroke-linejoin="round"/>
<path d="M120.63 107.783C120.63 107.783 117.736 103.113 116.694 103.113C115.651 103.113 113.273 107.232 113.8 108.617C114.327 110.003 117.221 106.693 117.221 106.693L119.318 112.736L120.63 107.783Z" fill="white" stroke="#263238" stroke-linecap="round" stroke-linejoin="round"/>
<path d="M119.636 109.13L115.7 109.413C114.595 110.219 113.343 110.778 112.022 111.055C110.183 111.337 109.128 111.889 110.71 113.262C112.292 114.634 115.7 112.44 115.7 112.44L119.636 114.083C119.956 113.763 120.211 113.379 120.384 112.953C120.558 112.527 120.648 112.069 120.648 111.607C120.648 111.144 120.558 110.686 120.384 110.26C120.211 109.834 119.956 109.45 119.636 109.13Z" fill="white" stroke="#263238" stroke-linecap="round" stroke-linejoin="round"/>
<path d="M121.157 117.38C122.068 118.332 123.262 118.929 124.541 119.074C126.625 119.279 130.966 115.918 130.966 115.918L130.206 112.364L124.161 110.35L121.157 117.38Z" fill="white" stroke="#263238" stroke-linecap="round" stroke-linejoin="round"/>
<path d="M120.629 106.115C120.629 106.115 116.693 111.606 116.693 112.71C116.693 113.813 119.845 117.38 121.157 117.38C122.015 117.38 124.259 115.738 125.694 114.596C125.868 114.46 126.016 114.29 126.128 114.095C126.24 113.9 126.314 113.683 126.346 113.458C126.378 113.233 126.367 113.003 126.314 112.782C126.261 112.561 126.167 112.354 126.037 112.171C124.541 110.016 121.586 106.115 120.629 106.115Z" fill="white" stroke="#263238" stroke-linecap="round" stroke-linejoin="round"/>
<path d="M118.116 114.737L122.837 108.412" stroke="#263238" stroke-linecap="round" stroke-linejoin="round"/>
<path d="M125.105 111.568L119.636 116.507" stroke="#263238" stroke-linecap="round" stroke-linejoin="round"/>
<path d="M127.704 110.876V127.914L159.144 124.065C160.612 123.851 161.954 123.078 162.913 121.895C163.872 120.712 164.381 119.201 164.343 117.65V115.199C164.327 114.352 164.149 113.516 163.819 112.742C163.489 111.968 163.014 111.271 162.421 110.693C161.829 110.115 161.131 109.668 160.37 109.377C159.609 109.087 158.8 108.959 157.991 109.002L127.704 110.876Z" fill="white" stroke="#263238" stroke-linecap="round" stroke-linejoin="round"/>
<path d="M109.557 135.086H93.0652C92.4944 135.086 91.9456 134.855 91.5341 134.441C91.1226 134.028 90.8803 133.463 90.8581 132.866L89.8649 104.64C89.8567 104.331 89.9076 104.023 90.0147 103.735C90.1218 103.447 90.2829 103.183 90.4885 102.961C90.6941 102.739 90.9401 102.562 91.212 102.44C91.4839 102.319 91.7763 102.255 92.072 102.254H110.538C110.834 102.254 111.127 102.316 111.4 102.437C111.673 102.558 111.919 102.735 112.125 102.957C112.331 103.18 112.492 103.444 112.599 103.733C112.705 104.022 112.755 104.331 112.745 104.64L111.752 132.866C111.733 133.462 111.493 134.026 111.084 134.441C110.674 134.855 110.127 135.086 109.557 135.086Z" fill="#263238" stroke="#263238" stroke-linecap="round" stroke-linejoin="round"/>
<path d="M83.317 116.829L89.6196 114.635L99.6129 114.904C99.6129 114.904 100.655 116.829 99.6129 117.111C98.5706 117.393 94.0951 117.663 94.0951 117.663L100.14 119.035C100.14 119.035 100.14 120.96 99.0856 120.96C98.0311 120.96 93.2981 123.988 91.9861 125.078C90.6741 126.169 82.5323 124.539 82.5323 124.539L78.8538 124.257V117.38L83.317 116.829Z" fill="white" stroke="#263238" stroke-linecap="round" stroke-linejoin="round"/>
<path d="M80.9505 116.007V133.058L56.7826 129.761C55.3141 129.545 53.9724 128.772 53.012 127.59C52.0515 126.408 51.5389 124.898 51.5714 123.346V120.909C51.5868 120.062 51.7645 119.228 52.0938 118.455C52.4231 117.681 52.8974 116.985 53.4886 116.407C54.0797 115.829 54.7757 115.382 55.5353 115.09C56.2949 114.799 57.1027 114.67 57.9107 114.712L80.9505 116.007Z" fill="white" stroke="#263238" stroke-linecap="round" stroke-linejoin="round"/>
<path d="M136.729 160.425H123.474V164.505H136.729V160.425Z" fill="white" stroke="#263238" stroke-linecap="round" stroke-linejoin="round"/>
<path d="M95.027 160.425H81.7721V164.505H95.027V160.425Z" fill="white" stroke="#263238" stroke-linecap="round" stroke-linejoin="round"/>
<path d="M176.163 290.2V199.633C176.164 197.124 176.676 194.644 177.665 192.359C178.655 190.073 180.099 188.035 181.901 186.38L198.43 171.253C200.202 169.63 201.621 167.63 202.594 165.386C203.567 163.143 204.07 160.707 204.071 158.244V151.482C204.071 150.236 203.836 149.002 203.38 147.851C202.923 146.7 202.255 145.654 201.412 144.773C200.569 143.893 199.569 143.195 198.468 142.719C197.367 142.243 196.188 141.999 194.997 142.001H74.9913C72.588 142.001 70.2832 143 68.5839 144.778C66.8845 146.556 65.9299 148.968 65.9299 151.482V160.707C65.9265 165.104 64.3217 169.334 61.4421 172.536L46.728 188.869C43.7991 192.137 42.1683 196.449 42.1666 200.929V290.2" stroke="#263238" stroke-width="5" stroke-linecap="round" stroke-linejoin="round"/>
<path d="M40.9773 236.557V290.199" stroke="white" stroke-linecap="round" stroke-linejoin="round"/>
<path d="M64.7037 156.538V160.707C64.7003 165.104 63.0955 169.334 60.2159 172.537L45.5018 188.869C42.5729 192.137 40.9421 196.449 40.9404 200.929V228.603" stroke="white" stroke-linecap="round" stroke-linejoin="round"/>
<path d="M78.8538 142.001H73.7652C71.3619 142.001 69.0571 143 67.3578 144.778C65.6584 146.556 64.7037 148.968 64.7037 151.482" stroke="white" stroke-linecap="round" stroke-linejoin="round"/>
<path d="M174.937 256.431V199.633C174.938 197.124 175.45 194.644 176.439 192.358C177.429 190.073 178.873 188.034 180.675 186.379L197.204 171.253C198.976 169.63 200.395 167.63 201.368 165.386C202.341 163.142 202.844 160.707 202.844 158.243V151.482" stroke="white" stroke-linecap="round" stroke-linejoin="round"/>
<path d="M174.937 290.199V263.333" stroke="white" stroke-linecap="round" stroke-linejoin="round"/>
<path d="M57.9598 272.674H24.0562V298.232H57.9598V272.674Z" fill="#DFDFDF" stroke="#263238" stroke-linecap="round" stroke-linejoin="round"/>
<path d="M57.9598 298.95H24.0562V317.117H57.9598V298.95Z" fill="#225FB9" stroke="#263238" stroke-linecap="round" stroke-linejoin="round"/>
<path d="M191.331 298.95H157.427V317.117H191.331V298.95Z" fill="#225FB9" stroke="#263238" stroke-linecap="round" stroke-linejoin="round"/>
<path d="M51.1912 331.115H30.849L24.0682 317.13H57.9719L51.1912 331.115Z" fill="#225FB9" stroke="#263238" stroke-linecap="round" stroke-linejoin="round"/>
<path d="M28.5316 317.63L32.9826 328.882" stroke="#263238" stroke-linecap="round" stroke-linejoin="round"/>
<path d="M34.7606 322.826L35.202 324.122" stroke="#263238" stroke-linecap="round" stroke-linejoin="round"/>
<path d="M32.9825 317.63L34.1597 321.081" stroke="#263238" stroke-linecap="round" stroke-linejoin="round"/>
<path d="M184.562 331.115H164.208L157.427 317.13H191.343L184.562 331.115Z" fill="#225FB9" stroke="#263238" stroke-linecap="round" stroke-linejoin="round"/>
<path d="M160.995 317.63L165.446 327.984" stroke="#263238" stroke-linecap="round" stroke-linejoin="round"/>
<path d="M165.446 317.63L167.457 322.108" stroke="#263238" stroke-linecap="round" stroke-linejoin="round"/>
<path d="M184.317 325.713L182.809 328.882" stroke="#263238" stroke-linecap="round" stroke-linejoin="round"/>
<path d="M188.155 317.63L185.077 324.122" stroke="#263238" stroke-linecap="round" stroke-linejoin="round"/>
<path d="M191.331 272.674H157.427V298.232H191.331V272.674Z" fill="#DFDFDF" stroke="#263238" stroke-linecap="round" stroke-linejoin="round"/>
<path d="M61.0497 298.218H154.362V312.46C154.362 315.862 153.07 319.126 150.77 321.532C148.471 323.938 145.352 325.289 142.1 325.289H73.1889C69.9368 325.289 66.818 323.938 64.5185 321.532C62.219 319.126 60.9271 315.862 60.9271 312.46V298.218H61.0497Z" fill="#225FB9" stroke="#263238" stroke-linecap="round" stroke-linejoin="round"/>
<path d="M208.252 294.575H10.8011V310.638H208.252V294.575Z" fill="#8FA6C8" stroke="#263238" stroke-linecap="round" stroke-linejoin="round"/>
<path d="M10.8011 304.248H71.276L88.4179 299.309H171.908L175.856 295.165" stroke="#263238" stroke-linecap="round" stroke-linejoin="round"/>
</svg>
