<?xml version="1.0" standalone="no"?><svg xmlns="http://www.w3.org/2000/svg" viewBox="0 0 1440 320"><path fill="#0099ff" fill-opacity="0.15" d="M0,32L34.3,64C68.6,96,137,160,206,165.3C274.3,171,343,117,411,96C480,75,549,85,617,101.3C685.7,117,754,139,823,138.7C891.4,139,960,117,1029,101.3C1097.1,85,1166,75,1234,74.7C1302.9,75,1371,85,1406,90.7L1440,96L1440,0L1405.7,0C1371.4,0,1303,0,1234,0C1165.7,0,1097,0,1029,0C960,0,891,0,823,0C754.3,0,686,0,617,0C548.6,0,480,0,411,0C342.9,0,274,0,206,0C137.1,0,69,0,34,0L0,0Z"></path></svg>